<svg width="350" height="300" preserveAspectRatio="none" xmlns="http://www.w3.org/2000/svg" xmlns:xlink="http://www.w3.org/1999/xlink"><defs><circle id="a" cx=".5" cy=".5" r=".4" fill="#d7d7d7" stroke="#000" stroke-width=".05"/><circle id="c" cx=".5" cy=".5" r=".4" fill="#e7e700" stroke="#000" stroke-width=".05"/><circle id="b" cx=".5" cy=".5" r=".4" fill="#e00" stroke="#000" stroke-width=".05"/></defs><g transform="matrix(50 0 0 50 -50 -50)"><path fill="#a08c64" d="M0 0h8v7H0z"/><use xlink:href="#a" x="1" y="1"/><use xlink:href="#a" x="2" y="1"/><use xlink:href="#a" x="3" y="1"/><use xlink:href="#a" x="4" y="1"/><use xlink:href="#a" x="5" y="1"/><use xlink:href="#a" x="6" y="1"/><use xlink:href="#a" x="7" y="1"/><use xlink:href="#a" x="1" y="2"/><use xlink:href="#a" x="2" y="2"/><use xlink:href="#b" x="3" y="2"/><use xlink:href="#c" x="4" y="2"/><use xlink:href="#a" x="5" y="2"/><use xlink:href="#a" x="6" y="2"/><use xlink:href="#a" x="7" y="2"/><use xlink:href="#a" x="1" y="3"/><use xlink:href="#a" x="2" y="3"/><use xlink:href="#c" x="3" y="3"/><use xlink:href="#c" x="4" y="3"/><use xlink:href="#c" x="5" y="3"/><use xlink:href="#b" x="6" y="3"/><use xlink:href="#a" x="7" y="3"/><use xlink:href="#a" x="1" y="4"/><use xlink:href="#a" x="2" y="4"/><use xlink:href="#b" x="3" y="4"/><use xlink:href="#b" x="4" y="4"/><use xlink:href="#c" x="5" y="4"/><use xlink:href="#c" x="6" y="4"/><use xlink:href="#a" x="7" y="4"/><use xlink:href="#a" x="1" y="5"/><use xlink:href="#a" x="2" y="5"/><use xlink:href="#b" x="3" y="5"/><use xlink:href="#c" x="4" y="5"/><use xlink:href="#b" x="5" y="5"/><use xlink:href="#c" x="6" y="5"/><use xlink:href="#a" x="7" y="5"/><use xlink:href="#a" x="1" y="6"/><use xlink:href="#c" x="2" y="6"/><use xlink:href="#b" x="3" y="6"/><use xlink:href="#b" x="4" y="6"/><use xlink:href="#b" x="5" y="6"/><use xlink:href="#c" x="6" y="6"/><use xlink:href="#b" x="7" y="6"/></g></svg>