<svg height="512pt" viewBox="-34 0 512 512.00107" width="512pt" xmlns="http://www.w3.org/2000/svg" xmlns:xlink="http://www.w3.org/1999/xlink"><linearGradient id="a" gradientTransform="matrix(1.06997 0 0 -1.06997 -34.133654 507.218731)" gradientUnits="userSpaceOnUse" x1="156.8503" x2="464.0351" y1="317.1991" y2="10.0143"><stop offset="0" stop-color="#662d91"/><stop offset=".437" stop-color="#3873b3"/><stop offset="1" stop-color="#00c9dd"/></linearGradient><path d="m8.535156 512h68.265625c4.710938 0 8.53125-3.820312 8.53125-8.53125v-59.734375c-.019531-1.300781-.34375-2.578125-.945312-3.730469l142.199219 71.144532c.101562.050781.21875.066406.332031.117187.109375.054687.316406.113281.476562.171875.960938.367188 1.980469.558594 3.003907.5625h204.800781c4.714843 0 8.53125-3.820312 8.53125-8.53125v-59.734375c0-4.710937-3.820313-8.53125-8.53125-8.53125h-59.734375v-51.203125h59.734375c4.714843 0 8.53125-3.820312 8.53125-8.53125v-179.203125c0-4.710937-3.820313-8.53125-8.53125-8.53125h-59.734375v-51.199219h59.734375c4.714843 0 8.53125-3.824218 8.53125-8.535156v-119.46875c0-4.710938-3.820313-8.53125-8.53125-8.53125h-136.53125c-4.714844 0-8.535157 3.820312-8.535157 8.53125v51.203125h-59.730468c-4.714844 0-8.535156 3.820313-8.535156 8.53125v59.734375c0 4.710938 3.820312 8.53125 8.535156 8.53125h59.730468v51.203125h-59.730468c-4.714844 0-8.535156 3.820313-8.535156 8.53125v229.394531l-149.785157-74.898437c-4.214843-2.105469-9.339843-.398438-11.449219 3.816406 0 .003906-.003906.003906-.003906.007813l-25.601562 51.199218c-2.125 4.207032-.4375 9.339844 3.765625 11.46875.019531.007813.039062.015625.058593.027344l35.933594 17.917969h-66.25c-4.714844 0-8.535156 3.824219-8.535156 8.535156v59.734375c0 4.710938 3.820312 8.53125 8.535156 8.53125zm418.132813-307.199219v42.667969h-187.734375v-42.667969zm-187.734375 162.132813v-42.667969h187.734375v42.667969zm0 68.265625v-51.199219h51.199218v51.199219zm119.464844-170.667969v42.667969h-51.199219v-42.667969zm68.269531 0v42.667969h-51.203125v-42.667969zm-136.535157 42.667969h-51.199218v-42.667969h51.199218zm-51.199218 187.734375v-42.667969h187.734375v42.667969zm119.464844-59.734375h-51.199219v-51.199219h51.199219zm-119.464844-315.734375v-42.664063h187.734375v42.667969h-187.734375zm187.734375-59.730469h-51.203125v-42.667969h51.203125zm-119.46875-42.667969h51.199219v42.667969h-51.199219zm0 119.46875h51.199219v51.199219h-51.199219zm-235.117188 233.316406 145.972657 73.03125c1.191406.550782 2.5.8125 3.8125.765626v46.011718l-167.75-83.875zm-55.015625 82.414063h51.199219v42.667969h-51.199219zm0 0" fill="url(#a)"/></svg>