<svg height="512pt" viewBox="-34 0 512 512.001" width="512pt" xmlns="http://www.w3.org/2000/svg"><linearGradient id="a" gradientTransform="matrix(1.06997 0 0 -1.06997 -34.134 507.219)" gradientUnits="userSpaceOnUse" x1="156.85" x2="464.035" y1="317.199" y2="10.014"><stop offset="0" stop-color="#662d91"/><stop offset=".437" stop-color="#3873b3"/><stop offset="1" stop-color="#00c9dd"/></linearGradient><path d="M8.535 512h68.266c4.71 0 8.531-3.82 8.531-8.531v-59.735a8.331 8.331 0 00-.945-3.73l142.199 71.144c.101.051.219.067.332.118.11.054.316.113.477.171.96.368 1.98.56 3.003.563H435.2a8.53 8.53 0 008.531-8.531v-59.735c0-4.71-3.82-8.53-8.53-8.53h-59.735V384H435.2a8.53 8.53 0 008.531-8.531V196.266a8.532 8.532 0 00-8.53-8.532h-59.735v-51.199H435.2c4.715 0 8.531-3.824 8.531-8.535V8.531c0-4.71-3.82-8.531-8.53-8.531H298.667a8.533 8.533 0 00-8.535 8.531v51.203h-59.73a8.533 8.533 0 00-8.536 8.532V128c0 4.71 3.82 8.531 8.535 8.531h59.73v51.203h-59.73a8.533 8.533 0 00-8.535 8.532V425.66L72.082 350.762a8.537 8.537 0 00-11.45 3.816c0 .004-.003.004-.003.008l-25.602 51.2a8.541 8.541 0 003.766 11.468c.02.008.039.016.059.027L74.785 435.2H8.535A8.536 8.536 0 000 443.734v59.735C0 508.179 3.82 512 8.535 512zm418.133-307.2v42.669H238.934V204.8zM238.934 366.935v-42.668h187.734v42.668zm0 68.265V384h51.199v51.2zm119.464-170.668V307.2H307.2v-42.668zm68.27 0V307.2h-51.203v-42.668zM290.133 307.2h-51.2v-42.668h51.2zm-51.2 187.735v-42.668h187.735v42.668zM358.398 435.2H307.2V384h51.2zM238.934 119.465V76.8h187.734v42.668H238.934zm187.734-59.73h-51.203v-42.67h51.203zm-119.469-42.67h51.2v42.668h-51.2zm0 119.47h51.2v51.198h-51.2zM72.082 369.851l145.973 73.03a8.38 8.38 0 003.812.766v46.012l-167.75-83.875zm-55.016 82.414h51.2v42.668h-51.2zm0 0" fill="url(#a)"/></svg>