<?xml version="1.0" encoding="UTF-8" standalone="no"?>
<!-- Created with Inkscape (http://www.inkscape.org/) -->
<svg
   xmlns:svg="http://www.w3.org/2000/svg"
   xmlns="http://www.w3.org/2000/svg"
   version="1.0"
   x="0"
   y="0"
   width="383"
   height="383"
   id="svg2">
  <defs
     id="defs4" />
  <g
     id="layer1">
    <rect
       width="360"
       height="360"
       x="11.5"
       y="11.5"
       style="fill:#ffffff;fill-opacity:1;stroke:none"
       id="rect1310" />
    <path
       d="M 155.5,347.5 L 203.5,347.5 L 203.5,227.5 L 227.5,227.5 L 191.5,191.5 L 155.5,227.5 L 179.5,227.5 L 179.5,323.5 L 155.5,323.5 L 155.5,347.5"
       style="fill:#ffff00;fill-opacity:1;stroke:none"
       id="path4280" />
    <path
       d="M 35.5,155.5 L 35.5,203.5 L 155.5,203.5 L 155.5,227.5 L 191.5,191.5 L 155.5,155.5 L 155.5,179.5 L 59.5,179.5 L 59.5,155.5 L 35.5,155.5"
       style="fill:#00ff00;fill-opacity:1;stroke:none"
       id="path5010" />
    <path
       d="M 227.5,35.5 L 179.5,35.5 L 179.5,155.5 L 155.5,155.5 L 191.5,191.5 L 227.5,155.5 L 203.5,155.5 L 203.5,59.5 L 227.5,59.5 L 227.5,35.5"
       style="fill:#ff0000;fill-opacity:1;stroke:none"
       id="path5759" />
    <path
       d="M 347.5,227.5 L 347.5,179.5 L 227.5,179.5 L 227.5,155.5 L 191.5,191.5 L 227.5,227.5 L 227.5,203.5 L 323.5,203.5 L 323.5,227.5 L 347.5,227.5"
       style="fill:#0000ff;fill-opacity:1;stroke:none"
       id="path5761" />
    <rect
       width="144"
       height="144"
       x="11.5"
       y="227.5"
       style="fill:#ffff00;fill-opacity:1;stroke:none"
       id="rect2307" />
    <rect
       width="144"
       height="144"
       x="11.5"
       y="11.5"
       style="fill:#00ff00;fill-opacity:1;stroke:none"
       id="rect3035" />
    <rect
       width="144"
       height="144"
       x="227.5"
       y="11.5"
       style="fill:#ff0000;fill-opacity:1;stroke:none"
       id="rect3037" />
    <rect
       width="144"
       height="144"
       x="227.5"
       y="227.5"
       style="fill:#0000ff;fill-opacity:1;stroke:none"
       id="rect3039" />
    <rect
       width="360"
       height="360"
       x="11.5"
       y="11.5"
       style="fill:none;stroke:#000000;stroke-width:1px;stroke-linecap:butt;stroke-linejoin:miter;stroke-opacity:1"
       id="rect4004" />
    <g
       transform="translate(-0.5,-0.5)"
       style="fill:none;stroke:#000000;stroke-width:0.5;stroke-miterlimit:4;stroke-dasharray:none;stroke-opacity:1"
       id="squares">
      <g
         id="g7984">
        <path
           d="M 156,372 L 156,228"
           id="path6495" />
        <path
           d="M 156,228 L 228,228"
           id="path7964" />
        <path
           d="M 156,252 L 228,252"
           id="path7968" />
        <path
           d="M 156,276 L 228,276"
           id="path7970" />
        <path
           d="M 156,300 L 228,300"
           id="path7972" />
        <path
           d="M 156,324 L 228,324"
           id="path7974" />
        <path
           d="M 156,348 L 228,348"
           id="path7976" />
        <path
           d="M 180,372 L 180,228"
           id="path7978" />
        <path
           d="M 204,372 L 204,228"
           id="path7980" />
        <path
           d="M 228,372 L 228,228"
           id="path7982" />
      </g>
      <g
         transform="matrix(0,1,-1,0,384,0)"
         id="g7996">
        <path
           d="M 156,372 L 156,228"
           id="path6495" />
        <path
           d="M 156,228 L 228,228"
           id="path7964" />
        <path
           d="M 156,252 L 228,252"
           id="path7968" />
        <path
           d="M 156,276 L 228,276"
           id="path7970" />
        <path
           d="M 156,300 L 228,300"
           id="path7972" />
        <path
           d="M 156,324 L 228,324"
           id="path7974" />
        <path
           d="M 156,348 L 228,348"
           id="path7976" />
        <path
           d="M 180,372 L 180,228"
           id="path7978" />
        <path
           d="M 204,372 L 204,228"
           id="path7980" />
        <path
           d="M 228,372 L 228,228"
           id="path7982" />
      </g>
      <g
         transform="matrix(-1,0,0,-1,384,384)"
         id="g8018">
        <path
           d="M 156,372 L 156,228"
           id="path6495" />
        <path
           d="M 156,228 L 228,228"
           id="path7964" />
        <path
           d="M 156,252 L 228,252"
           id="path7968" />
        <path
           d="M 156,276 L 228,276"
           id="path7970" />
        <path
           d="M 156,300 L 228,300"
           id="path7972" />
        <path
           d="M 156,324 L 228,324"
           id="path7974" />
        <path
           d="M 156,348 L 228,348"
           id="path7976" />
        <path
           d="M 180,372 L 180,228"
           id="path7978" />
        <path
           d="M 204,372 L 204,228"
           id="path7980" />
        <path
           d="M 228,372 L 228,228"
           id="path7982" />
      </g>
      <g
         transform="matrix(0,-1,1,0,0,384)"
         id="g8040">
        <path
           d="M 156,372 L 156,228"
           id="path6495" />
        <path
           d="M 156,228 L 228,228"
           id="path7964" />
        <path
           d="M 156,252 L 228,252"
           id="path7968" />
        <path
           d="M 156,276 L 228,276"
           id="path7970" />
        <path
           d="M 156,300 L 228,300"
           id="path7972" />
        <path
           d="M 156,324 L 228,324"
           id="path7974" />
        <path
           d="M 156,348 L 228,348"
           id="path7976" />
        <path
           d="M 180,372 L 180,228"
           id="path7978" />
        <path
           d="M 204,372 L 204,228"
           id="path7980" />
        <path
           d="M 228,372 L 228,228"
           id="path7982" />
      </g>
      <path
         d="M 156,228 L 228,156"
         id="path8062" />
      <path
         d="M 156,156 L 228,228"
         id="path8064" />
    </g>
    <g
       id="g3221">
      <path
         d="M 83.5,227.5 L 155.5,299.5 L 83.5,371.5 L 11.5,299.5 L 83.5,227.5 z "
         style="fill:#ffffff;fill-opacity:1;stroke:#000000;stroke-width:0.5;stroke-linecap:butt;stroke-linejoin:miter;stroke-miterlimit:4;stroke-dasharray:none;stroke-opacity:1"
         id="path3041" />
      <path
         d="M 83.5,251.5 L 131.5,299.5 L 83.5,347.5 L 35.5,299.5 L 83.5,251.5 z "
         style="fill:none;stroke:#000000;stroke-width:0.5;stroke-linecap:butt;stroke-linejoin:miter;stroke-miterlimit:4;stroke-dasharray:none;stroke-opacity:1"
         id="path3176" />
      <g
         style="fill:#ffff00;fill-opacity:1;stroke:#000000;stroke-width:0.5;stroke-linecap:butt;stroke-linejoin:bevel;stroke-miterlimit:4;stroke-dasharray:none;stroke-opacity:1"
         id="g3215">
        <rect
           width="24"
           height="24"
           x="71.5"
           y="263.5"
           id="rect3178" />
        <rect
           width="24"
           height="24"
           x="47.5"
           y="287.5"
           id="rect3180" />
        <rect
           width="24"
           height="24"
           x="71.5"
           y="311.5"
           id="rect3182" />
        <rect
           width="24"
           height="24"
           x="95.5"
           y="287.5"
           id="rect3184" />
      </g>
    </g>
    <g
       transform="translate(0,-216)"
       id="g3230">
      <path
         d="M 83.5,227.5 L 155.5,299.5 L 83.5,371.5 L 11.5,299.5 L 83.5,227.5 z "
         style="fill:#ffffff;fill-opacity:1;stroke:#000000;stroke-width:0.5;stroke-linecap:butt;stroke-linejoin:miter;stroke-miterlimit:4;stroke-dasharray:none;stroke-opacity:1"
         id="path3041" />
      <path
         d="M 83.5,251.5 L 131.5,299.5 L 83.5,347.5 L 35.5,299.5 L 83.5,251.5 z "
         style="fill:none;stroke:#000000;stroke-width:0.5;stroke-linecap:butt;stroke-linejoin:miter;stroke-miterlimit:4;stroke-dasharray:none;stroke-opacity:1"
         id="path3176" />
      <g
         style="fill:#00ff00;fill-opacity:1;stroke:#000000;stroke-width:0.5;stroke-linecap:butt;stroke-linejoin:bevel;stroke-miterlimit:4;stroke-dasharray:none;stroke-opacity:1"
         id="g3236">
        <rect
           width="24"
           height="24"
           x="71.5"
           y="263.5"
           id="rect3178" />
        <rect
           width="24"
           height="24"
           x="47.5"
           y="287.5"
           id="rect3180" />
        <rect
           width="24"
           height="24"
           x="71.5"
           y="311.5"
           id="rect3182" />
        <rect
           width="24"
           height="24"
           x="95.5"
           y="287.5"
           id="rect3184" />
      </g>
    </g>
    <g
       transform="translate(216,0)"
       id="g3246">
      <path
         d="M 83.5,227.5 L 155.5,299.5 L 83.5,371.5 L 11.5,299.5 L 83.5,227.5 z "
         style="fill:#ffffff;fill-opacity:1;stroke:#000000;stroke-width:0.5;stroke-linecap:butt;stroke-linejoin:miter;stroke-miterlimit:4;stroke-dasharray:none;stroke-opacity:1"
         id="path3041" />
      <path
         d="M 83.5,251.5 L 131.5,299.5 L 83.5,347.5 L 35.5,299.5 L 83.5,251.5 z "
         style="fill:none;stroke:#000000;stroke-width:0.5;stroke-linecap:butt;stroke-linejoin:miter;stroke-miterlimit:4;stroke-dasharray:none;stroke-opacity:1"
         id="path3176" />
      <g
         style="fill:#0000ff;fill-opacity:1;stroke:#000000;stroke-width:0.5;stroke-linecap:butt;stroke-linejoin:bevel;stroke-miterlimit:4;stroke-dasharray:none;stroke-opacity:1"
         id="g3252">
        <rect
           width="24"
           height="24"
           x="71.5"
           y="263.5"
           id="rect3178" />
        <rect
           width="24"
           height="24"
           x="47.5"
           y="287.5"
           id="rect3180" />
        <rect
           width="24"
           height="24"
           x="71.5"
           y="311.5"
           id="rect3182" />
        <rect
           width="24"
           height="24"
           x="95.5"
           y="287.5"
           id="rect3184" />
      </g>
    </g>
    <g
       transform="translate(216,-216)"
       id="g3262">
      <path
         d="M 83.5,227.5 L 155.5,299.5 L 83.5,371.5 L 11.5,299.5 L 83.5,227.5 z "
         style="fill:#ffffff;fill-opacity:1;stroke:#000000;stroke-width:0.5;stroke-linecap:butt;stroke-linejoin:miter;stroke-miterlimit:4;stroke-dasharray:none;stroke-opacity:1"
         id="path3041" />
      <path
         d="M 83.5,251.5 L 131.5,299.5 L 83.5,347.5 L 35.5,299.5 L 83.5,251.5 z "
         style="fill:none;stroke:#000000;stroke-width:0.5;stroke-linecap:butt;stroke-linejoin:miter;stroke-miterlimit:4;stroke-dasharray:none;stroke-opacity:1"
         id="path3176" />
      <g
         style="fill:#ff0000;fill-opacity:1;stroke:#000000;stroke-width:0.5;stroke-linecap:butt;stroke-linejoin:bevel;stroke-miterlimit:4;stroke-dasharray:none;stroke-opacity:1"
         id="g3268">
        <rect
           width="24"
           height="24"
           x="71.5"
           y="263.5"
           id="rect3178" />
        <rect
           width="24"
           height="24"
           x="47.5"
           y="287.5"
           id="rect3180" />
        <rect
           width="24"
           height="24"
           x="71.5"
           y="311.5"
           id="rect3182" />
        <rect
           width="24"
           height="24"
           x="95.5"
           y="287.5"
           id="rect3184" />
      </g>
    </g>
  </g>
</svg>
