<?xml version="1.0" standalone="no"?>
<!DOCTYPE svg PUBLIC "-//W3C//DTD SVG 20010904//EN"
 "http://www.w3.org/TR/2001/REC-SVG-20010904/DTD/svg10.dtd">
<svg version="1.0" xmlns="http://www.w3.org/2000/svg"
 width="1279.000000pt" height="1280.000000pt" viewBox="0 0 1279.000000 1280.000000"
 preserveAspectRatio="xMidYMid meet">
<g transform="translate(0.000000,1280.000000) scale(0.100000,-0.100000)"
fill="#000000" stroke="none">
<path d="M4128 12512 c-12 -45 -131 -51 -333 -16 -126 22 -141 20 -149 -18 -9
-44 14 -62 69 -54 22 3 128 9 235 12 238 8 255 14 207 70 -23 26 -24 27 -29 6z"/>
<path d="M3302 12481 c-34 -10 -66 -22 -70 -26 -8 -9 160 1 200 12 15 5 29 13
30 18 5 17 -94 15 -160 -4z"/>
<path d="M3529 12457 c-43 -39 -281 -107 -371 -107 -26 0 -37 -6 -50 -29 -9
-17 -39 -42 -70 -57 -36 -19 -47 -29 -36 -32 24 -5 573 176 600 197 19 16 19
18 3 34 -22 23 -45 21 -76 -6z"/>
<path d="M3875 12379 c-77 -3 -151 -7 -165 -8 -15 -1 -20 -5 -15 -10 6 -6 84
-12 175 -15 271 -9 321 -15 340 -38 12 -15 38 -24 100 -34 53 -9 111 -26 158
-49 104 -49 159 -45 119 9 -9 12 -41 22 -103 33 -120 20 -159 39 -159 78 0 29
-1 30 -60 36 -74 8 -207 8 -390 -2z"/>
<path d="M3443 12305 c-28 -12 -33 -19 -33 -50 0 -47 -21 -54 -61 -21 -35 30
-81 34 -134 12 -24 -10 -35 -22 -35 -35 0 -24 -28 -41 -65 -41 -37 0 -190 -52
-267 -91 -61 -30 -159 -109 -136 -109 6 0 79 29 162 64 83 35 184 74 225 86
42 13 87 35 106 51 36 32 45 29 45 -12 0 -40 -32 -61 -168 -107 -163 -56 -329
-130 -368 -164 -17 -15 -43 -28 -57 -28 -14 0 -38 -5 -52 -12 l-26 -12 21 -16
c19 -14 21 -20 11 -38 -13 -25 -80 -62 -111 -62 -11 0 -20 -5 -20 -11 0 -21
21 -49 38 -49 9 0 58 37 107 81 149 134 303 228 458 279 69 22 92 21 66 -5
-23 -23 -196 -105 -252 -119 -35 -9 -53 -19 -58 -34 -5 -12 -29 -32 -54 -44
-34 -17 -48 -30 -52 -50 -3 -17 -15 -31 -32 -37 -14 -6 -42 -20 -61 -31 -19
-11 -42 -20 -52 -20 -10 0 -32 -13 -50 -28 -18 -15 -76 -54 -128 -87 -679
-420 -1208 -1063 -1485 -1805 -165 -440 -245 -914 -232 -1365 6 -178 26 -405
46 -503 7 -35 5 -46 -10 -66 -18 -23 -18 -24 1 -29 11 -3 20 -12 20 -20 0 -23
-56 -65 -95 -73 -19 -3 -35 -11 -35 -16 0 -9 18 -47 26 -57 2 -2 27 15 54 38
45 38 80 48 80 24 0 -5 -31 -40 -68 -78 -77 -80 -127 -143 -119 -151 2 -3 46
29 96 71 50 42 95 74 101 70 27 -17 4 -54 -105 -166 -63 -66 -119 -128 -125
-139 -23 -43 15 -17 126 88 64 59 119 108 124 110 5 2 14 -7 20 -19 11 -19 1
-32 -117 -148 -70 -70 -148 -144 -173 -164 -35 -28 -42 -39 -33 -48 19 -19 80
27 214 158 64 62 120 113 126 113 6 0 14 -7 17 -16 4 -11 -31 -55 -113 -142
-162 -171 -263 -303 -246 -320 3 -3 16 6 28 20 12 14 34 29 49 32 21 5 30 15
38 45 12 44 78 124 121 147 27 13 30 13 36 -2 4 -11 -5 -26 -31 -48 -23 -20
-41 -47 -49 -76 -8 -25 -32 -70 -55 -100 -83 -109 -149 -273 -117 -290 10 -6
26 23 49 90 31 88 173 297 290 425 44 48 46 49 61 31 8 -11 15 -26 15 -33 0
-7 -39 -55 -87 -106 -116 -123 -163 -184 -163 -210 0 -12 -9 -33 -20 -47 -22
-28 -27 -70 -8 -70 7 0 22 12 34 27 21 26 22 27 47 10 15 -9 30 -17 35 -17 9
0 52 85 52 103 0 6 -14 -4 -30 -23 -38 -47 -55 -32 -35 32 7 25 21 60 30 77
17 34 142 171 156 171 12 0 39 -55 39 -78 0 -25 -93 -224 -112 -240 -32 -26
-110 -243 -94 -259 2 -3 51 88 107 201 101 205 119 233 139 221 16 -10 12 -34
-10 -66 -20 -27 -100 -200 -114 -246 -4 -14 -3 -23 3 -23 5 0 33 44 61 98 28
54 62 111 75 127 l23 29 21 -34 c11 -19 21 -39 21 -45 -1 -5 -18 -22 -39 -36
-43 -30 -87 -109 -76 -137 8 -20 14 -13 65 71 20 32 36 47 51 47 28 0 23 -29
-26 -138 -29 -65 -38 -101 -42 -161 -4 -52 -2 -80 5 -85 7 -4 13 3 16 16 31
141 49 204 71 253 25 58 25 58 46 39 24 -22 23 -33 -21 -157 -43 -121 -34
-140 14 -28 39 93 55 107 79 70 7 -12 3 -30 -17 -71 -31 -63 -45 -128 -27
-128 6 0 25 28 42 63 39 77 36 74 56 54 16 -16 16 -21 -2 -89 -10 -40 -22 -79
-28 -85 -5 -7 -27 -13 -49 -13 -35 0 -40 -4 -52 -32 -7 -18 -24 -84 -36 -146
-17 -87 -20 -116 -11 -125 18 -18 27 4 35 77 8 81 22 128 47 160 24 31 64 34
78 7 8 -15 4 -26 -19 -56 -31 -39 -50 -91 -50 -138 0 -21 7 -30 27 -38 16 -6
38 -20 50 -31 29 -27 63 -118 63 -167 0 -75 -56 -80 -74 -8 -5 21 -13 37 -18
37 -13 0 -9 -68 6 -105 17 -39 30 -43 58 -18 28 25 44 11 123 -115 90 -143
130 -190 201 -237 59 -40 249 -119 310 -131 48 -9 92 12 109 51 7 18 34 58 59
89 44 55 59 96 34 96 -15 0 -92 -81 -123 -130 -24 -38 -28 -40 -73 -40 -117 0
-249 59 -354 159 -170 160 -262 374 -274 641 -4 84 -11 133 -21 148 -13 22
-13 26 6 46 12 12 21 32 21 43 0 27 10 53 20 53 4 0 15 -11 24 -25 13 -20 18
-58 21 -183 4 -198 22 -295 75 -416 23 -53 43 -108 44 -122 1 -19 13 -35 41
-54 48 -33 112 -101 150 -158 15 -23 36 -44 46 -47 25 -8 161 11 227 32 51 15
55 20 98 94 25 44 50 81 54 84 5 3 18 -4 29 -16 11 -12 30 -27 43 -33 25 -13
28 -37 14 -113 -6 -35 -5 -43 7 -43 8 0 17 -10 21 -22 9 -38 29 -5 34 57 4 49
7 56 25 53 22 -3 33 -19 42 -60 6 -30 32 -37 53 -16 16 16 26 4 19 -24 -4 -15
-21 -30 -46 -41 -28 -13 -53 -37 -91 -92 -47 -69 -67 -85 -83 -69 -3 4 1 24
10 45 26 66 -6 151 -48 128 -29 -15 -25 -49 6 -49 19 0 25 -5 25 -23 0 -43
-49 -65 -68 -31 -8 15 -13 14 -43 -9 -73 -55 -192 -60 -296 -13 -31 15 -58 24
-60 22 -9 -9 79 -65 142 -90 94 -37 141 -43 166 -20 39 35 135 18 156 -29 8
-18 17 -11 87 72 81 96 106 110 106 63 0 -37 -50 -112 -125 -188 -77 -77 -117
-89 -253 -81 -265 17 -405 109 -571 374 -45 73 -87 135 -92 139 -25 15 -19
-11 20 -89 104 -210 320 -405 510 -461 99 -29 249 -17 336 27 56 28 78 47 125
106 40 50 76 74 131 85 15 3 30 13 33 22 10 27 0 28 -33 4 -35 -24 -51 -20
-51 14 0 34 19 46 72 46 44 0 48 2 54 28 10 47 13 52 29 52 20 0 19 -15 -6
-86 -11 -32 -23 -89 -26 -126 -7 -76 -11 -79 -73 -48 -22 11 -53 20 -70 20
-26 0 -30 -4 -30 -25 0 -79 -129 -185 -225 -185 -11 0 -26 -5 -33 -12 -16 -16
-15 -70 1 -89 11 -15 61 -49 71 -49 8 0 -12 70 -24 85 -14 17 -4 55 14 55 8 0
19 -7 26 -15 20 -24 48 -18 94 19 49 41 82 55 125 54 17 -1 39 6 49 16 11 9
30 15 43 14 21 -3 26 4 41 52 9 30 29 108 43 173 26 116 38 135 64 103 8 -9 8
-32 2 -77 -10 -74 -8 -81 22 -94 19 -9 22 -17 20 -63 -3 -60 -52 -214 -88
-276 -14 -23 -36 -53 -50 -66 -30 -28 -32 -46 -5 -62 11 -7 20 -18 20 -24 0
-23 -163 -154 -192 -154 -22 0 -2 30 54 80 83 76 72 96 -14 25 -83 -69 -134
-93 -155 -73 -27 28 -10 45 90 87 34 14 47 25 47 40 0 18 -3 19 -25 11 -43
-16 -135 -79 -142 -96 -10 -26 10 -47 58 -65 43 -16 61 -40 40 -54 -6 -3 -11
-13 -11 -21 0 -20 92 28 195 101 147 105 168 136 121 178 l-24 21 23 46 c47
95 130 394 123 448 -4 37 25 41 56 7 14 -15 30 -24 35 -20 6 3 20 1 31 -5 24
-13 26 -49 5 -137 -14 -61 -12 -93 6 -93 14 0 26 38 33 110 9 79 16 94 45 85
42 -13 20 -124 -63 -318 -25 -60 -46 -113 -46 -119 0 -5 14 2 31 16 24 21 34
24 45 15 22 -18 17 -33 -24 -86 -70 -88 -78 -116 -32 -107 40 8 49 -16 21 -55
-53 -75 7 -32 153 109 130 126 206 214 206 241 0 33 -17 21 -49 -36 -18 -31
-43 -61 -60 -70 -68 -35 -67 -13 4 95 33 49 63 108 72 143 9 32 22 61 29 64 7
2 74 -11 151 -30 499 -126 1011 -145 1524 -57 344 60 653 162 996 331 100 49
185 89 189 89 4 0 37 -22 74 -50 94 -70 213 -127 327 -157 128 -33 306 -37
431 -8 l84 18 293 -294 293 -294 5 -51 c8 -68 40 -157 82 -226 19 -31 35 -59
35 -63 0 -3 -23 -31 -52 -61 l-52 -55 1687 -1687 1686 -1686 65 62 65 63 65
-45 c178 -122 377 -137 566 -45 115 57 192 134 249 249 92 189 77 388 -45 566
l-45 65 57 59 57 60 -191 197 c-169 176 -2004 2009 -2859 2858 l-323 320 -63
-63 c-34 -34 -68 -62 -74 -62 -6 0 -38 16 -70 35 -72 43 -159 73 -232 81 l-56
7 -233 231 c-129 127 -255 256 -282 286 l-48 56 20 69 c25 89 36 303 19 400
-24 136 -93 294 -175 399 -25 33 -46 63 -46 68 0 5 21 45 46 88 40 69 48 79
64 70 14 -7 23 -6 34 6 20 19 20 20 0 53 -15 26 -14 31 37 144 29 65 64 129
77 142 16 17 22 30 17 44 -4 12 0 30 9 43 9 12 16 36 16 52 0 38 38 100 94
155 59 57 112 139 99 152 -17 17 -43 -2 -86 -65 -28 -41 -43 -56 -45 -44 -4
23 30 88 85 158 46 60 48 65 41 150 -3 33 -1 35 24 32 19 -2 30 3 38 17 8 17
8 21 -4 21 -23 0 -26 27 -5 53 10 14 19 35 19 46 0 37 -29 23 -63 -31 l-32
-53 -3 39 c-3 30 4 51 32 95 42 69 53 114 60 248 6 103 31 203 53 210 23 8 23
-37 -2 -141 -28 -113 -29 -151 -6 -151 10 0 26 47 52 155 39 157 47 223 29
250 -9 13 -11 13 -20 0 -5 -8 -10 -20 -10 -26 0 -6 -6 -17 -14 -23 -10 -9 -16
-8 -26 3 -9 12 -8 42 5 141 24 180 18 372 -15 437 -19 38 -22 53 -14 75 12 37
48 42 68 11 23 -35 40 -291 25 -390 -11 -78 -6 -148 11 -148 18 0 25 77 24
265 l-1 190 -47 127 c-55 147 -98 224 -143 254 -18 12 -66 32 -107 45 -68 21
-91 39 -68 52 16 10 117 -14 176 -41 34 -16 79 -46 99 -67 62 -64 126 -250
142 -415 14 -137 -28 -632 -62 -729 -9 -25 -18 -80 -19 -121 -1 -47 -12 -105
-28 -155 -14 -43 -23 -81 -21 -84 8 -7 53 99 69 161 10 41 12 67 5 90 -12 43
4 59 32 31 46 -46 41 -127 -16 -253 -36 -81 -42 -105 -25 -115 22 -14 82 128
95 225 4 31 0 65 -13 110 -33 107 -34 119 -17 177 10 33 20 126 25 236 10 199
20 247 55 283 29 29 38 30 61 7 14 -15 16 -31 11 -116 -5 -91 -16 -131 -33
-114 -4 3 -12 35 -18 69 l-12 63 -7 -150 c-5 -82 -15 -189 -24 -237 -13 -72
-14 -92 -3 -117 20 -49 34 -38 26 20 -4 28 -3 56 2 62 27 33 112 406 112 490
0 24 -13 98 -30 165 -16 68 -30 134 -30 147 0 13 -13 39 -30 58 -20 23 -27 40
-24 54 4 14 -7 45 -30 86 -36 63 -47 117 -24 117 25 0 86 -80 110 -146 57
-154 99 -377 97 -509 -1 -49 -1 -117 0 -150 1 -47 -6 -79 -30 -143 -28 -73
-31 -85 -19 -107 11 -20 10 -28 -2 -47 -27 -42 -108 -326 -108 -380 0 -62 52
41 74 147 15 74 31 99 46 75 5 -8 10 -24 10 -35 0 -44 -60 -256 -98 -345 -51
-120 -64 -172 -57 -214 12 -61 -96 -237 -228 -373 -37 -38 -46 -53 -34 -53 72
0 150 98 298 376 54 101 59 119 29 109 -13 -4 -20 -2 -20 7 0 25 95 251 107
255 7 3 17 -14 23 -38 6 -23 15 -38 19 -33 5 5 21 42 36 82 15 40 28 72 30 70
2 -2 8 -34 13 -72 7 -44 18 -76 32 -91 40 -43 23 -74 -50 -89 -50 -10 -177
-221 -201 -334 -7 -31 -13 -58 -14 -60 -2 -1 -14 3 -29 9 -35 16 -40 8 -21
-32 13 -26 14 -40 6 -62 -11 -28 -35 -36 -45 -14 -5 9 -7 9 -12 0 -15 -32 -47
-60 -125 -107 -79 -49 -84 -54 -84 -87 0 -29 -4 -34 -26 -37 -15 -2 -39 -16
-55 -33 -33 -35 -78 -39 -94 -9 -15 28 -7 36 50 51 64 16 72 26 60 70 -21 72
-16 83 83 181 102 101 197 234 197 275 0 25 -1 26 -20 8 -10 -9 -38 -49 -61
-89 -45 -74 -125 -160 -247 -261 -40 -33 -72 -64 -72 -68 0 -4 17 -7 38 -5 31
3 37 0 37 -17 0 -15 -19 -30 -68 -56 -37 -19 -74 -42 -83 -51 -14 -13 -12 -16
15 -28 41 -17 39 -35 -6 -59 l-38 -20 40 -1 c22 0 67 9 100 19 212 70 260 87
317 115 34 17 64 37 66 44 6 20 -21 14 -63 -15 -42 -29 -115 -38 -122 -16 -3
7 10 21 27 30 90 50 181 117 199 147 12 19 28 36 35 39 8 3 39 -8 69 -24 60
-31 74 -27 68 19 -3 30 12 74 79 227 95 215 170 468 151 503 -7 12 -15 6 -40
-28 -27 -38 -31 -40 -31 -19 0 13 7 62 16 109 13 71 43 405 44 490 0 19 3 21
12 12 8 -8 14 -79 19 -223 9 -283 26 -301 44 -49 6 86 -9 372 -20 390 -6 9
-12 6 -21 -11 -7 -13 -23 -26 -36 -29 -22 -5 -25 -17 -54 -190 -33 -197 -60
-297 -104 -396 -29 -66 -45 -83 -62 -66 -8 8 -6 25 6 59 82 237 100 313 115
492 6 81 12 107 26 117 16 12 16 14 -9 25 -17 8 -30 9 -36 3 -6 -6 -15 -59
-20 -119 -6 -61 -15 -121 -20 -135 -5 -14 -10 -48 -13 -75 -4 -57 -24 -103
-50 -119 -22 -14 -40 9 -32 39 3 11 19 88 35 170 61 320 63 419 10 610 -45
166 -39 205 31 220 35 8 40 5 55 -38 13 -40 44 -49 44 -14 0 34 -68 127 -119
161 -24 16 -58 49 -75 74 -62 89 -56 85 -99 67 -51 -21 -77 -12 -236 79 l-125
71 -100 1 c-100 1 -101 1 -104 26 -3 23 1 26 44 32 98 13 249 -28 331 -91 68
-52 105 -73 131 -73 60 0 -10 57 -153 126 -138 66 -217 87 -315 82 -74 -3 -75
-3 -75 22 l0 25 105 0 c58 0 122 -4 143 -8 34 -7 37 -6 37 15 0 13 -14 43 -30
68 -37 55 -37 60 -2 60 37 0 68 -23 91 -68 17 -33 20 -35 27 -17 11 32 24 44
40 38 8 -3 14 -13 14 -22 0 -30 30 -60 99 -101 38 -22 94 -64 125 -94 54 -53
57 -54 82 -41 30 15 54 10 54 -11 0 -16 -9 -20 -62 -27 -29 -5 -45 1 -84 26
-169 114 -229 116 -69 3 59 -43 146 -129 176 -175 13 -21 17 -22 37 -10 19 12
24 11 48 -11 30 -28 105 -176 131 -257 13 -41 14 -56 5 -65 -9 -9 -16 -8 -30
5 -27 24 -39 21 -45 -13 -8 -38 -31 -39 -47 0 -7 16 -19 35 -27 42 -14 11 -15
6 -8 -42 14 -104 57 -190 96 -190 19 0 49 46 49 75 0 9 9 43 21 77 l20 61 -20
66 c-25 83 -90 216 -124 257 -14 17 -44 39 -66 49 -50 22 -57 58 -15 77 22 10
32 9 62 -7 73 -40 151 -194 231 -457 52 -172 78 -235 92 -221 10 10 6 48 -18
143 -6 22 -4 23 10 12 38 -32 112 -253 148 -445 23 -127 49 -217 61 -217 12 0
10 14 -12 145 -22 129 -25 182 -10 205 8 13 12 12 31 -6 15 -15 27 -54 44
-135 13 -63 30 -130 38 -149 l15 -35 1 46 c1 57 -24 186 -50 257 -10 29 -19
74 -19 100 0 94 -37 97 -42 3 -6 -104 -36 -75 -98 95 -39 108 -63 152 -91 164
-73 34 -74 35 -81 83 -3 27 -18 80 -31 120 -14 40 -28 89 -32 110 -7 35 -5 39
11 35 11 -2 27 -22 39 -48 63 -142 90 -185 127 -202 50 -24 63 -47 88 -153 23
-99 40 -130 40 -74 0 109 -173 552 -271 696 -45 65 -179 203 -264 272 -76 62
-143 106 -151 99 -14 -14 19 -46 105 -103 107 -71 226 -187 261 -255 12 -25
36 -61 53 -80 32 -37 82 -139 128 -263 32 -88 36 -117 14 -117 -9 0 -46 63
-96 165 -45 90 -96 181 -114 202 -18 21 -42 56 -53 79 -20 40 -130 150 -139
140 -3 -3 26 -43 63 -91 81 -100 146 -204 142 -224 -6 -31 -27 -19 -75 46 -50
66 -245 267 -291 299 -22 15 -25 15 -44 -5 -34 -38 -106 0 -124 65 -8 31 -20
44 -56 64 -25 14 -53 31 -62 39 -15 13 -15 15 4 28 15 11 20 25 20 59 0 58 14
84 46 84 61 0 304 -107 384 -170 59 -46 78 -53 112 -41 36 13 53 5 117 -51 48
-41 64 -44 69 -10 8 50 -82 159 -164 201 -23 11 -44 29 -47 40 -5 21 -52 49
-63 38 -3 -3 6 -26 21 -50 17 -30 22 -48 15 -52 -6 -4 -43 12 -83 34 -169 96
-194 106 -229 93 -26 -10 -36 -9 -55 3 -17 12 -28 13 -42 5 -11 -5 -42 -10
-70 -10 -52 0 -62 -8 -36 -30 21 -18 19 -29 -9 -36 -13 -3 -23 -12 -22 -21 2
-23 -39 -32 -207 -44 -110 -8 -157 -7 -183 1 -33 11 -34 13 -19 30 16 18 15
19 -27 22 -38 3 -43 6 -46 29 -3 24 2 28 45 39 26 7 93 14 148 17 55 2 116 6
135 9 29 5 32 7 16 16 -12 7 -68 6 -174 -3 -226 -18 -217 -19 -217 11 0 23 5
26 80 38 97 15 292 20 359 9 l48 -9 -7 41 c-6 38 -5 42 20 51 37 14 60 -1 77
-52 19 -57 40 -69 72 -39 21 20 31 22 70 17 24 -4 88 -29 141 -57 101 -52 125
-58 144 -35 17 20 0 30 -123 68 -110 34 -135 51 -123 83 6 14 14 16 48 10 27
-5 50 -3 65 6 22 11 28 10 57 -18 17 -16 77 -60 132 -98 133 -91 232 -172 335
-275 136 -136 202 -222 335 -437 20 -32 38 -49 54 -51 37 -6 46 13 16 32 -14
9 -77 95 -139 189 -97 148 -130 188 -224 278 -165 159 -437 359 -607 449 -79
42 -129 53 -105 25 7 -8 18 -15 24 -15 6 0 31 -10 56 -21 39 -18 43 -22 27
-30 -12 -7 -32 -7 -60 -1 -306 70 -320 72 -385 41 -38 -19 -55 -21 -121 -16
-42 4 -107 16 -144 28 -62 19 -70 20 -85 6 -24 -22 -103 -57 -128 -57 -23 0
-41 28 -27 41 4 4 46 21 92 38 91 33 131 55 131 73 0 7 -12 8 -35 4 -19 -3
-50 -9 -68 -12 -28 -5 -39 -1 -63 21 -24 22 -35 26 -64 20 -103 -19 -108 -18
-115 4 -3 11 -4 25 -1 30 9 14 166 53 190 47 11 -3 29 -20 39 -37 15 -28 21
-31 50 -25 17 4 64 9 102 12 110 9 170 -28 82 -50 -43 -11 -49 -26 -11 -26 17
0 40 14 68 44 23 24 49 45 57 48 22 8 2 22 -34 22 -17 0 -85 -2 -150 -4 -82
-3 -121 0 -129 8 -26 26 44 52 117 42 22 -3 78 -1 123 4 62 6 94 5 123 -4 29
-10 43 -10 50 -3 7 7 32 9 65 6 30 -3 54 -3 54 1 0 4 -7 18 -16 31 -9 13 -13
29 -9 35 4 6 -3 22 -14 34 -19 20 -20 25 -7 35 12 10 23 10 50 1 38 -12 52
-25 58 -55 2 -13 19 -25 48 -36 52 -19 55 -29 16 -48 -24 -11 -26 -15 -15 -27
8 -7 95 -51 194 -97 268 -124 484 -262 680 -432 41 -36 77 -65 80 -65 14 0 2
27 -26 56 -39 40 -34 68 8 58 39 -10 58 -24 115 -88 27 -31 54 -56 59 -56 21
0 6 25 -48 78 -32 31 -86 91 -121 133 -91 110 -232 228 -382 319 -22 13 -40
28 -40 33 0 14 92 -4 149 -29 74 -33 121 -73 303 -259 194 -198 226 -203 64
-10 -89 105 -428 405 -458 405 -4 0 -8 -9 -8 -19 0 -10 -7 -21 -15 -25 -19 -7
-45 19 -45 45 0 27 -18 59 -33 59 -7 0 -17 -10 -22 -22 -11 -26 -49 -35 -71
-18 -8 7 -14 30 -14 51 0 28 -5 41 -20 49 -31 17 -109 28 -138 21 l-27 -7 28
-19 c20 -13 25 -20 15 -26 -22 -14 22 -50 122 -98 88 -43 93 -46 62 -49 -42
-4 -120 21 -199 64 -54 29 -70 33 -106 28 -86 -12 -114 36 -54 93 33 33 121
83 143 83 7 0 15 4 19 10 8 12 -97 42 -119 34 -9 -4 -23 -19 -32 -35 -21 -41
-42 -36 -63 15 -14 32 -27 46 -52 55 -48 17 -92 14 -111 -8 -16 -19 -18 -19
-76 -1 -89 28 -287 45 -356 30 -59 -12 -78 -25 -49 -33 10 -3 79 -8 153 -12
74 -4 173 -13 218 -21 61 -11 94 -12 120 -4 50 13 50 14 44 -16 -3 -16 -16
-31 -37 -41 -29 -14 -44 -14 -153 1 -171 23 -392 32 -420 17 -19 -10 -33 -9
-72 4 -57 19 -75 14 -57 -16 21 -35 -14 -52 -95 -46 l-68 4 0 -29 c0 -16 6
-31 14 -34 7 -3 59 9 115 25 152 45 250 61 384 61 122 0 247 -15 247 -30 0 -5
-10 -12 -22 -16 -35 -11 -265 -5 -293 8 -21 9 -28 8 -45 -7 -15 -13 -35 -18
-70 -17 -36 1 -55 -4 -68 -17 -11 -12 -39 -20 -77 -25 -33 -3 -89 -15 -123
-26 -35 -11 -67 -20 -71 -20 -4 0 -55 52 -112 116 -159 178 -373 368 -584 520
-476 342 -1097 583 -1665 645 -58 6 -130 20 -160 31 -156 56 -231 80 -376 117
-88 22 -183 43 -213 47 -51 7 -53 6 -46 -15 10 -34 -23 -40 -50 -9 -26 30 -60
50 -69 41 -3 -3 -6 -19 -6 -34 0 -39 -33 -56 -66 -34 -13 8 -24 24 -24 34 0
12 -9 21 -25 25 -30 8 -112 -10 -143 -30 -25 -17 -21 -34 9 -34 12 0 19 -7 19
-20 0 -11 1 -21 3 -21 1 -1 61 -4 132 -8 l130 -6 -55 -19 c-39 -13 -86 -19
-162 -20 -97 -1 -109 -3 -128 -23 -32 -35 -100 -24 -100 15 0 30 47 119 85
161 l37 41 -38 0 c-22 -1 -54 -7 -71 -15z m802 -120 c86 -23 175 -56 175 -66
0 -14 -148 -10 -225 5 -38 8 -103 18 -142 22 -40 3 -73 10 -73 14 0 16 86 38
145 39 34 1 88 -6 120 -14z m-885 -115 c15 -15 33 -20 75 -20 30 0 55 -4 55
-10 0 -15 -41 -37 -99 -51 l-53 -13 -27 32 c-14 18 -32 32 -38 32 -27 0 -11
30 20 39 45 13 45 13 67 -9z m348 -5 c-2 -3 -27 -9 -54 -14 -51 -10 -82 -3
-48 10 21 8 110 12 102 4z m-458 -99 c0 -8 -19 -21 -41 -30 -47 -19 -161 -47
-167 -41 -8 8 165 83 196 85 6 0 12 -6 12 -14z m1148 -196 c179 -90 153 -110
-47 -35 -66 25 -122 45 -125 45 -3 0 -17 5 -33 12 l-28 11 30 7 c69 17 102 11
203 -40z m190 23 c57 -32 142 -98 142 -111 0 -20 -57 -5 -106 29 -23 15 -66
39 -96 52 -31 14 -59 30 -62 36 -12 18 85 13 122 -6z m-648 -13 c-20 -13 -73
-13 -65 0 3 6 23 10 43 10 28 0 33 -3 22 -10z m906 -53 c48 -35 90 -69 92 -75
6 -18 -29 -15 -69 6 -40 20 -149 111 -149 124 0 22 47 2 126 -55z m-1048 19
c26 -8 93 -18 149 -24 56 -6 107 -13 113 -17 20 -12 -10 -25 -60 -25 -25 0
-73 -5 -108 -10 -55 -9 -67 -8 -104 10 -54 26 -54 26 -67 -10 -13 -38 -39 -39
-72 -4 -13 14 -37 33 -52 41 -33 17 -32 20 11 32 25 8 36 5 62 -14 39 -29 72
-23 64 11 -7 28 0 29 64 10z m1301 -63 c71 -57 111 -95 105 -104 -10 -16 -94
24 -128 61 -76 84 -62 111 23 43z m162 -3 c35 -11 78 -29 94 -40 17 -11 46
-20 66 -20 69 0 396 -148 604 -273 343 -206 668 -488 906 -787 132 -166 144
-186 130 -216 -16 -36 10 -79 43 -70 38 9 39 -7 4 -35 l-32 -27 24 -20 c17
-14 34 -18 56 -15 36 6 51 -9 29 -27 -8 -7 -15 -17 -15 -22 0 -16 28 -38 48
-38 28 0 45 -25 38 -56 -4 -14 -3 -23 2 -20 11 6 36 -23 61 -72 23 -45 19 -55
-15 -42 -23 9 -23 9 -18 -53 5 -52 2 -74 -21 -132 -69 -184 -78 -212 -79 -270
-1 -47 2 -60 15 -63 11 -2 23 17 42 65 41 105 133 231 153 210 2 -2 -22 -55
-55 -118 -80 -153 -161 -356 -171 -432 -5 -34 -23 -106 -40 -161 -41 -134 -38
-176 11 -176 24 0 26 4 43 111 17 106 82 306 146 449 44 99 84 202 101 258 11
37 25 41 34 11 5 -15 2 -25 -9 -31 -20 -11 -21 -38 -1 -64 23 -31 18 -47 -35
-113 -73 -91 -83 -113 -64 -140 21 -29 51 -23 72 14 37 68 78 125 90 125 20 0
14 -28 -18 -72 -38 -52 -38 -72 1 -116 31 -35 32 -37 26 -117 -7 -105 -37
-175 -74 -175 -12 0 -14 10 -8 48 7 51 -11 92 -35 77 -20 -12 -40 -71 -40
-118 0 -53 25 -81 62 -72 38 10 48 -13 58 -141 18 -219 42 -310 112 -420 27
-43 38 -72 38 -99 0 -37 0 -38 -20 -20 -18 16 -20 16 -20 2 0 -9 7 -34 16 -56
19 -47 15 -85 -8 -89 -24 -5 -45 32 -85 150 -26 77 -37 129 -43 208 -8 110
-31 211 -56 245 -57 78 -27 -193 46 -420 22 -66 60 -160 85 -210 73 -146 55
-196 -30 -82 -90 119 -127 234 -151 480 -16 158 -31 228 -52 235 -29 9 -26
-197 4 -348 34 -166 111 -345 196 -458 69 -91 65 -141 -9 -100 -39 21 -51 21
-85 -4 -31 -22 -70 17 -141 142 -19 32 -49 66 -75 83 -23 16 -49 42 -58 60
-21 40 -30 197 -26 477 2 207 -3 259 -27 235 -29 -31 -41 -300 -21 -480 22
-192 13 -302 -22 -267 -25 25 -49 232 -53 456 -4 188 -6 221 -21 237 -12 13
-21 16 -29 9 -18 -15 -25 -161 -13 -295 6 -66 11 -156 12 -200 2 -50 10 -105
23 -145 39 -119 38 -130 -8 -154 -25 -13 -27 -31 -6 -76 23 -47 43 -37 82 40
32 63 38 69 55 60 11 -6 44 -60 74 -120 85 -170 157 -265 229 -302 l40 -20 -7
46 c-4 25 -4 46 1 46 13 0 73 -39 73 -48 0 -4 -9 -36 -21 -70 -15 -45 -26 -62
-39 -62 -23 0 -32 -24 -20 -56 7 -17 7 -32 0 -45 -10 -18 -19 -14 -123 58
-142 97 -168 121 -218 207 -23 38 -68 110 -100 160 -68 105 -109 198 -143 326
-34 126 -75 192 -88 142 -14 -51 25 -191 92 -342 36 -80 43 -120 19 -120 -15
0 -57 65 -97 150 -21 47 -49 96 -60 110 -52 62 -16 -41 108 -310 71 -152 105
-205 154 -238 19 -13 40 -38 47 -55 13 -34 47 -77 61 -77 13 0 9 39 -8 71 -8
17 -46 78 -85 136 -67 102 -88 147 -75 160 33 34 224 -247 245 -361 11 -60 53
-114 109 -138 l44 -20 29 21 c33 24 39 26 39 8 0 -16 -67 -157 -75 -157 -3 0
-29 15 -58 34 -55 36 -97 53 -97 39 0 -19 32 -52 80 -83 27 -18 50 -37 50 -42
0 -15 -94 -178 -162 -282 -140 -212 -280 -379 -494 -586 -540 -525 -1222 -841
-1989 -920 -129 -14 -511 -14 -640 0 -158 16 -337 48 -501 90 -230 59 -216 49
-243 166 -31 136 -38 208 -20 202 8 -3 22 -27 32 -54 62 -174 96 -234 132
-234 20 0 19 34 -1 51 -21 17 -49 73 -80 162 -38 104 -61 145 -86 152 -13 4
-32 15 -42 24 -21 18 -200 288 -224 338 -19 40 -10 53 19 27 56 -51 332 -417
386 -513 46 -82 73 -121 83 -121 23 0 20 32 -9 105 -17 42 -31 92 -31 111 0
23 -5 34 -14 34 -23 0 -72 46 -100 94 -14 23 -45 59 -69 79 -25 20 -66 71 -92
114 -67 108 -104 153 -125 153 -23 0 -36 17 -45 58 -7 33 -63 102 -84 102 -21
0 -11 -45 19 -80 32 -37 38 -60 17 -60 -7 0 -78 64 -156 143 -79 78 -145 137
-148 130 -9 -24 25 -72 196 -284 167 -206 235 -328 335 -597 61 -165 74 -212
59 -212 -15 0 -154 58 -169 70 -6 6 -15 23 -19 37 -3 15 -44 116 -91 225 -82
193 -103 258 -68 213 8 -11 60 -108 115 -216 55 -108 113 -211 129 -230 l29
-34 1 27 c0 60 -140 363 -254 546 -59 95 -83 116 -72 61 5 -24 1 -35 -21 -55
l-27 -25 28 -97 c16 -53 46 -152 67 -220 22 -68 39 -134 39 -147 0 -23 -2 -24
-25 -13 -17 8 -28 24 -35 52 -23 88 -63 205 -96 277 -39 88 -42 112 -14 154
24 36 26 101 5 152 -18 42 -65 107 -72 99 -3 -2 6 -40 20 -83 36 -113 39 -129
22 -143 -8 -6 -18 -9 -24 -6 -19 12 -41 -6 -41 -34 0 -16 20 -83 45 -149 25
-66 45 -134 45 -151 0 -17 7 -45 16 -61 21 -42 14 -52 -21 -30 -23 13 -35 32
-48 77 -126 416 -167 498 -346 703 -50 58 -94 115 -97 128 -7 27 15 65 53 90
26 17 26 17 53 -15 33 -39 70 -44 70 -8 0 51 -136 136 -218 136 -46 0 -119 32
-170 74 -16 15 -36 26 -43 26 -8 0 -31 -19 -51 -42 l-37 -43 -141 2 c-181 2
-232 9 -228 31 5 24 64 27 171 7 100 -18 152 -14 167 15 9 16 6 22 -17 37 -23
15 -55 19 -203 21 -101 2 -180 8 -188 14 -6 6 -12 25 -12 42 0 23 -9 41 -35
66 -70 67 -31 95 48 35 25 -19 49 -35 52 -35 3 0 3 20 -1 45 -9 61 15 72 54
25 27 -31 29 -32 143 -41 84 -6 135 -15 184 -34 69 -25 105 -31 105 -17 0 14
40 52 55 52 22 0 18 -24 -9 -49 -27 -25 -84 -29 -251 -17 -164 12 -156 -32 10
-59 126 -19 193 -39 267 -76 68 -34 84 -36 98 -9 19 36 60 21 175 -66 116 -87
189 -158 182 -177 -5 -13 -12 -14 -37 -7 -38 11 -47 -5 -32 -50 15 -42 0 -46
-49 -10 -40 29 -69 38 -69 23 0 -23 65 -115 113 -160 57 -54 99 -73 126 -56
28 18 26 51 -16 273 -6 34 -162 185 -257 248 -76 51 -79 52 -152 52 -82 0 -95
10 -73 52 16 31 28 38 67 38 90 0 220 -96 467 -346 105 -106 202 -200 218
-209 26 -17 27 -17 27 5 0 13 -14 45 -31 72 -17 27 -29 51 -26 54 9 9 149
-121 225 -208 40 -47 107 -129 148 -184 86 -113 142 -174 161 -174 27 0 10 32
-83 159 -120 165 -144 221 -95 221 20 0 59 -41 121 -125 49 -68 149 -175 162
-175 19 0 5 32 -54 120 -34 51 -96 129 -139 174 -42 45 -91 107 -109 139 -17
31 -38 57 -46 57 -22 0 -17 -50 12 -104 18 -34 23 -51 15 -59 -17 -17 -54 8
-169 119 -132 125 -152 136 -230 128 l-60 -7 -17 34 c-10 19 -60 78 -111 131
-89 91 -112 128 -81 128 8 0 47 -30 88 -66 109 -96 151 -119 217 -116 61 3 63
1 185 -141 62 -71 77 -80 77 -45 0 32 -67 112 -213 254 -200 196 -368 329
-493 392 -203 102 -601 193 -612 139 -5 -25 47 -43 151 -51 146 -12 298 -58
397 -120 30 -20 87 -50 125 -69 131 -64 416 -317 356 -317 -14 0 -103 64 -220
157 -58 46 -135 98 -171 116 -36 17 -87 46 -114 64 -69 47 -264 102 -254 71 3
-7 15 -18 29 -25 13 -7 89 -44 169 -82 145 -71 229 -126 213 -142 -5 -5 -49
11 -98 36 -155 76 -437 170 -487 163 -16 -2 -24 -11 -27 -28 -4 -33 -17 -40
-74 -40 -52 0 -87 13 -87 33 -1 33 -20 42 -102 47 -82 5 -83 5 -80 31 1 15 -7
48 -18 74 -37 86 -29 100 75 120 134 25 307 30 409 11 100 -19 134 -15 166 20
28 29 49 30 132 4 90 -28 102 -27 95 10 -11 52 -37 79 -114 117 -65 32 -85 37
-149 38 -59 0 -76 4 -87 18 -9 14 -23 18 -52 15 -54 -4 -55 -33 -3 -67 21 -13
35 -28 32 -32 -3 -5 -78 -6 -168 -2 -171 6 -216 2 -216 -22 0 -20 -30 -34 -63
-28 -21 4 -32 0 -48 -21 -12 -15 -44 -38 -72 -53 -63 -31 -59 -27 -51 -47 3
-9 15 -16 25 -16 23 0 25 -13 4 -30 -9 -7 -13 -21 -9 -35 3 -13 0 -26 -6 -30
-18 -11 -50 25 -50 56 0 15 -7 34 -15 42 -8 8 -19 34 -24 57 -5 23 -14 47 -20
53 -17 17 -14 77 4 83 9 4 31 -6 51 -22 20 -16 46 -38 59 -48 29 -23 50 -11
60 36 6 24 17 35 54 51 39 18 68 21 191 23 135 2 145 4 162 24 22 28 23 49 2
57 -9 3 -73 -4 -143 -16 -174 -29 -201 -28 -185 13 6 15 13 18 65 30 15 3 31
17 38 32 10 22 16 25 39 20 15 -3 101 -17 192 -31 207 -31 285 -47 432 -90
217 -64 443 -166 605 -271 149 -96 159 -99 204 -55 47 48 41 89 -24 153 -29
29 -74 64 -100 78 -26 14 -47 30 -47 35 0 20 24 35 57 35 66 0 28 48 -90 114
-73 41 -217 100 -224 92 -15 -15 15 -40 95 -80 95 -48 156 -92 146 -107 -11
-19 -70 -8 -158 30 -50 21 -107 42 -126 46 -20 4 -46 19 -60 37 -22 26 -40 32
-140 53 -63 13 -178 37 -255 53 -77 16 -174 33 -215 37 -69 6 -74 6 -59 -9 8
-9 99 -38 205 -66 274 -70 514 -159 771 -286 149 -73 223 -125 223 -158 0 -24
-42 -20 -99 9 -27 13 -102 56 -167 95 -219 133 -313 172 -554 230 -380 91
-818 139 -876 96 -18 -14 -18 -16 -3 -31 15 -15 24 -16 68 -6 29 6 62 11 74
11 47 -1 -15 -29 -112 -51 -53 -12 -118 -27 -145 -35 -27 -8 -56 -14 -63 -14
-24 0 -14 29 17 47 16 9 39 37 50 61 16 33 31 48 63 62 65 29 169 42 274 34
81 -6 93 -5 93 9 0 41 -85 51 -284 32 -88 -8 -162 -18 -166 -22 -4 -4 -13 -29
-20 -55 -7 -26 -21 -55 -32 -65 -19 -17 -20 -17 -34 2 -8 11 -17 31 -20 45 -2
14 -8 43 -14 65 -5 22 -12 63 -15 90 l-7 50 61 1 c34 0 61 -2 61 -5 0 -2 -8
-13 -17 -23 -13 -15 -15 -23 -6 -36 12 -20 36 -20 333 -8 270 12 495 -8 775
-69 61 -13 133 -31 160 -39 64 -20 95 -20 95 -1 0 18 -35 41 -78 50 -36 7 -42
29 -13 45 31 16 58 12 134 -22 86 -37 142 -43 142 -14 0 15 -14 23 -68 38 -38
10 -112 38 -165 63 -174 79 -379 136 -564 155 -115 12 -129 23 -52 46 106 31
226 8 499 -95 193 -73 290 -100 306 -84 8 8 3 16 -18 30 -37 26 -199 99 -288
130 -140 48 -530 143 -587 143 -15 0 -18 -4 -13 -17 19 -46 18 -53 -8 -53 -18
0 -35 12 -57 41 -44 54 -75 52 -75 -6 l0 -40 -45 0 c-43 0 -46 2 -56 35 -11
34 -14 35 -65 38 -67 3 -164 -40 -164 -73 0 -13 7 -20 20 -20 11 0 28 -12 37
-27 18 -28 18 -28 140 -29 122 -1 123 -1 88 -17 -26 -13 -67 -17 -163 -19
-124 -1 -129 -2 -152 -27 -19 -21 -34 -26 -70 -26 -42 0 -45 2 -45 28 0 42 44
127 94 180 26 27 46 57 46 67 0 16 -6 17 -51 12 -28 -4 -67 -14 -87 -24 -33
-16 -37 -23 -40 -61 -4 -47 -22 -63 -49 -41 -22 19 -44 74 -37 93 3 8 40 27
82 42 149 53 236 92 249 111 11 17 10 24 -8 46 -23 31 -41 34 -60 11 -20 -24
-100 -61 -180 -84 -91 -25 -89 -25 -89 4 0 20 7 26 32 31 97 18 129 29 138 44
18 35 -3 45 -89 38 -44 -4 -82 -3 -84 1 -8 13 12 327 28 448 98 752 457 1449
1022 1988 61 58 86 76 95 68 13 -10 41 -16 64 -13 16 1 74 62 74 77 0 6 -7 14
-15 18 -24 9 -18 22 32 63 38 31 54 38 92 39 45 1 47 2 75 51 28 49 69 84 82
70 3 -3 -10 -26 -30 -50 -20 -24 -49 -74 -66 -110 -24 -54 -35 -67 -53 -67
-13 0 -28 5 -35 12 -17 17 -47 -14 -84 -89 -17 -34 -36 -67 -42 -72 -6 -5 -30
-8 -53 -8 -58 2 -96 -33 -90 -83 4 -33 -3 -42 -95 -139 -314 -329 -572 -753
-698 -1146 -37 -116 -37 -129 -5 -81 14 20 25 40 25 45 0 11 125 183 195 270
33 40 71 88 85 105 25 31 74 80 187 186 73 69 236 200 285 227 27 16 47 20 77
16 40 -5 41 -7 41 -43 0 -42 12 -56 52 -58 33 -2 53 24 63 80 11 56 -1 88 -35
100 -33 11 -40 28 -12 28 10 0 22 4 28 9 5 6 35 24 66 40 l58 31 16 -31 c11
-23 21 -30 35 -26 10 3 22 1 25 -4 8 -13 34 9 35 30 0 9 9 -18 20 -59 11 -41
24 -79 29 -84 18 -18 10 -26 -23 -24 -31 3 -32 2 -32 -37 0 -33 3 -40 20 -40
11 0 23 -4 28 -10 9 -13 27 13 27 43 0 22 12 27 52 23 16 -2 17 9 13 116 -3
85 1 55 15 -104 12 -150 23 -229 33 -245 8 -13 20 -57 27 -98 17 -113 40 -213
52 -227 15 -18 87 -17 94 2 3 8 -3 43 -15 77 -25 78 -48 182 -66 313 -19 127
-19 151 -2 138 6 -6 27 -13 45 -17 31 -5 35 -3 45 24 8 21 16 28 27 24 8 -4
25 -9 37 -11 29 -7 82 -55 66 -60 -7 -3 -21 0 -32 6 -11 6 -27 8 -35 5 -21 -8
-21 -68 0 -88 18 -19 75 -21 92 -4 8 8 14 4 22 -18 13 -33 18 -109 8 -119 -13
-13 -28 6 -28 36 0 24 -7 32 -36 46 -31 15 -36 15 -44 3 -20 -31 -3 -129 28
-162 17 -20 63 -23 94 -7 27 15 35 5 120 -139 83 -142 192 -252 298 -304 101
-50 282 -117 334 -124 56 -8 126 25 126 59 0 12 27 55 61 97 72 88 83 110 60
127 -9 7 -23 13 -32 13 -21 0 -136 -116 -160 -161 -10 -20 -25 -39 -34 -43
-24 -9 -146 11 -210 35 -116 43 -259 160 -333 272 -28 41 -25 53 9 42 35 -11
173 -156 198 -207 20 -42 24 -46 69 -51 84 -10 260 21 332 58 16 8 45 48 75
104 50 92 65 108 65 71 0 -20 14 -27 24 -11 3 5 17 9 31 9 21 0 25 -5 25 -32
0 -17 -7 -62 -15 -101 -19 -88 -19 -85 5 -85 15 0 20 -7 20 -25 0 -22 4 -24
30 -22 17 2 33 7 37 10 3 4 12 74 18 155 15 173 26 202 85 226 64 25 67 42 46
224 -28 247 -28 241 -15 212 17 -38 49 -200 49 -248 0 -56 14 -82 45 -82 38 0
54 -36 67 -155 18 -170 -18 -395 -66 -403 -14 -3 -17 0 -13 11 3 9 9 31 12 51
7 33 5 36 -28 52 -40 19 -53 56 -42 122 13 77 15 78 41 45 18 -23 29 -29 49
-26 22 5 25 10 25 47 0 35 -4 45 -25 56 -22 12 -27 11 -45 -5 -20 -18 -20 -18
-20 17 0 28 -5 37 -25 46 -40 18 -44 16 -70 -40 -28 -63 -48 -191 -37 -233 7
-25 14 -31 47 -35 21 -3 40 -10 42 -16 5 -16 -24 -44 -45 -44 -22 0 -62 -37
-112 -105 -47 -64 -66 -79 -56 -44 17 59 18 87 2 117 -30 57 -99 73 -116 26
-13 -32 -8 -40 30 -47 33 -7 41 -35 15 -57 -11 -9 -21 -9 -45 4 -32 15 -71 9
-85 -14 -16 -26 -89 -52 -150 -52 -69 0 -109 10 -200 54 -79 37 -97 36 -59 -3
53 -56 272 -149 349 -149 11 0 34 9 50 20 39 26 95 26 129 -1 41 -32 33 -41
-32 -33 -48 5 -67 2 -105 -15 -87 -40 -273 -19 -293 33 -3 8 -26 24 -52 36
-65 31 -202 173 -241 252 -18 35 -56 92 -84 128 -51 62 -118 112 -133 98 -11
-12 45 -115 110 -202 75 -100 217 -243 311 -314 100 -74 157 -94 290 -100 147
-6 219 9 260 54 17 19 37 34 43 34 6 0 43 38 82 84 80 97 88 103 96 81 16 -41
-159 -255 -242 -296 -43 -20 -55 -21 -187 -16 -208 8 -311 43 -437 148 -77 64
-130 132 -226 290 -76 125 -127 189 -151 189 -7 0 -13 7 -13 16 0 10 5 14 15
10 23 -8 30 19 16 64 -8 27 -21 43 -43 54 -17 9 -33 16 -35 16 -9 0 9 -86 33
-165 91 -291 392 -598 664 -679 181 -54 413 -13 518 92 22 22 43 38 46 35 15
-15 3 -46 -31 -84 -62 -69 -119 -97 -225 -114 -33 -5 -39 -10 -49 -44 -15 -50
3 -90 49 -110 19 -9 35 -25 38 -38 8 -30 16 -29 32 4 17 37 15 56 -8 86 -21
27 -27 67 -10 67 6 0 22 -7 35 -16 31 -21 61 -13 111 27 53 43 111 69 155 69
20 0 42 7 49 15 7 8 21 15 30 15 10 0 25 3 34 6 23 9 59 72 52 91 -4 8 -1 22
6 31 18 21 89 316 77 320 -5 2 -9 15 -9 28 0 32 -14 30 -39 -3 -11 -16 -21
-23 -21 -17 0 6 11 26 25 45 68 94 82 147 65 235 -19 94 -19 99 14 102 25 3
28 6 23 35 -6 43 -66 337 -73 362 -4 11 -4 17 0 14 14 -14 49 -128 56 -187 5
-40 17 -77 33 -101 34 -51 53 -120 68 -241 14 -116 8 -135 -37 -105 -23 15
-28 15 -41 2 -16 -15 -32 -100 -37 -187 -1 -30 -6 -94 -11 -142 l-8 -86 29 -4
29 -3 -1 -70 c-3 -118 -77 -311 -155 -399 -46 -51 -46 -77 0 -84 11 -2 21 -9
21 -17 0 -30 -209 -190 -226 -172 -3 2 27 32 66 67 50 45 70 69 70 86 0 24 -1
24 -30 9 -17 -9 -55 -38 -85 -65 -67 -61 -110 -84 -141 -76 -53 14 -22 49 78
86 67 25 87 44 71 68 -6 10 -19 16 -29 14 -35 -6 -176 -97 -187 -121 -10 -20
-8 -27 17 -47 15 -14 48 -30 72 -36 24 -7 44 -16 44 -21 0 -5 -9 -25 -21 -43
l-21 -34 27 0 c47 0 191 87 333 202 65 54 72 63 72 96 0 27 -7 41 -26 57 l-26
21 24 50 c30 59 77 201 113 339 14 55 30 108 35 117 6 10 10 38 10 62 0 39 -5
50 -37 81 l-38 36 24 19 c13 11 29 20 36 20 15 0 28 27 15 32 -6 2 -7 57 -3
136 6 124 15 161 27 110 9 -42 -4 106 -15 159 -6 30 -22 67 -39 89 -47 59 -16
69 37 12 37 -39 54 -105 60 -228 3 -63 10 -123 15 -132 10 -21 64 -25 71 -5 3
6 6 2 6 -11 1 -16 -9 -29 -33 -43 -48 -28 -71 -91 -71 -194 0 -79 0 -80 24
-77 14 1 27 5 30 7 3 3 8 38 12 77 8 74 23 105 35 74 11 -28 -3 -202 -22 -291
-25 -112 -24 -150 1 -150 29 0 41 37 60 180 10 72 23 141 30 155 7 14 16 79
20 146 7 122 0 198 -16 188 -5 -3 -12 2 -15 10 -9 23 -21 20 -38 -11 -8 -16
-15 -26 -16 -23 -5 75 -25 189 -41 238 -17 50 -35 78 -89 137 -66 71 -105 144
-85 163 4 4 10 1 13 -7 13 -37 60 -74 102 -80 l43 -6 34 -135 c35 -138 47
-166 62 -141 5 7 14 10 20 7 17 -11 14 118 -4 184 -15 57 -19 98 -9 87 20 -20
66 -250 79 -402 16 -181 26 -223 59 -268 41 -56 19 -293 -45 -495 -17 -52 -29
-95 -27 -98 2 -2 18 5 36 16 64 39 88 124 103 370 6 91 14 173 20 182 11 22
12 118 0 118 -5 0 -11 19 -15 41 -6 38 -8 40 -20 24 -13 -18 -14 -17 -19 11
-4 16 -9 73 -13 127 -7 105 -1 117 37 70 14 -18 23 -23 26 -15 3 6 10 12 17
12 9 0 11 17 8 60 -2 33 -1 60 2 60 4 0 19 -13 33 -30 14 -18 34 -30 48 -30
22 0 55 -32 55 -53 0 -4 -20 -27 -44 -50 -41 -40 -44 -47 -56 -127 -17 -113
-9 -331 13 -382 16 -37 16 -38 -6 -38 -62 -1 -92 -33 -43 -46 36 -9 58 -38 54
-71 -2 -20 -8 -28 -23 -28 -16 0 -23 -11 -33 -55 -8 -36 -34 -87 -72 -145 -33
-50 -60 -98 -60 -106 0 -9 9 -24 20 -34 27 -24 25 -32 -10 -50 -21 -11 -32
-27 -40 -58 -17 -63 -54 -84 -96 -52 -18 14 -17 17 39 69 31 30 57 58 57 63 0
5 -20 36 -45 67 -25 32 -45 65 -45 73 0 9 16 50 35 92 75 166 114 446 66 475
-18 12 -29 -27 -39 -145 -12 -125 -56 -286 -92 -332 -11 -14 -20 -33 -20 -42
0 -9 -13 -48 -30 -87 -16 -38 -30 -74 -30 -79 0 -5 18 2 41 17 66 41 90 16 45
-47 -14 -19 -43 -61 -66 -94 l-42 -60 44 -3 c23 -2 47 -7 51 -11 4 -4 -8 -31
-27 -59 -19 -29 -33 -52 -30 -52 65 0 484 409 484 472 0 35 -42 17 -68 -29
-35 -64 -76 -103 -107 -103 -34 0 -33 1 47 121 50 75 69 113 83 170 9 41 22
77 29 81 6 4 44 8 84 8 85 0 98 13 62 61 -18 26 -23 52 -32 171 -8 102 -8 146
0 159 19 31 -23 372 -63 506 -10 33 -24 57 -42 68 -25 17 -27 17 -43 -5 -17
-23 -18 -22 -59 106 -23 71 -53 157 -66 192 -14 34 -23 62 -21 62 3 0 28 -42
57 -92 74 -133 85 -146 114 -144 23 1 25 4 19 30 -17 78 -149 359 -243 519
-35 59 -61 90 -82 101 -17 9 -35 13 -40 10 -4 -2 -18 15 -30 38 -29 58 -54 88
-85 104 -37 20 -45 9 -28 -38 21 -60 17 -67 -16 -26 -54 66 -116 57 -103 -16
5 -28 2 -26 -31 22 -19 29 -73 98 -118 153 -91 109 -115 151 -95 167 18 15 37
17 85 8 31 -6 42 -12 42 -26 0 -17 -3 -17 -27 -5 -53 25 -73 27 -79 10 -10
-26 18 -76 81 -143 67 -72 105 -97 162 -107 35 -5 45 -3 63 15 20 20 21 29 15
78 l-7 56 28 -35 c16 -19 69 -83 120 -144 192 -231 272 -371 382 -670 76 -206
87 -250 117 -427 28 -167 61 -316 75 -338 9 -13 12 -13 21 3 6 9 14 15 20 12
26 -17 -3 189 -71 493 -28 122 -50 232 -49 245 0 13 15 -9 38 -59 39 -83 68
-114 108 -114 24 0 31 14 13 25 -17 11 -46 74 -83 185 l-36 105 27 -32 c15
-18 43 -61 62 -95 33 -58 39 -63 73 -66 20 -2 37 -1 37 2 0 3 -13 39 -30 81
-16 42 -30 91 -30 109 0 29 -5 36 -36 51 -22 10 -48 36 -69 69 -19 29 -50 66
-70 82 -20 16 -69 81 -108 144 -54 86 -81 119 -107 132 -26 13 -37 28 -46 59
-15 50 -56 95 -100 109 -61 21 -72 -9 -23 -65 18 -20 29 -38 27 -40 -3 -3 -56
49 -118 116 -74 79 -126 126 -151 135 -30 12 -38 22 -42 47 -2 18 -4 33 -3 34
2 2 42 -34 143 -128 88 -82 176 -103 145 -34 -11 24 -10 25 8 15 25 -13 161
-168 260 -295 120 -154 131 -165 173 -175 20 -4 39 -4 42 0 2 4 -31 59 -75
121 -93 133 -125 185 -135 218 -13 43 17 18 85 -70 95 -124 170 -196 203 -196
15 0 27 1 27 4 0 29 -148 240 -214 306 -30 28 -67 79 -84 113 -36 71 -51 85
-93 89 -24 2 -37 12 -60 46 -37 56 -23 72 28 34 83 -62 185 -161 203 -194 26
-50 104 -124 135 -127 24 -3 25 -1 25 61 0 49 -4 67 -17 77 -37 28 -194 190
-190 195 3 3 25 -8 49 -25 50 -35 108 -51 108 -30 1 36 14 39 106 19 49 -11
111 -27 138 -35 27 -9 51 -15 53 -13 5 6 -174 102 -317 170 -105 50 -159 83
-245 152 -60 48 -114 91 -119 96 -15 14 5 11 75 -11z m-1733 -12 c-3 -7 -39
-27 -81 -44 -42 -18 -100 -48 -127 -68 -49 -36 -110 -58 -110 -40 2 31 181
139 252 153 62 13 70 12 66 -1z m-333 -58 c-3 -5 -14 -10 -23 -10 -15 0 -15 2
-2 10 20 13 33 13 25 0z m-85 -100 c0 -24 -29 -40 -72 -40 l-33 1 33 29 c38
35 72 40 72 10z m-180 -5 c0 -3 -22 -30 -50 -60 -27 -30 -61 -77 -75 -105 -18
-36 -31 -50 -46 -50 -21 0 -21 1 -4 28 41 64 119 164 138 177 22 15 37 19 37
10z m62 -97 c-6 -6 -15 -7 -22 -3 -8 5 -6 13 7 27 16 18 18 19 21 3 2 -9 -1
-22 -6 -27z m-302 -37 c-11 -21 -29 -36 -35 -29 -3 2 2 14 11 26 19 28 39 30
24 3z m2434 -84 c45 -48 70 -66 96 -71 30 -6 38 -14 59 -57 13 -28 20 -53 17
-56 -4 -4 -55 43 -114 103 -60 61 -125 118 -145 127 -45 22 -47 30 -5 23 23
-3 49 -23 92 -69z m-424 -3 c0 -2 -7 -4 -15 -4 -8 0 -15 4 -15 10 0 5 7 7 15
4 8 -4 15 -8 15 -10z m-2099 -66 c-4 -12 -13 -24 -20 -26 -9 -3 -9 2 0 22 15
32 32 35 20 4z m1779 -23 c19 -20 20 -25 7 -25 -17 0 -47 26 -47 41 0 16 16
10 40 -16z m-188 -153 c81 -87 210 -283 195 -298 -2 -2 -24 33 -48 78 -34 63
-71 111 -156 200 -62 64 -113 119 -113 123 0 13 59 -36 122 -103z m185 1 c42
-53 53 -77 53 -114 0 -29 -2 -31 -13 -19 -11 12 -102 156 -132 209 -14 25 60
-37 92 -76z m174 -53 l31 -45 -37 40 c-20 22 -50 60 -67 85 l-29 45 35 -40
c20 -22 50 -60 67 -85z m-542 64 c55 -56 42 -69 -27 -26 -26 17 -60 36 -77 43
l-30 12 35 7 c19 4 39 8 44 9 5 0 29 -20 55 -45z m-89 -94 c20 -5 45 -16 55
-24 19 -14 18 -14 -14 -13 -19 1 -36 -3 -38 -9 -2 -6 26 -53 62 -105 65 -95
117 -181 78 -131 -10 13 -41 53 -69 90 -81 105 -179 173 -274 188 -36 6 -41 9
-25 16 25 10 177 2 225 -12z m288 -93 c68 -99 172 -302 172 -336 -1 -18 -19
11 -59 94 -68 139 -108 198 -156 226 -37 22 -50 48 -40 80 10 31 25 19 83 -64z
m-895 -21 c-21 -45 -13 -62 30 -64 29 -1 42 6 76 41 l41 42 0 -30 c0 -18 -9
-39 -23 -52 -26 -24 -45 -79 -54 -153 -9 -74 0 -97 42 -104 22 -5 35 -13 35
-23 0 -11 -6 -14 -24 -9 -34 8 -56 -17 -56 -64 0 -66 14 -90 53 -90 22 0 41 8
53 21 13 14 27 19 47 16 24 -3 33 2 46 25 18 28 31 28 31 0 0 -22 30 -52 52
-52 26 0 23 -19 -4 -24 -13 -2 -41 -8 -63 -13 l-40 -8 -5 -76 c-3 -47 -11 -85
-22 -102 -25 -36 -23 -56 11 -108 39 -63 75 -89 122 -89 57 0 53 30 -11 76
-40 29 -50 42 -50 65 0 43 32 38 80 -12 39 -41 43 -48 44 -99 1 -22 6 -25 42
-28 40 -3 42 -2 62 40 11 24 22 50 25 58 8 22 6 -91 -2 -120 -13 -49 -107 -74
-188 -51 -18 5 -53 26 -79 45 -26 20 -64 39 -85 42 -36 6 -38 8 -41 47 -2 34
-8 44 -35 60 -42 24 -73 10 -73 -35 0 -74 113 -239 191 -278 40 -21 79 -26 79
-11 0 5 -27 33 -60 61 -63 55 -86 85 -72 94 5 3 27 -8 50 -25 22 -16 58 -35
79 -43 37 -13 38 -14 38 -65 0 -56 11 -71 56 -71 33 0 88 37 155 102 67 65 77
49 30 -47 -47 -96 -68 -112 -159 -120 -115 -11 -144 -10 -173 6 -32 16 -170
197 -213 279 -50 94 -97 227 -111 316 -12 76 -13 333 -2 404 6 32 10 -11 15
-150 6 -192 18 -267 44 -277 7 -3 13 -18 13 -34 0 -35 23 -49 79 -49 49 0 51
9 16 77 -36 70 -45 153 -39 352 7 201 3 214 -60 215 -20 1 -36 6 -36 11 0 14
48 115 54 115 3 0 -2 -15 -11 -34z m468 16 c54 -35 149 -176 149 -219 0 -33
-13 -28 -35 14 -40 74 -92 130 -138 148 -43 16 -45 16 -105 -9 -34 -14 -63
-26 -65 -26 -2 0 1 20 7 45 9 38 16 47 41 54 51 15 118 12 146 -7z m699 8 c13
-8 13 -11 -2 -26 -19 -19 -33 -13 -41 16 -6 22 16 27 43 10z m422 -71 c3 -32
1 -34 -32 -39 -53 -8 -51 -39 10 -192 29 -71 50 -139 47 -149 -3 -11 5 -39 18
-62 27 -50 39 -99 30 -127 -11 -35 -23 -22 -36 38 -27 132 -115 418 -175 566
-7 19 -7 19 16 3 36 -25 90 -23 97 4 5 17 7 19 14 6 5 -8 10 -30 11 -48z
m2938 51 c102 -11 120 -19 94 -41 -24 -20 -315 -20 -362 0 -47 20 -27 33 60
41 109 10 106 10 208 0z m-332 -12 c18 -18 15 -26 -18 -43 -32 -16 -265 -75
-298 -75 -22 0 -38 39 -19 45 19 7 260 73 282 78 35 8 41 7 53 -5z m-2511 -65
c-3 -10 -5 -2 -5 17 0 19 2 27 5 18 2 -10 2 -26 0 -35z m367 -137 c135 -172
153 -210 84 -169 -23 13 -62 65 -130 173 -142 223 -131 222 46 -4z m-767 108
c27 -46 55 -124 45 -124 -4 1 -19 19 -34 40 -15 22 -34 40 -41 40 -24 0 -41
44 -27 69 15 29 30 23 57 -25z m-1461 -44 c-8 -30 -14 -45 -15 -32 -1 29 22
122 26 102 1 -8 -3 -40 -11 -70z m5258 14 c125 -50 359 -163 430 -208 72 -46
206 -158 224 -186 17 -28 6 -59 -23 -66 -20 -5 -36 6 -92 63 -80 79 -201 156
-458 291 -177 93 -215 117 -215 134 0 16 44 7 134 -28z m-4651 -8 c93 -86 171
-335 152 -484 -13 -106 -21 -93 -22 34 -1 235 -66 384 -168 384 -8 0 -28 -19
-45 -42 -16 -22 -30 -36 -30 -29 0 25 29 79 50 94 17 11 21 23 18 41 -7 33 11
34 45 2z m1269 -153 c76 -240 87 -287 105 -426 11 -90 13 -131 5 -139 -7 -7
-12 7 -16 48 -24 225 -52 345 -120 517 -25 64 -46 125 -46 135 0 20 10 35 18
27 2 -2 27 -75 54 -162z m-2105 117 c20 0 45 7 55 17 20 18 23 7 8 -31 -8 -23
-15 -26 -54 -26 -38 0 -48 -5 -69 -31 -21 -27 -28 -30 -60 -24 -31 6 -36 11
-39 39 -4 36 26 66 65 66 14 0 29 5 33 11 5 8 10 6 16 -5 6 -10 22 -16 45 -16z
m1523 -15 c0 -5 -5 -3 -10 5 -5 8 -10 20 -10 25 0 6 5 3 10 -5 5 -8 10 -19 10
-25z m356 -85 c7 -19 13 -60 14 -90 0 -69 15 -121 39 -140 15 -12 20 -34 25
-115 l7 -99 -29 27 c-26 25 -30 37 -35 105 -4 42 -24 150 -47 240 -22 90 -40
168 -40 174 0 17 52 -63 66 -102z m-162 -79 c60 -132 99 -237 94 -253 -6 -18
-168 353 -168 385 0 23 20 -12 74 -132z m-1494 -151 c15 -166 31 -231 90 -365
48 -108 62 -165 40 -165 -13 0 -62 99 -93 190 -40 119 -58 224 -64 384 -5 130
-9 152 -26 169 -19 19 -19 20 9 42 l29 23 2 -76 c1 -43 7 -133 13 -202z m4265
260 c0 -8 -8 -16 -17 -18 -13 -2 -18 3 -18 18 0 15 5 20 18 18 9 -2 17 -10 17
-18z m-3254 -51 c16 -34 29 -63 27 -65 -2 -2 -18 26 -36 61 -17 36 -30 65 -27
65 3 0 19 -27 36 -61z m3194 21 c0 -8 -8 -16 -17 -18 -13 -2 -18 3 -18 18 0
15 5 20 18 18 9 -2 17 -10 17 -18z m-2812 -125 c30 -72 58 -146 61 -165 l7
-35 -19 34 c-19 33 -75 66 -94 55 -5 -3 -7 -23 -3 -45 9 -53 -9 -51 -28 4 -27
73 -47 140 -47 153 0 7 15 -3 34 -22 34 -34 86 -47 86 -21 0 7 -13 48 -30 90
-29 76 -35 95 -26 86 3 -2 29 -63 59 -134z m-493 79 c0 -16 -16 -19 -25 -4 -8
13 4 32 16 25 5 -4 9 -13 9 -21z m-1046 8 c3 -5 -10 -25 -28 -45 -18 -20 -38
-51 -43 -69 -10 -29 -11 -30 -12 -8 -2 59 63 154 83 122z m996 -24 c0 -18 9
-96 20 -173 11 -77 23 -167 27 -200 8 -57 9 -60 40 -66 26 -5 34 -3 38 12 13
40 25 4 25 -74 0 -48 -4 -76 -9 -69 -4 7 -20 20 -36 28 -25 13 -31 12 -62 -7
-28 -18 -39 -20 -59 -10 -31 14 -31 39 0 50 27 11 36 44 36 135 0 94 -18 265
-35 330 -8 32 -13 62 -9 67 12 19 24 8 24 -23z m-221 -53 c10 -52 5 -57 -38
-49 -37 8 -38 22 -10 84 23 52 33 45 48 -35z m-949 28 c0 -5 -8 -48 -17 -98
l-17 -90 -7 45 c-4 25 -8 69 -8 98 -1 49 0 52 24 52 14 0 25 -3 25 -7z m5326
-22 c54 -25 62 -39 28 -51 -20 -8 -39 -7 -68 2 -33 11 -42 18 -44 41 -3 23 0
27 20 27 13 0 42 -9 64 -19z m-229 -34 c17 -17 17 -19 0 -32 -14 -10 -41 -12
-106 -8 -49 3 -132 0 -191 -8 -146 -18 -180 -18 -194 3 -7 11 -7 21 -1 27 16
16 242 40 362 38 94 -2 115 -5 130 -20z m-3687 -90 l0 -27 -50 25 c-59 30 -66
50 -15 42 35 -6 39 -2 36 33 0 8 6 2 14 -15 8 -16 14 -42 15 -58z m-630 -84
c-1 -24 -2 -26 -11 -10 -5 9 -7 22 -4 27 10 17 15 11 15 -17z m65 -13 c40 -32
91 -40 114 -17 10 10 12 6 9 -18 -4 -41 -43 -60 -97 -45 -21 5 -44 16 -50 24
-12 15 -28 86 -19 86 3 0 22 -13 43 -30z m4703 -36 c12 -8 20 -19 17 -24 -8
-12 -41 -1 -61 21 -16 18 -16 19 2 19 11 0 30 -7 42 -16z m-4102 -117 c4 -49
3 -77 -3 -77 -9 0 -23 99 -23 160 1 52 19 -6 26 -83z m290 -55 c9 -40 14 -76
10 -79 -10 -11 -38 69 -43 126 -6 75 11 50 33 -47z m3389 49 c-30 -29 -333
-67 -336 -42 -1 6 -2 17 -3 24 -1 8 25 14 84 18 150 10 265 10 255 0z m-76
-99 c23 -9 43 -21 42 -27 -1 -6 -52 -10 -131 -10 -128 -1 -130 0 -130 21 0 17
7 24 28 27 65 10 150 5 191 -11z m-466 -199 c3 -5 12 -32 21 -61 15 -51 4 -64
-14 -16 -6 14 -18 24 -29 24 -28 0 -33 13 -15 38 16 23 29 28 37 15z m549
-113 c100 -42 190 -111 253 -194 52 -69 63 -94 49 -109 -13 -13 -51 18 -149
119 -109 112 -139 128 -265 141 -74 7 -109 52 -57 73 31 13 91 3 169 -30z
m-2552 -28 c0 -15 7 -49 15 -76 18 -60 6 -80 -24 -38 -21 30 -29 100 -15 136
9 23 24 9 24 -22z m2047 -4 c-3 -8 -6 -5 -6 6 -1 11 2 17 5 13 3 -3 4 -12 1
-19z m-2696 -141 c-8 -8 -11 -2 -11 19 0 40 14 54 18 19 2 -15 -1 -32 -7 -38z
m3629 4 c16 -29 36 -48 55 -54 67 -21 92 -77 35 -77 -66 0 -127 63 -145 148
-6 29 -4 33 11 30 10 -1 29 -23 44 -47z m-411 -68 c44 -21 57 -34 73 -70 30
-67 34 -111 13 -119 -18 -7 -36 9 -113 105 -18 23 -51 50 -73 61 -27 14 -39
27 -39 41 0 20 4 21 43 15 23 -4 66 -18 96 -33z m-2543 -5 c-4 -18 -11 -61
-15 -96 -5 -35 -11 -65 -14 -68 -8 -8 -69 145 -65 164 2 11 17 19 38 23 63 11
63 12 56 -23z m-908 -97 c4 -13 -25 -51 -40 -51 -4 0 -8 7 -8 15 0 20 -19 19
-41 -1 -25 -23 -53 -11 -43 18 4 13 12 26 18 30 18 12 109 3 114 -11z m3399
-27 c49 -37 73 -65 73 -86 0 -21 -4 -22 -32 -7 -11 6 -21 9 -23 7 -2 -2 3 -48
10 -103 16 -112 20 -284 6 -269 -5 5 -16 63 -25 129 -9 66 -27 171 -39 233
-28 136 -27 139 30 96z m394 -73 c23 -68 29 -148 15 -189 -7 -19 -5 -24 13
-29 32 -8 26 -27 -15 -46 -50 -24 -64 -11 -64 61 0 31 -5 104 -12 162 -6 58
-8 114 -5 124 7 18 8 18 27 1 10 -9 29 -47 41 -84z m-3814 -36 c-1 -41 -6 -75
-12 -75 -5 0 -34 10 -65 21 -30 12 -66 26 -79 31 -22 8 -23 10 -6 28 9 10 38
24 65 30 27 6 57 18 67 25 10 8 21 15 25 15 3 0 5 -34 5 -75z m-87 -117 c0
-27 -27 -58 -52 -58 -18 0 -18 2 2 40 22 43 50 54 50 18z m3636 -54 c24 -130
-36 -564 -78 -564 -16 0 -2 126 23 213 14 52 22 116 26 230 6 154 15 193 29
121z m-421 -16 c9 -62 -10 -310 -25 -334 -11 -18 -9 -26 13 -60 51 -76 72
-189 47 -249 -7 -17 -11 -14 -29 27 -57 126 -84 339 -62 498 20 154 44 203 56
118z m361 -693 c3 -8 0 -31 -6 -51 -16 -47 -33 -30 -24 24 7 42 20 54 30 27z
m-5863 -366 c235 -49 303 -89 231 -136 -25 -16 -28 -16 -73 9 -75 42 -197 62
-461 78 -91 5 -233 10 -316 10 -112 0 -155 4 -169 14 -18 13 -17 14 16 21 70
16 190 22 427 24 212 1 256 -2 345 -20z m5163 -151 c64 -81 124 -170 124 -185
0 -6 -10 -19 -22 -27 -24 -17 -48 -6 -48 21 0 7 -20 33 -44 57 -34 33 -48 57
-61 102 -9 32 -19 67 -21 77 -11 37 25 15 72 -45z m1281 -40 c-3 -13 -12 -50
-20 -83 -16 -68 -36 -112 -65 -138 -10 -10 -27 -35 -37 -57 -10 -22 -25 -40
-33 -40 -13 0 -14 14 -9 86 3 48 9 89 12 92 3 3 17 0 31 -7 37 -16 44 -7 44
58 0 44 5 65 21 85 26 34 64 36 56 4z m-1017 -144 c0 -29 -14 -38 -40 -24 -22
12 -27 46 -7 53 24 8 47 -5 47 -29z m-6180 -74 c0 -33 -116 -64 -139 -36 -12
14 -9 18 20 31 39 16 119 20 119 5z m5905 -246 c37 -38 53 -94 25 -94 -13 0
-48 52 -55 83 -8 31 5 35 30 11z m-6368 -38 c-13 -33 -107 -73 -107 -46 0 6
19 28 42 50 36 36 43 39 56 26 8 -8 12 -22 9 -30z m1156 -605 c26 -23 35 -26
97 -23 52 2 72 -1 84 -14 22 -21 15 -29 -38 -44 -39 -11 -49 -10 -92 9 -65 29
-114 68 -114 91 0 25 24 17 63 -19z m-48 -74 c58 -29 120 -85 210 -188 158
-181 255 -327 299 -449 14 -39 35 -83 47 -99 36 -49 56 -201 26 -201 -35 0
-50 32 -101 211 -58 206 -64 218 -202 379 -40 47 -83 100 -96 119 -16 24 -36
38 -63 45 -27 8 -41 18 -43 31 -5 28 -38 61 -104 106 -62 43 -72 54 -63 69 8
12 34 6 90 -23z m-281 12 c66 -14 263 -109 256 -124 -9 -18 -54 -8 -175 40
-66 26 -138 50 -160 53 -72 9 -85 42 -16 42 21 0 63 -5 95 -11z m57 -141 c79
-39 243 -199 312 -305 56 -86 113 -200 105 -208 -15 -15 -52 27 -95 105 -38
69 -70 108 -169 205 -67 66 -153 140 -192 165 -112 71 -83 99 39 38z m306 -88
c81 -64 164 -184 147 -211 -3 -5 -2 -19 1 -30 5 -16 13 -20 31 -16 31 6 31
-11 -2 -46 -31 -34 -44 -27 -81 46 -13 27 -59 101 -100 163 -67 100 -80 134
-54 134 5 0 31 -18 58 -40z m-564 -285 c4 -79 10 -114 26 -145 12 -22 21 -47
21 -54 0 -18 31 -29 44 -16 7 7 3 25 -13 57 -25 51 -42 183 -24 183 6 0 22
-15 35 -33 14 -17 53 -60 87 -93 64 -65 70 -78 47 -123 -13 -24 -12 -32 3 -67
28 -62 88 -103 107 -72 6 10 -13 31 -73 79 -18 13 -16 48 2 55 16 7 71 -24 99
-55 10 -11 21 -35 25 -53 6 -30 10 -33 45 -33 53 0 71 -28 36 -57 -21 -17 -36
-19 -96 -16 -62 3 -77 8 -126 41 -39 27 -63 37 -84 35 -28 -3 -29 -1 -34 42
-4 37 -9 45 -25 45 -32 0 -30 -40 4 -110 33 -66 118 -155 148 -155 12 0 -2 19
-45 59 -45 41 -61 63 -56 74 8 22 16 21 49 -5 16 -12 51 -34 79 -48 49 -25 51
-29 51 -68 1 -23 4 -44 8 -48 13 -13 69 20 133 78 65 59 84 65 84 26 0 -29
-60 -137 -85 -154 -11 -7 -64 -16 -117 -20 -88 -6 -99 -5 -132 15 -40 25 -173
201 -204 271 -54 121 -72 170 -81 230 -12 75 -15 283 -4 294 5 4 20 -6 34 -24
24 -28 27 -42 32 -135z m423 88 c-7 -7 -26 7 -26 19 0 6 6 6 15 -2 9 -7 13
-15 11 -17z m-651 -73 c8 -26 -3 -62 -18 -57 -7 2 -13 14 -15 26 -7 45 20 71
33 31z m1090 -104 c32 -54 77 -175 73 -195 -2 -10 -25 13 -62 64 -71 96 -65
89 -70 84 -3 -2 9 -35 25 -73 16 -38 28 -73 27 -77 -2 -5 -14 -3 -28 4 -46 23
-77 156 -49 210 25 48 49 43 84 -17z m144 -660 c10 -11 9 -21 -4 -45 -27 -53
-57 -36 -48 27 6 35 31 44 52 18z m565 -264 c7 -11 -27 -173 -48 -231 -23 -62
-20 -69 14 -36 33 32 55 93 66 188 3 31 10 60 14 62 16 10 80 -37 86 -62 8
-31 -9 -51 -29 -34 -12 9 -15 4 -19 -33 -3 -25 -18 -66 -34 -91 -75 -120 -78
-127 -66 -146 17 -27 15 -42 -8 -62 -11 -9 -23 -31 -27 -47 -6 -34 -28 -50
-68 -50 -44 0 -43 29 3 72 23 21 42 46 42 56 -1 9 -14 33 -30 52 -37 43 -37
64 -1 149 16 38 37 103 46 145 14 61 21 76 35 76 11 0 21 -4 24 -8z m-614 -79
c0 -24 -40 -73 -60 -73 -29 0 -19 50 17 92 20 22 43 12 43 -19z"/>
<path d="M2326 10318 c-20 -28 -22 -147 -3 -170 20 -26 64 -31 76 -9 36 67 30
181 -9 181 -10 0 -22 5 -25 10 -10 16 -23 12 -39 -12z"/>
<path d="M2439 10180 c-11 -7 -11 -25 -1 -107 7 -55 17 -117 23 -138 11 -38
11 -39 24 -16 11 22 12 22 19 5 7 -17 8 -17 16 -3 18 31 23 152 8 193 -14 43
-65 80 -89 66z"/>
<path d="M2589 10163 c-6 -15 -13 -75 -16 -133 -4 -83 -2 -113 11 -143 14 -36
18 -38 53 -35 l38 3 0 75 c-1 73 -12 201 -21 229 -3 11 -7 11 -19 1 -12 -10
-15 -10 -15 3 0 29 -20 29 -31 0z"/>
<path d="M2805 10162 c-10 -48 9 -74 53 -70 33 3 37 6 40 34 3 35 -11 51 -55
60 -28 6 -32 3 -38 -24z"/>
<path d="M6986 10129 c-68 -54 11 -107 95 -63 24 12 29 19 23 37 -14 49 -72
62 -118 26z"/>
<path d="M2319 10063 c-11 -12 -9 -27 11 -86 24 -68 27 -72 56 -73 28 -1 33 2
38 29 7 34 -8 100 -27 114 -6 5 -24 14 -39 20 -21 10 -29 9 -39 -4z"/>
<path d="M2204 10016 c-9 -38 -1 -61 21 -59 11 1 23 -4 27 -10 6 -9 11 -8 18
3 19 30 11 58 -22 74 -39 20 -36 20 -44 -8z"/>
<path d="M2830 10013 c0 -16 13 -53 29 -83 25 -48 32 -55 57 -54 33 0 34 9 6
87 -11 33 -25 53 -44 63 -39 20 -48 18 -48 -13z"/>
<path d="M5560 9997 c0 -31 29 -57 63 -57 42 0 29 42 -20 68 -32 18 -43 15
-43 -11z"/>
<path d="M7051 9972 c-34 -44 -121 -217 -121 -242 0 -13 6 -16 23 -13 16 3 43
33 84 96 80 120 86 133 78 168 -9 39 -27 37 -64 -9z"/>
<path d="M6867 9932 c-22 -24 -21 -45 2 -66 40 -36 88 14 61 63 -13 26 -41 27
-63 3z"/>
<path d="M7146 9918 c-8 -13 -27 -49 -41 -81 -26 -56 -26 -59 -9 -72 27 -21
29 -20 63 32 37 55 46 83 37 118 -8 31 -31 32 -50 3z"/>
<path d="M2610 9763 c-17 -64 -23 -68 -61 -49 -40 20 -36 20 -43 -8 -7 -27 7
-114 20 -126 5 -4 25 -10 46 -14 44 -8 71 13 62 49 -10 41 8 51 25 14 14 -29
22 -34 54 -37 55 -5 57 16 11 109 -28 58 -47 84 -68 94 -16 8 -30 15 -31 15
-1 0 -8 -21 -15 -47z"/>
<path d="M2359 9753 c-13 -33 8 -127 45 -209 22 -47 27 -53 55 -52 28 1 31 4
31 33 0 101 -39 227 -76 244 -36 16 -43 14 -55 -16z"/>
<path d="M7154 9745 c-15 -38 -38 -134 -32 -139 1 -2 12 -6 23 -10 38 -11 81
111 59 168 -10 27 -34 18 -50 -19z"/>
<path d="M2895 9751 c-6 -11 13 -77 35 -114 10 -18 23 -56 29 -85 20 -96 109
-248 194 -330 36 -36 50 -43 76 -40 l32 3 -50 59 c-47 56 -89 134 -206 384
-37 77 -56 106 -77 116 -15 8 -30 11 -33 7z"/>
<path d="M2810 9635 c0 -71 83 -248 214 -460 82 -132 115 -200 102 -212 -10
-10 -33 16 -94 105 -95 139 -158 251 -192 337 -43 111 -49 121 -77 134 -43 20
-63 14 -63 -18 0 -37 110 -253 183 -360 35 -50 56 -90 52 -99 -4 -10 22 -43
75 -97 44 -46 80 -87 80 -92 0 -6 -9 -22 -21 -36 -15 -20 -18 -31 -10 -45 16
-31 60 -54 87 -48 23 6 24 11 24 81 0 41 5 77 11 80 5 4 43 -18 82 -48 40 -29
94 -68 120 -86 95 -64 222 -109 273 -97 l27 7 -22 23 c-11 12 -21 27 -21 33 0
30 93 18 125 -17 9 -10 40 -27 69 -36 59 -20 177 -25 183 -8 5 16 -69 44 -115
44 -20 0 -44 5 -52 10 -13 9 -13 11 0 20 8 5 20 11 25 14 29 11 -24 29 -110
36 -101 9 -134 23 -122 54 6 15 31 21 65 17 6 -1 20 2 29 7 29 17 -31 46 -103
50 -61 4 -64 3 -74 -22 -15 -40 -55 -34 -135 20 -77 53 -123 74 -162 74 -49 0
-102 45 -133 113 -15 34 -53 102 -83 150 -31 48 -66 118 -78 155 -37 112 -84
206 -112 225 -36 23 -47 21 -47 -8z m626 -765 c108 -54 148 -87 138 -113 -8
-21 -37 -22 -53 -3 -6 8 -33 19 -59 26 -36 9 -60 24 -99 65 -88 91 -72 97 73
25z"/>
<path d="M6843 9642 c-27 -4 -30 -17 -7 -26 14 -5 12 -12 -11 -52 -28 -48 -23
-74 16 -74 25 0 69 61 69 96 0 46 -21 64 -67 56z"/>
<path d="M6937 9493 c-13 -21 -30 -55 -38 -76 -12 -33 -11 -39 1 -47 25 -16
38 -11 65 24 32 42 45 84 34 114 -12 33 -36 27 -62 -15z"/>
<path d="M2560 9484 c0 -15 18 -59 41 -97 22 -38 38 -71 35 -74 -3 -4 -18 -1
-32 6 -29 13 -44 7 -44 -18 0 -26 20 -41 56 -41 23 0 34 5 36 18 3 12 24 -11
68 -72 210 -289 241 -324 269 -307 16 11 -29 92 -118 210 -31 41 -66 88 -79
105 -13 17 -46 76 -72 131 -59 120 -85 153 -127 161 -31 6 -33 5 -33 -22z"/>
<path d="M7107 9409 c-22 -30 -21 -36 4 -42 24 -7 33 11 21 43 l-9 23 -16 -24z"/>
<path d="M2451 9403 c-16 -30 13 -72 49 -71 48 2 54 69 7 82 -35 9 -45 7 -56
-11z"/>
<path d="M6987 9334 c-21 -41 -69 -196 -62 -202 11 -12 61 36 82 79 25 51 29
107 9 134 -13 18 -14 17 -29 -11z"/>
<path d="M5524 9337 c-3 -9 -4 -26 -2 -39 5 -34 53 -33 53 1 0 13 -10 30 -22
38 -20 14 -23 14 -29 0z"/>
<path d="M6716 9304 c-9 -25 -7 -34 8 -34 19 0 28 14 20 34 -8 20 -20 20 -28
0z"/>
<path d="M6831 9279 c-13 -39 -15 -129 -2 -129 12 0 46 48 55 77 7 23 -17 83
-33 83 -5 0 -14 -14 -20 -31z"/>
<path d="M7092 9221 c-23 -32 -51 -81 -62 -107 -43 -99 -2 -166 47 -79 47 83
90 245 64 245 -4 0 -27 -27 -49 -59z"/>
<path d="M7324 9175 c-18 -28 -16 -54 7 -68 39 -24 65 25 39 74 -14 25 -26 24
-46 -6z"/>
<path d="M4792 9148 c-13 -23 -21 -60 -26 -117 -4 -64 -12 -97 -32 -135 -30
-56 -35 -118 -14 -180 10 -30 16 -36 41 -36 43 0 51 42 15 79 -14 15 -26 33
-26 39 0 7 13 42 30 79 51 112 79 250 57 284 -16 26 -22 24 -45 -13z"/>
<path d="M7430 9141 c-13 -33 -2 -64 29 -80 38 -21 56 42 25 87 -21 30 -39 28
-54 -7z"/>
<path d="M2550 9127 c0 -49 21 -82 52 -82 24 -1 27 2 22 25 -12 53 -16 59 -45
74 l-29 14 0 -31z"/>
<path d="M2660 9138 c0 -14 8 -32 18 -41 23 -21 72 -23 72 -3 0 22 -33 55 -62
62 -25 5 -28 3 -28 -18z"/>
<path d="M3304 9115 c-3 -7 -4 -26 -2 -41 3 -24 9 -29 43 -36 22 -5 53 -21 70
-37 41 -39 72 -54 91 -43 12 7 1 22 -60 79 -80 75 -133 104 -142 78z"/>
<path d="M4587 9080 c-4 -8 -16 -41 -27 -73 -26 -69 -51 -89 -111 -85 -35 2
-45 -1 -53 -17 -18 -34 -76 -106 -134 -167 -49 -50 -60 -78 -31 -78 6 0 31 9
56 21 41 19 46 19 63 4 26 -23 57 -7 124 66 64 68 122 176 131 243 6 45 -8
112 -18 86z m-154 -291 c-15 -23 -29 -36 -31 -29 -3 9 44 70 55 70 2 0 -9 -19
-24 -41z"/>
<path d="M7281 9037 c-17 -44 -14 -136 4 -144 23 -8 27 -1 32 69 4 47 1 68
-10 83 -15 20 -16 19 -26 -8z"/>
<path d="M5405 8999 c-41 -37 -44 -49 -10 -49 30 0 65 32 65 60 0 28 -14 25
-55 -11z"/>
<path d="M2750 9003 c0 -48 93 -160 216 -258 60 -49 94 -83 94 -96 0 -10 -2
-19 -5 -19 -11 0 -61 35 -127 88 -73 58 -136 95 -150 86 -16 -10 33 -63 125
-136 50 -40 132 -106 182 -145 85 -69 152 -103 201 -103 12 0 41 -16 64 -35
39 -33 100 -49 100 -26 0 18 -78 78 -164 126 -48 27 -105 64 -125 82 -31 27
-34 32 -18 38 40 16 289 -134 356 -214 30 -35 52 -52 84 -60 62 -18 109 -11
123 17 18 37 29 44 67 44 72 0 99 -22 52 -44 -44 -20 -27 -28 57 -28 l81 0 37
-40 c44 -48 70 -50 103 -10 31 36 46 108 26 121 -23 14 -31 10 -24 -11 4 -14
-2 -28 -20 -46 -24 -24 -27 -25 -48 -10 -134 98 -235 136 -444 167 -117 18
-146 26 -193 53 -296 177 -402 256 -492 365 -62 74 -108 111 -140 111 -11 0
-18 -7 -18 -17z m883 -578 c39 -27 49 -55 19 -55 -22 0 -94 59 -87 71 10 15
28 10 68 -16z"/>
<path d="M6736 8998 c-22 -35 -36 -100 -39 -175 -2 -55 1 -68 14 -71 28 -5 88
190 75 244 -8 30 -31 31 -50 2z"/>
<path d="M2667 8963 c-12 -12 -7 -60 7 -72 18 -15 78 -10 84 6 2 7 -10 26 -26
43 -30 29 -52 37 -65 23z"/>
<path d="M5486 8945 c-3 -9 -2 -24 3 -32 7 -13 9 -12 13 5 7 26 -7 50 -16 27z"/>
<path d="M6960 8895 c-24 -25 -48 -45 -52 -45 -4 0 -14 16 -23 36 -18 43 -28
38 -49 -23 -21 -62 -20 -79 6 -97 28 -20 57 -5 65 35 12 63 67 44 57 -20 -5
-28 -1 -40 14 -54 18 -16 20 -16 33 -1 17 20 19 169 3 197 -9 15 -15 12 -54
-28z"/>
<path d="M4866 8907 c-38 -38 -30 -66 14 -52 31 10 45 44 27 62 -14 14 -18 13
-41 -10z"/>
<path d="M3803 8894 c-4 -11 1 -23 16 -36 25 -19 81 -25 81 -8 0 13 -37 50
-49 50 -5 0 -16 3 -25 6 -10 4 -18 -1 -23 -12z"/>
<path d="M4255 8869 c-54 -41 -125 -109 -125 -120 0 -23 63 -6 121 34 64 42
92 78 82 103 -8 22 -35 16 -78 -17z"/>
<path d="M7341 8767 c-6 -16 -14 -46 -17 -68 -5 -31 -3 -39 8 -39 37 0 61 80
34 115 -14 20 -15 19 -25 -8z"/>
<path d="M7215 8760 c-5 -7 -8 -41 -7 -74 0 -34 -6 -83 -15 -110 -19 -59 -13
-259 10 -341 22 -80 57 -138 74 -121 3 3 -3 38 -13 78 -16 63 -19 106 -17 309
2 182 -1 240 -11 254 -10 14 -15 15 -21 5z"/>
<path d="M3243 8743 c-10 -26 50 -73 92 -73 63 0 36 46 -43 74 -39 14 -43 14
-49 -1z"/>
<path d="M5324 8667 c-48 -48 -74 -80 -74 -95 0 -21 1 -22 28 -8 37 19 152
140 152 160 0 32 -33 14 -106 -57z"/>
<path d="M6803 8684 c-15 -39 29 -395 77 -631 10 -46 33 -83 45 -72 7 8 -14
189 -31 259 -8 36 -19 139 -24 229 -5 91 -15 180 -21 198 -11 35 -35 44 -46
17z"/>
<path d="M6666 8654 c-17 -17 -13 -53 8 -66 16 -11 37 22 34 51 -4 31 -21 37
-42 15z"/>
<path d="M3421 8636 c-11 -13 -7 -18 21 -36 47 -29 160 -62 200 -58 l33 3 -29
27 c-53 50 -201 93 -225 64z"/>
<path d="M3890 8613 c-157 -17 -188 -29 -169 -65 16 -30 73 -39 153 -23 84 16
227 66 229 80 2 10 -145 16 -213 8z"/>
<path d="M4733 8589 c-34 -16 -72 -43 -83 -59 -40 -56 -302 -228 -397 -261
-56 -19 -143 -74 -143 -89 0 -18 56 -10 74 9 9 10 43 24 75 30 41 8 100 36
212 101 85 50 159 90 166 90 16 0 102 75 152 133 70 82 50 98 -56 46z"/>
<path d="M2850 8585 c0 -32 113 -126 207 -173 45 -23 62 -38 65 -54 2 -19 10
-23 47 -26 29 -2 55 -12 74 -28 44 -37 119 -28 87 11 -6 8 -55 37 -108 66 -53
28 -133 78 -177 110 -97 70 -195 117 -195 94z"/>
<path d="M6725 8529 c-13 -19 4 -59 25 -59 25 0 27 32 4 54 -18 19 -21 19 -29
5z"/>
<path d="M1935 8507 c11 -40 -17 -51 -134 -55 -76 -2 -146 4 -251 21 -176 29
-184 27 -178 -45 6 -55 20 -71 58 -62 46 11 263 23 412 24 137 0 148 1 158 20
8 15 7 28 -6 52 -31 62 -70 92 -59 45z"/>
<path d="M5170 8519 c-27 -11 -80 -58 -80 -71 0 -4 11 -8 24 -8 25 0 106 55
114 78 4 14 -23 15 -58 1z"/>
<path d="M3923 8475 c-11 -31 70 -65 108 -45 10 6 19 17 19 24 0 32 -115 51
-127 21z"/>
<path d="M4716 8435 c-9 -9 -21 -24 -28 -34 -26 -36 -120 -100 -225 -155 -125
-65 -143 -77 -143 -100 0 -35 55 -17 172 58 119 77 194 118 238 131 38 11 60
35 60 66 0 43 -45 63 -74 34z"/>
<path d="M6633 8374 c-10 -28 -8 -87 3 -91 16 -5 35 54 28 83 -7 28 -22 31
-31 8z"/>
<path d="M6741 8328 c-9 -24 -5 -44 12 -65 26 -34 42 5 22 53 -16 40 -23 42
-34 12z"/>
<path d="M1510 8329 c-112 -10 -128 -15 -111 -32 8 -8 57 -11 169 -9 92 1 180
-2 212 -9 30 -7 95 -13 143 -14 84 -2 89 -3 116 -32 24 -26 37 -31 115 -41 70
-9 111 -22 187 -58 107 -50 152 -55 157 -18 2 12 -7 33 -20 48 -19 21 -39 28
-119 40 -53 9 -114 21 -135 29 -37 12 -39 15 -38 52 1 22 -3 43 -10 47 -15 10
-546 7 -666 -3z"/>
<path d="M3380 8266 c0 -16 50 -42 103 -51 33 -6 37 -5 37 13 0 14 -12 25 -40
36 -50 20 -100 21 -100 2z"/>
<path d="M4972 8268 c-7 -7 -12 -20 -12 -31 0 -15 6 -18 36 -15 43 3 69 32 44
48 -21 13 -54 12 -68 -2z"/>
<path d="M3904 8245 c-14 -35 41 -60 66 -30 10 12 10 18 0 30 -16 19 -59 19
-66 0z"/>
<path d="M4813 8198 c-41 -20 -34 -58 13 -72 44 -13 74 52 35 74 -23 12 -20
12 -48 -2z"/>
<path d="M3600 8191 c0 -16 33 -23 125 -28 65 -4 87 -2 80 6 -22 23 -205 43
-205 22z"/>
<path d="M4516 8175 c-34 -34 17 -68 59 -41 30 20 31 32 6 46 -27 14 -47 13
-65 -5z"/>
<path d="M6650 8156 c-29 -36 14 -96 46 -64 15 14 15 21 4 47 -14 34 -31 39
-50 17z"/>
<path d="M3865 8137 c-59 -23 -76 -38 -73 -60 2 -14 11 -23 25 -25 39 -6 133
54 133 85 0 16 -43 16 -85 0z"/>
<path d="M3529 8123 c-26 -31 34 -94 63 -65 16 16 1 57 -26 70 -20 9 -27 8
-37 -5z"/>
<path d="M3949 8044 c-17 -20 2 -34 49 -34 37 0 44 23 13 40 -28 14 -46 13
-62 -6z"/>
<path d="M7290 8011 c-16 -31 -12 -48 19 -73 16 -13 39 -46 51 -75 36 -86 74
-101 51 -21 -20 68 -82 188 -97 188 -7 0 -18 -9 -24 -19z"/>
<path d="M6664 7723 c11 -47 82 -186 115 -228 24 -29 31 -47 27 -65 -4 -22 2
-30 40 -53 24 -14 44 -33 44 -40 0 -23 40 -67 61 -67 36 0 17 42 -68 153 -24
31 -65 96 -90 145 -76 144 -146 228 -129 155z"/>
<path d="M2730 7731 c0 -12 37 -24 50 -16 20 12 10 25 -20 25 -16 0 -30 -4
-30 -9z"/>
<path d="M7086 7721 c-11 -18 2 -62 26 -88 53 -57 67 2 15 62 -24 27 -36 35
-41 26z"/>
<path d="M7190 7532 c0 -22 96 -141 133 -165 48 -32 61 -14 31 44 -44 86 -164
174 -164 121z"/>
<path d="M2320 7405 c0 -36 111 -68 118 -33 2 11 -8 23 -27 32 -39 21 -91 21
-91 1z"/>
<path d="M2540 7311 c0 -15 84 -80 245 -191 83 -57 203 -141 268 -188 74 -52
122 -81 128 -75 6 6 0 38 -15 85 -14 42 -30 104 -35 137 -12 72 -16 81 -41 81
-59 0 -64 -26 -15 -74 37 -37 42 -50 25 -61 -17 -10 -148 56 -282 143 -135 87
-248 152 -266 152 -7 0 -12 -4 -12 -9z"/>
<path d="M2370 7282 c0 -14 42 -48 140 -112 140 -91 217 -132 242 -128 66 9
-8 67 -226 178 -139 70 -156 77 -156 62z"/>
<path d="M1483 7259 c-40 -12 -42 -26 -6 -40 52 -19 147 10 128 41 -8 12 -78
12 -122 -1z"/>
<path d="M2230 7242 c0 -16 46 -51 175 -133 149 -94 323 -221 410 -300 268
-242 421 -389 449 -433 19 -28 50 -67 70 -85 l36 -35 0 50 c0 70 -9 93 -41
109 -15 8 -81 69 -146 136 -65 67 -135 132 -156 145 -84 55 -237 218 -237 254
0 20 0 20 38 1 47 -25 100 -70 296 -251 87 -80 164 -146 172 -148 10 -3 14 7
14 37 0 60 -16 94 -40 86 -15 -5 -28 3 -52 29 -43 46 -241 202 -311 244 -93
56 -110 60 -157 33 -44 -25 -70 -22 -70 7 0 35 -78 86 -317 206 -112 56 -133
63 -133 48z"/>
<path d="M6990 7225 c0 -8 23 -38 50 -67 38 -39 53 -49 61 -41 27 27 -46 123
-92 123 -10 0 -19 -7 -19 -15z"/>
<path d="M1538 7175 c-12 -13 34 -32 108 -44 38 -7 79 -15 92 -18 18 -4 22 -1
22 20 0 14 -7 28 -17 32 -26 11 -197 19 -205 10z"/>
<path d="M7053 7024 c-15 -24 -15 -29 -2 -53 20 -36 56 -40 64 -8 7 26 -18 87
-35 87 -5 0 -17 -12 -27 -26z"/>
<path d="M1517 6913 c-24 -23 9 -88 38 -76 21 7 30 50 15 68 -13 16 -42 20
-53 8z"/>
<path d="M2540 6161 c0 -67 69 -142 85 -92 7 22 -17 85 -42 113 -27 30 -43 22
-43 -21z"/>
<path d="M3410 10254 c0 -61 25 -94 73 -94 21 0 27 5 27 20 0 35 -37 97 -62
104 -36 9 -38 8 -38 -30z"/>
<path d="M1654 5956 c5 -40 20 -65 32 -53 9 9 -2 49 -21 72 -16 19 -16 18 -11
-19z"/>
<path d="M2830 12183 l-35 -17 32 -4 c28 -3 93 20 93 33 0 11 -58 3 -90 -12z"/>
<path d="M8140 11256 c0 -8 145 -64 183 -71 54 -10 50 18 -5 39 -82 29 -178
47 -178 32z"/>
<path d="M7974 11199 c-13 -15 -31 -19 -80 -19 -63 0 -95 -15 -52 -24 25 -6
494 -71 568 -80 60 -7 79 4 61 37 -12 22 -17 23 -89 19 -88 -4 -236 23 -332
61 -58 24 -60 24 -76 6z"/>
<path d="M7632 11188 c6 -16 66 -28 91 -19 18 7 17 9 -13 19 -44 16 -83 15
-78 0z"/>
<path d="M8519 11093 c-17 -44 -7 -55 76 -88 44 -17 139 -59 212 -93 72 -34
142 -63 155 -64 21 -3 23 2 26 42 3 43 3 44 -16 27 -10 -9 -28 -17 -40 -17
-33 0 -163 71 -271 149 -54 39 -106 71 -115 71 -9 0 -21 -12 -27 -27z"/>
<path d="M8500 10976 c0 -3 58 -35 128 -70 70 -35 147 -80 170 -99 23 -19 62
-43 88 -53 36 -14 49 -26 65 -58 12 -26 35 -51 64 -69 25 -16 82 -69 126 -118
45 -49 86 -89 91 -89 5 0 11 7 14 15 12 29 -6 60 -49 88 -111 69 -159 131
-125 165 20 20 -7 38 -186 126 -209 103 -386 177 -386 162z"/>
<path d="M8099 10634 c-41 -42 -70 -51 -101 -30 -53 37 -213 8 -213 -39 0 -31
33 -31 45 0 13 35 29 39 91 21 78 -23 150 -21 184 6 51 40 154 18 279 -57 61
-36 76 -42 76 -26 0 25 -85 69 -266 137 l-61 23 -34 -35z"/>
<path d="M8614 10411 c4 -6 53 -50 109 -98 277 -239 606 -629 595 -705 -5 -31
9 -38 19 -11 8 21 -21 102 -59 165 -27 44 -29 51 -16 65 14 13 19 13 47 -1 30
-16 31 -16 31 3 0 26 -89 157 -140 206 -47 45 -41 24 14 -48 67 -88 83 -137
44 -137 -28 0 -204 183 -212 220 -3 18 -45 57 -138 131 -200 159 -311 239
-294 210z"/>
<path d="M7822 10209 c-32 -12 -22 -35 14 -31 30 4 54 18 54 33 0 11 -38 10
-68 -2z"/>
<path d="M8140 10156 c0 -4 15 -15 33 -26 34 -21 67 -26 67 -10 0 5 -8 13 -17
18 -24 13 -83 25 -83 18z"/>
<path d="M8190 10056 c0 -11 125 -95 128 -86 6 17 -18 40 -70 66 -47 24 -58
28 -58 20z"/>
<path d="M8850 9953 c0 -10 52 -63 62 -63 15 0 8 21 -17 45 -23 24 -45 33 -45
18z"/>
<path d="M8050 9875 c-11 -14 -11 -18 2 -32 9 -8 21 -12 27 -9 14 9 14 18 -2
40 -12 16 -14 17 -27 1z"/>
<path d="M8741 9830 c6 -14 40 -73 75 -132 118 -200 170 -315 304 -673 29 -77
54 -158 56 -180 2 -22 9 -59 15 -83 9 -34 14 -40 25 -31 25 21 28 75 5 121
-11 24 -36 93 -56 154 -19 61 -46 131 -59 155 -29 54 -73 189 -82 256 -5 45
-9 50 -38 59 -26 8 -31 13 -28 37 2 21 -17 57 -79 147 -84 124 -161 218 -138
170z"/>
<path d="M8850 9824 c0 -13 145 -250 171 -278 41 -47 42 -15 1 53 -37 62 -160
231 -168 231 -2 0 -4 -3 -4 -6z"/>
<path d="M8990 9785 c0 -6 32 -69 71 -140 39 -72 103 -188 141 -260 87 -164
94 -171 102 -114 4 24 14 76 23 116 18 80 14 103 -18 103 -17 0 -20 -4 -15
-22 18 -65 19 -78 0 -85 -25 -10 -69 45 -171 214 -86 141 -132 207 -133 188z"/>
<path d="M9056 9451 c25 -34 64 -124 128 -291 77 -203 82 -211 96 -190 22 33
23 62 3 79 -12 9 -26 34 -33 56 -24 77 -133 286 -169 324 -20 20 -31 30 -25
22z"/>
<path d="M8705 9064 c3 -29 19 -110 35 -180 16 -71 34 -167 41 -213 25 -175
-10 -590 -61 -736 -24 -70 -90 -313 -90 -335 0 -13 2 -13 14 0 27 28 58 124
121 380 71 286 80 314 96 305 7 -5 9 -44 4 -124 -6 -100 -4 -119 10 -136 16
-19 16 -19 10 15 -3 19 0 85 6 146 12 107 12 111 -9 140 -23 30 -42 142 -58
330 -7 91 6 120 30 62 26 -63 82 -357 100 -527 6 -58 15 -104 21 -103 6 1 11
12 12 24 2 13 8 53 14 90 9 55 8 71 -4 90 -8 13 -18 43 -21 68 -4 25 -16 72
-26 105 -11 33 -24 101 -29 152 -6 58 -17 102 -28 120 -12 18 -18 46 -18 85 0
42 -5 62 -18 75 -17 17 -18 15 -15 -41 2 -40 -1 -60 -9 -63 -15 -5 -25 18 -64
144 -15 50 -37 111 -48 135 l-21 43 5 -51z"/>
<path d="M8546 8945 c-11 -30 -6 -82 9 -95 22 -18 41 29 29 72 -11 36 -29 47
-38 23z"/>
<path d="M8647 8900 c-3 -14 -12 -53 -20 -87 -14 -65 -8 -80 17 -40 20 31 28
86 18 122 -9 30 -9 30 -15 5z"/>
<path d="M8812 7916 c2 -16 9 -31 16 -34 17 -5 15 20 -3 44 -15 18 -15 18 -13
-10z"/>
<path d="M8215 7880 c-22 -33 -35 -40 -79 -46 -36 -5 -69 -34 -107 -93 -28
-43 -39 -96 -20 -89 5 2 29 32 53 68 46 70 74 84 71 37 -2 -33 -55 -121 -135
-228 -59 -79 -72 -113 -41 -107 30 6 217 288 269 406 36 81 29 112 -11 52z"/>
<path d="M8527 7433 c-10 -9 -8 -43 2 -43 5 0 14 7 21 15 17 21 -4 48 -23 28z"/>
<path d="M7862 7364 c-24 -17 -21 -34 7 -34 23 0 41 19 34 36 -7 18 -13 18
-41 -2z"/>
<path d="M8300 7230 c-8 -5 -11 -12 -8 -16 10 -9 58 4 58 16 0 13 -30 13 -50
0z"/>
<path d="M8152 7024 c-65 -17 -114 -42 -107 -54 9 -15 166 38 173 59 5 14 0
13 -66 -5z"/>
<path d="M7893 6953 c-25 -9 -13 -23 20 -23 44 0 78 10 71 21 -5 9 -70 11 -91
2z"/>
<path d="M7701 6841 c-12 -8 -13 -12 -1 -26 18 -22 55 -16 55 10 0 22 -31 31
-54 16z"/>
<path d="M605 6625 c-24 -23 -34 -55 -17 -55 5 0 20 13 35 28 46 48 28 74 -18
27z"/>
<path d="M701 6604 c-34 -53 -37 -64 -18 -64 30 0 77 84 58 103 -6 6 -20 -7
-40 -39z"/>
<path d="M930 6510 c0 -44 -20 -80 -49 -87 -41 -9 -43 -13 -22 -39 29 -36 39
-76 51 -193 18 -184 48 -248 42 -91 -4 85 2 115 34 194 6 16 3 18 -25 14 -46
-7 -51 8 -30 87 31 111 35 145 15 145 -11 0 -16 -9 -16 -30z"/>
<path d="M847 6523 c-12 -11 -8 -40 8 -53 13 -11 15 -7 15 24 0 34 -8 44 -23
29z"/>
<path d="M552 6494 c-22 -15 -31 -64 -11 -64 17 0 71 59 64 70 -9 14 -27 12
-53 -6z"/>
<path d="M646 6380 c-11 -64 -12 -219 -2 -209 11 11 26 210 17 226 -8 14 -10
11 -15 -17z"/>
<path d="M735 6357 c-4 -21 -3 -53 2 -70 10 -32 10 -32 17 20 10 65 -8 110
-19 50z"/>
<path d="M520 6285 c-15 -18 -6 -45 14 -45 16 0 31 34 21 50 -9 14 -21 12 -35
-5z"/>
<path d="M810 6249 c0 -51 11 -99 23 -99 12 0 3 92 -12 118 -8 14 -10 10 -11
-19z"/>
<path d="M1027 6240 c-15 -56 4 -414 24 -452 6 -11 20 -70 30 -132 25 -142 27
-146 50 -146 24 0 24 21 0 91 -39 115 -66 278 -76 469 -4 63 -10 133 -14 155
-6 36 -7 38 -14 15z"/>
<path d="M1100 6200 c6 -11 15 -18 20 -15 13 8 0 35 -16 35 -12 0 -12 -4 -4
-20z"/>
<path d="M610 6051 c0 -6 5 -13 10 -16 6 -4 9 -24 8 -45 -4 -47 13 -54 26 -11
12 42 0 81 -24 81 -11 0 -20 -4 -20 -9z"/>
<path d="M734 5976 c-3 -19 -3 -49 1 -67 7 -31 8 -32 21 -14 22 29 16 115 -7
115 -4 0 -11 -15 -15 -34z"/>
<path d="M1240 5907 c0 -27 12 -47 27 -47 21 0 13 54 -9 58 -11 2 -18 -3 -18
-11z"/>
<path d="M1150 5872 c0 -34 14 -43 24 -15 4 9 0 23 -9 32 -13 14 -15 12 -15
-17z"/>
<path d="M834 5853 c3 -21 8 -60 12 -87 5 -39 9 -45 17 -31 9 17 4 106 -9 139
-12 31 -26 16 -20 -21z"/>
<path d="M957 5850 c-8 -31 -9 -173 -1 -194 3 -9 12 -16 20 -16 18 0 18 67 0
165 -9 55 -13 65 -19 45z"/>
<path d="M743 5757 c3 -27 10 -54 16 -60 18 -18 14 66 -5 89 -14 18 -15 16
-11 -29z"/>
<path d="M1171 5752 c-1 -27 30 -92 36 -75 2 6 -5 31 -16 55 -15 34 -19 38
-20 20z"/>
<path d="M1314 5570 c3 -14 6 -33 6 -42 0 -10 5 -18 11 -18 13 0 2 60 -13 75
-7 7 -9 2 -4 -15z"/>
<path d="M971 5525 c-12 -50 -31 -57 -64 -27 -19 17 -20 16 -12 -33 9 -61 11
-65 36 -65 18 0 23 10 20 37 -3 21 19 53 35 53 8 0 21 -15 29 -34 17 -41 33
-53 41 -32 7 18 -50 146 -64 146 -5 0 -15 -20 -21 -45z"/>
<path d="M772 5493 c3 -33 16 -82 29 -109 l23 -49 3 35 c4 46 -28 172 -46 178
-11 4 -13 -7 -9 -55z"/>
<path d="M1220 5519 c0 -8 9 -32 20 -54 11 -21 27 -66 35 -99 24 -94 117 -245
173 -282 40 -26 36 -9 -12 53 -42 55 -103 167 -160 296 -30 68 -56 108 -56 86z"/>
<path d="M1410 5489 c0 -37 106 -178 219 -289 147 -145 205 -181 308 -190 98
-8 208 4 241 26 25 16 25 18 7 25 -32 12 -84 10 -113 -5 -75 -39 -214 -25
-265 26 -16 15 -35 28 -43 28 -28 0 -190 167 -223 230 -36 67 -130 175 -131
149z"/>
<path d="M1153 5416 c9 -57 64 -177 134 -291 101 -168 123 -208 123 -232 0
-16 -6 -23 -20 -23 -34 0 -207 262 -270 410 -24 56 -42 86 -54 88 -16 3 -18 0
-12 -24 13 -52 74 -173 130 -259 31 -47 62 -100 70 -118 8 -18 39 -60 70 -95
31 -35 56 -66 56 -70 0 -4 -7 -17 -15 -29 -13 -19 -13 -23 6 -47 12 -15 26
-25 33 -23 6 2 13 34 16 72 3 38 10 70 16 72 6 2 48 -24 94 -57 98 -73 189
-124 249 -140 54 -14 70 -3 46 33 -15 24 -15 26 4 32 28 8 94 -11 115 -34 32
-35 181 -61 181 -31 0 13 -59 29 -139 39 -5 1 -2 9 7 19 10 10 17 21 17 24 0
3 -35 8 -78 11 -43 3 -85 9 -94 12 -44 17 -19 65 35 65 30 1 31 1 13 15 -11 8
-39 15 -62 15 -33 0 -44 -4 -49 -19 -13 -43 -54 -34 -164 38 -38 24 -76 41
-93 41 -16 0 -42 7 -57 15 -32 16 -81 70 -81 88 0 7 -27 54 -60 106 -33 52
-72 126 -86 165 -31 83 -72 166 -80 166 -4 0 -4 -15 -1 -34z m503 -605 c54
-26 107 -58 118 -69 36 -41 -8 -80 -48 -43 -12 11 -30 21 -40 21 -39 0 -133
77 -149 123 -10 27 11 21 119 -32z"/>
<path d="M944 5299 c10 -53 291 -459 316 -459 7 0 7 8 -1 23 -21 40 -105 161
-144 207 -20 24 -55 80 -77 125 -47 92 -75 135 -90 135 -6 0 -8 -12 -4 -31z"/>
<path d="M845 5250 c-8 -13 4 -50 16 -50 5 0 9 14 9 30 0 30 -13 40 -25 20z"/>
<path d="M940 5166 c0 -15 18 -31 26 -23 7 7 -7 37 -17 37 -5 0 -9 -6 -9 -14z"/>
<path d="M2811 5042 c-6 -10 -15 -56 -20 -101 -7 -50 -19 -96 -31 -116 -24
-39 -26 -101 -5 -152 15 -35 17 -36 33 -20 14 14 14 20 4 35 -35 49 -35 57 -3
129 35 80 50 141 51 201 0 44 -13 55 -29 24z"/>
<path d="M1020 5027 c0 -7 6 -21 13 -32 18 -24 32 -3 17 25 -12 23 -30 27 -30
7z"/>
<path d="M930 5005 c0 -11 5 -27 10 -35 8 -12 10 -12 10 5 0 11 -5 27 -10 35
-8 12 -10 12 -10 -5z"/>
<path d="M1562 4983 c2 -21 9 -29 28 -32 14 -1 42 -18 62 -37 40 -36 61 -44
52 -19 -7 18 -121 115 -136 115 -5 0 -8 -12 -6 -27z"/>
<path d="M2622 4938 c-23 -66 -48 -88 -98 -88 -42 0 -45 -2 -60 -39 -9 -24
-43 -65 -82 -102 -71 -66 -71 -85 0 -53 39 17 41 17 53 0 17 -23 37 -12 92 46
72 79 119 180 111 243 l-3 30 -13 -37z m-82 -153 c0 -16 -43 -87 -56 -92 -22
-8 -27 2 -14 29 22 42 70 85 70 63z"/>
<path d="M3322 4917 c-39 -41 -21 -66 18 -27 20 20 27 50 12 50 -5 0 -18 -10
-30 -23z"/>
<path d="M1100 4904 c0 -28 58 -101 132 -166 124 -110 132 -118 119 -131 -15
-15 -60 8 -146 77 -38 31 -73 56 -77 56 -31 0 22 -51 189 -184 123 -97 172
-126 216 -126 13 0 41 -13 62 -30 41 -33 55 -37 55 -17 0 16 -60 60 -150 110
-158 87 -144 138 15 56 103 -54 150 -86 203 -143 66 -71 147 -83 175 -26 14
28 49 36 90 21 23 -9 26 -14 18 -30 -10 -17 -6 -19 51 -23 53 -4 65 -8 90 -37
16 -18 36 -31 46 -29 20 4 62 64 62 91 0 16 -4 15 -29 -12 -16 -17 -33 -31
-39 -31 -5 0 -31 18 -58 39 -61 51 -153 85 -285 106 -167 26 -189 33 -294 98
-191 117 -250 162 -340 254 -49 51 -93 93 -97 93 -4 0 -8 -7 -8 -16z m721
-467 c36 -24 51 -57 26 -57 -22 0 -81 44 -85 63 -5 24 19 21 59 -6z"/>
<path d="M1020 4857 c0 -33 27 -56 36 -32 8 19 -5 46 -24 53 -7 2 -12 -6 -12
-21z"/>
<path d="M2864 4825 c-4 -14 -4 -28 -1 -31 7 -8 37 26 37 42 0 24 -29 15 -36
-11z"/>
<path d="M1980 4821 c0 -12 29 -41 41 -41 13 0 11 24 -3 38 -14 14 -38 16 -38
3z"/>
<path d="M2350 4796 c-54 -40 -96 -84 -88 -92 19 -18 148 76 148 107 0 26 -8
24 -60 -15z"/>
<path d="M1510 4690 c0 -15 38 -50 55 -50 22 0 18 27 -7 44 -26 18 -48 21 -48
6z"/>
<path d="M3293 4670 c-46 -34 -96 -95 -91 -111 2 -6 15 -1 30 10 33 26 112
120 106 126 -2 3 -23 -9 -45 -25z"/>
<path d="M1660 4603 c0 -6 6 -16 14 -22 15 -13 122 -51 143 -51 26 0 12 27
-26 48 -43 25 -131 41 -131 25z"/>
<path d="M1995 4579 c-78 -10 -95 -21 -78 -47 8 -13 23 -17 64 -15 56 2 214
46 224 63 8 12 -111 11 -210 -1z"/>
<path d="M2751 4565 c-24 -14 -52 -36 -63 -50 -38 -49 -275 -201 -349 -224
-41 -13 -113 -70 -88 -71 9 0 24 9 34 20 10 11 31 20 47 20 32 0 99 32 237
114 52 31 101 56 109 56 16 0 152 135 152 151 0 16 -34 9 -79 -16z"/>
<path d="M1190 4540 c13 -24 100 -90 157 -119 24 -12 50 -32 58 -45 11 -17 22
-22 40 -18 17 3 34 -4 55 -22 32 -27 55 -33 64 -17 8 13 -22 35 -99 74 -38 19
-98 56 -133 81 -62 46 -130 86 -145 86 -4 0 -3 -9 3 -20z"/>
<path d="M3125 4510 c-29 -12 -72 -60 -54 -60 22 0 90 50 84 61 -4 5 -7 9 -8
8 -1 0 -11 -4 -22 -9z"/>
<path d="M2080 4465 c0 -19 45 -38 72 -29 11 3 18 13 16 22 -4 24 -88 30 -88
7z"/>
<path d="M2708 4395 c-35 -30 -111 -80 -170 -111 -111 -58 -134 -76 -123 -93
8 -14 57 11 172 86 48 31 112 67 142 79 52 21 56 26 59 58 2 20 -1 36 -7 36
-5 0 -38 -25 -73 -55z"/>
<path d="M1626 4301 c-8 -12 27 -36 66 -45 33 -8 43 6 20 28 -23 20 -77 31
-86 17z"/>
<path d="M2962 4298 c-18 -18 -15 -38 6 -38 21 0 42 18 42 37 0 16 -32 17 -48
1z"/>
<path d="M2066 4281 c-3 -4 0 -16 7 -25 12 -16 14 -16 26 -2 7 8 10 20 6 26
-8 12 -32 13 -39 1z"/>
<path d="M2827 4239 c-24 -14 -21 -46 4 -54 33 -11 53 31 26 53 -8 7 -18 7
-30 1z"/>
<path d="M1817 4229 c14 -14 133 -25 133 -12 0 11 -55 23 -109 23 -25 0 -32
-3 -24 -11z"/>
<path d="M2573 4214 c-3 -8 0 -21 6 -27 14 -14 44 2 49 27 5 22 -46 22 -55 0z"/>
<path d="M2040 4191 c-42 -13 -70 -35 -70 -53 0 -27 32 -22 78 12 59 43 55 60
-8 41z"/>
<path d="M1750 4155 c0 -14 7 -28 15 -32 22 -8 28 2 21 32 -8 33 -36 33 -36 0z"/>
<path d="M2105 4109 c-9 -13 -5 -16 20 -21 12 -2 21 3 23 15 4 19 -32 25 -43
6z"/>
</g>
</svg>
