<svg version="1.0" xmlns="http://www.w3.org/2000/svg" width="1705.333" height="1706.667" viewBox="0 0 1279 1280"><path d="M412.8 28.8c-1.2 4.5-13.1 5.1-33.3 1.6-12.6-2.2-14.1-2-14.9 1.8-.9 4.4 1.4 6.2 6.9 5.4 2.2-.3 12.8-.9 23.5-1.2 23.8-.8 25.5-1.4 20.7-7-2.3-2.6-2.4-2.7-2.9-.6zm-82.6 3.1c-3.4 1-6.6 2.2-7 2.6-.8.9 16-.1 20-1.2 1.5-.5 2.9-1.3 3-1.8.5-1.7-9.4-1.5-16 .4zm22.7 2.4c-4.3 3.9-28.1 10.7-37.1 10.7-2.6 0-3.7.6-5 2.9-.9 1.7-3.9 4.2-7 5.7-3.6 1.9-4.7 2.9-3.6 3.2 2.4.5 57.3-17.6 60-19.7 1.9-1.6 1.9-1.8.3-3.4-2.2-2.3-4.5-2.1-7.6.6zm34.6 7.8c-7.7.3-15.1.7-16.5.8-1.5.1-2 .5-1.5 1 .6.6 8.4 1.2 17.5 1.5 27.1.9 32.1 1.5 34 3.8 1.2 1.5 3.8 2.4 10 3.4 5.3.9 11.1 2.6 15.8 4.9 10.4 4.9 15.9 4.5 11.9-.9-.9-1.2-4.1-2.2-10.3-3.3-12-2-15.9-3.9-15.9-7.8 0-2.9-.1-3-6-3.6-7.4-.8-20.7-.8-39 .2zm-43.2 7.4c-2.8 1.2-3.3 1.9-3.3 5 0 4.7-2.1 5.4-6.1 2.1-3.5-3-8.1-3.4-13.4-1.2-2.4 1-3.5 2.2-3.5 3.5 0 2.4-2.8 4.1-6.5 4.1s-19 5.2-26.7 9.1c-6.1 3-15.9 10.9-13.6 10.9.6 0 7.9-2.9 16.2-6.4 8.3-3.5 18.4-7.4 22.5-8.6 4.2-1.3 8.7-3.5 10.6-5.1 3.6-3.2 4.5-2.9 4.5 1.2 0 4-3.2 6.1-16.8 10.7-16.3 5.6-32.9 13-36.8 16.4-1.7 1.5-4.3 2.8-5.7 2.8-1.4 0-3.8.5-5.2 1.2l-2.6 1.2L260 98c1.9 1.4 2.1 2 1.1 3.8-1.3 2.5-8 6.2-11.1 6.2-1.1 0-2 .5-2 1.1 0 2.1 2.1 4.9 3.8 4.9.9 0 5.8-3.7 10.7-8.1 14.9-13.4 30.3-22.8 45.8-27.9 6.9-2.2 9.2-2.1 6.6.5-2.3 2.3-19.6 10.5-25.2 11.9-3.5.9-5.3 1.9-5.8 3.4-.5 1.2-2.9 3.2-5.4 4.4-3.4 1.7-4.8 3-5.2 5-.3 1.7-1.5 3.1-3.2 3.7-1.4.6-4.2 2-6.1 3.1-1.9 1.1-4.2 2-5.2 2s-3.2 1.3-5 2.8c-1.8 1.5-7.6 5.4-12.8 8.7-67.9 42-120.8 106.3-148.5 180.5C76 348 68 395.4 69.3 440.5c.6 17.8 2.6 40.5 4.6 50.3.7 3.5.5 4.6-1 6.6-1.8 2.3-1.8 2.4.1 2.9 1.1.3 2 1.2 2 2 0 2.3-5.6 6.5-9.5 7.3-1.9.3-3.5 1.1-3.5 1.6 0 .9 1.8 4.7 2.6 5.7.2.2 2.7-1.5 5.4-3.8 4.5-3.8 8-4.8 8-2.4 0 .5-3.1 4-6.8 7.8-7.7 8-12.7 14.3-11.9 15.1.2.3 4.6-2.9 9.6-7.1 5-4.2 9.5-7.4 10.1-7 2.7 1.7.4 5.4-10.5 16.6-6.3 6.6-11.9 12.8-12.5 13.9-2.3 4.3 1.5 1.7 12.6-8.8 6.4-5.9 11.9-10.8 12.4-11 .5-.2 1.4.7 2 1.9 1.1 1.9.1 3.2-11.7 14.8-7 7-14.8 14.4-17.3 16.4-3.5 2.8-4.2 3.9-3.3 4.8 1.9 1.9 8-2.7 21.4-15.8 6.4-6.2 12-11.3 12.6-11.3.6 0 1.4.7 1.7 1.6.4 1.1-3.1 5.5-11.3 14.2-16.2 17.1-26.3 30.3-24.6 32 .3.3 1.6-.6 2.8-2 1.2-1.4 3.4-2.9 4.9-3.2 2.1-.5 3-1.5 3.8-4.5 1.2-4.4 7.8-12.4 12.1-14.7 2.7-1.3 3-1.3 3.6.2.4 1.1-.5 2.6-3.1 4.8-2.3 2-4.1 4.7-4.9 7.6-.8 2.5-3.2 7-5.5 10-8.3 10.9-14.9 27.3-11.7 29 1 .6 2.6-2.3 4.9-9 3.1-8.8 17.3-29.7 29-42.5 4.4-4.8 4.6-4.9 6.1-3.1.8 1.1 1.5 2.6 1.5 3.3 0 .7-3.9 5.5-8.7 10.6-11.6 12.3-16.3 18.4-16.3 21 0 1.2-.9 3.3-2 4.7-2.2 2.8-2.7 7-.8 7 .7 0 2.2-1.2 3.4-2.7 2.1-2.6 2.2-2.7 4.7-1 1.5.9 3 1.7 3.5 1.7.9 0 5.2-8.5 5.2-10.3 0-.6-1.4.4-3 2.3-3.8 4.7-5.5 3.2-3.5-3.2.7-2.5 2.1-6 3-7.7 1.7-3.4 14.2-17.1 15.6-17.1 1.2 0 3.9 5.5 3.9 7.8 0 2.5-9.3 22.4-11.2 24-3.2 2.6-11 24.3-9.4 25.9.2.3 5.1-8.8 10.7-20.1 10.1-20.5 11.9-23.3 13.9-22.1 1.6 1 1.2 3.4-1 6.6-2 2.7-10 20-11.4 24.6-.4 1.4-.3 2.3.3 2.3.5 0 3.3-4.4 6.1-9.8s6.2-11.1 7.5-12.7l2.3-2.9 2.1 3.4c1.1 1.9 2.1 3.9 2.1 4.5-.1.5-1.8 2.2-3.9 3.6-4.3 3-8.7 10.9-7.6 13.7.8 2 1.4 1.3 6.5-7.1 2-3.2 3.6-4.7 5.1-4.7 2.8 0 2.3 2.9-2.6 13.8-2.9 6.5-3.8 10.1-4.2 16.1-.4 5.2-.2 8 .5 8.5.7.4 1.3-.3 1.6-1.6 3.1-14.1 4.9-20.4 7.1-25.3 2.5-5.8 2.5-5.8 4.6-3.9 2.4 2.2 2.3 3.3-2.1 15.7-4.3 12.1-3.4 14 1.4 2.8 3.9-9.3 5.5-10.7 7.9-7 .7 1.2.3 3-1.7 7.1-3.1 6.3-4.5 12.8-2.7 12.8.6 0 2.5-2.8 4.2-6.3 3.9-7.7 3.6-7.4 5.6-5.4 1.6 1.6 1.6 2.1-.2 8.9-1 4-2.2 7.9-2.8 8.5-.5.7-2.7 1.3-4.9 1.3-3.5 0-4 .4-5.2 3.2-.7 1.8-2.4 8.4-3.6 14.6-1.7 8.7-2 11.6-1.1 12.5 1.8 1.8 2.7-.4 3.5-7.7.8-8.1 2.2-12.8 4.7-16 2.4-3.1 6.4-3.4 7.8-.7.8 1.5.4 2.6-1.9 5.6-3.1 3.9-5 9.1-5 13.8 0 2.1.7 3 2.7 3.8 1.6.6 3.8 2 5 3.1 2.9 2.7 6.3 11.8 6.3 16.7 0 7.5-5.6 8-7.4.8-.5-2.1-1.3-3.7-1.8-3.7-1.3 0-.9 6.8.6 10.5 1.7 3.9 3 4.3 5.8 1.8s4.4-1.1 12.3 11.5c9 14.3 13 19 20.1 23.7 5.9 4 24.9 11.9 31 13.1 4.8.9 9.2-1.2 10.9-5.1.7-1.8 3.4-5.8 5.9-8.9 4.4-5.5 5.9-9.6 3.4-9.6-1.5 0-9.2 8.1-12.3 13-2.4 3.8-2.8 4-7.3 4-11.7 0-24.9-5.9-35.4-15.9-17-16-26.2-37.4-27.4-64.1-.4-8.4-1.1-13.3-2.1-14.8-1.3-2.2-1.3-2.6.6-4.6 1.2-1.2 2.1-3.2 2.1-4.3 0-2.7 1-5.3 2-5.3.4 0 1.5 1.1 2.4 2.5 1.3 2 1.8 5.8 2.1 18.3.4 19.8 2.2 29.5 7.5 41.6 2.3 5.3 4.3 10.8 4.4 12.2.1 1.9 1.3 3.5 4.1 5.4 4.8 3.3 11.2 10.1 15 15.8 1.5 2.3 3.6 4.4 4.6 4.7 2.5.8 16.1-1.1 22.7-3.2 5.1-1.5 5.5-2 9.8-9.4 2.5-4.4 5-8.1 5.4-8.4.5-.3 1.8.4 2.9 1.6 1.1 1.2 3 2.7 4.3 3.3 2.5 1.3 2.8 3.7 1.4 11.3-.6 3.5-.5 4.3.7 4.3.8 0 1.7 1 2.1 2.2.9 3.8 2.9.5 3.4-5.7.4-4.9.7-5.6 2.5-5.3 2.2.3 3.3 1.9 4.2 6 .6 3 3.2 3.7 5.3 1.6 1.6-1.6 2.6-.4 1.9 2.4-.4 1.5-2.1 3-4.6 4.1-2.8 1.3-5.3 3.7-9.1 9.2-4.7 6.9-6.7 8.5-8.3 6.9-.3-.4.1-2.4 1-4.5 2.6-6.6-.6-15.1-4.8-12.8-2.9 1.5-2.5 4.9.6 4.9 1.9 0 2.5.5 2.5 2.3 0 4.3-4.9 6.5-6.8 3.1-.8-1.5-1.3-1.4-4.3.9-7.3 5.5-19.2 6-29.6 1.3-3.1-1.5-5.8-2.4-6-2.2-.9.9 7.9 6.5 14.2 9 9.4 3.7 14.1 4.3 16.6 2 3.9-3.5 13.5-1.8 15.6 2.9.8 1.8 1.7 1.1 8.7-7.2 8.1-9.6 10.6-11 10.6-6.3 0 3.7-5 11.2-12.5 18.8-7.7 7.7-11.7 8.9-25.3 8.1-26.5-1.7-40.5-10.9-57.1-37.4-4.5-7.3-8.7-13.5-9.2-13.9-2.5-1.5-1.9 1.1 2 8.9 10.4 21 32 40.5 51 46.1 9.9 2.9 24.9 1.7 33.6-2.7 5.6-2.8 7.8-4.7 12.5-10.6 4-5 7.6-7.4 13.1-8.5 1.5-.3 3-1.3 3.3-2.2 1-2.7 0-2.8-3.3-.4-3.5 2.4-5.1 2-5.1-1.4s1.9-4.6 7.2-4.6c4.4 0 4.8-.2 5.4-2.8 1-4.7 1.3-5.2 2.9-5.2 2 0 1.9 1.5-.6 8.6-1.1 3.2-2.3 8.9-2.6 12.6-.7 7.6-1.1 7.9-7.3 4.8-2.2-1.1-5.3-2-7-2-2.6 0-3 .4-3 2.5 0 7.9-12.9 18.5-22.5 18.5-1.1 0-2.6.5-3.3 1.2-1.6 1.6-1.5 7 .1 8.9 1.1 1.5 6.1 4.9 7.1 4.9.8 0-1.2-7-2.4-8.5-1.4-1.7-.4-5.5 1.4-5.5.8 0 1.9.7 2.6 1.5 2 2.4 4.8 1.8 9.4-1.9 4.9-4.1 8.2-5.5 12.5-5.4 1.7.1 3.9-.6 4.9-1.6 1.1-.9 3-1.5 4.3-1.4 2.1.3 2.6-.4 4.1-5.2.9-3 2.9-10.8 4.3-17.3 2.6-11.6 3.8-13.5 6.4-10.3.8.9.8 3.2.2 7.7-1 7.4-.8 8.1 2.2 9.4 1.9.9 2.2 1.7 2 6.3-.3 6-5.2 21.4-8.8 27.6-1.4 2.3-3.6 5.3-5 6.6-3 2.8-3.2 4.6-.5 6.2 1.1.7 2 1.8 2 2.4 0 2.3-16.3 15.4-19.2 15.4-2.2 0-.2-3 5.4-8 8.3-7.6 7.2-9.6-1.4-2.5-8.3 6.9-13.4 9.3-15.5 7.3-2.7-2.8-1-4.5 9-8.7 3.4-1.4 4.7-2.5 4.7-4 0-1.8-.3-1.9-2.5-1.1-4.3 1.6-13.5 7.9-14.2 9.6-1 2.6 1 4.7 5.8 6.5 4.3 1.6 6.1 4 4 5.4-.6.3-1.1 1.3-1.1 2.1 0 2 9.2-2.8 19.5-10.1 14.7-10.5 16.8-13.6 12.1-17.8l-2.4-2.1 2.3-4.6c4.7-9.5 13-39.4 12.3-44.8-.4-3.7 2.5-4.1 5.6-.7 1.4 1.5 3 2.4 3.5 2 .6-.3 2-.1 3.1.5 2.4 1.3 2.6 4.9.5 13.7-1.4 6.1-1.2 9.3.6 9.3 1.4 0 2.6-3.8 3.3-11 .9-7.9 1.6-9.4 4.5-8.5 4.2 1.3 2 12.4-6.3 31.8-2.5 6-4.6 11.3-4.6 11.9 0 .5 1.4-.2 3.1-1.6 2.4-2.1 3.4-2.4 4.5-1.5 2.2 1.8 1.7 3.3-2.4 8.6-7 8.8-7.8 11.6-3.2 10.7 4-.8 4.9 1.6 2.1 5.5-5.3 7.5.7 3.2 15.3-10.9 13-12.6 20.6-21.4 20.6-24.1 0-3.3-1.7-2.1-4.9 3.6-1.8 3.1-4.3 6.1-6 7-6.8 3.5-6.7 1.3.4-9.5 3.3-4.9 6.3-10.8 7.2-14.3.9-3.2 2.2-6.1 2.9-6.4.7-.2 7.4 1.1 15.1 3 49.9 12.6 101.1 14.5 152.4 5.7 34.4-6 65.3-16.2 99.6-33.1 10-4.9 18.5-8.9 18.9-8.9.4 0 3.7 2.2 7.4 5 9.4 7 21.3 12.7 32.7 15.7 12.8 3.3 30.6 3.7 43.1.8l8.4-1.8 29.3 29.4 29.3 29.4.5 5.1c.8 6.8 4 15.7 8.2 22.6 1.9 3.1 3.5 5.9 3.5 6.3 0 .3-2.3 3.1-5.2 6.1l-5.2 5.5 168.7 168.7 168.6 168.6 6.5-6.2 6.5-6.3 6.5 4.5c17.8 12.2 37.7 13.7 56.6 4.5 11.5-5.7 19.2-13.4 24.9-24.9 9.2-18.9 7.7-38.8-4.5-56.6l-4.5-6.5 5.7-5.9 5.7-6-19.1-19.7c-16.9-17.6-200.4-200.9-285.9-285.8l-32.3-32-6.3 6.3c-3.4 3.4-6.8 6.2-7.4 6.2-.6 0-3.8-1.6-7-3.5-7.2-4.3-15.9-7.3-23.2-8.1l-5.6-.7-23.3-23.1C783.3 731.9 770.7 719 768 716l-4.8-5.6 2-6.9c2.5-8.9 3.6-30.3 1.9-40-2.4-13.6-9.3-29.4-17.5-39.9-2.5-3.3-4.6-6.3-4.6-6.8s2.1-4.5 4.6-8.8c4-6.9 4.8-7.9 6.4-7 1.4.7 2.3.6 3.4-.6 2-1.9 2-2 0-5.3-1.5-2.6-1.4-3.1 3.7-14.4 2.9-6.5 6.4-12.9 7.7-14.2 1.6-1.7 2.2-3 1.7-4.4-.4-1.2 0-3 .9-4.3.9-1.2 1.6-3.6 1.6-5.2 0-3.8 3.8-10 9.4-15.5 5.9-5.7 11.2-13.9 9.9-15.2-1.7-1.7-4.3.2-8.6 6.5-2.8 4.1-4.3 5.6-4.5 4.4-.4-2.3 3-8.8 8.5-15.8 4.6-6 4.8-6.5 4.1-15-.3-3.3-.1-3.5 2.4-3.2 1.9.2 3-.3 3.8-1.7.8-1.7.8-2.1-.4-2.1-2.3 0-2.6-2.7-.5-5.3 1-1.4 1.9-3.5 1.9-4.6 0-3.7-2.9-2.3-6.3 3.1l-3.2 5.3-.3-3.9c-.3-3 .4-5.1 3.2-9.5 4.2-6.9 5.3-11.4 6-24.8.6-10.3 3.1-20.3 5.3-21 2.3-.8 2.3 3.7-.2 14.1-2.8 11.3-2.9 15.1-.6 15.1 1 0 2.6-4.7 5.2-15.5 3.9-15.7 4.7-22.3 2.9-25-.9-1.3-1.1-1.3-2 0-.5.8-1 2-1 2.6 0 .6-.6 1.7-1.4 2.3-1 .9-1.6.8-2.6-.3-.9-1.2-.8-4.2.5-14.1 2.4-18 1.8-37.2-1.5-43.7-1.9-3.8-2.2-5.3-1.4-7.5 1.2-3.7 4.8-4.2 6.8-1.1 2.3 3.5 4 29.1 2.5 39-1.1 7.8-.6 14.8 1.1 14.8 1.8 0 2.5-7.7 2.4-26.5l-.1-19-4.7-12.7c-5.5-14.7-9.8-22.4-14.3-25.4-1.8-1.2-6.6-3.2-10.7-4.5-6.8-2.1-9.1-3.9-6.8-5.2 1.6-1 11.7 1.4 17.6 4.1 3.4 1.6 7.9 4.6 9.9 6.7 6.2 6.4 12.6 25 14.2 41.5 1.4 13.7-2.8 63.2-6.2 72.9-.9 2.5-1.8 8-1.9 12.1-.1 4.7-1.2 10.5-2.8 15.5-1.4 4.3-2.3 8.1-2.1 8.4.8.7 5.3-9.9 6.9-16.1 1-4.1 1.2-6.7.5-9-1.2-4.3.4-5.9 3.2-3.1 4.6 4.6 4.1 12.7-1.6 25.3-3.6 8.1-4.2 10.5-2.5 11.5 2.2 1.4 8.2-12.8 9.5-22.5.4-3.1 0-6.5-1.3-11-3.3-10.7-3.4-11.9-1.7-17.7 1-3.3 2-12.6 2.5-23.6 1-19.9 2-24.7 5.5-28.3 2.9-2.9 3.8-3 6.1-.7 1.4 1.5 1.6 3.1 1.1 11.6-.5 9.1-1.6 13.1-3.3 11.4-.4-.3-1.2-3.5-1.8-6.9l-1.2-6.3-.7 15c-.5 8.2-1.5 18.9-2.4 23.7-1.3 7.2-1.4 9.2-.3 11.7 2 4.9 3.4 3.8 2.6-2-.4-2.8-.3-5.6.2-6.2 2.7-3.3 11.2-40.6 11.2-49 0-2.4-1.3-9.8-3-16.5-1.6-6.8-3-13.4-3-14.7 0-1.3-1.3-3.9-3-5.8-2-2.3-2.7-4-2.4-5.4.4-1.4-.7-4.5-3-8.6-3.6-6.3-4.7-11.7-2.4-11.7 2.5 0 8.6 8 11 14.6 5.7 15.4 9.9 37.7 9.7 50.9-.1 4.9-.1 11.7 0 15 .1 4.7-.6 7.9-3 14.3-2.8 7.3-3.1 8.5-1.9 10.7 1.1 2 1 2.8-.2 4.7-2.7 4.2-10.8 32.6-10.8 38 0 6.2 5.2-4.1 7.4-14.7 1.5-7.4 3.1-9.9 4.6-7.5.5.8 1 2.4 1 3.5 0 4.4-6 25.6-9.8 34.5-5.1 12-6.4 17.2-5.7 21.4 1.2 6.1-9.6 23.7-22.8 37.3-3.7 3.8-4.6 5.3-3.4 5.3 7.2 0 15-9.8 29.8-37.6 5.4-10.1 5.9-11.9 2.9-10.9-1.3.4-2 .2-2-.7 0-2.5 9.5-25.1 10.7-25.5.7-.3 1.7 1.4 2.3 3.8.6 2.3 1.5 3.8 1.9 3.3.5-.5 2.1-4.2 3.6-8.2 1.5-4 2.8-7.2 3-7 .2.2.8 3.4 1.3 7.2.7 4.4 1.8 7.6 3.2 9.1 4 4.3 2.3 7.4-5 8.9-5 1-17.7 22.1-20.1 33.4-.7 3.1-1.3 5.8-1.4 6-.2.1-1.4-.3-2.9-.9-3.5-1.6-4-.8-2.1 3.2 1.3 2.6 1.4 4 .6 6.2-1.1 2.8-3.5 3.6-4.5 1.4-.5-.9-.7-.9-1.2 0-1.5 3.2-4.7 6-12.5 10.7-7.9 4.9-8.4 5.4-8.4 8.7 0 2.9-.4 3.4-2.6 3.7-1.5.2-3.9 1.6-5.5 3.3-3.3 3.5-7.8 3.9-9.4.9-1.5-2.8-.7-3.6 5-5.1 6.4-1.6 7.2-2.6 6-7-2.1-7.2-1.6-8.3 8.3-18.1 10.2-10.1 19.7-23.4 19.7-27.5 0-2.5-.1-2.6-2-.8-1 .9-3.8 4.9-6.1 8.9-4.5 7.4-12.5 16-24.7 26.1-4 3.3-7.2 6.4-7.2 6.8 0 .4 1.7.7 3.8.5 3.1-.3 3.7 0 3.7 1.7 0 1.5-1.9 3-6.8 5.6-3.7 1.9-7.4 4.2-8.3 5.1-1.4 1.3-1.2 1.6 1.5 2.8 4.1 1.7 3.9 3.5-.6 5.9l-3.8 2 4 .1c2.2 0 6.7-.9 10-1.9 21.2-7 26-8.7 31.7-11.5 3.4-1.7 6.4-3.7 6.6-4.4.6-2-2.1-1.4-6.3 1.5-4.2 2.9-11.5 3.8-12.2 1.6-.3-.7 1-2.1 2.7-3 9-5 18.1-11.7 19.9-14.7 1.2-1.9 2.8-3.6 3.5-3.9.8-.3 3.9.8 6.9 2.4 6 3.1 7.4 2.7 6.8-1.9-.3-3 1.2-7.4 7.9-22.7 9.5-21.5 17-46.8 15.1-50.3-.7-1.2-1.5-.6-4 2.8-2.7 3.8-3.1 4-3.1 1.9 0-1.3.7-6.2 1.6-10.9 1.3-7.1 4.3-40.5 4.4-49 0-1.9.3-2.1 1.2-1.2.8.8 1.4 7.9 1.9 22.3.9 28.3 2.6 30.1 4.4 4.9.6-8.6-.9-37.2-2-39-.6-.9-1.2-.6-2.1 1.1-.7 1.3-2.3 2.6-3.6 2.9-2.2.5-2.5 1.7-5.4 19-3.3 19.7-6 29.7-10.4 39.6-2.9 6.6-4.5 8.3-6.2 6.6-.8-.8-.6-2.5.6-5.9 8.2-23.7 10-31.3 11.5-49.2.6-8.1 1.2-10.7 2.6-11.7 1.6-1.2 1.6-1.4-.9-2.5-1.7-.8-3-.9-3.6-.3-.6.6-1.5 5.9-2 11.9-.6 6.1-1.5 12.1-2 13.5-.5 1.4-1 4.8-1.3 7.5-.4 5.7-2.4 10.3-5 11.9-2.2 1.4-4-.9-3.2-3.9.3-1.1 1.9-8.8 3.5-17 6.1-32 6.3-41.9 1-61-4.5-16.6-3.9-20.5 3.1-22 3.5-.8 4-.5 5.5 3.8 1.3 4 4.4 4.9 4.4 1.4 0-3.4-6.8-12.7-11.9-16.1-2.4-1.6-5.8-4.9-7.5-7.4-6.2-8.9-5.6-8.5-9.9-6.7-5.1 2.1-7.7 1.2-23.6-7.9l-12.5-7.1-10-.1c-10-.1-10.1-.1-10.4-2.6-.3-2.3.1-2.6 4.4-3.2 9.8-1.3 24.9 2.8 33.1 9.1 6.8 5.2 10.5 7.3 13.1 7.3 6 0-1-5.7-15.3-12.6-13.8-6.6-21.7-8.7-31.5-8.2-7.4.3-7.5.3-7.5-2.2v-2.5H779c5.8 0 12.2.4 14.3.8 3.4.7 3.7.6 3.7-1.5 0-1.3-1.4-4.3-3-6.8-3.7-5.5-3.7-6-.2-6 3.7 0 6.8 2.3 9.1 6.8 1.7 3.3 2 3.5 2.7 1.7 1.1-3.2 2.4-4.4 4-3.8.8.3 1.4 1.3 1.4 2.2 0 3 3 6 9.9 10.1 3.8 2.2 9.4 6.4 12.5 9.4 5.4 5.3 5.7 5.4 8.2 4.1 3-1.5 5.4-1 5.4 1.1 0 1.6-.9 2-6.2 2.7-2.9.5-4.5-.1-8.4-2.6-16.9-11.4-22.9-11.6-6.9-.3 5.9 4.3 14.6 12.9 17.6 17.5 1.3 2.1 1.7 2.2 3.7 1 1.9-1.2 2.4-1.1 4.8 1.1 3 2.8 10.5 17.6 13.1 25.7 1.3 4.1 1.4 5.6.5 6.5-.9.9-1.6.8-3-.5-2.7-2.4-3.9-2.1-4.5 1.3-.8 3.8-3.1 3.9-4.7 0-.7-1.6-1.9-3.5-2.7-4.2-1.4-1.1-1.5-.6-.8 4.2 1.4 10.4 5.7 19 9.6 19 1.9 0 4.9-4.6 4.9-7.5 0-.9.9-4.3 2.1-7.7l2-6.1-2-6.6c-2.5-8.3-9-21.6-12.4-25.7-1.4-1.7-4.4-3.9-6.6-4.9-5-2.2-5.7-5.8-1.5-7.7 2.2-1 3.2-.9 6.2.7 7.3 4 15.1 19.4 23.1 45.7 5.2 17.2 7.8 23.5 9.2 22.1 1-1 .6-4.8-1.8-14.3-.6-2.2-.4-2.3 1-1.2 3.8 3.2 11.2 25.3 14.8 44.5 2.3 12.7 4.9 21.7 6.1 21.7 1.2 0 1-1.4-1.2-14.5-2.2-12.9-2.5-18.2-1-20.5.8-1.3 1.2-1.2 3.1.6 1.5 1.5 2.7 5.4 4.4 13.5 1.3 6.3 3 13 3.8 14.9l1.5 3.5.1-4.6c.1-5.7-2.4-18.6-5-25.7-1-2.9-1.9-7.4-1.9-10 0-9.4-3.7-9.7-4.2-.3-.6 10.4-3.6 7.5-9.8-9.5-3.9-10.8-6.3-15.2-9.1-16.4-7.3-3.4-7.4-3.5-8.1-8.3-.3-2.7-1.8-8-3.1-12-1.4-4-2.8-8.9-3.2-11-.7-3.5-.5-3.9 1.1-3.5 1.1.2 2.7 2.2 3.9 4.8 6.3 14.2 9 18.5 12.7 20.2 5 2.4 6.3 4.7 8.8 15.3 2.3 9.9 4 13 4 7.4 0-10.9-17.3-55.2-27.1-69.6-4.5-6.5-17.9-20.3-26.4-27.2-7.6-6.2-14.3-10.6-15.1-9.9-1.4 1.4 1.9 4.6 10.5 10.3 10.7 7.1 22.6 18.7 26.1 25.5 1.2 2.5 3.6 6.1 5.3 8 3.2 3.7 8.2 13.9 12.8 26.3 3.2 8.8 3.6 11.7 1.4 11.7-.9 0-4.6-6.3-9.6-16.5-4.5-9-9.6-18.1-11.4-20.2-1.8-2.1-4.2-5.6-5.3-7.9-2-4-13-15-13.9-14-.3.3 2.6 4.3 6.3 9.1 8.1 10 14.6 20.4 14.2 22.4-.6 3.1-2.7 1.9-7.5-4.6-5-6.6-24.5-26.7-29.1-29.9-2.2-1.5-2.5-1.5-4.4.5-3.4 3.8-10.6 0-12.4-6.5-.8-3.1-2-4.4-5.6-6.4-2.5-1.4-5.3-3.1-6.2-3.9-1.5-1.3-1.5-1.5.4-2.8 1.5-1.1 2-2.5 2-5.9 0-5.8 1.4-8.4 4.6-8.4 6.1 0 30.4 10.7 38.4 17 5.9 4.6 7.8 5.3 11.2 4.1 3.6-1.3 5.3-.5 11.7 5.1 4.8 4.1 6.4 4.4 6.9 1 .8-5-8.2-15.9-16.4-20.1-2.3-1.1-4.4-2.9-4.7-4-.5-2.1-5.2-4.9-6.3-3.8-.3.3.6 2.6 2.1 5 1.7 3 2.2 4.8 1.5 5.2-.6.4-4.3-1.2-8.3-3.4-16.9-9.6-19.4-10.6-22.9-9.3-2.6 1-3.6.9-5.5-.3-1.7-1.2-2.8-1.3-4.2-.5-1.1.5-4.2 1-7 1-5.2 0-6.2.8-3.6 3 2.1 1.8 1.9 2.9-.9 3.6-1.3.3-2.3 1.2-2.2 2.1.2 2.3-3.9 3.2-20.7 4.4-11 .8-15.7.7-18.3-.1-3.3-1.1-3.4-1.3-1.9-3 1.6-1.8 1.5-1.9-2.7-2.2-3.8-.3-4.3-.6-4.6-2.9-.3-2.4.2-2.8 4.5-3.9 2.6-.7 9.3-1.4 14.8-1.7 5.5-.2 11.6-.6 13.5-.9 2.9-.5 3.2-.7 1.6-1.6-1.2-.7-6.8-.6-17.4.3-22.6 1.8-21.7 1.9-21.7-1.1 0-2.3.5-2.6 8-3.8 9.7-1.5 29.2-2 35.9-.9l4.8.9-.7-4.1c-.6-3.8-.5-4.2 2-5.1 3.7-1.4 6 .1 7.7 5.2 1.9 5.7 4 6.9 7.2 3.9 2.1-2 3.1-2.2 7-1.7 2.4.4 8.8 2.9 14.1 5.7 10.1 5.2 12.5 5.8 14.4 3.5 1.7-2 0-3-12.3-6.8-11-3.4-13.5-5.1-12.3-8.3.6-1.4 1.4-1.6 4.8-1 2.7.5 5 .3 6.5-.6 2.2-1.1 2.8-1 5.7 1.8 1.7 1.6 7.7 6 13.2 9.8 13.3 9.1 23.2 17.2 33.5 27.5 13.6 13.6 20.2 22.2 33.5 43.7 2 3.2 3.8 4.9 5.4 5.1 3.7.6 4.6-1.3 1.6-3.2-1.4-.9-7.7-9.5-13.9-18.9-9.7-14.8-13-18.8-22.4-27.8-16.5-15.9-43.7-35.9-60.7-44.9-7.9-4.2-12.9-5.3-10.5-2.5.7.8 1.8 1.5 2.4 1.5.6 0 3.1 1 5.6 2.1 3.9 1.8 4.3 2.2 2.7 3-1.2.7-3.2.7-6 .1-30.6-7-32-7.2-38.5-4.1-3.8 1.9-5.5 2.1-12.1 1.6-4.2-.4-10.7-1.6-14.4-2.8-6.2-1.9-7-2-8.5-.6-2.4 2.2-10.3 5.7-12.8 5.7-2.3 0-4.1-2.8-2.7-4.1.4-.4 4.6-2.1 9.2-3.8 9.1-3.3 13.1-5.5 13.1-7.3 0-.7-1.2-.8-3.5-.4-1.9.3-5 .9-6.8 1.2-2.8.5-3.9.1-6.3-2.1s-3.5-2.6-6.4-2c-10.3 1.9-10.8 1.8-11.5-.4-.3-1.1-.4-2.5-.1-3 .9-1.4 16.6-5.3 19-4.7 1.1.3 2.9 2 3.9 3.7 1.5 2.8 2.1 3.1 5 2.5 1.7-.4 6.4-.9 10.2-1.2 11-.9 17 2.8 8.2 5-4.3 1.1-4.9 2.6-1.1 2.6 1.7 0 4-1.4 6.8-4.4 2.3-2.4 4.9-4.5 5.7-4.8 2.2-.8.2-2.2-3.4-2.2-1.7 0-8.5.2-15 .4-8.2.3-12.1 0-12.9-.8-2.6-2.6 4.4-5.2 11.7-4.2 2.2.3 7.8.1 12.3-.4 6.2-.6 9.4-.5 12.3.4 2.9 1 4.3 1 5 .3.7-.7 3.2-.9 6.5-.6 3 .3 5.4.3 5.4-.1s-.7-1.8-1.6-3.1c-.9-1.3-1.3-2.9-.9-3.5.4-.6-.3-2.2-1.4-3.4-1.9-2-2-2.5-.7-3.5 1.2-1 2.3-1 5-.1 3.8 1.2 5.2 2.5 5.8 5.5.2 1.3 1.9 2.5 4.8 3.6 5.2 1.9 5.5 2.9 1.6 4.8-2.4 1.1-2.6 1.5-1.5 2.7.8.7 9.5 5.1 19.4 9.7 26.8 12.4 48.4 26.2 68 43.2 4.1 3.6 7.7 6.5 8 6.5 1.4 0 .2-2.7-2.6-5.6-3.9-4-3.4-6.8.8-5.8 3.9 1 5.8 2.4 11.5 8.8 2.7 3.1 5.4 5.6 5.9 5.6 2.1 0 .6-2.5-4.8-7.8-3.2-3.1-8.6-9.1-12.1-13.3-9.1-11-23.2-22.8-38.2-31.9-2.2-1.3-4-2.8-4-3.3 0-1.4 9.2.4 14.9 2.9 7.4 3.3 12.1 7.3 30.3 25.9 19.4 19.8 22.6 20.3 6.4 1-8.9-10.5-42.8-40.5-45.8-40.5-.4 0-.8.9-.8 1.9 0 1-.7 2.1-1.5 2.5-1.9.7-4.5-1.9-4.5-4.5 0-2.7-1.8-5.9-3.3-5.9-.7 0-1.7 1-2.2 2.2-1.1 2.6-4.9 3.5-7.1 1.8-.8-.7-1.4-3-1.4-5.1 0-2.8-.5-4.1-2-4.9-3.1-1.7-10.9-2.8-13.8-2.1l-2.7.7 2.8 1.9c2 1.3 2.5 2 1.5 2.6-2.2 1.4 2.2 5 12.2 9.8 8.8 4.3 9.3 4.6 6.2 4.9-4.2.4-12-2.1-19.9-6.4-5.4-2.9-7-3.3-10.6-2.8-8.6 1.2-11.4-3.6-5.4-9.3 3.3-3.3 12.1-8.3 14.3-8.3.7 0 1.5-.4 1.9-1 .8-1.2-9.7-4.2-11.9-3.4-.9.4-2.3 1.9-3.2 3.5-2.1 4.1-4.2 3.6-6.3-1.5-1.4-3.2-2.7-4.6-5.2-5.5-4.8-1.7-9.2-1.4-11.1.8-1.6 1.9-1.8 1.9-7.6.1-8.9-2.8-28.7-4.5-35.6-3-5.9 1.2-7.8 2.5-4.9 3.3 1 .3 7.9.8 15.3 1.2 7.4.4 17.3 1.3 21.8 2.1 6.1 1.1 9.4 1.2 12 .4 5-1.3 5-1.4 4.4 1.6-.3 1.6-1.6 3.1-3.7 4.1-2.9 1.4-4.4 1.4-15.3-.1-17.1-2.3-39.2-3.2-42-1.7-1.9 1-3.3.9-7.2-.4-5.7-1.9-7.5-1.4-5.7 1.6 2.1 3.5-1.4 5.2-9.5 4.6l-6.8-.4v2.9c0 1.6.6 3.1 1.4 3.4.7.3 5.9-.9 11.5-2.5 15.2-4.5 25-6.1 38.4-6.1 12.2 0 24.7 1.5 24.7 3 0 .5-1 1.2-2.2 1.6-3.5 1.1-26.5.5-29.3-.8-2.1-.9-2.8-.8-4.5.7-1.5 1.3-3.5 1.8-7 1.7-3.6-.1-5.5.4-6.8 1.7-1.1 1.2-3.9 2-7.7 2.5-3.3.3-8.9 1.5-12.3 2.6-3.5 1.1-6.7 2-7.1 2-.4 0-5.5-5.2-11.2-11.6-15.9-17.8-37.3-36.8-58.4-52-47.6-34.2-109.7-58.3-166.5-64.5-5.8-.6-13-2-16-3.1-15.6-5.6-23.1-8-37.6-11.7-8.8-2.2-18.3-4.3-21.3-4.7-5.1-.7-5.3-.6-4.6 1.5 1 3.4-2.3 4-5 .9-2.6-3-6-5-6.9-4.1-.3.3-.6 1.9-.6 3.4 0 3.9-3.3 5.6-6.6 3.4-1.3-.8-2.4-2.4-2.4-3.4 0-1.2-.9-2.1-2.5-2.5-3-.8-11.2 1-14.3 3-2.5 1.7-2.1 3.4.9 3.4 1.2 0 1.9.7 1.9 2 0 1.1.1 2.1.3 2.1.1.1 6.1.4 13.2.8l13 .6-5.5 1.9c-3.9 1.3-8.6 1.9-16.2 2-9.7.1-10.9.3-12.8 2.3-3.2 3.5-10 2.4-10-1.5 0-3 4.7-11.9 8.5-16.1l3.7-4.1h-3.8c-2.2.1-5.4.7-7.1 1.5zm80.2 12c8.6 2.3 17.5 5.6 17.5 6.6 0 1.4-14.8 1-22.5-.5-3.8-.8-10.3-1.8-14.2-2.2-4-.3-7.3-1-7.3-1.4 0-1.6 8.6-3.8 14.5-3.9 3.4-.1 8.8.6 12 1.4zM336 73c1.5 1.5 3.3 2 7.5 2 3 0 5.5.4 5.5 1 0 1.5-4.1 3.7-9.9 5.1l-5.3 1.3-2.7-3.2c-1.4-1.8-3.2-3.2-3.8-3.2-2.7 0-1.1-3 2-3.9 4.5-1.3 4.5-1.3 6.7.9zm34.8.5c-.2.3-2.7.9-5.4 1.4-5.1 1-8.2.3-4.8-1 2.1-.8 11-1.2 10.2-.4zM325 83.4c0 .8-1.9 2.1-4.1 3-4.7 1.9-16.1 4.7-16.7 4.1-.8-.8 16.5-8.3 19.6-8.5.6 0 1.2.6 1.2 1.4zM439.8 103c17.9 9 15.3 11-4.7 3.5-6.6-2.5-12.2-4.5-12.5-4.5-.3 0-1.7-.5-3.3-1.2l-2.8-1.1 3-.7c6.9-1.7 10.2-1.1 20.3 4zm19-2.3c5.7 3.2 14.2 9.8 14.2 11.1 0 2-5.7.5-10.6-2.9-2.3-1.5-6.6-3.9-9.6-5.2-3.1-1.4-5.9-3-6.2-3.6-1.2-1.8 8.5-1.3 12.2.6zM394 102c-2 1.3-7.3 1.3-6.5 0 .3-.6 2.3-1 4.3-1 2.8 0 3.3.3 2.2 1zm90.6 5.3c4.8 3.5 9 6.9 9.2 7.5.6 1.8-2.9 1.5-6.9-.6-4-2-14.9-11.1-14.9-12.4 0-2.2 4.7-.2 12.6 5.5zm-104.8-1.9c2.6.8 9.3 1.8 14.9 2.4 5.6.6 10.7 1.3 11.3 1.7 2 1.2-1 2.5-6 2.5-2.5 0-7.3.5-10.8 1-5.5.9-6.7.8-10.4-1-5.4-2.6-5.4-2.6-6.7 1-1.3 3.8-3.9 3.9-7.2.4-1.3-1.4-3.7-3.3-5.2-4.1-3.3-1.7-3.2-2 1.1-3.2 2.5-.8 3.6-.5 6.2 1.4 3.9 2.9 7.2 2.3 6.4-1.1-.7-2.8 0-2.9 6.4-1zm130.1 6.3c7.1 5.7 11.1 9.5 10.5 10.4-1 1.6-9.4-2.4-12.8-6.1-7.6-8.4-6.2-11.1 2.3-4.3zm16.2.3c3.5 1.1 7.8 2.9 9.4 4 1.7 1.1 4.6 2 6.6 2 6.9 0 39.6 14.8 60.4 27.3 34.3 20.6 66.8 48.8 90.6 78.7 13.2 16.6 14.4 18.6 13 21.6-1.6 3.6 1 7.9 4.3 7 3.8-.9 3.9.7.4 3.5l-3.2 2.7 2.4 2c1.7 1.4 3.4 1.8 5.6 1.5 3.6-.6 5.1.9 2.9 2.7-.8.7-1.5 1.7-1.5 2.2 0 1.6 2.8 3.8 4.8 3.8 2.8 0 4.5 2.5 3.8 5.6-.4 1.4-.3 2.3.2 2 1.1-.6 3.6 2.3 6.1 7.2 2.3 4.5 1.9 5.5-1.5 4.2-2.3-.9-2.3-.9-1.8 5.3.5 5.2.2 7.4-2.1 13.2-6.9 18.4-7.8 21.2-7.9 27-.1 4.7.2 6 1.5 6.3 1.1.2 2.3-1.7 4.2-6.5 4.1-10.5 13.3-23.1 15.3-21 .2.2-2.2 5.5-5.5 11.8-8 15.3-16.1 35.6-17.1 43.2-.5 3.4-2.3 10.6-4 16.1-4.1 13.4-3.8 17.6 1.1 17.6 2.4 0 2.6-.4 4.3-11.1 1.7-10.6 8.2-30.6 14.6-44.9 4.4-9.9 8.4-20.2 10.1-25.8 1.1-3.7 2.5-4.1 3.4-1.1.5 1.5.2 2.5-.9 3.1-2 1.1-2.1 3.8-.1 6.4 2.3 3.1 1.8 4.7-3.5 11.3-7.3 9.1-8.3 11.3-6.4 14 2.1 2.9 5.1 2.3 7.2-1.4 3.7-6.8 7.8-12.5 9-12.5 2 0 1.4 2.8-1.8 7.2-3.8 5.2-3.8 7.2.1 11.6 3.1 3.5 3.2 3.7 2.6 11.7-.7 10.5-3.7 17.5-7.4 17.5-1.2 0-1.4-1-.8-4.8.7-5.1-1.1-9.2-3.5-7.7-2 1.2-4 7.1-4 11.8 0 5.3 2.5 8.1 6.2 7.2 3.8-1 4.8 1.3 5.8 14.1 1.8 21.9 4.2 31 11.2 42 2.7 4.3 3.8 7.2 3.8 9.9 0 3.7 0 3.8-2 2-1.8-1.6-2-1.6-2-.2 0 .9.7 3.4 1.6 5.6 1.9 4.7 1.5 8.5-.8 8.9-2.4.5-4.5-3.2-8.5-15-2.6-7.7-3.7-12.9-4.3-20.8-.8-11-3.1-21.1-5.6-24.5-5.7-7.8-2.7 19.3 4.6 42 2.2 6.6 6 16 8.5 21 7.3 14.6 5.5 19.6-3 8.2-9-11.9-12.7-23.4-15.1-48-1.6-15.8-3.1-22.8-5.2-23.5-2.9-.9-2.6 19.7.4 34.8 3.4 16.6 11.1 34.5 19.6 45.8 6.9 9.1 6.5 14.1-.9 10-3.9-2.1-5.1-2.1-8.5.4-3.1 2.2-7-1.7-14.1-14.2-1.9-3.2-4.9-6.6-7.5-8.3-2.3-1.6-4.9-4.2-5.8-6-2.1-4-3-19.7-2.6-47.7.2-20.7-.3-25.9-2.7-23.5-2.9 3.1-4.1 30-2.1 48 2.2 19.2 1.3 30.2-2.2 26.7-2.5-2.5-4.9-23.2-5.3-45.6-.4-18.8-.6-22.1-2.1-23.7-1.2-1.3-2.1-1.6-2.9-.9-1.8 1.5-2.5 16.1-1.3 29.5.6 6.6 1.1 15.6 1.2 20 .2 5 1 10.5 2.3 14.5 3.9 11.9 3.8 13-.8 15.4-2.5 1.3-2.7 3.1-.6 7.6 2.3 4.7 4.3 3.7 8.2-4 3.2-6.3 3.8-6.9 5.5-6 1.1.6 4.4 6 7.4 12 8.5 17 15.7 26.5 22.9 30.2l4 2-.7-4.6c-.4-2.5-.4-4.6.1-4.6 1.3 0 7.3 3.9 7.3 4.8 0 .4-.9 3.6-2.1 7-1.5 4.5-2.6 6.2-3.9 6.2-2.3 0-3.2 2.4-2 5.6.7 1.7.7 3.2 0 4.5-1 1.8-1.9 1.4-12.3-5.8-14.2-9.7-16.8-12.1-21.8-20.7-2.3-3.8-6.8-11-10-16-6.8-10.5-10.9-19.8-14.3-32.6-3.4-12.6-7.5-19.2-8.8-14.2-1.4 5.1 2.5 19.1 9.2 34.2 3.6 8 4.3 12 1.9 12-1.5 0-5.7-6.5-9.7-15-2.1-4.7-4.9-9.6-6-11-5.2-6.2-1.6 4.1 10.8 31 7.1 15.2 10.5 20.5 15.4 23.8 1.9 1.3 4 3.8 4.7 5.5 1.3 3.4 4.7 7.7 6.1 7.7 1.3 0 .9-3.9-.8-7.1-.8-1.7-4.6-7.8-8.5-13.6-6.7-10.2-8.8-14.7-7.5-16 3.3-3.4 22.4 24.7 24.5 36.1 1.1 6 5.3 11.4 10.9 13.8l4.4 2 2.9-2.1c3.3-2.4 3.9-2.6 3.9-.8 0 1.6-6.7 15.7-7.5 15.7-.3 0-2.9-1.5-5.8-3.4-5.5-3.6-9.7-5.3-9.7-3.9 0 1.9 3.2 5.2 8 8.3 2.7 1.8 5 3.7 5 4.2 0 1.5-9.4 17.8-16.2 28.2-14 21.2-28 37.9-49.4 58.6-54 52.5-122.2 84.1-198.9 92-12.9 1.4-51.1 1.4-64 0-15.8-1.6-33.7-4.8-50.1-9-23-5.9-21.6-4.9-24.3-16.6-3.1-13.6-3.8-20.8-2-20.2.8.3 2.2 2.7 3.2 5.4 6.2 17.4 9.6 23.4 13.2 23.4 2 0 1.9-3.4-.1-5.1-2.1-1.7-4.9-7.3-8-16.2-3.8-10.4-6.1-14.5-8.6-15.2-1.3-.4-3.2-1.5-4.2-2.4-2.1-1.8-20-28.8-22.4-33.8-1.9-4-1-5.3 1.9-2.7 5.6 5.1 33.2 41.7 38.6 51.3 4.6 8.2 7.3 12.1 8.3 12.1 2.3 0 2-3.2-.9-10.5-1.7-4.2-3.1-9.2-3.1-11.1 0-2.3-.5-3.4-1.4-3.4-2.3 0-7.2-4.6-10-9.4-1.4-2.3-4.5-5.9-6.9-7.9-2.5-2-6.6-7.1-9.2-11.4-6.7-10.8-10.4-15.3-12.5-15.3-2.3 0-3.6-1.7-4.5-5.8-.7-3.3-6.3-10.2-8.4-10.2-2.1 0-1.1 4.5 1.9 8 3.2 3.7 3.8 6 1.7 6-.7 0-7.8-6.4-15.6-14.3-7.9-7.8-14.5-13.7-14.8-13-.9 2.4 2.5 7.2 19.6 28.4 16.7 20.6 23.5 32.8 33.5 59.7 6.1 16.5 7.4 21.2 5.9 21.2s-15.4-5.8-16.9-7c-.6-.6-1.5-2.3-1.9-3.7-.3-1.5-4.4-11.6-9.1-22.5-8.2-19.3-10.3-25.8-6.8-21.3.8 1.1 6 10.8 11.5 21.6s11.3 21.1 12.9 23l2.9 3.4.1-2.7c0-6-14-36.3-25.4-54.6-5.9-9.5-8.3-11.6-7.2-6.1.5 2.4.1 3.5-2.1 5.5l-2.7 2.5 2.8 9.7c1.6 5.3 4.6 15.2 6.7 22 2.2 6.8 3.9 13.4 3.9 14.7 0 2.3-.2 2.4-2.5 1.3-1.7-.8-2.8-2.4-3.5-5.2-2.3-8.8-6.3-20.5-9.6-27.7-3.9-8.8-4.2-11.2-1.4-15.4 2.4-3.6 2.6-10.1.5-15.2-1.8-4.2-6.5-10.7-7.2-9.9-.3.2.6 4 2 8.3 3.6 11.3 3.9 12.9 2.2 14.3-.8.6-1.8.9-2.4.6-1.9-1.2-4.1.6-4.1 3.4 0 1.6 2 8.3 4.5 14.9s4.5 13.4 4.5 15.1c0 1.7.7 4.5 1.6 6.1 2.1 4.2 1.4 5.2-2.1 3-2.3-1.3-3.5-3.2-4.8-7.7-12.6-41.6-16.7-49.8-34.6-70.3-5-5.8-9.4-11.5-9.7-12.8-.7-2.7 1.5-6.5 5.3-9 2.6-1.7 2.6-1.7 5.3 1.5 3.3 3.9 7 4.4 7 .8 0-5.1-13.6-13.6-21.8-13.6-4.6 0-11.9-3.2-17-7.4-1.6-1.5-3.6-2.6-4.3-2.6-.8 0-3.1 1.9-5.1 4.2l-3.7 4.3-14.1-.2c-18.1-.2-23.2-.9-22.8-3.1.5-2.4 6.4-2.7 17.1-.7 10 1.8 15.2 1.4 16.7-1.5.9-1.6.6-2.2-1.7-3.7s-5.5-1.9-20.3-2.1c-10.1-.2-18-.8-18.8-1.4-.6-.6-1.2-2.5-1.2-4.2 0-2.3-.9-4.1-3.5-6.6-7-6.7-3.1-9.5 4.8-3.5 2.5 1.9 4.9 3.5 5.2 3.5.3 0 .3-2-.1-4.5-.9-6.1 1.5-7.2 5.4-2.5 2.7 3.1 2.9 3.2 14.3 4.1 8.4.6 13.5 1.5 18.4 3.4 6.9 2.5 10.5 3.1 10.5 1.7 0-1.4 4-5.2 5.5-5.2 2.2 0 1.8 2.4-.9 4.9-2.7 2.5-8.4 2.9-25.1 1.7-16.4-1.2-15.6 3.2 1 5.9 12.6 1.9 19.3 3.9 26.7 7.6 6.8 3.4 8.4 3.6 9.8.9 1.9-3.6 6-2.1 17.5 6.6 11.6 8.7 18.9 15.8 18.2 17.7-.5 1.3-1.2 1.4-3.7.7-3.8-1.1-4.7.5-3.2 5 1.5 4.2 0 4.6-4.9 1-4-2.9-6.9-3.8-6.9-2.3 0 2.3 6.5 11.5 11.3 16 5.7 5.4 9.9 7.3 12.6 5.6 2.8-1.8 2.6-5.1-1.6-27.3-.6-3.4-16.2-18.5-25.7-24.8-7.6-5.1-7.9-5.2-15.2-5.2-8.2 0-9.5-1-7.3-5.2 1.6-3.1 2.8-3.8 6.7-3.8 9 0 22 9.6 46.7 34.6 10.5 10.6 20.2 20 21.8 20.9 2.6 1.7 2.7 1.7 2.7-.5 0-1.3-1.4-4.5-3.1-7.2-1.7-2.7-2.9-5.1-2.6-5.4.9-.9 14.9 12.1 22.5 20.8 4 4.7 10.7 12.9 14.8 18.4 8.6 11.3 14.2 17.4 16.1 17.4 2.7 0 1-3.2-8.3-15.9-12-16.5-14.4-22.1-9.5-22.1 2 0 5.9 4.1 12.1 12.5 4.9 6.8 14.9 17.5 16.2 17.5 1.9 0 .5-3.2-5.4-12-3.4-5.1-9.6-12.9-13.9-17.4-4.2-4.5-9.1-10.7-10.9-13.9-1.7-3.1-3.8-5.7-4.6-5.7-2.2 0-1.7 5 1.2 10.4 1.8 3.4 2.3 5.1 1.5 5.9-1.7 1.7-5.4-.8-16.9-11.9-13.2-12.5-15.2-13.6-23-12.8l-6 .7-1.7-3.4c-1-1.9-6-7.8-11.1-13.1-8.9-9.1-11.2-12.8-8.1-12.8.8 0 4.7 3 8.8 6.6 10.9 9.6 15.1 11.9 21.7 11.6 6.1-.3 6.3-.1 18.5 14.1 6.2 7.1 7.7 8 7.7 4.5 0-3.2-6.7-11.2-21.3-25.4-20-19.6-36.8-32.9-49.3-39.2-20.3-10.2-60.1-19.3-61.2-13.9-.5 2.5 4.7 4.3 15.1 5.1 14.6 1.2 29.8 5.8 39.7 12 3 2 8.7 5 12.5 6.9 13.1 6.4 41.6 31.7 35.6 31.7-1.4 0-10.3-6.4-22-15.7-5.8-4.6-13.5-9.8-17.1-11.6-3.6-1.7-8.7-4.6-11.4-6.4-6.9-4.7-26.4-10.2-25.4-7.1.3.7 1.5 1.8 2.9 2.5 1.3.7 8.9 4.4 16.9 8.2 14.5 7.1 22.9 12.6 21.3 14.2-.5.5-4.9-1.1-9.8-3.6-15.5-7.6-43.7-17-48.7-16.3-1.6.2-2.4 1.1-2.7 2.8-.4 3.3-1.7 4-7.4 4-5.2 0-8.7-1.3-8.7-3.3-.1-3.3-2-4.2-10.2-4.7s-8.3-.5-8-3.1c.1-1.5-.7-4.8-1.8-7.4-3.7-8.6-2.9-10 7.5-12 13.4-2.5 30.7-3 40.9-1.1 10 1.9 13.4 1.5 16.6-2 2.8-2.9 4.9-3 13.2-.4 9 2.8 10.2 2.7 9.5-1-1.1-5.2-3.7-7.9-11.4-11.7-6.5-3.2-8.5-3.7-14.9-3.8-5.9 0-7.6-.4-8.7-1.8-.9-1.4-2.3-1.8-5.2-1.5-5.4.4-5.5 3.3-.3 6.7 2.1 1.3 3.5 2.8 3.2 3.2-.3.5-7.8.6-16.8.2-17.1-.6-21.6-.2-21.6 2.2 0 2-3 3.4-6.3 2.8-2.1-.4-3.2 0-4.8 2.1-1.2 1.5-4.4 3.8-7.2 5.3-6.3 3.1-5.9 2.7-5.1 4.7.3.9 1.5 1.6 2.5 1.6 2.3 0 2.5 1.3.4 3-.9.7-1.3 2.1-.9 3.5.3 1.3 0 2.6-.6 3-1.8 1.1-5-2.5-5-5.6 0-1.5-.7-3.4-1.5-4.2-.8-.8-1.9-3.4-2.4-5.7-.5-2.3-1.4-4.7-2-5.3-1.7-1.7-1.4-7.7.4-8.3.9-.4 3.1.6 5.1 2.2 2 1.6 4.6 3.8 5.9 4.8 2.9 2.3 5 1.1 6-3.6.6-2.4 1.7-3.5 5.4-5.1 3.9-1.8 6.8-2.1 19.1-2.3 13.5-.2 14.5-.4 16.2-2.4 2.2-2.8 2.3-4.9.2-5.7-.9-.3-7.3.4-14.3 1.6-17.4 2.9-20.1 2.8-18.5-1.3.6-1.5 1.3-1.8 6.5-3 1.5-.3 3.1-1.7 3.8-3.2 1-2.2 1.6-2.5 3.9-2 1.5.3 10.1 1.7 19.2 3.1 20.7 3.1 28.5 4.7 43.2 9 21.7 6.4 44.3 16.6 60.5 27.1 14.9 9.6 15.9 9.9 20.4 5.5 4.7-4.8 4.1-8.9-2.4-15.3-2.9-2.9-7.4-6.4-10-7.8-2.6-1.4-4.7-3-4.7-3.5 0-2 2.4-3.5 5.7-3.5 6.6 0 2.8-4.8-9-11.4-7.3-4.1-21.7-10-22.4-9.2-1.5 1.5 1.5 4 9.5 8 9.5 4.8 15.6 9.2 14.6 10.7-1.1 1.9-7 .8-15.8-3-5-2.1-10.7-4.2-12.6-4.6-2-.4-4.6-1.9-6-3.7-2.2-2.6-4-3.2-14-5.3-6.3-1.3-17.8-3.7-25.5-5.3-7.7-1.6-17.4-3.3-21.5-3.7-6.9-.6-7.4-.6-5.9.9.8.9 9.9 3.8 20.5 6.6 27.4 7 51.4 15.9 77.1 28.6 14.9 7.3 22.3 12.5 22.3 15.8 0 2.4-4.2 2-9.9-.9-2.7-1.3-10.2-5.6-16.7-9.5-21.9-13.3-31.3-17.2-55.4-23-38-9.1-81.8-13.9-87.6-9.6-1.8 1.4-1.8 1.6-.3 3.1s2.4 1.6 6.8.6c2.9-.6 6.2-1.1 7.4-1.1 4.7.1-1.5 2.9-11.2 5.1-5.3 1.2-11.8 2.7-14.5 3.5-2.7.8-5.6 1.4-6.3 1.4-2.4 0-1.4-2.9 1.7-4.7 1.6-.9 3.9-3.7 5-6.1 1.6-3.3 3.1-4.8 6.3-6.2 6.5-2.9 16.9-4.2 27.4-3.4 8.1.6 9.3.5 9.3-.9 0-4.1-8.5-5.1-28.4-3.2-8.8.8-16.2 1.8-16.6 2.2-.4.4-1.3 2.9-2 5.5s-2.1 5.5-3.2 6.5c-1.9 1.7-2 1.7-3.4-.2-.8-1.1-1.7-3.1-2-4.5-.2-1.4-.8-4.3-1.4-6.5-.5-2.2-1.2-6.3-1.5-9l-.7-5 6.1-.1c3.4 0 6.1.2 6.1.5 0 .2-.8 1.3-1.7 2.3-1.3 1.5-1.5 2.3-.6 3.6 1.2 2 3.6 2 33.3.8 27-1.2 49.5.8 77.5 6.9 6.1 1.3 13.3 3.1 16 3.9 6.4 2 9.5 2 9.5.1 0-1.8-3.5-4.1-7.8-5-3.6-.7-4.2-2.9-1.3-4.5 3.1-1.6 5.8-1.2 13.4 2.2 8.6 3.7 14.2 4.3 14.2 1.4 0-1.5-1.4-2.3-6.8-3.8-3.8-1-11.2-3.8-16.5-6.3-17.4-7.9-37.9-13.6-56.4-15.5-11.5-1.2-12.9-2.3-5.2-4.6 10.6-3.1 22.6-.8 49.9 9.5 19.3 7.3 29 10 30.6 8.4.8-.8.3-1.6-1.8-3-3.7-2.6-19.9-9.9-28.8-13-14-4.8-53-14.3-58.7-14.3-1.5 0-1.8.4-1.3 1.7 1.9 4.6 1.8 5.3-.8 5.3-1.8 0-3.5-1.2-5.7-4.1-4.4-5.4-7.5-5.2-7.5.6v4H155c-4.3 0-4.6-.2-5.6-3.5-1.1-3.4-1.4-3.5-6.5-3.8-6.7-.3-16.4 4-16.4 7.3 0 1.3.7 2 2 2 1.1 0 2.8 1.2 3.7 2.7 1.8 2.8 1.8 2.8 14 2.9 12.2.1 12.3.1 8.8 1.7-2.6 1.3-6.7 1.7-16.3 1.9-12.4.1-12.9.2-15.2 2.7-1.9 2.1-3.4 2.6-7 2.6-4.2 0-4.5-.2-4.5-2.8 0-4.2 4.4-12.7 9.4-18 2.6-2.7 4.6-5.7 4.6-6.7 0-1.6-.6-1.7-5.1-1.2-2.8.4-6.7 1.4-8.7 2.4-3.3 1.6-3.7 2.3-4 6.1-.4 4.7-2.2 6.3-4.9 4.1-2.2-1.9-4.4-7.4-3.7-9.3.3-.8 4-2.7 8.2-4.2 14.9-5.3 23.6-9.2 24.9-11.1 1.1-1.7 1-2.4-.8-4.6-2.3-3.1-4.1-3.4-6-1.1-2 2.4-10 6.1-18 8.4-9.1 2.5-8.9 2.5-8.9-.4 0-2 .7-2.6 3.2-3.1 9.7-1.8 12.9-2.9 13.8-4.4 1.8-3.5-.3-4.5-8.9-3.8-4.4.4-8.2.3-8.4-.1-.8-1.3 1.2-32.7 2.8-44.8 9.8-75.2 45.7-144.9 102.2-198.8 6.1-5.8 8.6-7.6 9.5-6.8 1.3 1 4.1 1.6 6.4 1.3 1.6-.1 7.4-6.2 7.4-7.7 0-.6-.7-1.4-1.5-1.8-2.4-.9-1.8-2.2 3.2-6.3 3.8-3.1 5.4-3.8 9.2-3.9 4.5-.1 4.7-.2 7.5-5.1 2.8-4.9 6.9-8.4 8.2-7 .3.3-1 2.6-3 5s-4.9 7.4-6.6 11c-2.4 5.4-3.5 6.7-5.3 6.7-1.3 0-2.8-.5-3.5-1.2-1.7-1.7-4.7 1.4-8.4 8.9-1.7 3.4-3.6 6.7-4.2 7.2-.6.5-3 .8-5.3.8-5.8-.2-9.6 3.3-9 8.3.4 3.3-.3 4.2-9.5 13.9-31.4 32.9-57.2 75.3-69.8 114.6-3.7 11.6-3.7 12.9-.5 8.1 1.4-2 2.5-4 2.5-4.5 0-1.1 12.5-18.3 19.5-27 3.3-4 7.1-8.8 8.5-10.5 2.5-3.1 7.4-8 18.7-18.6 7.3-6.9 23.6-20 28.5-22.7 2.7-1.6 4.7-2 7.7-1.6 4 .5 4.1.7 4.1 4.3 0 4.2 1.2 5.6 5.2 5.8 3.3.2 5.3-2.4 6.3-8 1.1-5.6-.1-8.8-3.5-10-3.3-1.1-4-2.8-1.2-2.8 1 0 2.2-.4 2.8-.9.5-.6 3.5-2.4 6.6-4l5.8-3.1 1.6 3.1c1.1 2.3 2.1 3 3.5 2.6 1-.3 2.2-.1 2.5.4.8 1.3 3.4-.9 3.5-3 0-.9.9 1.8 2 5.9 1.1 4.1 2.4 7.9 2.9 8.4 1.8 1.8 1 2.6-2.3 2.4-3.1-.3-3.2-.2-3.2 3.7 0 3.3.3 4 2 4 1.1 0 2.3.4 2.8 1 .9 1.3 2.7-1.3 2.7-4.3 0-2.2 1.2-2.7 5.2-2.3 1.6.2 1.7-.9 1.3-11.6-.3-8.5.1-5.5 1.5 10.4 1.2 15 2.3 22.9 3.3 24.5.8 1.3 2 5.7 2.7 9.8 1.7 11.3 4 21.3 5.2 22.7 1.5 1.8 8.7 1.7 9.4-.2.3-.8-.3-4.3-1.5-7.7-2.5-7.8-4.8-18.2-6.6-31.3-1.9-12.7-1.9-15.1-.2-13.8.6.6 2.7 1.3 4.5 1.7 3.1.5 3.5.3 4.5-2.4.8-2.1 1.6-2.8 2.7-2.4.8.4 2.5.9 3.7 1.1 2.9.7 8.2 5.5 6.6 6-.7.3-2.1 0-3.2-.6s-2.7-.8-3.5-.5c-2.1.8-2.1 6.8 0 8.8 1.8 1.9 7.5 2.1 9.2.4.8-.8 1.4-.4 2.2 1.8 1.3 3.3 1.8 10.9.8 11.9-1.3 1.3-2.8-.6-2.8-3.6 0-2.4-.7-3.2-3.6-4.6-3.1-1.5-3.6-1.5-4.4-.3-2 3.1-.3 12.9 2.8 16.2 1.7 2 6.3 2.3 9.4.7 2.7-1.5 3.5-.5 12 13.9 8.3 14.2 19.2 25.2 29.8 30.4 10.1 5 28.2 11.7 33.4 12.4 5.6.8 12.6-2.5 12.6-5.9 0-1.2 2.7-5.5 6.1-9.7 7.2-8.8 8.3-11 6-12.7-.9-.7-2.3-1.3-3.2-1.3-2.1 0-13.6 11.6-16 16.1-1 2-2.5 3.9-3.4 4.3-2.4.9-14.6-1.1-21-3.5-11.6-4.3-25.9-16-33.3-27.2-2.8-4.1-2.5-5.3.9-4.2 3.5 1.1 17.3 15.6 19.8 20.7 2 4.2 2.4 4.6 6.9 5.1 8.4 1 26-2.1 33.2-5.8 1.6-.8 4.5-4.8 7.5-10.4 5-9.2 6.5-10.8 6.5-7.1 0 2 1.4 2.7 2.4 1.1.3-.5 1.7-.9 3.1-.9 2.1 0 2.5.5 2.5 3.2 0 1.7-.7 6.2-1.5 10.1-1.9 8.8-1.9 8.5.5 8.5 1.5 0 2 .7 2 2.5 0 2.2.4 2.4 3 2.2 1.7-.2 3.3-.7 3.7-1 .3-.4 1.2-7.4 1.8-15.5 1.5-17.3 2.6-20.2 8.5-22.6 6.4-2.5 6.7-4.2 4.6-22.4-2.8-24.7-2.8-24.1-1.5-21.2 1.7 3.8 4.9 20 4.9 24.8 0 5.6 1.4 8.2 4.5 8.2 3.8 0 5.4 3.6 6.7 15.5 1.8 17-1.8 39.5-6.6 40.3-1.4.3-1.7 0-1.3-1.1.3-.9.9-3.1 1.2-5.1.7-3.3.5-3.6-2.8-5.2-4-1.9-5.3-5.6-4.2-12.2 1.3-7.7 1.5-7.8 4.1-4.5 1.8 2.3 2.9 2.9 4.9 2.6 2.2-.5 2.5-1 2.5-4.7 0-3.5-.4-4.5-2.5-5.6-2.2-1.2-2.7-1.1-4.5.5-2 1.8-2 1.8-2-1.7 0-2.8-.5-3.7-2.5-4.6-4-1.8-4.4-1.6-7 4-2.8 6.3-4.8 19.1-3.7 23.3.7 2.5 1.4 3.1 4.7 3.5 2.1.3 4 1 4.2 1.6.5 1.6-2.4 4.4-4.5 4.4-2.2 0-6.2 3.7-11.2 10.5-4.7 6.4-6.6 7.9-5.6 4.4 1.7-5.9 1.8-8.7.2-11.7-3-5.7-9.9-7.3-11.6-2.6-1.3 3.2-.8 4 3 4.7 3.3.7 4.1 3.5 1.5 5.7-1.1.9-2.1.9-4.5-.4-3.2-1.5-7.1-.9-8.5 1.4-1.6 2.6-8.9 5.2-15 5.2-6.9 0-10.9-1-20-5.4-7.9-3.7-9.7-3.6-5.9.3 5.3 5.6 27.2 14.9 34.9 14.9 1.1 0 3.4-.9 5-2 3.9-2.6 9.5-2.6 12.9.1 4.1 3.2 3.3 4.1-3.2 3.3-4.8-.5-6.7-.2-10.5 1.5-8.7 4-27.3 1.9-29.3-3.3-.3-.8-2.6-2.4-5.2-3.6-6.5-3.1-20.2-17.3-24.1-25.2-1.8-3.5-5.6-9.2-8.4-12.8-5.1-6.2-11.8-11.2-13.3-9.8-1.1 1.2 4.5 11.5 11 20.2 7.5 10 21.7 24.3 31.1 31.4 10 7.4 15.7 9.4 29 10 14.7.6 21.9-.9 26-5.4 1.7-1.9 3.7-3.4 4.3-3.4.6 0 4.3-3.8 8.2-8.4 8-9.7 8.8-10.3 9.6-8.1 1.6 4.1-15.9 25.5-24.2 29.6-4.3 2-5.5 2.1-18.7 1.6-20.8-.8-31.1-4.3-43.7-14.8-7.7-6.4-13-13.2-22.6-29-7.6-12.5-12.7-18.9-15.1-18.9-.7 0-1.3-.7-1.3-1.6 0-1 .5-1.4 1.5-1 2.3.8 3-1.9 1.6-6.4-.8-2.7-2.1-4.3-4.3-5.4-1.7-.9-3.3-1.6-3.5-1.6-.9 0 .9 8.6 3.3 16.5 9.1 29.1 39.2 59.8 66.4 67.9 18.1 5.4 41.3 1.3 51.8-9.2 2.2-2.2 4.3-3.8 4.6-3.5 1.5 1.5.3 4.6-3.1 8.4-6.2 6.9-11.9 9.7-22.5 11.4-3.3.5-3.9 1-4.9 4.4-1.5 5 .3 9 4.9 11 1.9.9 3.5 2.5 3.8 3.8.8 3 1.6 2.9 3.2-.4 1.7-3.7 1.5-5.6-.8-8.6-2.1-2.7-2.7-6.7-1-6.7.6 0 2.2.7 3.5 1.6 3.1 2.1 6.1 1.3 11.1-2.7 5.3-4.3 11.1-6.9 15.5-6.9 2 0 4.2-.7 4.9-1.5.7-.8 2.1-1.5 3-1.5 1 0 2.5-.3 3.4-.6 2.3-.9 5.9-7.2 5.2-9.1-.4-.8-.1-2.2.6-3.1 1.8-2.1 8.9-31.6 7.7-32-.5-.2-.9-1.5-.9-2.8 0-3.2-1.4-3-3.9.3-1.1 1.6-2.1 2.3-2.1 1.7 0-.6 1.1-2.6 2.5-4.5 6.8-9.4 8.2-14.7 6.5-23.5-1.9-9.4-1.9-9.9 1.4-10.2 2.5-.3 2.8-.6 2.3-3.5-.6-4.3-6.6-33.7-7.3-36.2-.4-1.1-.4-1.7 0-1.4 1.4 1.4 4.9 12.8 5.6 18.7.5 4 1.7 7.7 3.3 10.1 3.4 5.1 5.3 12 6.8 24.1 1.4 11.6.8 13.5-3.7 10.5-2.3-1.5-2.8-1.5-4.1-.2-1.6 1.5-3.2 10-3.7 18.7-.1 3-.6 9.4-1.1 14.2l-.8 8.6 2.9.4 2.9.3-.1 7c-.3 11.8-7.7 31.1-15.5 39.9-4.6 5.1-4.6 7.7 0 8.4 1.1.2 2.1.9 2.1 1.7 0 3-20.9 19-22.6 17.2-.3-.2 2.7-3.2 6.6-6.7 5-4.5 7-6.9 7-8.6 0-2.4-.1-2.4-3-.9-1.7.9-5.5 3.8-8.5 6.5-6.7 6.1-11 8.4-14.1 7.6-5.3-1.4-2.2-4.9 7.8-8.6 6.7-2.5 8.7-4.4 7.1-6.8-.6-1-1.9-1.6-2.9-1.4-3.5.6-17.6 9.7-18.7 12.1-1 2-.8 2.7 1.7 4.7 1.5 1.4 4.8 3 7.2 3.6 2.4.7 4.4 1.6 4.4 2.1s-.9 2.5-2.1 4.3l-2.1 3.4h2.7c4.7 0 19.1-8.7 33.3-20.2 6.5-5.4 7.2-6.3 7.2-9.6 0-2.7-.7-4.1-2.6-5.7l-2.6-2.1 2.4-5c3-5.9 7.7-20.1 11.3-33.9 1.4-5.5 3-10.8 3.5-11.7.6-1 1-3.8 1-6.2 0-3.9-.5-5-3.7-8.1l-3.8-3.6 2.4-1.9c1.3-1.1 2.9-2 3.6-2 1.5 0 2.8-2.7 1.5-3.2-.6-.2-.7-5.7-.3-13.6.6-12.4 1.5-16.1 2.7-11 .9 4.2-.4-10.6-1.5-15.9-.6-3-2.2-6.7-3.9-8.9-4.7-5.9-1.6-6.9 3.7-1.2 3.7 3.9 5.4 10.5 6 22.8.3 6.3 1 12.3 1.5 13.2 1 2.1 6.4 2.5 7.1.5.3-.6.6-.2.6 1.1.1 1.6-.9 2.9-3.3 4.3-4.8 2.8-7.1 9.1-7.1 19.4 0 7.9 0 8 2.4 7.7 1.4-.1 2.7-.5 3-.7.3-.3.8-3.8 1.2-7.7.8-7.4 2.3-10.5 3.5-7.4 1.1 2.8-.3 20.2-2.2 29.1-2.5 11.2-2.4 15 .1 15 2.9 0 4.1-3.7 6-18 1-7.2 2.3-14.1 3-15.5.7-1.4 1.6-7.9 2-14.6.7-12.2 0-19.8-1.6-18.8-.5.3-1.2-.2-1.5-1-.9-2.3-2.1-2-3.8 1.1-.8 1.6-1.5 2.6-1.6 2.3-.5-7.5-2.5-18.9-4.1-23.8-1.7-5-3.5-7.8-8.9-13.7-6.6-7.1-10.5-14.4-8.5-16.3.4-.4 1-.1 1.3.7 1.3 3.7 6 7.4 10.2 8l4.3.6 3.4 13.5c3.5 13.8 4.7 16.6 6.2 14.1.5-.7 1.4-1 2-.7 1.7 1.1 1.4-11.8-.4-18.4-1.5-5.7-1.9-9.8-.9-8.7 2 2 6.6 25 7.9 40.2 1.6 18.1 2.6 22.3 5.9 26.8 4.1 5.6 1.9 29.3-4.5 49.5-1.7 5.2-2.9 9.5-2.7 9.8.2.2 1.8-.5 3.6-1.6 6.4-3.9 8.8-12.4 10.3-37 .6-9.1 1.4-17.3 2-18.2 1.1-2.2 1.2-11.8 0-11.8-.5 0-1.1-1.9-1.5-4.1-.6-3.8-.8-4-2-2.4-1.3 1.8-1.4 1.7-1.9-1.1-.4-1.6-.9-7.3-1.3-12.7-.7-10.5-.1-11.7 3.7-7 1.4 1.8 2.3 2.3 2.6 1.5.3-.6 1-1.2 1.7-1.2.9 0 1.1-1.7.8-6-.2-3.3-.1-6 .2-6 .4 0 1.9 1.3 3.3 3 1.4 1.8 3.4 3 4.8 3 2.2 0 5.5 3.2 5.5 5.3 0 .4-2 2.7-4.4 5-4.1 4-4.4 4.7-5.6 12.7-1.7 11.3-.9 33.1 1.3 38.2 1.6 3.7 1.6 3.8-.6 3.8-6.2.1-9.2 3.3-4.3 4.6 3.6.9 5.8 3.8 5.4 7.1-.2 2-.8 2.8-2.3 2.8-1.6 0-2.3 1.1-3.3 5.5-.8 3.6-3.4 8.7-7.2 14.5-3.3 5-6 9.8-6 10.6 0 .9.9 2.4 2 3.4 2.7 2.4 2.5 3.2-1 5-2.1 1.1-3.2 2.7-4 5.8-1.7 6.3-5.4 8.4-9.6 5.2-1.8-1.4-1.7-1.7 3.9-6.9 3.1-3 5.7-5.8 5.7-6.3s-2-3.6-4.5-6.7c-2.5-3.2-4.5-6.5-4.5-7.3 0-.9 1.6-5 3.5-9.2 7.5-16.6 11.4-44.6 6.6-47.5-1.8-1.2-2.9 2.7-3.9 14.5-1.2 12.5-5.6 28.6-9.2 33.2-1.1 1.4-2 3.3-2 4.2 0 .9-1.3 4.8-3 8.7-1.6 3.8-3 7.4-3 7.9s1.8-.2 4.1-1.7c6.6-4.1 9-1.6 4.5 4.7-1.4 1.9-4.3 6.1-6.6 9.4l-4.2 6 4.4.3c2.3.2 4.7.7 5.1 1.1.4.4-.8 3.1-2.7 5.9-1.9 2.9-3.3 5.2-3 5.2 6.5 0 48.4-40.9 48.4-47.2 0-3.5-4.2-1.7-6.8 2.9-3.5 6.4-7.6 10.3-10.7 10.3-3.4 0-3.3-.1 4.7-12.1 5-7.5 6.9-11.3 8.3-17 .9-4.1 2.2-7.7 2.9-8.1.6-.4 4.4-.8 8.4-.8 8.5 0 9.8-1.3 6.2-6.1-1.8-2.6-2.3-5.2-3.2-17.1-.8-10.2-.8-14.6 0-15.9 1.9-3.1-2.3-37.2-6.3-50.6-1-3.3-2.4-5.7-4.2-6.8-2.5-1.7-2.7-1.7-4.3.5-1.7 2.3-1.8 2.2-5.9-10.6-2.3-7.1-5.3-15.7-6.6-19.2-1.4-3.4-2.3-6.2-2.1-6.2.3 0 2.8 4.2 5.7 9.2 7.4 13.3 8.5 14.6 11.4 14.4 2.3-.1 2.5-.4 1.9-3-1.7-7.8-14.9-35.9-24.3-51.9-3.5-5.9-6.1-9-8.2-10.1-1.7-.9-3.5-1.3-4-1-.4.2-1.8-1.5-3-3.8-2.9-5.8-5.4-8.8-8.5-10.4-3.7-2-4.5-.9-2.8 3.8 2.1 6 1.7 6.7-1.6 2.6-5.4-6.6-11.6-5.7-10.3 1.6.5 2.8.2 2.6-3.1-2.2-1.9-2.9-7.3-9.8-11.8-15.3-9.1-10.9-11.5-15.1-9.5-16.7 1.8-1.5 3.7-1.7 8.5-.8 3.1.6 4.2 1.2 4.2 2.6 0 1.7-.3 1.7-2.7.5-5.3-2.5-7.3-2.7-7.9-1-1 2.6 1.8 7.6 8.1 14.3 6.7 7.2 10.5 9.7 16.2 10.7 3.5.5 4.5.3 6.3-1.5 2-2 2.1-2.9 1.5-7.8l-.7-5.6 2.8 3.5c1.6 1.9 6.9 8.3 12 14.4 19.2 23.1 27.2 37.1 38.2 67 7.6 20.6 8.7 25 11.7 42.7 2.8 16.7 6.1 31.6 7.5 33.8.9 1.3 1.2 1.3 2.1-.3.6-.9 1.4-1.5 2-1.2 2.6 1.7-.3-18.9-7.1-49.3-2.8-12.2-5-23.2-4.9-24.5 0-1.3 1.5.9 3.8 5.9 3.9 8.3 6.8 11.4 10.8 11.4 2.4 0 3.1-1.4 1.3-2.5-1.7-1.1-4.6-7.4-8.3-18.5l-3.6-10.5 2.7 3.2c1.5 1.8 4.3 6.1 6.2 9.5 3.3 5.8 3.9 6.3 7.3 6.6 2 .2 3.7.1 3.7-.2 0-.3-1.3-3.9-3-8.1-1.6-4.2-3-9.1-3-10.9 0-2.9-.5-3.6-3.6-5.1-2.2-1-4.8-3.6-6.9-6.9-1.9-2.9-5-6.6-7-8.2-2-1.6-6.9-8.1-10.8-14.4-5.4-8.6-8.1-11.9-10.7-13.2-2.6-1.3-3.7-2.8-4.6-5.9-1.5-5-5.6-9.5-10-10.9-6.1-2.1-7.2.9-2.3 6.5 1.8 2 2.9 3.8 2.7 4-.3.3-5.6-4.9-11.8-11.6-7.4-7.9-12.6-12.6-15.1-13.5-3-1.2-3.8-2.2-4.2-4.7-.2-1.8-.4-3.3-.3-3.4.2-.2 4.2 3.4 14.3 12.8 8.8 8.2 17.6 10.3 14.5 3.4-1.1-2.4-1-2.5.8-1.5 2.5 1.3 16.1 16.8 26 29.5 12 15.4 13.1 16.5 17.3 17.5 2 .4 3.9.4 4.2 0 .2-.4-3.1-5.9-7.5-12.1-9.3-13.3-12.5-18.5-13.5-21.8-1.3-4.3 1.7-1.8 8.5 7 9.5 12.4 17 19.6 20.3 19.6 1.5 0 2.7-.1 2.7-.4 0-2.9-14.8-24-21.4-30.6-3-2.8-6.7-7.9-8.4-11.3-3.6-7.1-5.1-8.5-9.3-8.9-2.4-.2-3.7-1.2-6-4.6-3.7-5.6-2.3-7.2 2.8-3.4 8.3 6.2 18.5 16.1 20.3 19.4 2.6 5 10.4 12.4 13.5 12.7 2.4.3 2.5.1 2.5-6.1 0-4.9-.4-6.7-1.7-7.7-3.7-2.8-19.4-19-19-19.5.3-.3 2.5.8 4.9 2.5 5 3.5 10.8 5.1 10.8 3 .1-3.6 1.4-3.9 10.6-1.9 4.9 1.1 11.1 2.7 13.8 3.5 2.7.9 5.1 1.5 5.3 1.3.5-.6-17.4-10.2-31.7-17-10.5-5-15.9-8.3-24.5-15.2-6-4.8-11.4-9.1-11.9-9.6-1.5-1.4.5-1.1 7.5 1.1zm-173.3 1.2c-.3.7-3.9 2.7-8.1 4.4-4.2 1.8-10 4.8-12.7 6.8-4.9 3.6-11 5.8-11 4 .2-3.1 18.1-13.9 25.2-15.3 6.2-1.3 7-1.2 6.6.1zm-33.3 5.8c-.3.5-1.4 1-2.3 1-1.5 0-1.5-.2-.2-1 2-1.3 3.3-1.3 2.5 0zm-8.5 10c0 2.4-2.9 4-7.2 4l-3.3-.1 3.3-2.9c3.8-3.5 7.2-4 7.2-1zm-18 .5c0 .3-2.2 3-5 6-2.7 3-6.1 7.7-7.5 10.5-1.8 3.6-3.1 5-4.6 5-2.1 0-2.1-.1-.4-2.8 4.1-6.4 11.9-16.4 13.8-17.7 2.2-1.5 3.7-1.9 3.7-1zm6.2 9.7c-.6.6-1.5.7-2.2.3-.8-.5-.6-1.3.7-2.7 1.6-1.8 1.8-1.9 2.1-.3.2.9-.1 2.2-.6 2.7zm-30.2 3.7c-1.1 2.1-2.9 3.6-3.5 2.9-.3-.2.2-1.4 1.1-2.6 1.9-2.8 3.9-3 2.4-.3zm243.4 8.4c4.5 4.8 7 6.6 9.6 7.1 3 .6 3.8 1.4 5.9 5.7 1.3 2.8 2 5.3 1.7 5.6-.4.4-5.5-4.3-11.4-10.3-6-6.1-12.5-11.8-14.5-12.7-4.5-2.2-4.7-3-.5-2.3 2.3.3 4.9 2.3 9.2 6.9zm-42.4.3c0 .2-.7.4-1.5.4s-1.5-.4-1.5-1c0-.5.7-.7 1.5-.4.8.4 1.5.8 1.5 1zm-209.9 6.6c-.4 1.2-1.3 2.4-2 2.6-.9.3-.9-.2 0-2.2 1.5-3.2 3.2-3.5 2-.4zm177.9 2.3c1.9 2 2 2.5.7 2.5-1.7 0-4.7-2.6-4.7-4.1 0-1.6 1.6-1 4 1.6zm-18.8 15.3c8.1 8.7 21 28.3 19.5 29.8-.2.2-2.4-3.3-4.8-7.8-3.4-6.3-7.1-11.1-15.6-20-6.2-6.4-11.3-11.9-11.3-12.3 0-1.3 5.9 3.6 12.2 10.3zm18.5-.1c4.2 5.3 5.3 7.7 5.3 11.4 0 2.9-.2 3.1-1.3 1.9-1.1-1.2-10.2-15.6-13.2-20.9-1.4-2.5 6 3.7 9.2 7.6zm17.4 5.3l3.1 4.5-3.7-4c-2-2.2-5-6-6.7-8.5l-2.9-4.5 3.5 4c2 2.2 5 6 6.7 8.5zm-54.2-6.4c5.5 5.6 4.2 6.9-2.7 2.6-2.6-1.7-6-3.6-7.7-4.3l-3-1.2 3.5-.7c1.9-.4 3.9-.8 4.4-.9.5 0 2.9 2 5.5 4.5zM392 184c2 .5 4.5 1.6 5.5 2.4 1.9 1.4 1.8 1.4-1.4 1.3-1.9-.1-3.6.3-3.8.9-.2.6 2.6 5.3 6.2 10.5 6.5 9.5 11.7 18.1 7.8 13.1-1-1.3-4.1-5.3-6.9-9-8.1-10.5-17.9-17.3-27.4-18.8-3.6-.6-4.1-.9-2.5-1.6 2.5-1 17.7-.2 22.5 1.2zm28.8 9.3c6.8 9.9 17.2 30.2 17.2 33.6-.1 1.8-1.9-1.1-5.9-9.4-6.8-13.9-10.8-19.8-15.6-22.6-3.7-2.2-5-4.8-4-8 1-3.1 2.5-1.9 8.3 6.4zm-89.5 2.1c-2.1 4.5-1.3 6.2 3 6.4 2.9.1 4.2-.6 7.6-4.1l4.1-4.2v3c0 1.8-.9 3.9-2.3 5.2-2.6 2.4-4.5 7.9-5.4 15.3-.9 7.4 0 9.7 4.2 10.4 2.2.5 3.5 1.3 3.5 2.3 0 1.1-.6 1.4-2.4.9-3.4-.8-5.6 1.7-5.6 6.4 0 6.6 1.4 9 5.3 9 2.2 0 4.1-.8 5.3-2.1 1.3-1.4 2.7-1.9 4.7-1.6 2.4.3 3.3-.2 4.6-2.5 1.8-2.8 3.1-2.8 3.1 0 0 2.2 3 5.2 5.2 5.2 2.6 0 2.3 1.9-.4 2.4-1.3.2-4.1.8-6.3 1.3l-4 .8-.5 7.6c-.3 4.7-1.1 8.5-2.2 10.2-2.5 3.6-2.3 5.6 1.1 10.8 3.9 6.3 7.5 8.9 12.2 8.9 5.7 0 5.3-3-1.1-7.6-4-2.9-5-4.2-5-6.5 0-4.3 3.2-3.8 8 1.2 3.9 4.1 4.3 4.8 4.4 9.9.1 2.2.6 2.5 4.2 2.8 4 .3 4.2.2 6.2-4 1.1-2.4 2.2-5 2.5-5.8.8-2.2.6 9.1-.2 12-1.3 4.9-10.7 7.4-18.8 5.1-1.8-.5-5.3-2.6-7.9-4.5-2.6-2-6.4-3.9-8.5-4.2-3.6-.6-3.8-.8-4.1-4.7-.2-3.4-.8-4.4-3.5-6-4.2-2.4-7.3-1-7.3 3.5 0 7.4 11.3 23.9 19.1 27.8 4 2.1 7.9 2.6 7.9 1.1 0-.5-2.7-3.3-6-6.1-6.3-5.5-8.6-8.5-7.2-9.4.5-.3 2.7.8 5 2.5 2.2 1.6 5.8 3.5 7.9 4.3 3.7 1.3 3.8 1.4 3.8 6.5 0 5.6 1.1 7.1 5.6 7.1 3.3 0 8.8-3.7 15.5-10.2 6.7-6.5 7.7-4.9 3 4.7-4.7 9.6-6.8 11.2-15.9 12-11.5 1.1-14.4 1-17.3-.6-3.2-1.6-17-19.7-21.3-27.9-5-9.4-9.7-22.7-11.1-31.6-1.2-7.6-1.3-33.3-.2-40.4.6-3.2 1 1.1 1.5 15 .6 19.2 1.8 26.7 4.4 27.7.7.3 1.3 1.8 1.3 3.4 0 3.5 2.3 4.9 7.9 4.9 4.9 0 5.1-.9 1.6-7.7-3.6-7-4.5-15.3-3.9-35.2.7-20.1.3-21.4-6-21.5-2-.1-3.6-.6-3.6-1.1 0-1.4 4.8-11.5 5.4-11.5.3 0-.2 1.5-1.1 3.4zm46.8-1.6c5.4 3.5 14.9 17.6 14.9 21.9 0 3.3-1.3 2.8-3.5-1.4-4-7.4-9.2-13-13.8-14.8-4.3-1.6-4.5-1.6-10.5.9-3.4 1.4-6.3 2.6-6.5 2.6-.2 0 .1-2 .7-4.5.9-3.8 1.6-4.7 4.1-5.4 5.1-1.5 11.8-1.2 14.6.7zm69.9-.8c1.3.8 1.3 1.1-.2 2.6-1.9 1.9-3.3 1.3-4.1-1.6-.6-2.2 1.6-2.7 4.3-1zm42.2 7.1c.3 3.2.1 3.4-3.2 3.9-5.3.8-5.1 3.9 1 19.2 2.9 7.1 5 13.9 4.7 14.9-.3 1.1.5 3.9 1.8 6.2 2.7 5 3.9 9.9 3 12.7-1.1 3.5-2.3 2.2-3.6-3.8-2.7-13.2-11.5-41.8-17.5-56.6-.7-1.9-.7-1.9 1.6-.3 3.6 2.5 9 2.3 9.7-.4.5-1.7.7-1.9 1.4-.6.5.8 1 3 1.1 4.8zM784 195c10.2 1.1 12 1.9 9.4 4.1-2.4 2-31.5 2-36.2 0-4.7-2-2.7-3.3 6-4.1 10.9-1 10.6-1 20.8 0zm-33.2 1.2c1.8 1.8 1.5 2.6-1.8 4.3-3.2 1.6-26.5 7.5-29.8 7.5-2.2 0-3.8-3.9-1.9-4.5 1.9-.7 26-7.3 28.2-7.8 3.5-.8 4.1-.7 5.3.5zm-251.1 6.5c-.3 1-.5.2-.5-1.7s.2-2.7.5-1.8c.2 1 .2 2.6 0 3.5zm36.7 13.7c13.5 17.2 15.3 21 8.4 16.9-2.3-1.3-6.2-6.5-13-17.3-14.2-22.3-13.1-22.2 4.6.4zm-76.7-10.8c2.7 4.6 5.5 12.4 4.5 12.4-.4-.1-1.9-1.9-3.4-4-1.5-2.2-3.4-4-4.1-4-2.4 0-4.1-4.4-2.7-6.9 1.5-2.9 3-2.3 5.7 2.5zM313.6 210c-.8 3-1.4 4.5-1.5 3.2-.1-2.9 2.2-12.2 2.6-10.2.1.8-.3 4-1.1 7zm525.8-1.4c12.5 5 35.9 16.3 43 20.8 7.2 4.6 20.6 15.8 22.4 18.6 1.7 2.8.6 5.9-2.3 6.6-2 .5-3.6-.6-9.2-6.3-8-7.9-20.1-15.6-45.8-29.1-17.7-9.3-21.5-11.7-21.5-13.4 0-1.6 4.4-.7 13.4 2.8zm-465.1.8c9.3 8.6 17.1 33.5 15.2 48.4-1.3 10.6-2.1 9.3-2.2-3.4-.1-23.5-6.6-38.4-16.8-38.4-.8 0-2.8 1.9-4.5 4.2-1.6 2.2-3 3.6-3 2.9 0-2.5 2.9-7.9 5-9.4 1.7-1.1 2.1-2.3 1.8-4.1-.7-3.3 1.1-3.4 4.5-.2zm126.9 15.3c7.6 24 8.7 28.7 10.5 42.6 1.1 9 1.3 13.1.5 13.9-.7.7-1.2-.7-1.6-4.8-2.4-22.5-5.2-34.5-12-51.7-2.5-6.4-4.6-12.5-4.6-13.5 0-2 1-3.5 1.8-2.7.2.2 2.7 7.5 5.4 16.2zM290.7 213c2 0 4.5-.7 5.5-1.7 2-1.8 2.3-.7.8 3.1-.8 2.3-1.5 2.6-5.4 2.6-3.8 0-4.8.5-6.9 3.1-2.1 2.7-2.8 3-6 2.4-3.1-.6-3.6-1.1-3.9-3.9-.4-3.6 2.6-6.6 6.5-6.6 1.4 0 2.9-.5 3.3-1.1.5-.8 1-.6 1.6.5.6 1 2.2 1.6 4.5 1.6zm152.3 1.5c0 .5-.5.3-1-.5s-1-2-1-2.5c0-.6.5-.3 1 .5s1 1.9 1 2.5zm35.6 8.5c.7 1.9 1.3 6 1.4 9 0 6.9 1.5 12.1 3.9 14 1.5 1.2 2 3.4 2.5 11.5l.7 9.9-2.9-2.7c-2.6-2.5-3-3.7-3.5-10.5-.4-4.2-2.4-15-4.7-24-2.2-9-4-16.8-4-17.4 0-1.7 5.2 6.3 6.6 10.2zm-16.2 7.9c6 13.2 9.9 23.7 9.4 25.3-.6 1.8-16.8-35.3-16.8-38.5 0-2.3 2 1.2 7.4 13.2zM313 246c1.5 16.6 3.1 23.1 9 36.5 4.8 10.8 6.2 16.5 4 16.5-1.3 0-6.2-9.9-9.3-19-4-11.9-5.8-22.4-6.4-38.4-.5-13-.9-15.2-2.6-16.9-1.9-1.9-1.9-2 .9-4.2l2.9-2.3.2 7.6c.1 4.3.7 13.3 1.3 20.2zm426.5-26c0 .8-.8 1.6-1.7 1.8-1.3.2-1.8-.3-1.8-1.8s.5-2 1.8-1.8c.9.2 1.7 1 1.7 1.8zm-325.4 5.1c1.6 3.4 2.9 6.3 2.7 6.5-.2.2-1.8-2.6-3.6-6.1-1.7-3.6-3-6.5-2.7-6.5.3 0 1.9 2.7 3.6 6.1zm319.4-2.1c0 .8-.8 1.6-1.7 1.8-1.3.2-1.8-.3-1.8-1.8s.5-2 1.8-1.8c.9.2 1.7 1 1.7 1.8zm-281.2 12.5c3 7.2 5.8 14.6 6.1 16.5l.7 3.5-1.9-3.4c-1.9-3.3-7.5-6.6-9.4-5.5-.5.3-.7 2.3-.3 4.5.9 5.3-.9 5.1-2.8-.4-2.7-7.3-4.7-14-4.7-15.3 0-.7 1.5.3 3.4 2.2 3.4 3.4 8.6 4.7 8.6 2.1 0-.7-1.3-4.8-3-9-2.9-7.6-3.5-9.5-2.6-8.6.3.2 2.9 6.3 5.9 13.4zm-49.3-7.9c0 1.6-1.6 1.9-2.5.4-.8-1.3.4-3.2 1.6-2.5.5.4.9 1.3.9 2.1zm-104.6-.8c.3.5-1 2.5-2.8 4.5-1.8 2-3.8 5.1-4.3 6.9-1 2.9-1.1 3-1.2.8-.2-5.9 6.3-15.4 8.3-12.2zm99.6 2.4c0 1.8.9 9.6 2 17.3 1.1 7.7 2.3 16.7 2.7 20 .8 5.7.9 6 4 6.6 2.6.5 3.4.3 3.8-1.2 1.3-4 2.5-.4 2.5 7.4 0 4.8-.4 7.6-.9 6.9-.4-.7-2-2-3.6-2.8-2.5-1.3-3.1-1.2-6.2.7-2.8 1.8-3.9 2-5.9 1-3.1-1.4-3.1-3.9 0-5 2.7-1.1 3.6-4.4 3.6-13.5 0-9.4-1.8-26.5-3.5-33-.8-3.2-1.3-6.2-.9-6.7 1.2-1.9 2.4-.8 2.4 2.3zm-22.1 5.3c1 5.2.5 5.7-3.8 4.9-3.7-.8-3.8-2.2-1-8.4 2.3-5.2 3.3-4.5 4.8 3.5zm-94.9-2.8c0 .5-.8 4.8-1.7 9.8l-1.7 9-.7-4.5c-.4-2.5-.8-6.9-.8-9.8-.1-4.9 0-5.2 2.4-5.2 1.4 0 2.5.3 2.5.7zm532.6 2.2c5.4 2.5 6.2 3.9 2.8 5.1-2 .8-3.9.7-6.8-.2-3.3-1.1-4.2-1.8-4.4-4.1-.3-2.3 0-2.7 2-2.7 1.3 0 4.2.9 6.4 1.9zm-22.9 3.4c1.7 1.7 1.7 1.9 0 3.2-1.4 1-4.1 1.2-10.6.8-4.9-.3-13.2 0-19.1.8-14.6 1.8-18 1.8-19.4-.3-.7-1.1-.7-2.1-.1-2.7 1.6-1.6 24.2-4 36.2-3.8 9.4.2 11.5.5 13 2zm-368.7 9v2.7l-5-2.5c-5.9-3-6.6-5-1.5-4.2 3.5.6 3.9.2 3.6-3.3 0-.8.6-.2 1.4 1.5.8 1.6 1.4 4.2 1.5 5.8zm-63 8.4c-.1 2.4-.2 2.6-1.1 1-.5-.9-.7-2.2-.4-2.7 1-1.7 1.5-1.1 1.5 1.7zm6.5 1.3c4 3.2 9.1 4 11.4 1.7 1-1 1.2-.6.9 1.8-.4 4.1-4.3 6-9.7 4.5-2.1-.5-4.4-1.6-5-2.4-1.2-1.5-2.8-8.6-1.9-8.6.3 0 2.2 1.3 4.3 3zm470.3 3.6c1.2.8 2 1.9 1.7 2.4-.8 1.2-4.1.1-6.1-2.1-1.6-1.8-1.6-1.9.2-1.9 1.1 0 3 .7 4.2 1.6zm-410.2 11.7c.4 4.9.3 7.7-.3 7.7-.9 0-2.3-9.9-2.3-16 .1-5.2 1.9.6 2.6 8.3zm29 5.5c.9 4 1.4 7.6 1 7.9-1 1.1-3.8-6.9-4.3-12.6-.6-7.5 1.1-5 3.3 4.7zm338.9-4.9c-3 2.9-33.3 6.7-33.6 4.2-.1-.6-.2-1.7-.3-2.4-.1-.8 2.5-1.4 8.4-1.8 15-1 26.5-1 25.5 0zm-7.6 9.9c2.3.9 4.3 2.1 4.2 2.7-.1.6-5.2 1-13.1 1-12.8.1-13 0-13-2.1 0-1.7.7-2.4 2.8-2.7 6.5-1 15-.5 19.1 1.1zm-46.6 19.9c.3.5 1.2 3.2 2.1 6.1 1.5 5.1.4 6.4-1.4 1.6-.6-1.4-1.8-2.4-2.9-2.4-2.8 0-3.3-1.3-1.5-3.8 1.6-2.3 2.9-2.8 3.7-1.5zm54.9 11.3c10 4.2 19 11.1 25.3 19.4 5.2 6.9 6.3 9.4 4.9 10.9-1.3 1.3-5.1-1.8-14.9-11.9-10.9-11.2-13.9-12.8-26.5-14.1-7.4-.7-10.9-5.2-5.7-7.3 3.1-1.3 9.1-.3 16.9 3zM539 315.8c0 1.5.7 4.9 1.5 7.6 1.8 6 .6 8-2.4 3.8-2.1-3-2.9-10-1.5-13.6.9-2.3 2.4-.9 2.4 2.2zm204.7.4c-.3.8-.6.5-.6-.6-.1-1.1.2-1.7.5-1.3.3.3.4 1.2.1 1.9zm-269.6 14.1c-.8.8-1.1.2-1.1-1.9 0-4 1.4-5.4 1.8-1.9.2 1.5-.1 3.2-.7 3.8zm362.9-.4c1.6 2.9 3.6 4.8 5.5 5.4 6.7 2.1 9.2 7.7 3.5 7.7-6.6 0-12.7-6.3-14.5-14.8-.6-2.9-.4-3.3 1.1-3 1 .1 2.9 2.3 4.4 4.7zm-41.1 6.8c4.4 2.1 5.7 3.4 7.3 7 3 6.7 3.4 11.1 1.3 11.9-1.8.7-3.6-.9-11.3-10.5-1.8-2.3-5.1-5-7.3-6.1-2.7-1.4-3.9-2.7-3.9-4.1 0-2 .4-2.1 4.3-1.5 2.3.4 6.6 1.8 9.6 3.3zm-254.3.5c-.4 1.8-1.1 6.1-1.5 9.6-.5 3.5-1.1 6.5-1.4 6.8-.8.8-6.9-14.5-6.5-16.4.2-1.1 1.7-1.9 3.8-2.3 6.3-1.1 6.3-1.2 5.6 2.3zm-90.8 9.7c.4 1.3-2.5 5.1-4 5.1-.4 0-.8-.7-.8-1.5 0-2-1.9-1.9-4.1.1-2.5 2.3-5.3 1.1-4.3-1.8.4-1.3 1.2-2.6 1.8-3 1.8-1.2 10.9-.3 11.4 1.1zm339.9 2.7c4.9 3.7 7.3 6.5 7.3 8.6 0 2.1-.4 2.2-3.2.7-1.1-.6-2.1-.9-2.3-.7-.2.2.3 4.8 1 10.3 1.6 11.2 2 28.4.6 26.9-.5-.5-1.6-6.3-2.5-12.9-.9-6.6-2.7-17.1-3.9-23.3-2.8-13.6-2.7-13.9 3-9.6zm39.4 7.3c2.3 6.8 2.9 14.8 1.5 18.9-.7 1.9-.5 2.4 1.3 2.9 3.2.8 2.6 2.7-1.5 4.6-5 2.4-6.4 1.1-6.4-6.1 0-3.1-.5-10.4-1.2-16.2-.6-5.8-.8-11.4-.5-12.4.7-1.8.8-1.8 2.7-.1 1 .9 2.9 4.7 4.1 8.4zm-381.4 3.6c-.1 4.1-.6 7.5-1.2 7.5-.5 0-3.4-1-6.5-2.1-3-1.2-6.6-2.6-7.9-3.1-2.2-.8-2.3-1-.6-2.8.9-1 3.8-2.4 6.5-3 2.7-.6 5.7-1.8 6.7-2.5 1-.8 2.1-1.5 2.5-1.5.3 0 .5 3.4.5 7.5zm-8.7 11.7c0 2.7-2.7 5.8-5.2 5.8-1.8 0-1.8-.2.2-4 2.2-4.3 5-5.4 5-1.8zm363.6 5.4c2.4 13-3.6 56.4-7.8 56.4-1.6 0-.2-12.6 2.3-21.3 1.4-5.2 2.2-11.6 2.6-23 .6-15.4 1.5-19.3 2.9-12.1zm-42.1 1.6c.9 6.2-1 31-2.5 33.4-1.1 1.8-.9 2.6 1.3 6 5.1 7.6 7.2 18.9 4.7 24.9-.7 1.7-1.1 1.4-2.9-2.7-5.7-12.6-8.4-33.9-6.2-49.8 2-15.4 4.4-20.3 5.6-11.8zm36.1 69.3c.3.8 0 3.1-.6 5.1-1.6 4.7-3.3 3-2.4-2.4.7-4.2 2-5.4 3-2.7zm-586.3 36.6c23.5 4.9 30.3 8.9 23.1 13.6-2.5 1.6-2.8 1.6-7.3-.9-7.5-4.2-19.7-6.2-46.1-7.8-9.1-.5-23.3-1-31.6-1-11.2 0-15.5-.4-16.9-1.4-1.8-1.3-1.7-1.4 1.6-2.1 7-1.6 19-2.2 42.7-2.4 21.2-.1 25.6.2 34.5 2zm516.3 15.1c6.4 8.1 12.4 17 12.4 18.5 0 .6-1 1.9-2.2 2.7-2.4 1.7-4.8.6-4.8-2.1 0-.7-2-3.3-4.4-5.7-3.4-3.3-4.8-5.7-6.1-10.2-.9-3.2-1.9-6.7-2.1-7.7-1.1-3.7 2.5-1.5 7.2 4.5zm128.1 4c-.3 1.3-1.2 5-2 8.3-1.6 6.8-3.6 11.2-6.5 13.8-1 1-2.7 3.5-3.7 5.7s-2.5 4-3.3 4c-1.3 0-1.4-1.4-.9-8.6.3-4.8.9-8.9 1.2-9.2.3-.3 1.7 0 3.1.7 3.7 1.6 4.4.7 4.4-5.8 0-4.4.5-6.5 2.1-8.5 2.6-3.4 6.4-3.6 5.6-.4zM754 518.6c0 2.9-1.4 3.8-4 2.4-2.2-1.2-2.7-4.6-.7-5.3 2.4-.8 4.7.5 4.7 2.9zM136 526c0 3.3-11.6 6.4-13.9 3.6-1.2-1.4-.9-1.8 2-3.1 3.9-1.6 11.9-2 11.9-.5zm590.5 24.6c3.7 3.8 5.3 9.4 2.5 9.4-1.3 0-4.8-5.2-5.5-8.3-.8-3.1.5-3.5 3-1.1zm-636.8 3.8c-1.3 3.3-10.7 7.3-10.7 4.6 0-.6 1.9-2.8 4.2-5 3.6-3.6 4.3-3.9 5.6-2.6.8.8 1.2 2.2.9 3zm115.6 60.5c2.6 2.3 3.5 2.6 9.7 2.3 5.2-.2 7.2.1 8.4 1.4 2.2 2.1 1.5 2.9-3.8 4.4-3.9 1.1-4.9 1-9.2-.9-6.5-2.9-11.4-6.8-11.4-9.1 0-2.5 2.4-1.7 6.3 1.9zm-4.8 7.4c5.8 2.9 12 8.5 21 18.8 15.8 18.1 25.5 32.7 29.9 44.9 1.4 3.9 3.5 8.3 4.7 9.9 3.6 4.9 5.6 20.1 2.6 20.1-3.5 0-5-3.2-10.1-21.1-5.8-20.6-6.4-21.8-20.2-37.9-4-4.7-8.3-10-9.6-11.9-1.6-2.4-3.6-3.8-6.3-4.5-2.7-.8-4.1-1.8-4.3-3.1-.5-2.8-3.8-6.1-10.4-10.6-6.2-4.3-7.2-5.4-6.3-6.9.8-1.2 3.4-.6 9 2.3zm-28.1-1.2c6.6 1.4 26.3 10.9 25.6 12.4-.9 1.8-5.4.8-17.5-4-6.6-2.6-13.8-5-16-5.3-7.2-.9-8.5-4.2-1.6-4.2 2.1 0 6.3.5 9.5 1.1zm5.7 14.1c7.9 3.9 24.3 19.9 31.2 30.5 5.6 8.6 11.3 20 10.5 20.8-1.5 1.5-5.2-2.7-9.5-10.5-3.8-6.9-7-10.8-16.9-20.5-6.7-6.6-15.3-14-19.2-16.5-11.2-7.1-8.3-9.9 3.9-3.8zm30.6 8.8c8.1 6.4 16.4 18.4 14.7 21.1-.3.5-.2 1.9.1 3 .5 1.6 1.3 2 3.1 1.6 3.1-.6 3.1 1.1-.2 4.6-3.1 3.4-4.4 2.7-8.1-4.6-1.3-2.7-5.9-10.1-10-16.3-6.7-10-8-13.4-5.4-13.4.5 0 3.1 1.8 5.8 4zm-56.4 28.5c.4 7.9 1 11.4 2.6 14.5 1.2 2.2 2.1 4.7 2.1 5.4 0 1.8 3.1 2.9 4.4 1.6.7-.7.3-2.5-1.3-5.7-2.5-5.1-4.2-18.3-2.4-18.3.6 0 2.2 1.5 3.5 3.3 1.4 1.7 5.3 6 8.7 9.3 6.4 6.5 7 7.8 4.7 12.3-1.3 2.4-1.2 3.2.3 6.7 2.8 6.2 8.8 10.3 10.7 7.2.6-1-1.3-3.1-7.3-7.9-1.8-1.3-1.6-4.8.2-5.5 1.6-.7 7.1 2.4 9.9 5.5 1 1.1 2.1 3.5 2.5 5.3.6 3 1 3.3 4.5 3.3 5.3 0 7.1 2.8 3.6 5.7-2.1 1.7-3.6 1.9-9.6 1.6-6.2-.3-7.7-.8-12.6-4.1-3.9-2.7-6.3-3.7-8.4-3.5-2.8.3-2.9.1-3.4-4.2-.4-3.7-.9-4.5-2.5-4.5-3.2 0-3 4 .4 11 3.3 6.6 11.8 15.5 14.8 15.5 1.2 0-.2-1.9-4.5-5.9-4.5-4.1-6.1-6.3-5.6-7.4.8-2.2 1.6-2.1 4.9.5 1.6 1.2 5.1 3.4 7.9 4.8 4.9 2.5 5.1 2.9 5.1 6.8.1 2.3.4 4.4.8 4.8 1.3 1.3 6.9-2 13.3-7.8 6.5-5.9 8.4-6.5 8.4-2.6 0 2.9-6 13.7-8.5 15.4-1.1.7-6.4 1.6-11.7 2-8.8.6-9.9.5-13.2-1.5-4-2.5-17.3-20.1-20.4-27.1-5.4-12.1-7.2-17-8.1-23-1.2-7.5-1.5-28.3-.4-29.4.5-.4 2 .6 3.4 2.4 2.4 2.8 2.7 4.2 3.2 13.5zm42.3-8.8c-.7.7-2.6-.7-2.6-1.9 0-.6.6-.6 1.5.2.9.7 1.3 1.5 1.1 1.7zm-65.1 7.3c.8 2.6-.3 6.2-1.8 5.7-.7-.2-1.3-1.4-1.5-2.6-.7-4.5 2-7.1 3.3-3.1zm109 10.4c3.2 5.4 7.7 17.5 7.3 19.5-.2 1-2.5-1.3-6.2-6.4-7.1-9.6-6.5-8.9-7-8.4-.3.2.9 3.5 2.5 7.3s2.8 7.3 2.7 7.7c-.2.5-1.4.3-2.8-.4-4.6-2.3-7.7-15.6-4.9-21 2.5-4.8 4.9-4.3 8.4 1.7zm14.4 66c1 1.1.9 2.1-.4 4.5-2.7 5.3-5.7 3.6-4.8-2.7.6-3.5 3.1-4.4 5.2-1.8zm56.5 26.4c.7 1.1-2.7 17.3-4.8 23.1-2.3 6.2-2 6.9 1.4 3.6 3.3-3.2 5.5-9.3 6.6-18.8.3-3.1 1-6 1.4-6.2 1.6-1 8 3.7 8.6 6.2.8 3.1-.9 5.1-2.9 3.4-1.2-.9-1.5-.4-1.9 3.3-.3 2.5-1.8 6.6-3.4 9.1-7.5 12-7.8 12.7-6.6 14.6 1.7 2.7 1.5 4.2-.8 6.2-1.1.9-2.3 3.1-2.7 4.7-.6 3.4-2.8 5-6.8 5-4.4 0-4.3-2.9.3-7.2 2.3-2.1 4.2-4.6 4.2-5.6-.1-.9-1.4-3.3-3-5.2-3.7-4.3-3.7-6.4-.1-14.9 1.6-3.8 3.7-10.3 4.6-14.5 1.4-6.1 2.1-7.6 3.5-7.6 1.1 0 2.1.4 2.4.8zm-61.4 7.9c0 2.4-4 7.3-6 7.3-2.9 0-1.9-5 1.7-9.2 2-2.2 4.3-1.2 4.3 1.9z"/><path d="M232.6 248.2c-2 2.8-2.2 14.7-.3 17 2 2.6 6.4 3.1 7.6.9 3.6-6.7 3-18.1-.9-18.1-1 0-2.2-.5-2.5-1-1-1.6-2.3-1.2-3.9 1.2zm11.3 13.8c-1.1.7-1.1 2.5-.1 10.7.7 5.5 1.7 11.7 2.3 13.8 1.1 3.8 1.1 3.9 2.4 1.6 1.1-2.2 1.2-2.2 1.9-.5.7 1.7.8 1.7 1.6.3 1.8-3.1 2.3-15.2.8-19.3-1.4-4.3-6.5-8-8.9-6.6zm15 1.7c-.6 1.5-1.3 7.5-1.6 13.3-.4 8.3-.2 11.3 1.1 14.3 1.4 3.6 1.8 3.8 5.3 3.5l3.8-.3V287c-.1-7.3-1.2-20.1-2.1-22.9-.3-1.1-.7-1.1-1.9-.1s-1.5 1-1.5-.3c0-2.9-2-2.9-3.1 0zm21.6.1c-1 4.8.9 7.4 5.3 7 3.3-.3 3.7-.6 4-3.4.3-3.5-1.1-5.1-5.5-6-2.8-.6-3.2-.3-3.8 2.4zm418.1 3.3c-6.8 5.4 1.1 10.7 9.5 6.3 2.4-1.2 2.9-1.9 2.3-3.7-1.4-4.9-7.2-6.2-11.8-2.6zm-466.7 6.6c-1.1 1.2-.9 2.7 1.1 8.6 2.4 6.8 2.7 7.2 5.6 7.3 2.8.1 3.3-.2 3.8-2.9.7-3.4-.8-10-2.7-11.4-.6-.5-2.4-1.4-3.9-2-2.1-1-2.9-.9-3.9.4zm-11.5 4.7c-.9 3.8-.1 6.1 2.1 5.9 1.1-.1 2.3.4 2.7 1 .6.9 1.1.8 1.8-.3 1.9-3 1.1-5.8-2.2-7.4-3.9-2-3.6-2-4.4.8zm62.6.3c0 1.6 1.3 5.3 2.9 8.3 2.5 4.8 3.2 5.5 5.7 5.4 3.3 0 3.4-.9.6-8.7-1.1-3.3-2.5-5.3-4.4-6.3-3.9-2-4.8-1.8-4.8 1.3zm273 1.6c0 3.1 2.9 5.7 6.3 5.7 4.2 0 2.9-4.2-2-6.8-3.2-1.8-4.3-1.5-4.3 1.1zm149.1 2.5c-3.4 4.4-12.1 21.7-12.1 24.2 0 1.3.6 1.6 2.3 1.3 1.6-.3 4.3-3.3 8.4-9.6 8-12 8.6-13.3 7.8-16.8-.9-3.9-2.7-3.7-6.4.9zm-18.4 4c-2.2 2.4-2.1 4.5.2 6.6 4 3.6 8.8-1.4 6.1-6.3-1.3-2.6-4.1-2.7-6.3-.3zm27.9 1.4c-.8 1.3-2.7 4.9-4.1 8.1-2.6 5.6-2.6 5.9-.9 7.2 2.7 2.1 2.9 2 6.3-3.2 3.7-5.5 4.6-8.3 3.7-11.8-.8-3.1-3.1-3.2-5-.3zM261 303.7c-1.7 6.4-2.3 6.8-6.1 4.9-4-2-3.6-2-4.3.8-.7 2.7.7 11.4 2 12.6.5.4 2.5 1 4.6 1.4 4.4.8 7.1-1.3 6.2-4.9-1-4.1.8-5.1 2.5-1.4 1.4 2.9 2.2 3.4 5.4 3.7 5.5.5 5.7-1.6 1.1-10.9-2.8-5.8-4.7-8.4-6.8-9.4-1.6-.8-3-1.5-3.1-1.5-.1 0-.8 2.1-1.5 4.7zm-25.1 1c-1.3 3.3.8 12.7 4.5 20.9 2.2 4.7 2.7 5.3 5.5 5.2 2.8-.1 3.1-.4 3.1-3.3 0-10.1-3.9-22.7-7.6-24.4-3.6-1.6-4.3-1.4-5.5 1.6zm479.5.8c-1.5 3.8-3.8 13.4-3.2 13.9.1.2 1.2.6 2.3 1 3.8 1.1 8.1-11.1 5.9-16.8-1-2.7-3.4-1.8-5 1.9zm-425.9-.6c-.6 1.1 1.3 7.7 3.5 11.4 1 1.8 2.3 5.6 2.9 8.5 2 9.6 10.9 24.8 19.4 33 3.6 3.6 5 4.3 7.6 4l3.2-.3-5-5.9c-4.7-5.6-8.9-13.4-20.6-38.4-3.7-7.7-5.6-10.6-7.7-11.6-1.5-.8-3-1.1-3.3-.7z"/><path d="M281 316.5c0 7.1 8.3 24.8 21.4 46 8.2 13.2 11.5 20 10.2 21.2-1 1-3.3-1.6-9.4-10.5-9.5-13.9-15.8-25.1-19.2-33.7-4.3-11.1-4.9-12.1-7.7-13.4-4.3-2-6.3-1.4-6.3 1.8 0 3.7 11 25.3 18.3 36 3.5 5 5.6 9 5.2 9.9-.4 1 2.2 4.3 7.5 9.7 4.4 4.6 8 8.7 8 9.2 0 .6-.9 2.2-2.1 3.6-1.5 2-1.8 3.1-1 4.5 1.6 3.1 6 5.4 8.7 4.8 2.3-.6 2.4-1.1 2.4-8.1 0-4.1.5-7.7 1.1-8 .5-.4 4.3 1.8 8.2 4.8 4 2.9 9.4 6.8 12 8.6 9.5 6.4 22.2 10.9 27.3 9.7l2.7-.7-2.2-2.3c-1.1-1.2-2.1-2.7-2.1-3.3 0-3 9.3-1.8 12.5 1.7.9 1 4 2.7 6.9 3.6 5.9 2 17.7 2.5 18.3.8.5-1.6-6.9-4.4-11.5-4.4-2 0-4.4-.5-5.2-1-1.3-.9-1.3-1.1 0-2 .8-.5 2-1.1 2.5-1.4 2.9-1.1-2.4-2.9-11-3.6-10.1-.9-13.4-2.3-12.2-5.4.6-1.5 3.1-2.1 6.5-1.7.6.1 2-.2 2.9-.7 2.9-1.7-3.1-4.6-10.3-5-6.1-.4-6.4-.3-7.4 2.2-1.5 4-5.5 3.4-13.5-2-7.7-5.3-12.3-7.4-16.2-7.4-4.9 0-10.2-4.5-13.3-11.3-1.5-3.4-5.3-10.2-8.3-15-3.1-4.8-6.6-11.8-7.8-15.5-3.7-11.2-8.4-20.6-11.2-22.5-3.6-2.3-4.7-2.1-4.7.8zm62.6 76.5c10.8 5.4 14.8 8.7 13.8 11.3-.8 2.1-3.7 2.2-5.3.3-.6-.8-3.3-1.9-5.9-2.6-3.6-.9-6-2.4-9.9-6.5-8.8-9.1-7.2-9.7 7.3-2.5zm340.7-77.2c-2.7.4-3 1.7-.7 2.6 1.4.5 1.2 1.2-1.1 5.2-2.8 4.8-2.3 7.4 1.6 7.4 2.5 0 6.9-6.1 6.9-9.6 0-4.6-2.1-6.4-6.7-5.6zm9.4 14.9c-1.3 2.1-3 5.5-3.8 7.6-1.2 3.3-1.1 3.9.1 4.7 2.5 1.6 3.8 1.1 6.5-2.4 3.2-4.2 4.5-8.4 3.4-11.4-1.2-3.3-3.6-2.7-6.2 1.5z"/><path d="M256 331.6c0 1.5 1.8 5.9 4.1 9.7 2.2 3.8 3.8 7.1 3.5 7.4-.3.4-1.8.1-3.2-.6-2.9-1.3-4.4-.7-4.4 1.8 0 2.6 2 4.1 5.6 4.1 2.3 0 3.4-.5 3.6-1.8.3-1.2 2.4 1.1 6.8 7.2 21 28.9 24.1 32.4 26.9 30.7 1.6-1.1-2.9-9.2-11.8-21-3.1-4.1-6.6-8.8-7.9-10.5-1.3-1.7-4.6-7.6-7.2-13.1-5.9-12-8.5-15.3-12.7-16.1-3.1-.6-3.3-.5-3.3 2.2zm454.7 7.5c-2.2 3-2.1 3.6.4 4.2 2.4.7 3.3-1.1 2.1-4.3l-.9-2.3-1.6 2.4zm-465.6.6c-1.6 3 1.3 7.2 4.9 7.1 4.8-.2 5.4-6.9.7-8.2-3.5-.9-4.5-.7-5.6 1.1zm453.6 6.9c-2.1 4.1-6.9 19.6-6.2 20.2 1.1 1.2 6.1-3.6 8.2-7.9 2.5-5.1 2.9-10.7.9-13.4-1.3-1.8-1.4-1.7-2.9 1.1zm-146.3-.3c-.3.9-.4 2.6-.2 3.9.5 3.4 5.3 3.3 5.3-.1 0-1.3-1-3-2.2-3.8-2-1.4-2.3-1.4-2.9 0zm119.2 3.3c-.9 2.5-.7 3.4.8 3.4 1.9 0 2.8-1.4 2-3.4-.8-2-2-2-2.8 0zm11.5 2.5c-1.3 3.9-1.5 12.9-.2 12.9 1.2 0 4.6-4.8 5.5-7.7.7-2.3-1.7-8.3-3.3-8.3-.5 0-1.4 1.4-2 3.1zm26.1 5.8c-2.3 3.2-5.1 8.1-6.2 10.7-4.3 9.9-.2 16.6 4.7 7.9 4.7-8.3 9-24.5 6.4-24.5-.4 0-2.7 2.7-4.9 5.9zm23.2 4.6c-1.8 2.8-1.6 5.4.7 6.8 3.9 2.4 6.5-2.5 3.9-7.4-1.4-2.5-2.6-2.4-4.6.6zm-253.2 2.7c-1.3 2.3-2.1 6-2.6 11.7-.4 6.4-1.2 9.7-3.2 13.5-3 5.6-3.5 11.8-1.4 18 1 3 1.6 3.6 4.1 3.6 4.3 0 5.1-4.2 1.5-7.9-1.4-1.5-2.6-3.3-2.6-3.9 0-.7 1.3-4.2 3-7.9 5.1-11.2 7.9-25 5.7-28.4-1.6-2.6-2.2-2.4-4.5 1.3zm263.8.7c-1.3 3.3-.2 6.4 2.9 8 3.8 2.1 5.6-4.2 2.5-8.7-2.1-3-3.9-2.8-5.4.7zm-488 1.4c0 4.9 2.1 8.2 5.2 8.2 2.4.1 2.7-.2 2.2-2.5-1.2-5.3-1.6-5.9-4.5-7.4l-2.9-1.4v3.1z"/><path d="M266 366.2c0 1.4.8 3.2 1.8 4.1 2.3 2.1 7.2 2.3 7.2.3 0-2.2-3.3-5.5-6.2-6.2-2.5-.5-2.8-.3-2.8 1.8zm64.4 2.3c-.3.7-.4 2.6-.2 4.1.3 2.4.9 2.9 4.3 3.6 2.2.5 5.3 2.1 7 3.7 4.1 3.9 7.2 5.4 9.1 4.3 1.2-.7.1-2.2-6-7.9-8-7.5-13.3-10.4-14.2-7.8zm128.3 3.5c-.4.8-1.6 4.1-2.7 7.3-2.6 6.9-5.1 8.9-11.1 8.5-3.5-.2-4.5.1-5.3 1.7-1.8 3.4-7.6 10.6-13.4 16.7-4.9 5-6 7.8-3.1 7.8.6 0 3.1-.9 5.6-2.1 4.1-1.9 4.6-1.9 6.3-.4 2.6 2.3 5.7.7 12.4-6.6 6.4-6.8 12.2-17.6 13.1-24.3.6-4.5-.8-11.2-1.8-8.6zm-15.4 29.1c-1.5 2.3-2.9 3.6-3.1 2.9-.3-.9 4.4-7 5.5-7 .2 0-.9 1.9-2.4 4.1zm284.8-24.8c-1.7 4.4-1.4 13.6.4 14.4 2.3.8 2.7.1 3.2-6.9.4-4.7.1-6.8-1-8.3-1.5-2-1.6-1.9-2.6.8zm-187.6 3.8c-4.1 3.7-4.4 4.9-1 4.9 3 0 6.5-3.2 6.5-6s-1.4-2.5-5.5 1.1zm-265.5-.4c0 4.8 9.3 16 21.6 25.8 6 4.9 9.4 8.3 9.4 9.6 0 1-.2 1.9-.5 1.9-1.1 0-6.1-3.5-12.7-8.8-7.3-5.8-13.6-9.5-15-8.6-1.6 1 3.3 6.3 12.5 13.6 5 4 13.2 10.6 18.2 14.5 8.5 6.9 15.2 10.3 20.1 10.3 1.2 0 4.1 1.6 6.4 3.5 3.9 3.3 10 4.9 10 2.6 0-1.8-7.8-7.8-16.4-12.6-4.8-2.7-10.5-6.4-12.5-8.2-3.1-2.7-3.4-3.2-1.8-3.8 4-1.6 28.9 13.4 35.6 21.4 3 3.5 5.2 5.2 8.4 6 6.2 1.8 10.9 1.1 12.3-1.7 1.8-3.7 2.9-4.4 6.7-4.4 7.2 0 9.9 2.2 5.2 4.4-4.4 2-2.7 2.8 5.7 2.8h8.1l3.7 4c4.4 4.8 7 5 10.3 1 3.1-3.6 4.6-10.8 2.6-12.1-2.3-1.4-3.1-1-2.4 1.1.4 1.4-.2 2.8-2 4.6-2.4 2.4-2.7 2.5-4.8 1-13.4-9.8-23.5-13.6-44.4-16.7-11.7-1.8-14.6-2.6-19.3-5.3-29.6-17.7-40.2-25.6-49.2-36.5-6.2-7.4-10.8-11.1-14-11.1-1.1 0-1.8.7-1.8 1.7zm88.3 57.8c3.9 2.7 4.9 5.5 1.9 5.5-2.2 0-9.4-5.9-8.7-7.1 1-1.5 2.8-1 6.8 1.6zm310.3-57.3c-2.2 3.5-3.6 10-3.9 17.5-.2 5.5.1 6.8 1.4 7.1 2.8.5 8.8-19 7.5-24.4-.8-3-3.1-3.1-5-.2z"/><path d="M266.7 383.7c-1.2 1.2-.7 6 .7 7.2 1.8 1.5 7.8 1 8.4-.6.2-.7-1-2.6-2.6-4.3-3-2.9-5.2-3.7-6.5-2.3zm281.9 1.8c-.3.9-.2 2.4.3 3.2.7 1.3.9 1.2 1.3-.5.7-2.6-.7-5-1.6-2.7zm147.4 5c-2.4 2.5-4.8 4.5-5.2 4.5-.4 0-1.4-1.6-2.3-3.6-1.8-4.3-2.8-3.8-4.9 2.3-2.1 6.2-2 7.9.6 9.7 2.8 2 5.7.5 6.5-3.5 1.2-6.3 6.7-4.4 5.7 2-.5 2.8-.1 4 1.4 5.4 1.8 1.6 2 1.6 3.3.1 1.7-2 1.9-16.9.3-19.7-.9-1.5-1.5-1.2-5.4 2.8zm-209.4-1.2c-3.8 3.8-3 6.6 1.4 5.2 3.1-1 4.5-4.4 2.7-6.2-1.4-1.4-1.8-1.3-4.1 1zm-106.3 1.3c-.4 1.1.1 2.3 1.6 3.6 2.5 1.9 8.1 2.5 8.1.8 0-1.3-3.7-5-4.9-5-.5 0-1.6-.3-2.5-.6-1-.4-1.8.1-2.3 1.2zm45.2 2.5c-5.4 4.1-12.5 10.9-12.5 12 0 2.3 6.3.6 12.1-3.4 6.4-4.2 9.2-7.8 8.2-10.3-.8-2.2-3.5-1.6-7.8 1.7zm308.6 10.2c-.6 1.6-1.4 4.6-1.7 6.8-.5 3.1-.3 3.9.8 3.9 3.7 0 6.1-8 3.4-11.5-1.4-2-1.5-1.9-2.5.8zm-12.6.7c-.5.7-.8 4.1-.7 7.4 0 3.4-.6 8.3-1.5 11-1.9 5.9-1.3 25.9 1 34.1 2.2 8 5.7 13.8 7.4 12.1.3-.3-.3-3.8-1.3-7.8-1.6-6.3-1.9-10.6-1.7-30.9.2-18.2-.1-24-1.1-25.4-1-1.4-1.5-1.5-2.1-.5zm-397.2 1.7c-1 2.6 5 7.3 9.2 7.3 6.3 0 3.6-4.6-4.3-7.4-3.9-1.4-4.3-1.4-4.9.1zm208.1 7.6c-4.8 4.8-7.4 8-7.4 9.5 0 2.1.1 2.2 2.8.8 3.7-1.9 15.2-14 15.2-16 0-3.2-3.3-1.4-10.6 5.7zm147.9-1.7c-1.5 3.9 2.9 39.5 7.7 63.1 1 4.6 3.3 8.3 4.5 7.2.7-.8-1.4-18.9-3.1-25.9-.8-3.6-1.9-13.9-2.4-22.9-.5-9.1-1.5-18-2.1-19.8-1.1-3.5-3.5-4.4-4.6-1.7zm-13.7 3c-1.7 1.7-1.3 5.3.8 6.6 1.6 1.1 3.7-2.2 3.4-5.1-.4-3.1-2.1-3.7-4.2-1.5zm-324.5 1.8c-1.1 1.3-.7 1.8 2.1 3.6 4.7 2.9 16 6.2 20 5.8l3.3-.3-2.9-2.7c-5.3-5-20.1-9.3-22.5-6.4zm46.9 2.3c-15.7 1.7-18.8 2.9-16.9 6.5 1.6 3 7.3 3.9 15.3 2.3 8.4-1.6 22.7-6.6 22.9-8 .2-1-14.5-1.6-21.3-.8zm84.3 2.4c-3.4 1.6-7.2 4.3-8.3 5.9-4 5.6-30.2 22.8-39.7 26.1-5.6 1.9-14.3 7.4-14.3 8.9 0 1.8 5.6 1 7.4-.9.9-1 4.3-2.4 7.5-3 4.1-.8 10-3.6 21.2-10.1 8.5-5 15.9-9 16.6-9 1.6 0 10.2-7.5 15.2-13.3 7-8.2 5-9.8-5.6-4.6zm-188.3.4c0 3.2 11.3 12.6 20.7 17.3 4.5 2.3 6.2 3.8 6.5 5.4.2 1.9 1 2.3 4.7 2.6 2.9.2 5.5 1.2 7.4 2.8 4.4 3.7 11.9 2.8 8.7-1.1-.6-.8-5.5-3.7-10.8-6.6-5.3-2.8-13.3-7.8-17.7-11-9.7-7-19.5-11.7-19.5-9.4zm387.5 5.6c-1.3 1.9.4 5.9 2.5 5.9 2.5 0 2.7-3.2.4-5.4-1.8-1.9-2.1-1.9-2.9-.5zm-479 2.2c1.1 4-1.7 5.1-13.4 5.5-7.6.2-14.6-.4-25.1-2.1-17.6-2.9-18.4-2.7-17.8 4.5.6 5.5 2 7.1 5.8 6.2 4.6-1.1 26.3-2.3 41.2-2.4 13.7 0 14.8-.1 15.8-2 .8-1.5.7-2.8-.6-5.2-3.1-6.2-7-9.2-5.9-4.5zm323.5-1.2c-2.7 1.1-8 5.8-8 7.1 0 .4 1.1.8 2.4.8 2.5 0 10.6-5.5 11.4-7.8.4-1.4-2.3-1.5-5.8-.1zm-124.7 4.4c-1.1 3.1 7 6.5 10.8 4.5 1-.6 1.9-1.7 1.9-2.4 0-3.2-11.5-5.1-12.7-2.1zm79.3 4c-.9.9-2.1 2.4-2.8 3.4-2.6 3.6-12 10-22.5 15.5-12.5 6.5-14.3 7.7-14.3 10 0 3.5 5.5 1.7 17.2-5.8 11.9-7.7 19.4-11.8 23.8-13.1 3.8-1.1 6-3.5 6-6.6 0-4.3-4.5-6.3-7.4-3.4zm191.7 6.1c-1 2.8-.8 8.7.3 9.1 1.6.5 3.5-5.4 2.8-8.3-.7-2.8-2.2-3.1-3.1-.8zm10.8 4.6c-.9 2.4-.5 4.4 1.2 6.5 2.6 3.4 4.2-.5 2.2-5.3-1.6-4-2.3-4.2-3.4-1.2zm-523.1-.1c-11.2 1-12.8 1.5-11.1 3.2.8.8 5.7 1.1 16.9.9 9.2-.1 18 .2 21.2.9 3 .7 9.5 1.3 14.3 1.4 8.4.2 8.9.3 11.6 3.2 2.4 2.6 3.7 3.1 11.5 4.1 7 .9 11.1 2.2 18.7 5.8 10.7 5 15.2 5.5 15.7 1.8.2-1.2-.7-3.3-2-4.8-1.9-2.1-3.9-2.8-11.9-4-5.3-.9-11.4-2.1-13.5-2.9-3.7-1.2-3.9-1.5-3.8-5.2.1-2.2-.3-4.3-1-4.7-1.5-1-54.6-.7-66.6.3zm187 6.3c0 1.6 5 4.2 10.3 5.1 3.3.6 3.7.5 3.7-1.3 0-1.4-1.2-2.5-4-3.6-5-2-10-2.1-10-.2zm159.2-.2c-.7.7-1.2 2-1.2 3.1 0 1.5.6 1.8 3.6 1.5 4.3-.3 6.9-3.2 4.4-4.8-2.1-1.3-5.4-1.2-6.8.2zm-106.8 2.3c-1.4 3.5 4.1 6 6.6 3 1-1.2 1-1.8 0-3-1.6-1.9-5.9-1.9-6.6 0zm90.9 4.7c-4.1 2-3.4 5.8 1.3 7.2 4.4 1.3 7.4-5.2 3.5-7.4-2.3-1.2-2-1.2-4.8.2zm-121.3.7c0 1.6 3.3 2.3 12.5 2.8 6.5.4 8.7.2 8-.6-2.2-2.3-20.5-4.3-20.5-2.2zm91.6 1.6c-3.4 3.4 1.7 6.8 5.9 4.1 3-2 3.1-3.2.6-4.6-2.7-1.4-4.7-1.3-6.5.5zm213.4 1.9c-2.9 3.6 1.4 9.6 4.6 6.4 1.5-1.4 1.5-2.1.4-4.7-1.4-3.4-3.1-3.9-5-1.7zm-278.5 1.9c-5.9 2.3-7.6 3.8-7.3 6 .2 1.4 1.1 2.3 2.5 2.5 3.9.6 13.3-5.4 13.3-8.5 0-1.6-4.3-1.6-8.5 0zm-33.6 1.4c-2.6 3.1 3.4 9.4 6.3 6.5 1.6-1.6.1-5.7-2.6-7-2-.9-2.7-.8-3.7.5zm42 7.9c-1.7 2 .2 3.4 4.9 3.4 3.7 0 4.4-2.3 1.3-4-2.8-1.4-4.6-1.3-6.2.6zm334.1 3.3c-1.6 3.1-1.2 4.8 1.9 7.3 1.6 1.3 3.9 4.6 5.1 7.5 3.6 8.6 7.4 10.1 5.1 2.1-2-6.8-8.2-18.8-9.7-18.8-.7 0-1.8.9-2.4 1.9zm-62.6 28.8c1.1 4.7 8.2 18.6 11.5 22.8 2.4 2.9 3.1 4.7 2.7 6.5-.4 2.2.2 3 4 5.3 2.4 1.4 4.4 3.3 4.4 4 0 2.3 4 6.7 6.1 6.7 3.6 0 1.7-4.2-6.8-15.3-2.4-3.1-6.5-9.6-9-14.5-7.6-14.4-14.6-22.8-12.9-15.5zm-393.4-.8c0 1.2 3.7 2.4 5 1.6 2-1.2 1-2.5-2-2.5-1.6 0-3 .4-3 .9zm435.6 1c-1.1 1.8.2 6.2 2.6 8.8 5.3 5.7 6.7-.2 1.5-6.2-2.4-2.7-3.6-3.5-4.1-2.6zm10.4 18.9c0 2.2 9.6 14.1 13.3 16.5 4.8 3.2 6.1 1.4 3.1-4.4-4.4-8.6-16.4-17.4-16.4-12.1zm-487 12.7c0 3.6 11.1 6.8 11.8 3.3.2-1.1-.8-2.3-2.7-3.2-3.9-2.1-9.1-2.1-9.1-.1zm22 9.4c0 1.5 8.4 8 24.5 19.1 8.3 5.7 20.3 14.1 26.8 18.8 7.4 5.2 12.2 8.1 12.8 7.5.6-.6 0-3.8-1.5-8.5-1.4-4.2-3-10.4-3.5-13.7-1.2-7.2-1.6-8.1-4.1-8.1-5.9 0-6.4 2.6-1.5 7.4 3.7 3.7 4.2 5 2.5 6.1-1.7 1-14.8-5.6-28.2-14.3-13.5-8.7-24.8-15.2-26.6-15.2-.7 0-1.2.4-1.2.9zm-17 2.9c0 1.4 4.2 4.8 14 11.2 14 9.1 21.7 13.2 24.2 12.8 6.6-.9-.8-6.7-22.6-17.8-13.9-7-15.6-7.7-15.6-6.2zm-88.7 2.3c-4 1.2-4.2 2.6-.6 4 5.2 1.9 14.7-1 12.8-4.1-.8-1.2-7.8-1.2-12.2.1zm74.7 1.7c0 1.6 4.6 5.1 17.5 13.3 14.9 9.4 32.3 22.1 41 30 26.8 24.2 42.1 38.9 44.9 43.3 1.9 2.8 5 6.7 7 8.5l3.6 3.5v-5c0-7-.9-9.3-4.1-10.9-1.5-.8-8.1-6.9-14.6-13.6-6.5-6.7-13.5-13.2-15.6-14.5-8.4-5.5-23.7-21.8-23.7-25.4 0-2 0-2 3.8-.1 4.7 2.5 10 7 29.6 25.1 8.7 8 16.4 14.6 17.2 14.8 1 .3 1.4-.7 1.4-3.7 0-6-1.6-9.4-4-8.6-1.5.5-2.8-.3-5.2-2.9-4.3-4.6-24.1-20.2-31.1-24.4-9.3-5.6-11-6-15.7-3.3-4.4 2.5-7 2.2-7-.7 0-3.5-7.8-8.6-31.7-20.6-11.2-5.6-13.3-6.3-13.3-4.8zm476 1.7c0 .8 2.3 3.8 5 6.7 3.8 3.9 5.3 4.9 6.1 4.1 2.7-2.7-4.6-12.3-9.2-12.3-1 0-1.9.7-1.9 1.5zm-545.2 5c-1.2 1.3 3.4 3.2 10.8 4.4 3.8.7 7.9 1.5 9.2 1.8 1.8.4 2.2.1 2.2-2 0-1.4-.7-2.8-1.7-3.2-2.6-1.1-19.7-1.9-20.5-1zm551.5 15.1c-1.5 2.4-1.5 2.9-.2 5.3 2 3.6 5.6 4 6.4.8.7-2.6-1.8-8.7-3.5-8.7-.5 0-1.7 1.2-2.7 2.6zm-553.6 11.1c-2.4 2.3.9 8.8 3.8 7.6 2.1-.7 3-5 1.5-6.8-1.3-1.6-4.2-2-5.3-.8zM254 663.9c0 6.7 6.9 14.2 8.5 9.2.7-2.2-1.7-8.5-4.2-11.3-2.7-3-4.3-2.2-4.3 2.1zm87-409.3c0 6.1 2.5 9.4 7.3 9.4 2.1 0 2.7-.5 2.7-2 0-3.5-3.7-9.7-6.2-10.4-3.6-.9-3.8-.8-3.8 3zM165.4 684.4c.5 4 2 6.5 3.2 5.3.9-.9-.2-4.9-2.1-7.2-1.6-1.9-1.6-1.8-1.1 1.9zM283 61.7l-3.5 1.7 3.2.4c2.8.3 9.3-2 9.3-3.3 0-1.1-5.8-.3-9 1.2zm531 92.7c0 .8 14.5 6.4 18.3 7.1 5.4 1 5-1.8-.5-3.9-8.2-2.9-17.8-4.7-17.8-3.2zm-16.6 5.7c-1.3 1.5-3.1 1.9-8 1.9-6.3 0-9.5 1.5-5.2 2.4 2.5.6 49.4 7.1 56.8 8 6 .7 7.9-.4 6.1-3.7-1.2-2.2-1.7-2.3-8.9-1.9-8.8.4-23.6-2.3-33.2-6.1-5.8-2.4-6-2.4-7.6-.6zm-34.2 1.1c.6 1.6 6.6 2.8 9.1 1.9 1.8-.7 1.7-.9-1.3-1.9-4.4-1.6-8.3-1.5-7.8 0zm88.7 9.5c-1.7 4.4-.7 5.5 7.6 8.8 4.4 1.7 13.9 5.9 21.2 9.3 7.2 3.4 14.2 6.3 15.5 6.4 2.1.3 2.3-.2 2.6-4.2.3-4.3.3-4.4-1.6-2.7-1 .9-2.8 1.7-4 1.7-3.3 0-16.3-7.1-27.1-14.9-5.4-3.9-10.6-7.1-11.5-7.1-.9 0-2.1 1.2-2.7 2.7zm-1.9 11.7c0 .3 5.8 3.5 12.8 7 7 3.5 14.7 8 17 9.9 2.3 1.9 6.2 4.3 8.8 5.3 3.6 1.4 4.9 2.6 6.5 5.8 1.2 2.6 3.5 5.1 6.4 6.9 2.5 1.6 8.2 6.9 12.6 11.8 4.5 4.9 8.6 8.9 9.1 8.9s1.1-.7 1.4-1.5c1.2-2.9-.6-6-4.9-8.8-11.1-6.9-15.9-13.1-12.5-16.5 2-2-.7-3.8-18.6-12.6-20.9-10.3-38.6-17.7-38.6-16.2zm-40.1 34.2c-4.1 4.2-7 5.1-10.1 3-5.3-3.7-21.3-.8-21.3 3.9 0 3.1 3.3 3.1 4.5 0 1.3-3.5 2.9-3.9 9.1-2.1 7.8 2.3 15 2.1 18.4-.6 5.1-4 15.4-1.8 27.9 5.7 6.1 3.6 7.6 4.2 7.6 2.6 0-2.5-8.5-6.9-26.6-13.7l-6.1-2.3-3.4 3.5zm51.5 22.3c.4.6 5.3 5 10.9 9.8 27.7 23.9 60.6 62.9 59.5 70.5-.5 3.1.9 3.8 1.9 1.1.8-2.1-2.1-10.2-5.9-16.5-2.7-4.4-2.9-5.1-1.6-6.5 1.4-1.3 1.9-1.3 4.7.1 3 1.6 3.1 1.6 3.1-.3 0-2.6-8.9-15.7-14-20.6-4.7-4.5-4.1-2.4 1.4 4.8 6.7 8.8 8.3 13.7 4.4 13.7-2.8 0-20.4-18.3-21.2-22-.3-1.8-4.5-5.7-13.8-13.1-20-15.9-31.1-23.9-29.4-21zm-79.2 20.2c-3.2 1.2-2.2 3.5 1.4 3.1 3-.4 5.4-1.8 5.4-3.3 0-1.1-3.8-1-6.8.2zm31.8 5.3c0 .4 1.5 1.5 3.3 2.6 3.4 2.1 6.7 2.6 6.7 1 0-.5-.8-1.3-1.7-1.8-2.4-1.3-8.3-2.5-8.3-1.8zm5 10c0 1.1 12.5 9.5 12.8 8.6.6-1.7-1.8-4-7-6.6-4.7-2.4-5.8-2.8-5.8-2zm66 10.3c0 1 5.2 6.3 6.2 6.3 1.5 0 .8-2.1-1.7-4.5-2.3-2.4-4.5-3.3-4.5-1.8zm-80 7.8c-1.1 1.4-1.1 1.8.2 3.2.9.8 2.1 1.2 2.7.9 1.4-.9 1.4-1.8-.2-4-1.2-1.6-1.4-1.7-2.7-.1zm69.1 4.5c.6 1.4 4 7.3 7.5 13.2 11.8 20 17 31.5 30.4 67.3 2.9 7.7 5.4 15.8 5.6 18 .2 2.2.9 5.9 1.5 8.3.9 3.4 1.4 4 2.5 3.1 2.5-2.1 2.8-7.5.5-12.1-1.1-2.4-3.6-9.3-5.6-15.4-1.9-6.1-4.6-13.1-5.9-15.5-2.9-5.4-7.3-18.9-8.2-25.6-.5-4.5-.9-5-3.8-5.9-2.6-.8-3.1-1.3-2.8-3.7.2-2.1-1.7-5.7-7.9-14.7-8.4-12.4-16.1-21.8-13.8-17zm10.9.6c0 1.3 14.5 25 17.1 27.8 4.1 4.7 4.2 1.5.1-5.3-3.7-6.2-16-23.1-16.8-23.1-.2 0-.4.3-.4.6zm14 3.9c0 .6 3.2 6.9 7.1 14 3.9 7.2 10.3 18.8 14.1 26 8.7 16.4 9.4 17.1 10.2 11.4.4-2.4 1.4-7.6 2.3-11.6 1.8-8 1.4-10.3-1.8-10.3-1.7 0-2 .4-1.5 2.2 1.8 6.5 1.9 7.8 0 8.5-2.5 1-6.9-4.5-17.1-21.4-8.6-14.1-13.2-20.7-13.3-18.8zm6.6 33.4c2.5 3.4 6.4 12.4 12.8 29.1 7.7 20.3 8.2 21.1 9.6 19 2.2-3.3 2.3-6.2.3-7.9-1.2-.9-2.6-3.4-3.3-5.6-2.4-7.7-13.3-28.6-16.9-32.4-2-2-3.1-3-2.5-2.2zm-35.1 38.7c.3 2.9 1.9 11 3.5 18 1.6 7.1 3.4 16.7 4.1 21.3 2.5 17.5-1 59-6.1 73.6-2.4 7-9 31.3-9 33.5 0 1.3.2 1.3 1.4 0 2.7-2.8 5.8-12.4 12.1-38 7.1-28.6 8-31.4 9.6-30.5.7.5.9 4.4.4 12.4-.6 10-.4 11.9 1 13.6 1.6 1.9 1.6 1.9 1-1.5-.3-1.9 0-8.5.6-14.6 1.2-10.7 1.2-11.1-.9-14-2.3-3-4.2-14.2-5.8-33-.7-9.1.6-12 3-6.2 2.6 6.3 8.2 35.7 10 52.7.6 5.8 1.5 10.4 2.1 10.3.6-.1 1.1-1.2 1.2-2.4.2-1.3.8-5.3 1.4-9 .9-5.5.8-7.1-.4-9-.8-1.3-1.8-4.3-2.1-6.8-.4-2.5-1.6-7.2-2.6-10.5-1.1-3.3-2.4-10.1-2.9-15.2-.6-5.8-1.7-10.2-2.8-12-1.2-1.8-1.8-4.6-1.8-8.5 0-4.2-.5-6.2-1.8-7.5-1.7-1.7-1.8-1.5-1.5 4.1.2 4-.1 6-.9 6.3-1.5.5-2.5-1.8-6.4-14.4-1.5-5-3.7-11.1-4.8-13.5l-2.1-4.3.5 5.1zm-15.9 11.9c-1.1 3-.6 8.2.9 9.5 2.2 1.8 4.1-2.9 2.9-7.2-1.1-3.6-2.9-4.7-3.8-2.3zm10.1 4.5c-.3 1.4-1.2 5.3-2 8.7-1.4 6.5-.8 8 1.7 4 2-3.1 2.8-8.6 1.8-12.2-.9-3-.9-3-1.5-.5z"/><path d="M881.2 488.4c.2 1.6.9 3.1 1.6 3.4 1.7.5 1.5-2-.3-4.4-1.5-1.8-1.5-1.8-1.3 1zm-59.7 3.6c-2.2 3.3-3.5 4-7.9 4.6-3.6.5-6.9 3.4-10.7 9.3-2.8 4.3-3.9 9.6-2 8.9.5-.2 2.9-3.2 5.3-6.8 4.6-7 7.4-8.4 7.1-3.7-.2 3.3-5.5 12.1-13.5 22.8-5.9 7.9-7.2 11.3-4.1 10.7 3-.6 21.7-28.8 26.9-40.6 3.6-8.1 2.9-11.2-1.1-5.2zm31.2 44.7c-1 .9-.8 4.3.2 4.3.5 0 1.4-.7 2.1-1.5 1.7-2.1-.4-4.8-2.3-2.8zm-66.5 6.9c-2.4 1.7-2.1 3.4.7 3.4 2.3 0 4.1-1.9 3.4-3.6-.7-1.8-1.3-1.8-4.1.2zM830 557c-.8.5-1.1 1.2-.8 1.6 1 .9 5.8-.4 5.8-1.6 0-1.3-3-1.3-5 0zm-14.8 20.6c-6.5 1.7-11.4 4.2-10.7 5.4.9 1.5 16.6-3.8 17.3-5.9.5-1.4 0-1.3-6.6.5zm-25.9 7.1c-2.5.9-1.3 2.3 2 2.3 4.4 0 7.8-1 7.1-2.1-.5-.9-7-1.1-9.1-.2zm-19.2 11.2c-1.2.8-1.3 1.2-.1 2.6 1.8 2.2 5.5 1.6 5.5-1 0-2.2-3.1-3.1-5.4-1.6zM60.5 617.5c-2.4 2.3-3.4 5.5-1.7 5.5.5 0 2-1.3 3.5-2.8 4.6-4.8 2.8-7.4-1.8-2.7zm9.6 2.1c-3.4 5.3-3.7 6.4-1.8 6.4 3 0 7.7-8.4 5.8-10.3-.6-.6-2 .7-4 3.9zM93 629c0 4.4-2 8-4.9 8.7-4.1.9-4.3 1.3-2.2 3.9 2.9 3.6 3.9 7.6 5.1 19.3 1.8 18.4 4.8 24.8 4.2 9.1-.4-8.5.2-11.5 3.4-19.4.6-1.6.3-1.8-2.5-1.4-4.6.7-5.1-.8-3-8.7 3.1-11.1 3.5-14.5 1.5-14.5-1.1 0-1.6.9-1.6 3zm-8.3-1.3c-1.2 1.1-.8 4 .8 5.3 1.3 1.1 1.5.7 1.5-2.4 0-3.4-.8-4.4-2.3-2.9zm-29.5 2.9c-2.2 1.5-3.1 6.4-1.1 6.4 1.7 0 7.1-5.9 6.4-7-.9-1.4-2.7-1.2-5.3.6zm9.4 11.4c-1.1 6.4-1.2 21.9-.2 20.9 1.1-1.1 2.6-21 1.7-22.6-.8-1.4-1-1.1-1.5 1.7zm8.9 2.3c-.4 2.1-.3 5.3.2 7 1 3.2 1 3.2 1.7-2 1-6.5-.8-11-1.9-5zM52 651.5c-1.5 1.8-.6 4.5 1.4 4.5 1.6 0 3.1-3.4 2.1-5-.9-1.4-2.1-1.2-3.5.5zm29 3.6c0 5.1 1.1 9.9 2.3 9.9 1.2 0 .3-9.2-1.2-11.8-.8-1.4-1-1-1.1 1.9zm21.7.9c-1.5 5.6.4 41.4 2.4 45.2.6 1.1 2 7 3 13.2 2.5 14.2 2.7 14.6 5 14.6 2.4 0 2.4-2.1 0-9.1-3.9-11.5-6.6-27.8-7.6-46.9-.4-6.3-1-13.3-1.4-15.5-.6-3.6-.7-3.8-1.4-1.5zm7.3 4c.6 1.1 1.5 1.8 2 1.5 1.3-.8 0-3.5-1.6-3.5-1.2 0-1.2.4-.4 2zm-49 14.9c0 .6.5 1.3 1 1.6.6.4.9 2.4.8 4.5-.4 4.7 1.3 5.4 2.6 1.1 1.2-4.2 0-8.1-2.4-8.1-1.1 0-2 .4-2 .9zm12.4 7.5c-.3 1.9-.3 4.9.1 6.7.7 3.1.8 3.2 2.1 1.4 2.2-2.9 1.6-11.5-.7-11.5-.4 0-1.1 1.5-1.5 3.4zm50.6 6.9c0 2.7 1.2 4.7 2.7 4.7 2.1 0 1.3-5.4-.9-5.8-1.1-.2-1.8.3-1.8 1.1zm-9 3.5c0 3.4 1.4 4.3 2.4 1.5.4-.9 0-2.3-.9-3.2-1.3-1.4-1.5-1.2-1.5 1.7zm-31.6 1.9c.3 2.1.8 6 1.2 8.7.5 3.9.9 4.5 1.7 3.1.9-1.7.4-10.6-.9-13.9-1.2-3.1-2.6-1.6-2 2.1zm12.3.3c-.8 3.1-.9 17.3-.1 19.4.3.9 1.2 1.6 2 1.6 1.8 0 1.8-6.7 0-16.5-.9-5.5-1.3-6.5-1.9-4.5zm-21.4 9.3c.3 2.7 1 5.4 1.6 6 1.8 1.8 1.4-6.6-.5-8.9-1.4-1.8-1.5-1.6-1.1 2.9zm42.8.5c-.1 2.7 3 9.2 3.6 7.5.2-.6-.5-3.1-1.6-5.5-1.5-3.4-1.9-3.8-2-2zm14.3 18.2c.3 1.4.6 3.3.6 4.2 0 1 .5 1.8 1.1 1.8 1.3 0 .2-6-1.3-7.5-.7-.7-.9-.2-.4 1.5zm-34.3 4.5c-1.2 5-3.1 5.7-6.4 2.7-1.9-1.7-2-1.6-1.2 3.3.9 6.1 1.1 6.5 3.6 6.5 1.8 0 2.3-1 2-3.7-.3-2.1 1.9-5.3 3.5-5.3.8 0 2.1 1.5 2.9 3.4 1.7 4.1 3.3 5.3 4.1 3.2.7-1.8-5-14.6-6.4-14.6-.5 0-1.5 2-2.1 4.5zm-19.9 3.2c.3 3.3 1.6 8.2 2.9 10.9l2.3 4.9.3-3.5c.4-4.6-2.8-17.2-4.6-17.8-1.1-.4-1.3.7-.9 5.5zm44.8-2.6c0 .8.9 3.2 2 5.4 1.1 2.1 2.7 6.6 3.5 9.9 2.4 9.4 11.7 24.5 17.3 28.2 4 2.6 3.6.9-1.2-5.3-4.2-5.5-10.3-16.7-16-29.6-3-6.8-5.6-10.8-5.6-8.6zm19 3c0 3.7 10.6 17.8 21.9 28.9 14.7 14.5 20.5 18.1 30.8 19 9.8.8 20.8-.4 24.1-2.6 2.5-1.6 2.5-1.8.7-2.5-3.2-1.2-8.4-1-11.3.5-7.5 3.9-21.4 2.5-26.5-2.6-1.6-1.5-3.5-2.8-4.3-2.8-2.8 0-19-16.7-22.3-23-3.6-6.7-13-17.5-13.1-14.9z"/><path d="M115.3 738.4c.9 5.7 6.4 17.7 13.4 29.1 10.1 16.8 12.3 20.8 12.3 23.2 0 1.6-.6 2.3-2 2.3-3.4 0-20.7-26.2-27-41-2.4-5.6-4.2-8.6-5.4-8.8-1.6-.3-1.8 0-1.2 2.4 1.3 5.2 7.4 17.3 13 25.9 3.1 4.7 6.2 10 7 11.8.8 1.8 3.9 6 7 9.5s5.6 6.6 5.6 7c0 .4-.7 1.7-1.5 2.9-1.3 1.9-1.3 2.3.6 4.7 1.2 1.5 2.6 2.5 3.3 2.3.6-.2 1.3-3.4 1.6-7.2.3-3.8 1-7 1.6-7.2.6-.2 4.8 2.4 9.4 5.7 9.8 7.3 18.9 12.4 24.9 14 5.4 1.4 7 .3 4.6-3.3-1.5-2.4-1.5-2.6.4-3.2 2.8-.8 9.4 1.1 11.5 3.4 3.2 3.5 18.1 6.1 18.1 3.1 0-1.3-5.9-2.9-13.9-3.9-.5-.1-.2-.9.7-1.9 1-1 1.7-2.1 1.7-2.4 0-.3-3.5-.8-7.8-1.1-4.3-.3-8.5-.9-9.4-1.2-4.4-1.7-1.9-6.5 3.5-6.5 3-.1 3.1-.1 1.3-1.5-1.1-.8-3.9-1.5-6.2-1.5-3.3 0-4.4.4-4.9 1.9-1.3 4.3-5.4 3.4-16.4-3.8-3.8-2.4-7.6-4.1-9.3-4.1-1.6 0-4.2-.7-5.7-1.5-3.2-1.6-8.1-7-8.1-8.8 0-.7-2.7-5.4-6-10.6-3.3-5.2-7.2-12.6-8.6-16.5-3.1-8.3-7.2-16.6-8-16.6-.4 0-.4 1.5-.1 3.4zm50.3 60.5c5.4 2.6 10.7 5.8 11.8 6.9 3.6 4.1-.8 8-4.8 4.3-1.2-1.1-3-2.1-4-2.1-3.9 0-13.3-7.7-14.9-12.3-1-2.7 1.1-2.1 11.9 3.2zm-71.2-48.8c1 5.3 29.1 45.9 31.6 45.9.7 0 .7-.8-.1-2.3-2.1-4-10.5-16.1-14.4-20.7-2-2.4-5.5-8-7.7-12.5-4.7-9.2-7.5-13.5-9-13.5-.6 0-.8 1.2-.4 3.1zm-9.9 4.9c-.8 1.3.4 5 1.6 5 .5 0 .9-1.4.9-3 0-3-1.3-4-2.5-2zm9.5 8.4c0 1.5 1.8 3.1 2.6 2.3.7-.7-.7-3.7-1.7-3.7-.5 0-.9.6-.9 1.4zm187.1 12.4c-.6 1-1.5 5.6-2 10.1-.7 5-1.9 9.6-3.1 11.6-2.4 3.9-2.6 10.1-.5 15.2 1.5 3.5 1.7 3.6 3.3 2 1.4-1.4 1.4-2 .4-3.5-3.5-4.9-3.5-5.7-.3-12.9 3.5-8 5-14.1 5.1-20.1 0-4.4-1.3-5.5-2.9-2.4zM102 777.3c0 .7.6 2.1 1.3 3.2 1.8 2.4 3.2.3 1.7-2.5-1.2-2.3-3-2.7-3-.7zm-9 2.2c0 1.1.5 2.7 1 3.5.8 1.2 1 1.2 1-.5 0-1.1-.5-2.7-1-3.5-.8-1.2-1-1.2-1 .5z"/><path d="M156.2 781.7c.2 2.1.9 2.9 2.8 3.2 1.4.1 4.2 1.8 6.2 3.7 4 3.6 6.1 4.4 5.2 1.9-.7-1.8-12.1-11.5-13.6-11.5-.5 0-.8 1.2-.6 2.7zm106 4.5c-2.3 6.6-4.8 8.8-9.8 8.8-4.2 0-4.5.2-6 3.9-.9 2.4-4.3 6.5-8.2 10.2-7.1 6.6-7.1 8.5 0 5.3 3.9-1.7 4.1-1.7 5.3 0 1.7 2.3 3.7 1.2 9.2-4.6 7.2-7.9 11.9-18 11.1-24.3l-.3-3-1.3 3.7zm-8.2 15.3c0 1.6-4.3 8.7-5.6 9.2-2.2.8-2.7-.2-1.4-2.9 2.2-4.2 7-8.5 7-6.3zm78.2-13.2c-3.9 4.1-2.1 6.6 1.8 2.7 2-2 2.7-5 1.2-5-.5 0-1.8 1-3 2.3zM110 789.6c0 2.8 5.8 10.1 13.2 16.6 12.4 11 13.2 11.8 11.9 13.1-1.5 1.5-6-.8-14.6-7.7-3.8-3.1-7.3-5.6-7.7-5.6-3.1 0 2.2 5.1 18.9 18.4 12.3 9.7 17.2 12.6 21.6 12.6 1.3 0 4.1 1.3 6.2 3 4.1 3.3 5.5 3.7 5.5 1.7 0-1.6-6-6-15-11-15.8-8.7-14.4-13.8 1.5-5.6 10.3 5.4 15 8.6 20.3 14.3 6.6 7.1 14.7 8.3 17.5 2.6 1.4-2.8 4.9-3.6 9-2.1 2.3.9 2.6 1.4 1.8 3-1 1.7-.6 1.9 5.1 2.3 5.3.4 6.5.8 9 3.7 1.6 1.8 3.6 3.1 4.6 2.9 2-.4 6.2-6.4 6.2-9.1 0-1.6-.4-1.5-2.9 1.2-1.6 1.7-3.3 3.1-3.9 3.1-.5 0-3.1-1.8-5.8-3.9-6.1-5.1-15.3-8.5-28.5-10.6-16.7-2.6-18.9-3.3-29.4-9.8-19.1-11.7-25-16.2-34-25.4-4.9-5.1-9.3-9.3-9.7-9.3-.4 0-.8.7-.8 1.6zm72.1 46.7c3.6 2.4 5.1 5.7 2.6 5.7-2.2 0-8.1-4.4-8.5-6.3-.5-2.4 1.9-2.1 5.9.6zm-80.1-42c0 3.3 2.7 5.6 3.6 3.2.8-1.9-.5-4.6-2.4-5.3-.7-.2-1.2.6-1.2 2.1zm184.4 3.2c-.4 1.4-.4 2.8-.1 3.1.7.8 3.7-2.6 3.7-4.2 0-2.4-2.9-1.5-3.6 1.1zm-88.4.4c0 1.2 2.9 4.1 4.1 4.1 1.3 0 1.1-2.4-.3-3.8-1.4-1.4-3.8-1.6-3.8-.3zm37 2.5c-5.4 4-9.6 8.4-8.8 9.2 1.9 1.8 14.8-7.6 14.8-10.7 0-2.6-.8-2.4-6 1.5z"/><path d="M151 811c0 1.5 3.8 5 5.5 5 2.2 0 1.8-2.7-.7-4.4-2.6-1.8-4.8-2.1-4.8-.6zm178.3 2c-4.6 3.4-9.6 9.5-9.1 11.1.2.6 1.5.1 3-1 3.3-2.6 11.2-12 10.6-12.6-.2-.3-2.3.9-4.5 2.5zM166 819.7c0 .6.6 1.6 1.4 2.2 1.5 1.3 12.2 5.1 14.3 5.1 2.6 0 1.2-2.7-2.6-4.8-4.3-2.5-13.1-4.1-13.1-2.5zm33.5 2.4c-7.8 1-9.5 2.1-7.8 4.7.8 1.3 2.3 1.7 6.4 1.5 5.6-.2 21.4-4.6 22.4-6.3.8-1.2-11.1-1.1-21 .1zm75.6 1.4c-2.4 1.4-5.2 3.6-6.3 5-3.8 4.9-27.5 20.1-34.9 22.4-4.1 1.3-11.3 7-8.8 7.1.9 0 2.4-.9 3.4-2s3.1-2 4.7-2c3.2 0 9.9-3.2 23.7-11.4 5.2-3.1 10.1-5.6 10.9-5.6 1.6 0 15.2-13.5 15.2-15.1 0-1.6-3.4-.9-7.9 1.6zM119 826c1.3 2.4 10 9 15.7 11.9 2.4 1.2 5 3.2 5.8 4.5 1.1 1.7 2.2 2.2 4 1.8 1.7-.3 3.4.4 5.5 2.2 3.2 2.7 5.5 3.3 6.4 1.7.8-1.3-2.2-3.5-9.9-7.4-3.8-1.9-9.8-5.6-13.3-8.1-6.2-4.6-13-8.6-14.5-8.6-.4 0-.3.9.3 2zm193.5 3c-2.9 1.2-7.2 6-5.4 6 2.2 0 9-5 8.4-6.1-.4-.5-.7-.9-.8-.8-.1 0-1.1.4-2.2.9zM208 833.5c0 1.9 4.5 3.8 7.2 2.9 1.1-.3 1.8-1.3 1.6-2.2-.4-2.4-8.8-3-8.8-.7zm62.8 7c-3.5 3-11.1 8-17 11.1-11.1 5.8-13.4 7.6-12.3 9.3.8 1.4 5.7-1.1 17.2-8.6 4.8-3.1 11.2-6.7 14.2-7.9 5.2-2.1 5.6-2.6 5.9-5.8.2-2-.1-3.6-.7-3.6-.5 0-3.8 2.5-7.3 5.5zm-108.2 9.4c-.8 1.2 2.7 3.6 6.6 4.5 3.3.8 4.3-.6 2-2.8-2.3-2-7.7-3.1-8.6-1.7zm133.6.3c-1.8 1.8-1.5 3.8.6 3.8s4.2-1.8 4.2-3.7c0-1.6-3.2-1.7-4.8-.1zm-89.6 1.7c-.3.4 0 1.6.7 2.5 1.2 1.6 1.4 1.6 2.6.2.7-.8 1-2 .6-2.6-.8-1.2-3.2-1.3-3.9-.1zm76.1 4.2c-2.4 1.4-2.1 4.6.4 5.4 3.3 1.1 5.3-3.1 2.6-5.3-.8-.7-1.8-.7-3-.1zm-101 1c1.4 1.4 13.3 2.5 13.3 1.2 0-1.1-5.5-2.3-10.9-2.3-2.5 0-3.2.3-2.4 1.1zm75.6 1.5c-.3.8 0 2.1.6 2.7 1.4 1.4 4.4-.2 4.9-2.7.5-2.2-4.6-2.2-5.5 0zm-53.3 2.3c-4.2 1.3-7 3.5-7 5.3 0 2.7 3.2 2.2 7.8-1.2 5.9-4.3 5.5-6-.8-4.1zm-29 3.6c0 1.4.7 2.8 1.5 3.2 2.2.8 2.8-.2 2.1-3.2-.8-3.3-3.6-3.3-3.6 0zm35.5 4.6c-.9 1.3-.5 1.6 2 2.1 1.2.2 2.1-.3 2.3-1.5.4-1.9-3.2-2.5-4.3-.6z"/></svg>