<svg width="420" height="444" fill="none" xmlns="http://www.w3.org/2000/svg"><path d="M94.7 336.6C63.3 294.6-3 277.8 4 216.1c5-44.8 38.4-76.7 71.7-93.2 50.6-25 67.7-78.6 114.7-104.5C240.6-9.3 311 4.7 358.4 41.6c50.5 39.3 67.4 96 53.3 154.4-7.1 29.1-23.2 53.4-33.5 80.8-11.5 30.5-21.5 43.8-32.1 74.4-19.1 55.2-73 105.5-139.5 84.7-56.7-17.5-78.5-54.6-111.9-99.3z" fill="url(#paint0_linear)"/><path d="M365.7 117.3v2.6H363c-.9 0-1.6.7-1.6 1.6v.1c0 .9.7 1.6 1.6 1.6h2.6v2.6c0 .9.7 1.6 1.6 1.6h.1c.9 0 1.6-.7 1.6-1.6v-2.6h2.6c.9 0 1.6-.7 1.6-1.6v-.1c0-.9-.7-1.6-1.6-1.6h-2.6v-2.6c0-.9-.7-1.6-1.6-1.6h-.1c-.8-.1-1.5.7-1.5 1.6z" fill="#fff"/><path d="M237.9 386.9v3.9H234c-1.3 0-2.4 1.1-2.4 2.4v.1c0 1.3 1.1 2.4 2.4 2.4h3.9v3.9c0 1.3 1.1 2.4 2.4 2.4h.1c1.3 0 2.4-1.1 2.4-2.4v-3.9h3.9c1.3 0 2.4-1.1 2.4-2.4v-.1c0-1.3-1.1-2.4-2.4-2.4h-3.9v-3.9c0-1.3-1.1-2.4-2.4-2.4h-.1c-1.3-.1-2.4 1-2.4 2.4z" fill="#EFDFED"/><path d="M250 50.3a4.7 4.7 0 100-9.4 4.7 4.7 0 000 9.4z" fill="#fff"/><path d="M80 143.3a4.7 4.7 0 100-9.4 4.7 4.7 0 000 9.4z" fill="#EFDFED"/><path d="M166 216.1l-1-5.2c-.1-.4-.4-.6-.8-.5l-4.2.8c-.9-3.8-2.2-7.5-3.9-10.9l3.8-2.2c.3-.2.4-.6.2-.9l-2.7-4.6c-.2-.3-.6-.4-.9-.2l-3.7 2.2c-2.1-3.2-4.6-6.2-7.4-8.9l2.8-3.4c.2-.3.2-.7-.1-.9L144 178c-.3-.2-.7-.2-.9.1l-2.8 3.3c-3.1-2.3-6.4-4.3-10-5.9l1.5-4.1c.1-.3-.1-.7-.4-.8l-5-1.8c-.3-.1-.7.1-.8.4l-1.4 4c-3.7-1.1-7.5-1.8-11.4-2v-4.4c0-.4-.3-.7-.7-.7h-5.3c-.4 0-.7.3-.7.7v4.3c-3.9.2-7.8.9-11.4 1.9l-1.5-4.1c-.1-.3-.5-.5-.9-.4l-5 1.9c-.3.1-.5.5-.4.8l1.5 4c-3.6 1.5-6.9 3.5-10 5.8l-2.9-3.4c-.2-.3-.7-.3-.9-.1l-4 3.4c-.3.2-.3.7-.1.9l2.8 3.3c-2.8 2.7-5.4 5.6-7.5 8.8l-3.8-2.2c-.3-.2-.7-.1-.9.3l-2.6 4.6c-.2.3-.1.7.2.9l3.8 2.1c-1.7 3.4-3.1 7.1-4 10.9l-4.4-.7c-.4-.1-.7.2-.8.5l-.9 5.2c-.1.4.2.7.5.8l4.3.7c-.2 2.1-.4 4.3-.4 6.5 0 1.7.1 3.4.3 5.1l-4.3.8c-.4.1-.6.4-.5.8l1 5.2c.1.4.4.6.8.5l4.2-.8c.9 3.8 2.2 7.5 3.9 10.9l-3.8 2.2c-.3.2-.4.6-.2.9l2.7 4.6c.2.3.6.4.9.2l3.7-2.2c2.1 3.2 4.6 6.2 7.4 8.9l-2.8 3.4c-.2.3-.2.7.1.9l4.1 3.4c.3.2.7.2.9-.1L78 265c3.1 2.3 6.4 4.3 10 5.9l-1.5 4.2c-.1.3.1.7.4.8l5 1.8c.3.1.7-.1.8-.4l1.4-4c3.6 1.1 7.5 1.8 11.4 2v4.4c0 .4.3.7.7.7h5.3c.4 0 .7-.3.7-.7v-4.4c3.9-.2 7.8-.9 11.4-1.9l1.5 4.1c.1.3.5.5.8.4l5-1.9c.3-.1.5-.5.4-.8l-1.5-4c3.6-1.5 6.9-3.5 10-5.8l2.9 3.4c.2.3.7.3.9.1l4-3.4c.3-.2.3-.7.1-.9l-2.8-3.3c2.8-2.7 5.4-5.6 7.5-8.8l3.8 2.2c.3.2.7.1.9-.2l2.6-4.6c.2-.3.1-.7-.3-.9l-3.8-2.1c1.7-3.4 3.1-7.1 4-10.9l4.4.7c.4.1.7-.2.8-.5l.9-5.2c.1-.4-.2-.7-.5-.8l-4.3-.7c.2-2.1.4-4.3.4-6.5 0-1.7-.1-3.4-.3-5.1l4.3-.8c.5-.3.7-.6.7-1zm-56.7 20c-7.2.1-13-5.7-13.1-12.9-.1-7.2 5.7-13 12.9-13.1 7.2 0 13 5.7 13.1 12.9 0 7.2-5.8 13.1-12.9 13.1z" fill="#582768"/><path d="M109.1 252.3c-13.6 0-25.2-9.2-28.4-22.4-1.8-7.6-.6-15.4 3.5-22.1 4.1-6.6 10.5-11.3 18.1-13.1 2.2-.5 4.5-.8 6.8-.8 13.6 0 25.2 9.2 28.4 22.4 1.8 7.6.6 15.4-3.5 22.1-4.1 6.6-10.5 11.3-18.1 13.1-2.2.6-4.5.8-6.8.8zm.1-56.6c-2.1 0-4.3.3-6.4.8-7.1 1.7-13.2 6.1-17 12.3-3.9 6.3-5 13.6-3.3 20.8 3 12.4 14 21.1 26.7 21.1 2.1 0 4.3-.3 6.4-.8 7.1-1.7 13.2-6.1 17-12.3 3.9-6.3 5-13.6 3.3-20.8-3-12.5-14-21.1-26.7-21.1z" fill="#fff"/><path d="M109.1 258.9c-16.6 0-30.9-11.3-34.7-27.4-2.2-9.3-.7-18.9 4.3-27 5-8.1 12.9-13.8 22.1-16 2.7-.6 5.5-1 8.3-1 16.6 0 30.9 11.3 34.7 27.4 4.6 19.2-7.3 38.4-26.5 43-2.6.6-5.4 1-8.2 1zm.1-68.1c-2.5 0-5.1.3-7.5.9-8.4 2-15.5 7.2-20.1 14.5-4.5 7.4-5.9 16-3.9 24.4 3.5 14.6 16.4 24.9 31.4 24.9 2.5 0 5-.3 7.5-.9 17.3-4.1 28.1-21.6 24-39-3.5-14.6-16.4-24.8-31.4-24.8z" fill="#7D2360"/><path d="M111.2 231.9c-4.8 1.1-9.7-1.8-10.8-6.6-1.1-4.8 1.8-9.7 6.6-10.8 4.8-1.2 9.7 1.8 10.8 6.6 1.2 4.8-1.7 9.6-6.6 10.8z" fill="#5E2667"/><path d="M230.2 334.9c.1 8-6.3 14.6-14.3 14.7l-86.6 1.3c-8 .1-14.6-6.3-14.7-14.3l-3.1-205.2c-.1-8 6.3-14.6 14.3-14.7l86.6-1.3c8-.1 14.6 6.3 14.7 14.3l3.1 205.2z" fill="#9E2159"/><path d="M131.5 348.7c-8 .1-14.6-6.3-14.7-14.3l-3-200.8c-.1-8 6.3-14.6 14.3-14.7l82.2-1.2c8-.1 14.6 6.3 14.7 14.3l3 200.8c.1 8-6.3 14.6-14.3 14.7l-82.2 1.2z" fill="#9E2159"/><path d="M155.6 130.6c0 1.1-.8 2-1.9 2-1.1 0-2-.8-2-1.9 0-1.1.9-2 1.9-2 1.1-.1 1.9.8 2 1.9zM170.3 123.6c0 .7-.5 1.3-1.2 1.3s-1.3-.5-1.3-1.2.5-1.3 1.2-1.3c.7-.1 1.3.5 1.3 1.2zM176.8 130.1c0 .5-.4.9-.9.9l-13.4.2c-.5 0-.9-.4-.9-.9s.4-.9.9-.9l13.4-.2c.5-.1.9.4.9.9zM180.4 337.7c0 .9-.7 1.7-1.7 1.7l-12.3.2c-.9 0-1.7-.7-1.7-1.6v-3.4c0-.9.7-1.7 1.7-1.7l12.3-.2c.9 0 1.7.7 1.7 1.7v3.3z" fill="#fff"/><path d="M222.8 322l-101.5 1.5-2.6-180.1 101.4-1.5 2.7 180.1z" fill="url(#paint1_linear)"/><path opacity=".1" d="M119.5 201.3l.9 58.2 69.7-117.2-35.8.6-34.8 58.4zM120.9 291.7l89-149.7-13.6.2-75.8 127.4.4 22.1z" fill="#9E2159"/><path d="M140.4 89.9l-25.3-7.7 25.3-7.7v15.4z" fill="#FDEFF5"/><path d="M356.1 76.7c-.9-.9-1.9-1.5-3-1.8.3.8.4 1.6.4 2.4 0 2-.8 3.9-2.3 5.4-1.5 1.5-3.5 2.3-5.4 2.3H341v4.8h9.6c2 0 3.9-.8 5.4-2.3 1.5-1.5 2.3-3.5 2.3-5.4.1-1.9-.7-3.9-2.2-5.4z" fill="#97215B"/><path d="M332.2 74.5H140.4v15.4h191.8V74.5z" fill="url(#paint2_linear)"/><path d="M115.1 82.2l25.3 7.7V85l-25.3-2.8z" fill="#FDEFF5"/><path d="M125 85.2l-9.9-3 9.9 1.1v1.9z" fill="#742462"/><path d="M341.1 85h-8.9v4.8h8.9V85z" fill="#FDEFF5"/><path d="M332.2 85H140.4v4.8h191.8V85z" fill="url(#paint3_linear)"/><path d="M125 85.2l-9.9-3 9.9-3v6z" fill="#742462"/><path d="M341.1 74.5h-8.9v15.4h8.9V74.5z" fill="#FDEFF5"/><path d="M350.7 89.9c2 0 3.9-.8 5.4-2.3 1.5-1.5 2.3-3.5 2.3-5.4 0-2-.8-3.9-2.3-5.4-1.5-1.5-3.5-2.3-5.4-2.3h-9.6v15.4h9.6z" fill="#A62257"/><path d="M315.2 74.5h-33.3v232.3h33.3V74.5z" fill="url(#paint4_linear)"/><path d="M290.7 298.3h-8.8v1.7h8.8v-1.7zM290.7 283h-8.8v1.7h8.8V283zM290.7 267.6h-8.8v1.7h8.8v-1.7zM290.7 252.2h-8.8v1.7h8.8v-1.7zM290.7 236.9h-8.8v1.7h8.8v-1.7zM290.7 221.5h-8.8v1.7h8.8v-1.7zM290.7 206.1h-8.8v1.7h8.8v-1.7zM290.7 190.8h-8.8v1.7h8.8v-1.7zM290.7 175.4h-8.8v1.7h8.8v-1.7zM290.7 160h-8.8v1.7h8.8V160zM290.7 144.7h-8.8v1.7h8.8v-1.7zM286.3 121.6h-4.4v1.7h4.4v-1.7zM286.5 106.2h-4.6v1.7h4.6v-1.7zM286.5 90.9h-4.6v1.7h4.6v-1.7zM286.5 290.7h-4.6v1.7h4.6v-1.7zM286.5 275.3h-4.6v1.7h4.6v-1.7zM286.5 259.9h-4.6v1.7h4.6v-1.7zM286.5 244.5h-4.6v1.7h4.6v-1.7zM286.5 229.2h-4.6v1.7h4.6v-1.7zM286.5 213.8h-4.6v1.7h4.6v-1.7zM286.5 198.4h-4.6v1.7h4.6v-1.7zM286.5 183.1h-4.6v1.7h4.6v-1.7zM286.5 167.7h-4.6v1.7h4.6v-1.7zM286.5 152.3h-4.6v1.7h4.6v-1.7zM286.5 137h-4.6v1.7h4.6V137zM290.7 129.3h-8.8v1.7h8.8v-1.7zM290.7 113.9h-8.8v1.7h8.8v-1.7zM290.7 98.5h-8.8v1.7h8.8v-1.7zM290.7 83.2h-8.8v1.7h8.8v-1.7z" fill="#fff"/><path d="M361.4 174.9h-121v156.2h121V174.9z" fill="url(#paint5_linear)"/><path d="M361.4 160.1h-121v14.8h121v-14.8z" fill="#9E2159"/><path d="M262 281.8h-77.8v51H262v-51z" fill="url(#paint6_linear)"/><path d="M262 273.1h-77.8v8.7H262v-8.7z" fill="#582768"/><path d="M229.8 319.5h-13.4v2.2h13.4v-2.2z" fill="#fff"/><path d="M247.6 289.7h-8.7v8.7h8.7v-8.7z" fill="#A62257"/><path d="M244.5 293.2c0 .8-.6 1.5-1.3 1.5-.7 0-1.3-.7-1.3-1.5s.6-1.5 1.3-1.5c.7 0 1.3.7 1.3 1.5zM243.9 295.1c-.2.1-.4.2-.7.2-.2 0-.5-.1-.7-.2-.9.2-1.6.7-1.7 1.2h4.8c-.1-.6-.8-1.1-1.7-1.2zM238.9 289.7h-40.3v8.7h40.3v-8.7z" fill="#fff"/><path d="M231 292.9h-24.5v2.2H231v-2.2z" fill="#582768"/><path d="M247.6 301.4h-8.7v8.7h8.7v-8.7z" fill="#A62257"/><path d="M244.4 305.4v-.7c0-.7-.5-1.2-1.2-1.2s-1.2.5-1.2 1.2v.7h-.4v2.7h3.3v-2.7h-.5zm-.4 0h-1.6v-.7c0-.5.4-.8.8-.8s.8.4.8.8v.7zM238.9 301.4h-40.3v8.7h40.3v-8.7z" fill="#fff"/><path d="M207.6 304.7c-.6 0-1.1.5-1.1 1.1 0 .6.5 1.1 1.1 1.1.6 0 1.1-.5 1.1-1.1 0-.6-.5-1.1-1.1-1.1zM212 304.7c-.6 0-1.1.5-1.1 1.1 0 .6.5 1.1 1.1 1.1.6 0 1.1-.5 1.1-1.1 0-.6-.4-1.1-1.1-1.1zM216.5 304.7c-.6 0-1.1.5-1.1 1.1 0 .6.5 1.1 1.1 1.1.6 0 1.1-.5 1.1-1.1 0-.6-.5-1.1-1.1-1.1zM221 304.7c-.6 0-1.1.5-1.1 1.1 0 .6.5 1.1 1.1 1.1.6 0 1.1-.5 1.1-1.1 0-.6-.5-1.1-1.1-1.1zM225.4 304.7c-.6 0-1.1.5-1.1 1.1 0 .6.5 1.1 1.1 1.1.6 0 1.1-.5 1.1-1.1 0-.6-.5-1.1-1.1-1.1zM229.9 304.7c-.6 0-1.1.5-1.1 1.1 0 .6.5 1.1 1.1 1.1.6 0 1.1-.5 1.1-1.1 0-.6-.5-1.1-1.1-1.1z" fill="#582768"/><path d="M125.4 123.2c-.3 0-.6-.1-.8-.4-.4-.5-.3-1.1.2-1.5l44.4-34.7c.9-.7 1.9-1.1 3-1.1 1.1-.1 2.2.2 3.1.7l41.6 23.6c.5.3.7.9.4 1.4-.3.5-.9.7-1.4.4L174.3 88c-.6-.3-1.3-.5-1.9-.4-.7 0-1.3.3-1.9.7L126 123c-.2.2-.4.2-.6.2z" fill="#95235B"/><path d="M205.71 110.784l-90.182 11.38 2.454 19.445 90.182-11.38-2.454-19.445z" fill="#F1939B"/><path d="M203.407 114.903l-84.627 10.68 1.49 11.806 84.626-10.68-1.489-11.806z" fill="#fff"/><path d="M148.351 126.747l-24.904 3.138.313 2.48 24.904-3.137-.313-2.481zM226.183 108.183l-20.437 2.577 2.452 19.445 20.437-2.577-2.452-19.445z" fill="#F1939B"/><path d="M222.5 122.3l-2.4-1.8c-.1 0-.1-.1-.2-.1s-.2.1-.2.1l-.1.1-.7-.5c.4-.7.7-1.6.5-2.5-.3-2.1-2.2-3.6-4.3-3.3-2.1.3-3.6 2.2-3.3 4.3.3 2.1 2.2 3.6 4.3 3.3.9-.1 1.7-.5 2.3-1.1l.7.5-.1.1c0 .1-.1.1-.1.2s.1.2.1.2l2.4 1.8c.2.1.4.2.6.2.2 0 .4-.1.6-.3.1-.2.2-.4.2-.6 0-.3-.1-.5-.3-.6zm-6.4-1.1c-1.7.2-3.3-1-3.6-2.8-.2-1.7 1-3.3 2.8-3.5 1.7-.2 3.3 1 3.6 2.8.2 1.7-1.1 3.3-2.8 3.5z" fill="#fff"/><path d="M172.1 91.3c-7.2 0-13-5.8-13-13 0-1 .8-1.9 1.9-1.9 1 0 1.8.8 1.8 1.9 0 5.1 4.2 9.3 9.3 9.3 5.1 0 9.3-4.2 9.3-9.3 0-5.1-4.2-9.3-9.3-9.3-1 0-1.9-.8-1.9-1.9V62c0-1 .8-1.9 1.9-1.9 1 0 1.9.8 1.9 1.9v3.5c6.3.9 11.1 6.3 11.1 12.8 0 7.2-5.9 13-13 13z" fill="#F2949C"/><path d="M172.1 87.6c-.6.1-1.2.3-1.7.7l-2.8 2.2c-.7-.3-1.4-.6-2.1-1l3.2-2.5c1.1.4 2.2.6 3.4.6z" fill="#95235B"/><path d="M172.1 63.9c-2.8 0-5-2.3-5-5 0-2.8 2.3-5 5-5 2.8 0 5 2.3 5 5s-2.2 5-5 5zm0-6.4c-.7 0-1.3.6-1.3 1.3 0 .7.6 1.3 1.3 1.3.7 0 1.3-.6 1.3-1.3 0-.7-.6-1.3-1.3-1.3z" fill="#82245E"/><path d="M172.1 59.9c-.6 0-1-.2-1-.5v-26h2v26c0 .2-.4.5-1 .5z" fill="#F2949C"/><path d="M367.3 283.7h-75.8v47.4h75.8v-47.4z" fill="url(#paint7_linear)"/><path d="M329.5 318.5c-6.1 0-11-5-11-11 0-6.1 5-11 11-11 6.1 0 11 5 11 11s-5 11-11 11zm0-21.4c-5.7 0-10.3 4.6-10.3 10.3 0 5.7 4.6 10.3 10.3 10.3 5.7 0 10.3-4.6 10.3-10.3 0-5.7-4.6-10.3-10.3-10.3z" fill="#582768"/><path d="M327.4 303.9l6.2 3.5-6.2 3.6v-7.1zM367.3 331.1h-75.8v14.2h75.8v-14.2z" fill="#582768"/><path d="M223 187.1h-14.8v14.8H292v-14.8h-69z" fill="#F1939B"/><path d="M285.9 193.7h-56.8v1.5h56.8v-1.5z" fill="#fff"/><path d="M306.8 187.1H292v14.8h14.8v-14.8z" fill="#E0748B"/><path d="M213 191.5l5.1 3-5.1 2.9v-5.9z" fill="#fff"/><path d="M218.4 191.2h-1.5v6.5h1.5v-6.5zM215.2 191.2h-1.5v6.5h1.5v-6.5zM299.4 192.8H297v3.4h2.4v-3.4z" fill="#fff"/><path d="M302 198.2l-2.7-2v-3.4l2.7-2v7.4z" fill="#fff"/><path d="M243.6 197.5a3 3 0 100-6 3 3 0 000 6z" fill="#9E2159"/><path d="M300.7 242.3h-39.6v3.4h39.6v-3.4zM335.8 231.6h-74.7v3.4h74.7v-3.4zM335.8 220.7h-74.7v3.4h74.7v-3.4z" fill="#F6A0A2"/><defs><linearGradient id="paint0_linear" x1="221.895" y1="30.436" x2="201.895" y2="302.436" gradientUnits="userSpaceOnUse"><stop offset=".19" stop-color="#EFDFED"/><stop offset="1" stop-color="#FDF0F6"/></linearGradient><linearGradient id="paint1_linear" x1="99.052" y1="212.255" x2="242.441" y2="253.172" gradientUnits="userSpaceOnUse"><stop offset=".19" stop-color="#EFDFED"/><stop offset="1" stop-color="#FDF0F6"/></linearGradient><linearGradient id="paint2_linear" x1="140.4" y1="82.2" x2="332.2" y2="82.2" gradientUnits="userSpaceOnUse"><stop offset=".09" stop-color="#A62257"/><stop offset=".454" stop-color="#86245E"/><stop offset="1" stop-color="#582768"/></linearGradient><linearGradient id="paint3_linear" x1="133.799" y1="87.4" x2="227.743" y2="87.4" gradientUnits="userSpaceOnUse"><stop offset=".09" stop-color="#A62257"/><stop offset=".454" stop-color="#86245E"/><stop offset="1" stop-color="#582768"/></linearGradient><linearGradient id="paint4_linear" x1="281.9" y1="190.65" x2="315.244" y2="190.65" gradientUnits="userSpaceOnUse"><stop offset=".06" stop-color="#DB6B86"/><stop offset=".086" stop-color="#DC6D87"/><stop offset="1" stop-color="#F7A6A5"/></linearGradient><linearGradient id="paint5_linear" x1="300.9" y1="286.539" x2="300.9" y2="185.25" gradientUnits="userSpaceOnUse"><stop offset=".09" stop-color="#A62257"/><stop offset=".454" stop-color="#86245E"/><stop offset="1" stop-color="#582768"/></linearGradient><linearGradient id="paint6_linear" x1="221.405" y1="326.798" x2="226.87" y2="263.949" gradientUnits="userSpaceOnUse"><stop offset=".06" stop-color="#DB6B86"/><stop offset=".086" stop-color="#DC6D87"/><stop offset="1" stop-color="#F7A6A5"/></linearGradient><linearGradient id="paint7_linear" x1="291.5" y1="307.4" x2="367.3" y2="307.4" gradientUnits="userSpaceOnUse"><stop offset=".19" stop-color="#EFDFED"/><stop offset="1" stop-color="#FDF0F6"/></linearGradient></defs></svg>