<svg width="221" height="57" viewBox="0 0 221 57" fill="none" xmlns="http://www.w3.org/2000/svg">
<path d="M51.0115 46.2C51.2115 46.7 51.7115 47 52.1615 47C52.3115 47 52.4115 46.95 52.6115 46.95C53.2115 46.7 53.5115 45.95 53.2615 45.35L41.1115 12.9C40.9615 12.45 40.4615 12.15 39.9115 12.15C39.4115 12.15 38.9115 12.45 38.7115 12.9L26.5615 45.35C26.3115 45.95 26.6615 46.7 27.2615 46.95C27.4115 46.95 27.6115 47 27.7115 47C28.2115 47 28.6615 46.7 28.8615 46.2L31.9615 37.95H47.9115L51.0115 46.2ZM39.9615 16.7L47.0115 35.5H32.8615L39.9615 16.7ZM61.0857 45.8C61.0857 46.45 61.5857 47 62.2357 47H62.2857H62.4357H72.2857C77.7857 47 82.2857 42.55 82.2857 37C82.2857 32.6 79.3857 28.9 75.4357 27.55C77.4357 25.95 78.7857 23.5 78.7857 20.75C78.7857 15.9 74.8857 12 70.0857 12H62.4357H62.2857C61.6357 12 61.0857 12.55 61.0857 13.2V45.8ZM63.5357 44.55V29.45H72.2857C76.4357 29.45 79.7857 32.85 79.8357 37C79.7857 41.2 76.4357 44.55 72.2857 44.55H63.5357ZM63.5357 26.95V14.45H70.0857C73.5357 14.45 76.3357 17.25 76.3357 20.75C76.3357 24.15 73.5357 26.95 70.0857 26.95H63.5357ZM89.2232 29.25C89.2732 39.05 96.6732 47 106.123 47C115.473 47 122.823 39.05 122.873 29.25C122.823 19.45 115.473 11.5 106.123 11.5C96.6732 11.5 89.2732 19.45 89.2232 29.25ZM91.6732 29.25C91.6732 20.6 98.1732 14 106.123 14C113.823 14 120.323 20.6 120.373 29.25C120.323 37.8 113.823 44.55 106.123 44.55C98.1732 44.55 91.6732 37.8 91.6732 29.25ZM131.058 32.85C131.058 40.65 137.408 47 145.158 47C153.008 47 159.358 40.65 159.358 32.85V13.2C159.358 12.55 158.808 12 158.108 12C157.458 12 156.908 12.55 156.908 13.2V32.85C156.908 39.3 151.658 44.5 145.158 44.55C138.758 44.5 133.508 39.3 133.508 32.85V13.2C133.508 12.55 132.958 12 132.258 12C131.608 12 131.058 12.55 131.058 13.2V32.85ZM179.267 45.8C179.267 46.45 179.817 47 180.467 47C181.117 47 181.667 46.45 181.667 45.8V14.45H192.217C192.867 14.45 193.417 13.9 193.417 13.2C193.417 12.55 192.867 12 192.217 12H168.717C168.067 12 167.517 12.55 167.517 13.2C167.517 13.9 168.067 14.45 168.717 14.45H179.267V45.8Z" fill="white"/>
<rect x="49" y="53" width="124" height="4" rx="2" fill="url(#paint0_linear)"/>
<defs>
<linearGradient id="paint0_linear" x1="201.5" y1="56.9999" x2="15.5" y2="56.9997" gradientUnits="userSpaceOnUse">
<stop stop-color="#F00000"/>
<stop offset="0.932292" stop-color="#0015D2"/>
</linearGradient>
</defs>
</svg>
