<svg width="221" height="57" viewBox="0 0 221 57" fill="none" xmlns="http://www.w3.org/2000/svg">
<path d="M16.5057 45.8C16.5057 46.45 17.0057 46.95 17.6057 47H17.7057H17.8557H35.7057C36.4057 47 36.9057 46.45 36.9057 45.8C36.9057 45.1 36.4057 44.55 35.7057 44.55H18.9557V30.75H33.6057C34.2557 30.75 34.8057 30.2 34.8057 29.55C34.8057 28.85 34.2557 28.3 33.6057 28.3H18.9557V14.45H35.7057C36.4057 14.45 36.9057 13.9 36.9057 13.2C36.9057 12.55 36.4057 12 35.7057 12H17.8057H17.7057C17.0557 12 16.5057 12.55 16.5057 13.2V45.8ZM58.2443 46.9C58.2443 46.9 58.2443 46.95 58.2943 46.95C58.3943 47 58.5943 47 58.7443 47C58.8943 47 59.0443 46.95 59.1943 46.9H59.2443C59.6443 46.75 59.8943 46.35 59.9443 45.9L73.4943 13.9C73.7443 13.3 73.4443 12.55 72.8443 12.3C72.2443 12 71.4943 12.3 71.2943 12.9L58.7443 42.7L46.2443 12.9C45.9943 12.3 45.2443 12 44.6443 12.3C44.0443 12.55 43.7443 13.3 43.9943 13.9L57.5443 46.15L57.5943 46.2C57.5943 46.25 57.5943 46.3 57.6443 46.3C57.7443 46.6 57.9443 46.8 58.2443 46.9ZM82.1307 45.8C82.1307 46.45 82.6307 46.95 83.2307 47H83.3307H83.4807H101.331C102.031 47 102.531 46.45 102.531 45.8C102.531 45.1 102.031 44.55 101.331 44.55H84.5807V30.75H99.2307C99.8807 30.75 100.431 30.2 100.431 29.55C100.431 28.85 99.8807 28.3 99.2307 28.3H84.5807V14.45H101.331C102.031 14.45 102.531 13.9 102.531 13.2C102.531 12.55 102.031 12 101.331 12H83.4307H83.3307C82.6807 12 82.1307 12.55 82.1307 13.2V45.8ZM135.319 46.35C135.369 46.45 135.469 46.5 135.519 46.55C135.769 46.85 136.069 47 136.469 47C137.169 47 137.719 46.45 137.719 45.8V13.55C137.719 12.9 137.169 12.35 136.469 12.35C135.819 12.35 135.269 12.9 135.269 13.55V42.05L114.069 12.65C113.719 12.1 112.919 12 112.369 12.35C111.919 12.7 111.769 13.2 111.919 13.7V45.8C111.919 46.45 112.469 47 113.119 47C113.769 47 114.319 46.45 114.319 45.8V17.15L135.319 46.35ZM158.905 45.8C158.905 46.45 159.455 47 160.105 47C160.755 47 161.305 46.45 161.305 45.8V14.45H171.855C172.505 14.45 173.055 13.9 173.055 13.2C173.055 12.55 172.505 12 171.855 12H148.355C147.705 12 147.155 12.55 147.155 13.2C147.155 13.9 147.705 14.45 148.355 14.45H158.905V45.8ZM180.095 42C182.995 44.3 187.645 47 192.995 47.05C196.495 47.05 199.645 46 201.995 44.3C204.345 42.6 205.945 40.1 205.945 37.3C205.945 34.5 204.395 32.2 202.095 30.7C199.795 29.15 196.695 28.15 193.195 27.5H193.095C189.945 26.9 187.345 26.05 185.595 24.85C183.845 23.65 183.045 22.35 182.995 20.6C182.995 18.8 183.995 17.1 185.745 15.8C187.495 14.55 190.045 13.7 192.895 13.7C196.745 13.7 199.745 15.6 202.495 17.4C202.995 17.75 203.695 17.6 203.995 17.1C204.345 16.55 204.195 15.9 203.695 15.55C200.945 13.75 197.495 11.5 192.895 11.5C189.595 11.5 186.645 12.45 184.445 14.05C182.245 15.65 180.795 17.95 180.795 20.6C180.795 23.2 182.245 25.3 184.395 26.7C186.545 28.15 189.395 29.05 192.645 29.65H192.745C196.145 30.3 198.945 31.25 200.845 32.5C202.745 33.8 203.695 35.3 203.695 37.3C203.695 39.25 202.645 41.1 200.695 42.5C198.795 43.9 196.045 44.8 192.995 44.8C188.445 44.85 184.095 42.4 181.495 40.3C181.045 39.9 180.345 39.95 179.945 40.45C179.595 40.9 179.645 41.6 180.095 42Z" fill="white"/>
<rect x="49" y="53" width="124" height="4" rx="2" fill="url(#paint0_linear)"/>
<defs>
<linearGradient id="paint0_linear" x1="201.5" y1="56.9999" x2="15.5" y2="56.9997" gradientUnits="userSpaceOnUse">
<stop stop-color="#00F08B"/>
<stop offset="0.932292" stop-color="#0015D2"/>
</linearGradient>
</defs>
</svg>
