<?xml version="1.0" standalone="no"?>
<!DOCTYPE svg PUBLIC "-//W3C//DTD SVG 20010904//EN"
 "http://www.w3.org/TR/2001/REC-SVG-20010904/DTD/svg10.dtd">
<svg version="1.0" xmlns="http://www.w3.org/2000/svg"
 width="1279.000000pt" height="1280.000000pt" viewBox="0 0 1279.000000 1280.000000"
 preserveAspectRatio="xMidYMid meet">
<metadata>
Created by potrace 1.15, written by Peter Selinger 2001-2017
</metadata>
<g transform="translate(0.000000,1280.000000) scale(0.100000,-0.100000)"
fill="#000000" stroke="none">
<path d="M4114 12528 c1 -26 -3 -32 -29 -40 -37 -11 -179 -2 -298 18 -116 20
-141 17 -145 -18 -3 -25 -4 -26 -30 -12 -37 19 -50 18 -83 -11 -52 -43 -307
-111 -390 -103 -37 3 -40 2 -35 -18 7 -26 -11 -43 -81 -78 -58 -29 -65 -41
-29 -50 24 -6 495 142 601 189 38 16 57 20 69 13 12 -7 50 -6 111 1 51 6 160
11 242 11 209 0 217 4 167 80 -28 43 -40 51 -30 23 4 -12 0 -10 -10 5 -23 31
-32 28 -30 -10z"/>
<path d="M3255 12477 l-110 -32 75 -3 c98 -4 266 16 281 34 9 11 6 16 -16 24
-45 17 -115 10 -230 -23z"/>
<path d="M3885 12390 c-163 -8 -245 -18 -245 -30 0 -12 95 -20 241 -19 83 1
144 -3 157 -10 11 -6 51 -11 87 -11 55 0 70 -4 83 -20 12 -15 42 -25 106 -36
52 -9 113 -27 146 -44 32 -16 79 -34 105 -41 59 -15 74 -4 55 40 -14 34 -23
37 -169 65 -96 17 -111 27 -93 56 6 11 12 22 12 24 0 25 -244 39 -485 26z"/>
<path d="M3497 12328 c-69 -10 -97 -31 -97 -73 0 -35 -16 -47 -26 -20 -3 8
-22 19 -41 26 -66 21 -163 -8 -163 -50 0 -21 -19 -31 -57 -31 -70 0 -324 -108
-370 -158 -13 -15 -39 -31 -56 -37 -66 -21 -15 -43 53 -23 19 6 96 37 171 69
74 31 169 67 210 79 41 12 85 29 97 37 31 19 37 12 15 -16 -11 -13 -65 -39
-138 -65 -182 -65 -344 -136 -379 -166 -17 -15 -48 -30 -70 -33 -62 -10 -122
-61 -64 -54 14 1 23 -4 26 -15 5 -23 -64 -68 -105 -68 -38 0 -42 -14 -18 -60
11 -20 20 -28 33 -24 12 4 12 2 -3 -7 -310 -191 -421 -273 -645 -474 -124
-110 -302 -302 -411 -440 -544 -691 -818 -1560 -768 -2437 6 -105 19 -247 29
-317 18 -124 18 -126 0 -141 -11 -8 -19 -25 -18 -37 2 -19 6 -21 28 -16 l25 6
-20 -23 c-28 -31 -73 -53 -101 -47 -18 3 -24 0 -24 -13 0 -24 28 -90 38 -90 5
0 33 21 62 46 30 25 56 42 57 37 2 -4 -30 -42 -70 -83 -100 -103 -131 -145
-120 -165 8 -14 13 -13 39 7 41 31 158 131 165 141 3 5 9 1 13 -9 5 -12 -16
-39 -82 -103 -115 -113 -166 -176 -168 -212 -2 -26 0 -28 20 -17 11 6 74 63
138 126 98 96 119 112 125 97 5 -15 -21 -46 -123 -145 -72 -69 -151 -141 -176
-159 -48 -35 -55 -64 -17 -76 28 -9 89 38 219 169 63 64 118 116 122 116 23 0
-2 -33 -104 -139 -117 -122 -218 -243 -244 -292 -15 -30 -11 -69 7 -69 5 0 15
11 21 25 7 16 24 29 48 35 31 8 37 15 47 53 9 32 27 58 72 100 33 31 65 57 72
57 6 0 -9 -19 -35 -43 -28 -27 -46 -52 -46 -66 0 -28 -13 -53 -60 -112 -44
-56 -116 -200 -125 -249 -8 -45 15 -81 38 -62 8 7 18 29 22 50 9 48 63 152
130 247 76 110 216 276 226 269 24 -14 1 -52 -87 -147 -114 -121 -154 -172
-154 -201 0 -12 -9 -32 -20 -46 -21 -27 -27 -85 -9 -96 6 -3 26 9 45 27 l34
33 24 -23 24 -23 17 25 c20 31 55 121 55 142 0 27 -14 16 -48 -36 -18 -28 -36
-49 -39 -46 -3 3 3 29 12 56 18 55 80 143 144 205 l40 39 15 -37 c15 -36 15
-39 -18 -104 -18 -37 -37 -78 -41 -92 -4 -14 -19 -41 -35 -60 -63 -80 -118
-245 -111 -330 1 -8 55 92 120 223 65 131 121 241 125 244 4 4 11 1 16 -7 5
-9 0 -24 -15 -44 -13 -17 -47 -84 -75 -149 -39 -89 -50 -125 -45 -145 6 -26 7
-27 22 -7 8 11 30 50 48 86 18 36 49 92 69 124 l35 58 18 -38 c14 -30 15 -39
5 -43 -53 -17 -118 -120 -106 -166 3 -14 9 -26 14 -26 10 0 33 29 63 81 23 41
53 67 64 56 2 -2 -13 -39 -33 -83 -59 -126 -75 -208 -58 -293 13 -63 28 -33
59 114 10 44 31 109 47 145 29 64 30 64 42 41 12 -21 10 -31 -11 -80 -34 -75
-65 -200 -55 -218 6 -10 22 18 52 89 54 128 58 135 77 109 12 -17 10 -24 -10
-54 -31 -45 -51 -119 -43 -153 6 -24 8 -25 25 -10 9 8 30 43 46 76 25 52 31
59 41 45 9 -12 7 -31 -10 -88 l-22 -72 -45 -5 c-55 -6 -62 -19 -95 -179 -20
-91 -23 -123 -14 -145 5 -15 16 -26 22 -24 15 5 23 37 36 142 11 86 34 129 72
134 36 6 49 -16 22 -36 -24 -19 -62 -108 -62 -148 0 -35 17 -64 39 -64 47 0
106 -110 99 -187 -2 -30 -7 -38 -23 -38 -14 0 -22 11 -31 40 -14 51 -38 53
-42 3 -4 -52 30 -128 58 -128 11 0 23 7 26 15 16 39 48 9 128 -121 72 -118
121 -176 187 -225 51 -36 208 -105 309 -135 l45 -14 -72 4 c-57 3 -87 11 -147
39 -42 20 -76 31 -76 25 0 -26 90 -96 163 -127 95 -39 161 -50 185 -29 25 22
58 28 97 17 53 -15 53 -30 1 -23 -35 5 -58 1 -98 -16 -44 -19 -62 -21 -116
-16 -80 8 -132 29 -139 56 -4 13 -14 20 -31 20 -33 0 -190 156 -225 225 -30
58 -111 163 -133 172 -26 10 -27 -4 -2 -59 57 -123 267 -352 391 -426 73 -44
175 -59 285 -43 77 12 128 34 117 51 -3 6 0 7 7 5 9 -4 44 31 91 90 77 94 105
116 91 73 -15 -49 -38 -83 -111 -158 -93 -98 -111 -105 -257 -97 -281 16 -399
97 -589 403 -31 50 -66 99 -77 109 -13 12 -18 25 -14 41 7 28 -11 88 -33 106
-15 12 -16 8 -9 -40 23 -176 165 -407 336 -547 128 -104 251 -155 375 -155
149 0 257 43 322 128 30 39 33 41 33 19 0 -62 -105 -152 -191 -163 -28 -4 -57
-13 -65 -21 -31 -31 -8 -127 32 -137 15 -4 30 -19 38 -37 l13 -31 6 29 c7 34
-6 97 -23 118 -12 15 -6 35 11 35 6 0 19 -10 28 -22 20 -24 19 -25 121 46 29
21 53 30 78 29 27 -1 44 6 65 25 27 26 29 26 42 9 13 -18 14 -18 23 0 13 24
35 104 67 245 20 87 30 116 40 112 10 -4 13 -29 12 -102 -2 -97 -2 -97 22 -94
23 2 24 1 17 -55 -13 -113 -88 -285 -146 -338 -25 -23 -25 -36 0 -67 l19 -25
-27 -25 c-54 -51 -134 -108 -150 -108 -8 0 6 14 32 31 52 35 94 85 93 112 -1
29 -22 20 -90 -38 -70 -60 -134 -92 -149 -77 -12 12 -1 20 76 52 58 24 61 27
64 63 3 36 2 38 -20 32 -33 -10 -131 -71 -152 -94 -13 -14 -16 -28 -12 -46 7
-27 59 -65 89 -65 21 0 22 -8 2 -30 -16 -17 -11 -50 6 -50 32 0 234 130 307
198 24 22 42 48 42 60 0 34 -18 72 -35 72 -14 0 -14 3 -1 22 42 67 127 369
127 453 l0 55 30 -15 c16 -9 29 -22 29 -30 0 -19 21 -30 30 -15 4 7 16 9 28 6
23 -8 22 -24 -3 -137 -15 -69 -10 -109 16 -109 20 0 39 51 39 105 0 67 12 105
32 105 10 0 21 -6 24 -14 10 -26 -33 -168 -94 -311 -33 -77 -56 -142 -51 -143
5 -2 6 -9 3 -14 -4 -6 12 8 34 30 66 66 88 48 31 -24 -86 -106 -96 -151 -33
-139 19 3 34 3 34 -1 0 -4 -15 -25 -33 -48 -39 -48 -58 -78 -36 -58 20 18 34
15 18 -5 -38 -47 131 97 237 202 128 128 184 200 180 231 -5 32 -34 28 -54 -7
-24 -46 -86 -113 -100 -108 -6 2 12 39 43 88 50 76 60 100 79 183 4 16 13 28
21 28 7 0 78 -16 157 -35 142 -35 285 -61 468 -87 129 -18 691 -18 820 0 498
69 892 191 1286 397 l121 63 31 -25 c18 -13 30 -28 27 -33 -3 -5 0 -12 6 -16
8 -4 9 -3 5 4 -12 19 3 14 47 -17 177 -121 407 -174 647 -148 l55 6 -55 -13
c-47 -12 -50 -14 -22 -15 41 -1 204 -63 254 -96 21 -14 40 -25 43 -25 3 0 35
-23 70 -51 36 -28 65 -47 65 -43 0 5 27 -18 60 -51 33 -32 57 -61 55 -64 -3
-2 10 -23 29 -45 52 -64 124 -179 168 -269 22 -45 37 -74 34 -64 -18 56 -13
64 7 12 13 -33 35 -79 50 -102 15 -24 25 -43 22 -43 -3 0 -19 21 -36 47 -34
51 -33 48 1 -34 13 -29 26 -50 31 -47 24 14 4 -15 -38 -58 l-48 -48 1693
-1693 1692 -1692 64 64 64 64 31 -22 c17 -12 31 -25 31 -27 0 -3 -14 5 -31 17
-26 18 -33 19 -40 8 -8 -14 16 -26 66 -32 11 -2 43 -14 70 -29 316 -164 699 2
801 347 38 127 18 296 -47 412 -16 29 -28 56 -27 60 4 15 -21 73 -31 73 -14 0
-14 -17 -1 -25 11 -7 33 -45 26 -45 -3 0 -15 14 -27 31 l-22 31 58 58 58 59
-211 218 c-180 187 -2220 2225 -2934 2932 l-238 236 -61 -60 c-34 -33 -59 -53
-57 -45 4 12 -10 21 -61 39 -238 82 -377 158 -500 275 -50 47 -42 36 33 -46
54 -60 96 -108 94 -108 -2 0 -84 82 -183 182 -99 101 -160 165 -135 143 126
-112 125 -112 67 -46 -68 77 -149 233 -176 341 -13 51 -20 67 -22 50 -2 -14
-4 52 -5 145 0 155 -3 178 -27 258 -29 94 -72 186 -119 255 -16 23 -26 47 -22
54 4 6 3 8 -4 4 -10 -6 -52 38 -52 56 0 5 19 43 41 84 38 69 43 74 58 59 24
-21 37 -19 55 7 21 29 20 30 -8 61 l-25 27 50 104 c27 58 49 110 49 115 0 6
18 20 41 31 31 16 38 24 30 34 -6 7 -8 16 -4 19 3 4 -1 7 -10 7 -25 0 -21 15
8 34 22 14 24 21 19 55 -6 38 -5 41 77 123 86 85 146 176 122 185 -7 3 -13 12
-13 20 0 13 -4 13 -27 -3 -31 -19 -56 -49 -90 -103 -12 -20 -23 -31 -23 -25 0
12 19 40 93 135 55 71 64 100 48 145 -15 43 -8 55 29 48 25 -5 32 -1 60 37 40
54 103 187 125 263 12 40 15 72 10 108 -6 40 -4 50 6 46 8 -3 20 -22 27 -44
16 -48 6 -93 -44 -207 -39 -89 -41 -107 -15 -131 21 -19 27 -14 59 49 29 58
52 147 52 198 0 25 -9 74 -20 109 -24 76 -25 100 -5 175 9 32 15 101 15 158 0
111 15 252 31 287 12 29 2 -318 -12 -382 -23 -109 -23 -117 6 -165 20 -34 30
-44 38 -36 8 8 8 22 0 53 -9 33 -8 48 2 68 22 43 52 158 86 326 l31 162 -21
98 c-12 55 -31 139 -41 188 -10 48 -27 97 -36 107 -10 11 -19 33 -21 51 -2 17
-19 60 -38 94 -38 67 -44 94 -20 94 44 0 113 -164 154 -366 24 -116 43 -273
35 -286 -3 -5 -6 -52 -6 -105 0 -74 -5 -109 -20 -147 -35 -87 -41 -116 -27
-132 10 -12 10 -21 -3 -42 -22 -38 -53 -139 -83 -264 -29 -125 -30 -144 -10
-164 13 -13 17 -9 40 36 14 28 33 83 42 123 18 83 32 116 33 77 0 -51 -52
-237 -101 -359 -42 -102 -52 -138 -53 -191 -1 -46 -9 -80 -25 -113 -36 -74
-136 -204 -215 -280 -64 -62 -68 -68 -41 -62 29 6 29 6 11 -9 -26 -21 -18 -20
47 4 60 23 98 58 154 146 l39 61 17 -23 c21 -28 22 -54 3 -79 -13 -18 -14 -17
-21 13 -8 40 -21 41 -28 3 -8 -38 -57 -86 -126 -120 -71 -36 -95 -62 -87 -94
4 -19 1 -26 -12 -29 -15 -4 -20 5 -30 59 -8 41 -9 70 -3 81 5 10 36 41 69 70
100 87 254 309 222 320 -6 2 -10 10 -10 18 0 41 -43 -1 -101 -99 -23 -38 -73
-102 -111 -141 l-70 -71 -23 29 c-20 25 -25 27 -46 16 -35 -19 -39 -30 -22
-57 10 -15 22 -22 32 -18 9 3 -13 -21 -49 -54 -63 -59 -71 -73 -27 -50 22 12
22 12 3 -10 -23 -25 -21 -25 34 -6 53 19 55 19 39 -1 -7 -8 -40 -28 -73 -44
-90 -41 -101 -52 -85 -78 8 -12 22 -22 31 -22 35 0 17 -18 -49 -49 l-68 -32
50 5 c48 5 48 3 -4 -16 -13 -5 -22 -11 -19 -13 8 -8 239 52 363 95 122 42 235
96 235 111 0 5 -4 9 -10 9 -5 0 -10 7 -10 15 0 24 -36 18 -82 -14 -43 -29 -98
-48 -98 -34 0 5 35 27 78 51 79 43 130 85 158 128 21 31 42 30 104 -3 43 -24
52 -26 60 -13 5 9 5 19 -1 27 -14 16 -2 54 67 211 64 145 124 316 149 423 19
82 15 149 -10 149 -8 0 -15 -3 -15 -7 0 -5 -9 -19 -19 -32 -18 -23 -18 -23 -5
40 14 67 29 204 43 399 l8 115 2 -145 c2 -180 14 -284 34 -304 13 -14 16 -12
22 12 3 15 9 106 12 202 6 180 -7 363 -29 403 -11 21 -12 21 -23 -13 -8 -25
-19 -36 -36 -39 l-24 -3 20 22 c16 18 20 36 20 99 0 46 -6 86 -15 101 -13 24
-14 20 -31 -72 -20 -114 -24 -122 -49 -108 -30 16 -49 12 -55 -12 -5 -21 -23
-154 -44 -320 -8 -70 -31 -118 -57 -118 -11 0 -12 5 -6 18 5 9 19 67 31 127
64 334 67 451 15 654 -45 175 -40 202 36 212 18 3 25 -1 28 -16 2 -11 14 -30
25 -43 15 -16 21 -33 18 -55 -5 -52 -12 -52 -43 3 -22 39 -33 49 -41 41 -17
-17 15 -161 48 -217 15 -25 38 -50 52 -57 36 -16 53 9 82 126 24 96 24 98 7
159 -24 86 -96 236 -135 280 -18 21 -48 43 -67 50 -41 14 -42 22 -9 44 84 55
161 -77 295 -501 37 -119 73 -195 93 -195 12 0 8 61 -7 120 -8 30 -13 56 -11
58 5 5 61 -137 84 -211 11 -38 34 -135 51 -215 17 -81 36 -163 42 -182 13 -41
44 -84 52 -72 2 4 -7 78 -20 163 -21 125 -23 160 -14 184 11 28 12 29 25 12 7
-11 16 -38 20 -60 16 -104 48 -216 71 -252 l25 -40 -5 73 c-8 94 -35 229 -53
266 -8 15 -17 62 -20 102 -3 41 -12 82 -19 92 -13 16 -15 16 -29 -2 -9 -12
-15 -41 -15 -73 0 -29 -4 -53 -10 -53 -13 0 -43 61 -70 145 -41 126 -74 172
-134 192 -24 7 -31 16 -34 44 -2 19 -15 67 -28 106 -31 90 -47 178 -29 163 6
-5 24 -42 40 -82 46 -117 73 -154 137 -187 30 -15 34 -24 58 -122 24 -98 48
-147 64 -132 12 12 5 54 -28 170 -63 218 -177 480 -261 598 -89 126 -362 365
-416 365 -49 0 1 -56 120 -134 105 -69 208 -171 242 -239 12 -23 35 -57 52
-76 50 -58 164 -326 155 -367 -2 -12 -38 48 -91 156 -49 96 -101 189 -116 205
-16 17 -38 48 -49 70 -29 56 -182 198 -197 183 -3 -2 32 -49 77 -104 126 -154
192 -264 159 -264 -4 0 -20 18 -35 41 -68 102 -306 339 -341 339 -7 0 -17 -9
-20 -21 -6 -17 -12 -19 -33 -14 -44 10 -72 34 -72 59 0 33 -32 69 -80 91 -28
13 -37 22 -30 29 5 5 10 25 10 43 0 19 7 50 15 70 14 33 18 35 49 30 48 -8
233 -82 291 -117 28 -17 72 -46 99 -65 44 -32 53 -35 97 -29 47 6 49 6 102
-45 30 -28 59 -51 65 -51 18 0 15 76 -4 113 -31 59 -76 108 -129 138 -28 16
-57 40 -63 53 -6 13 -26 30 -46 37 -19 7 -39 23 -45 35 -8 18 -35 31 -128 60
-65 20 -122 40 -127 44 -16 15 31 31 60 20 21 -8 32 -7 51 6 24 15 26 15 57
-14 17 -16 72 -57 122 -90 253 -168 496 -420 630 -652 24 -41 57 -88 73 -104
28 -27 32 -28 61 -16 48 20 60 36 53 73 -7 42 -42 125 -65 159 -11 16 -16 32
-13 38 8 14 48 13 63 -2 19 -19 25 -2 13 35 -23 69 -190 281 -207 264 -9 -9
13 -48 78 -138 26 -36 48 -76 48 -88 0 -20 -1 -21 -27 -7 -26 13 -168 162
-171 179 -7 35 -53 82 -189 189 -141 112 -291 218 -307 218 -18 0 37 -58 129
-134 248 -208 605 -622 605 -701 0 -70 -39 -32 -167 163 -88 135 -135 196
-197 256 -226 219 -656 516 -746 516 -58 0 -23 -40 61 -69 80 -29 30 -25 -111
9 -69 16 -156 33 -193 36 -59 6 -69 5 -82 -12 -12 -17 -26 -19 -117 -17 -72 1
-121 7 -162 21 l-58 19 -67 -33 c-36 -18 -75 -35 -85 -36 -32 -5 -29 19 4 26
42 8 182 64 197 79 7 7 10 22 6 35 -5 21 -10 23 -42 18 -120 -19 -119 -19
-130 2 -16 30 -35 33 -106 18 -43 -9 -67 -10 -71 -4 -9 15 11 24 97 48 89 24
109 25 109 6 0 -7 9 -25 20 -38 19 -25 20 -26 82 -12 117 25 238 11 133 -15
-43 -11 -62 -31 -29 -31 8 0 12 -4 9 -10 -10 -16 52 -12 85 5 17 9 30 22 30
31 0 8 16 24 37 36 20 12 31 24 25 26 -7 2 -12 10 -12 17 0 19 -42 21 -184 13
-66 -4 -122 -5 -125 -3 -13 14 20 20 102 21 51 0 122 4 159 8 55 7 71 5 96
-10 29 -16 31 -16 47 0 10 10 24 14 34 11 40 -16 77 -17 90 -1 9 11 10 16 2
16 -6 0 -11 7 -11 15 0 8 -5 15 -11 15 -7 0 -9 10 -5 25 4 17 0 31 -14 45
l-20 20 33 0 c39 0 53 -9 58 -34 5 -23 48 -56 76 -59 25 -1 20 -17 -5 -17 -9
0 -23 -4 -31 -9 -27 -17 24 -51 218 -141 106 -49 240 -118 298 -152 121 -73
296 -202 399 -294 40 -35 75 -64 78 -64 17 0 2 43 -24 73 -16 19 -30 37 -30
41 0 14 61 4 78 -13 94 -100 117 -121 133 -121 30 0 22 20 -23 63 -24 21 -81
85 -128 140 -95 114 -218 224 -330 297 -41 27 -84 56 -95 65 -19 14 -19 15 5
6 14 -5 48 -14 75 -20 78 -19 134 -62 281 -215 127 -133 229 -226 247 -226 15
0 -36 79 -105 162 -111 134 -457 438 -499 438 -3 0 -4 -13 -1 -30 7 -49 -22
-37 -36 14 -13 50 -39 83 -55 67 -5 -5 -14 -19 -21 -32 -14 -29 -27 -33 -50
-16 -15 11 -17 18 -8 32 14 25 -12 63 -55 81 -36 16 -149 19 -157 5 -3 -5 1
-15 10 -22 8 -7 21 -27 28 -44 15 -35 59 -66 145 -101 36 -15 48 -24 33 -24
-37 0 -143 39 -196 73 -43 27 -52 29 -78 19 -29 -11 -88 1 -88 17 0 4 17 23
38 43 32 32 92 65 167 93 13 5 15 9 8 12 -7 3 -13 11 -13 18 0 13 -19 20 -99
38 -35 8 -68 -8 -75 -38 -9 -36 -36 -29 -50 15 -13 42 -62 70 -123 70 -33 0
-43 -4 -48 -21 -5 -16 -12 -19 -28 -14 -136 43 -311 62 -397 44 -30 -7 -73
-13 -95 -14 -58 -3 -62 -4 -42 -16 9 -6 15 -14 12 -18 -7 -12 54 -19 215 -26
74 -4 177 -13 229 -22 52 -8 107 -12 122 -9 38 7 37 -8 0 -24 -24 -10 -55 -9
-157 5 -180 23 -384 31 -412 16 -17 -9 -33 -8 -76 4 -45 13 -59 14 -78 4 -19
-11 -20 -14 -6 -17 11 -2 15 -9 11 -19 -4 -11 -2 -14 5 -9 7 4 12 3 12 -2 0
-25 -119 -31 -143 -7 -13 12 -16 12 -21 -8 -9 -34 -7 -77 3 -77 5 0 11 -6 13
-14 2 -11 31 -6 138 24 151 43 264 61 242 39 -7 -8 -36 -14 -68 -14 -43 -1
-60 -6 -70 -20 -10 -13 -29 -19 -66 -21 -29 -1 -82 -12 -118 -23 -36 -11 -70
-21 -75 -21 -6 0 -57 51 -112 114 -294 330 -661 605 -1088 816 -386 190 -730
294 -1161 349 -101 13 -165 26 -192 40 -87 44 -477 149 -587 158 -53 4 -58 3
-42 -10 17 -15 24 -47 9 -47 -5 0 -14 11 -20 25 -12 26 -80 61 -93 48 -4 -5
-9 -24 -11 -43 -2 -27 -7 -35 -23 -35 -14 0 -21 8 -23 26 -7 59 -149 58 -215
-1 l-31 -28 32 -7 c18 -3 30 -10 27 -15 -13 -20 33 -33 138 -39 l112 -6 -78
-14 c-46 -8 -105 -12 -146 -8 -64 5 -70 4 -90 -19 -25 -29 -71 -33 -71 -6 0
32 51 127 90 167 39 39 39 40 17 50 -13 6 -42 8 -70 3z m768 -157 c39 -11 90
-28 115 -39 l45 -19 -80 4 c-44 3 -115 11 -159 19 -43 8 -104 14 -135 15 l-56
0 40 19 c53 25 143 25 230 1z m-903 -113 c12 -18 24 -22 66 -21 63 1 59 -11
-10 -32 -67 -20 -78 -19 -78 4 0 14 -10 22 -32 26 l-32 7 23 19 c30 25 45 24
63 -3z m295 -4 c-3 -3 -12 -4 -19 -1 -8 3 -5 6 6 6 11 1 17 -2 13 -5z m-527
-44 c-32 -25 -225 -110 -248 -110 -22 1 60 45 173 91 105 44 108 45 75 19z
m115 -49 c-13 -12 -127 -53 -132 -47 -2 2 24 15 59 29 69 27 88 32 73 18z
m-415 -101 c-6 -11 -31 -30 -55 -41 -25 -12 -46 -26 -46 -33 -1 -6 -2 -16 -3
-23 0 -6 -28 -25 -61 -42 l-60 -31 55 50 c50 46 169 140 177 140 2 0 -1 -9 -7
-20z m4990 -939 l55 -7 -45 -7 c-48 -7 -256 5 -267 16 -8 9 184 7 257 -2z
m-318 -113 c-17 -17 -315 -89 -325 -78 -5 4 17 16 50 25 106 32 278 73 282 69
3 -2 -1 -10 -7 -16z m429 9 c-13 -13 -187 -21 -277 -12 -57 5 -73 10 -59 16
26 11 347 7 336 -4z m534 -149 c280 -119 444 -217 555 -332 28 -30 32 -40 24
-54 -20 -32 -47 -25 -87 23 -66 79 -222 179 -519 334 -87 45 -158 85 -158 88
0 12 71 -10 185 -59z m-705 -48 c0 -5 -5 -10 -11 -10 -5 0 -7 5 -4 10 3 6 8
10 11 10 2 0 4 -4 4 -10z m-370 -24 c0 -3 -4 -8 -10 -11 -5 -3 -10 -1 -10 4 0
6 5 11 10 11 6 0 10 -2 10 -4z m-63 -32 c-3 -3 -12 -4 -19 -1 -8 3 -5 6 6 6
11 1 17 -2 13 -5z m813 -120 c53 -22 39 -39 -24 -30 -46 7 -62 18 -51 36 9 14
28 12 75 -6z m-252 -20 c13 -4 21 -11 19 -17 -2 -7 -57 -11 -153 -12 -82 -1
-183 -7 -225 -15 -75 -13 -109 -10 -109 10 0 5 12 10 28 11 15 0 79 6 142 14
127 14 262 18 298 9z m156 -50 c8 -32 46 -84 61 -84 6 0 21 11 33 25 12 14 30
25 39 25 36 0 118 -31 191 -71 50 -28 83 -40 101 -37 24 3 31 -2 54 -44 15
-26 24 -48 19 -48 -4 0 -43 21 -87 46 -168 96 -206 109 -233 82 -9 -9 -18 -7
-41 10 -25 18 -31 19 -41 7 -9 -10 -32 -15 -76 -15 -35 0 -64 -4 -64 -9 0 -13
29 -41 41 -41 6 0 7 -4 4 -10 -3 -5 -19 -10 -36 -10 -29 0 -40 -14 -16 -23 44
-16 -67 -34 -250 -41 l-138 -6 55 20 55 20 -50 -5 c-35 -3 -44 -2 -30 4 11 5
30 10 43 10 12 1 22 4 22 9 0 4 -39 7 -87 7 -187 0 -65 42 152 52 66 3 127 9
135 14 12 7 11 8 -5 9 -16 0 -17 2 -5 10 8 5 11 13 6 17 -10 11 -183 7 -309
-7 -62 -7 -103 -8 -109 -2 -27 27 296 56 436 39 l69 -9 -7 24 c-13 43 -11 52
14 64 29 15 45 5 54 -32z m1026 -128 c0 -2 -7 -6 -15 -10 -8 -3 -15 -1 -15 4
0 6 7 10 15 10 8 0 15 -2 15 -4z m-703 -62 c-7 -7 -37 7 -37 17 0 6 9 5 21 -1
11 -7 19 -14 16 -16z m-528 -125 c-49 -11 -222 -28 -231 -22 -5 2 -8 8 -8 13
0 8 56 12 235 17 l40 1 -36 -9z m146 -55 c9 -4 27 -29 40 -56 19 -40 22 -53
13 -68 -15 -23 13 -70 43 -70 29 0 34 25 10 59 -23 32 -26 53 -11 82 12 22 35
26 26 4 -8 -23 39 -71 113 -114 69 -41 186 -151 161 -151 -8 0 -39 18 -67 40
-64 48 -125 80 -153 80 -35 0 -10 -28 91 -105 55 -41 117 -100 152 -143 57
-70 60 -72 78 -56 28 25 44 6 105 -121 71 -149 84 -226 28 -164 -10 12 -18 29
-16 39 7 45 -93 191 -144 211 -13 4 -36 27 -51 50 -16 22 -40 55 -54 72 l-27
31 -36 -19 c-45 -24 -69 -17 -221 70 -129 74 -172 88 -268 83 -49 -2 -71 1
-74 10 -4 9 19 12 90 12 112 0 198 -23 271 -72 106 -72 152 -98 165 -96 52 10
-14 83 -130 143 -149 77 -219 98 -331 99 -99 1 -132 10 -83 22 29 7 211 -1
258 -12 23 -5 27 -3 27 15 0 24 -34 96 -50 106 -30 18 6 33 45 19z m-125 -39
l55 -15 -85 4 c-47 3 -106 1 -132 -3 -36 -6 -48 -5 -48 5 0 24 131 30 210 9z
m596 -260 c-20 -15 -36 -19 -36 -10 0 5 38 23 50 24 3 0 -4 -6 -14 -14z m-521
-47 c83 -32 147 -74 201 -130 70 -73 116 -140 105 -151 -13 -13 -54 20 -126
103 -98 112 -131 131 -280 154 -51 9 -71 16 -73 28 -6 32 84 30 173 -4z
m-3688 -30 c-3 -7 -5 -2 -5 12 0 14 2 19 5 13 2 -7 2 -19 0 -25z m2636 25 c-7
-2 -21 -2 -30 0 -10 3 -4 5 12 5 17 0 24 -2 18 -5z m-2636 -80 c-3 -10 -5 -4
-5 12 0 17 2 24 5 18 2 -7 2 -21 0 -30z m930 15 c-3 -8 -6 -5 -6 6 -1 11 2 17
5 13 3 -3 4 -12 1 -19z m2697 -29 c174 -32 244 -110 301 -335 34 -132 39 -219
25 -439 -14 -235 -33 -380 -60 -468 -14 -44 -19 -79 -15 -101 11 -56 -36 -211
-96 -314 -17 -30 -33 -51 -37 -48 -3 4 5 20 17 37 17 22 21 38 16 60 -8 37
-37 39 -62 4 -10 -14 -26 -36 -36 -48 l-18 -22 6 29 c3 17 19 43 35 60 31 31
46 66 66 156 6 30 12 48 13 39 1 -9 10 -24 20 -33 19 -17 20 -17 30 21 5 21
23 90 39 153 41 156 47 200 31 244 -17 46 -36 46 -56 -1 -23 -53 -28 -22 -14
87 28 223 22 370 -19 455 -21 43 -21 47 -5 71 25 39 48 27 58 -31 8 -47 10
-291 5 -415 -3 -45 1 -61 19 -84 21 -26 23 -27 30 -10 5 11 8 123 8 249 l0
230 -44 115 c-82 217 -115 264 -216 304 -36 14 -76 26 -90 26 -14 0 -25 5 -25
10 0 12 3 12 74 -1z m1451 1 c-3 -5 -11 -10 -16 -10 -6 0 -7 5 -4 10 3 6 11
10 16 10 6 0 7 -4 4 -10z m-4538 -37 c-3 -10 -5 -4 -5 12 0 17 2 24 5 18 2 -7
2 -21 0 -30z m621 2 c-3 -3 -9 2 -12 12 -6 14 -5 15 5 6 7 -7 10 -15 7 -18z
m2952 -24 c0 -23 49 -68 82 -76 33 -8 55 -32 42 -45 -15 -15 -77 7 -107 37
-30 32 -61 99 -51 114 8 14 34 -9 34 -30z m-3095 -241 c4 -19 14 -42 21 -51
13 -15 11 -16 -23 -16 l-38 0 10 166 10 166 6 -115 c3 -63 9 -131 14 -150z
m-804 209 c-5 -13 -10 -19 -10 -12 -1 15 10 45 15 40 3 -2 0 -15 -5 -28z
m2447 -14 c-6 -14 -13 -23 -15 -21 -5 5 15 46 22 46 3 0 -1 -11 -7 -25z
m-1002 5 c227 -18 450 -65 664 -139 65 -22 117 -35 119 -30 2 6 14 22 28 37
l24 27 -19 -30 c-11 -16 -23 -41 -27 -54 -6 -20 -4 -23 10 -17 12 4 16 2 12
-8 -9 -22 5 -28 24 -10 13 12 22 13 37 5 11 -6 22 -7 26 -4 3 3 6 -17 6 -45 0
-29 5 -52 10 -52 6 0 10 -8 10 -17 1 -14 7 -11 29 13 16 17 31 38 34 45 3 11
7 11 18 2 10 -10 10 -20 1 -50 -13 -43 -8 -54 13 -27 14 18 14 17 5 -10 -16
-44 -5 -43 27 2 20 29 35 40 51 39 12 -1 22 -2 22 -3 0 -1 -7 -18 -15 -37 -20
-49 -19 -87 5 -117 26 -33 47 -21 81 48 19 40 28 49 37 40 9 -9 12 -9 12 2 0
7 2 11 5 8 3 -3 -9 -49 -25 -104 -45 -146 -48 -173 -16 -206 46 -51 69 -33 81
62 4 30 14 83 22 117 14 56 17 61 34 52 15 -8 19 -21 19 -64 0 -30 5 -55 10
-55 6 0 10 -7 10 -16 0 -9 6 -14 13 -12 10 4 19 23 33 76 6 21 24 3 24 -24 0
-31 27 -73 54 -84 21 -9 21 -9 -1 -9 -12 -1 -24 3 -28 9 -25 40 -69 -77 -86
-229 -19 -170 25 -406 111 -589 21 -45 36 -81 32 -78 -4 2 -23 37 -42 76 -30
61 -36 68 -40 48 -4 -14 4 -47 22 -85 39 -87 35 -92 -7 -9 -19 38 -32 74 -28
80 3 6 3 8 -2 4 -4 -4 -14 -3 -21 2 -9 8 -18 3 -33 -16 -22 -28 -29 -74 -11
-74 6 0 10 -6 10 -14 0 -8 11 -17 25 -20 14 -4 25 -12 25 -19 0 -8 11 -35 24
-60 13 -26 18 -43 11 -37 -7 6 -19 24 -26 41 -10 25 -14 28 -21 15 -11 -20 22
-87 58 -115 15 -12 22 -21 17 -21 -16 0 -59 53 -89 110 -28 53 -74 104 -130
146 -28 21 -28 23 -38 175 -12 187 -12 227 -1 400 7 122 6 138 -10 162 -10 15
-22 26 -28 24 -37 -12 -58 -258 -38 -457 19 -190 23 -284 12 -300 -5 -8 -12
-12 -16 -9 -3 3 -15 69 -26 145 -15 100 -22 193 -23 329 -1 199 -7 228 -46
238 -16 4 -23 -1 -31 -19 -13 -36 -10 -304 5 -404 8 -57 9 -92 3 -107 -8 -17
-4 -42 16 -100 14 -43 29 -95 33 -116 6 -36 5 -39 -25 -50 -41 -15 -41 -47 0
-112 l31 -49 24 29 c13 17 34 54 46 83 12 28 25 52 30 52 4 0 31 -46 59 -102
28 -56 61 -117 73 -137 24 -38 28 -88 6 -83 -7 1 10 -19 37 -45 27 -26 35 -36
19 -22 -48 40 -79 59 -98 59 -22 0 -23 -28 -2 -58 8 -12 12 -27 8 -34 -4 -6
-3 -8 3 -5 6 4 25 -13 43 -36 l33 -42 -35 33 c-28 27 -37 30 -41 18 -4 -10 6
-25 31 -43 75 -55 65 -55 -16 -1 -23 16 -40 33 -37 39 3 5 0 7 -7 4 -14 -5
-29 16 -153 215 -97 154 -137 240 -164 354 -23 91 -48 152 -76 180 -25 24 -35
10 -35 -47 0 -70 31 -179 85 -297 48 -103 54 -130 30 -130 -8 0 -38 49 -75
123 -33 67 -69 133 -79 147 -18 22 -20 23 -26 7 -11 -26 18 -103 116 -310 92
-195 129 -254 180 -284 16 -9 34 -32 40 -50 13 -39 64 -97 79 -88 5 3 10 16
10 28 0 24 -59 131 -114 206 -31 42 -76 123 -76 136 0 3 7 5 15 5 26 0 143
-162 191 -265 13 -27 24 -64 24 -80 0 -17 7 -42 16 -55 l16 -25 -21 24 c-12
13 -22 37 -22 55 -1 24 -3 19 -10 -18 -4 -27 -12 -53 -18 -59 -7 -7 -5 -20 5
-41 8 -17 9 -22 2 -11 -25 39 -86 95 -104 95 -13 1 -27 17 -41 48 -12 26 -48
81 -79 122 -30 41 -72 107 -91 145 -61 120 -134 218 -150 201 -18 -18 56 -189
114 -266 25 -33 33 -52 29 -70 -6 -32 20 -65 56 -74 16 -3 29 -15 33 -29 12
-36 55 -87 75 -87 10 0 22 -10 26 -22 4 -12 32 -49 63 -82 31 -33 44 -53 30
-44 -25 16 -25 16 -49 -34 -13 -28 -29 -56 -35 -62 -6 -6 -31 -45 -57 -86 -26
-41 -54 -84 -62 -95 -9 -11 -47 -62 -85 -113 -91 -122 -122 -161 -212 -262
-124 -138 -172 -185 -298 -290 -30 -25 -63 -53 -73 -62 -10 -10 -22 -18 -28
-18 -6 0 -10 -4 -10 -8 0 -4 -12 -15 -27 -24 -16 -9 -38 -25 -50 -35 -32 -27
-58 -47 -76 -58 -8 -5 -55 -37 -104 -71 -144 -100 -312 -194 -418 -234 -11 -5
-40 -17 -65 -28 -48 -21 -204 -71 -305 -97 -300 -79 -659 -115 -953 -95 -243
16 -344 31 -612 90 -19 4 -47 12 -62 18 -27 11 -27 11 -23 -21 4 -28 4 -29 -4
-7 -5 14 -18 47 -30 75 -12 27 -21 63 -20 80 4 58 1 67 -22 60 -25 -8 -60 22
-96 82 -14 24 -43 57 -65 75 -23 17 -70 77 -106 132 -77 121 -99 146 -127 146
-16 0 -23 10 -33 46 -21 79 -112 151 -112 89 0 -30 26 -85 40 -85 5 0 14 -9
21 -21 21 -40 -21 -5 -161 135 -75 75 -142 136 -148 136 -43 0 23 -113 159
-273 128 -149 228 -302 291 -442 46 -104 57 -146 18 -72 -36 69 -47 75 -20 11
38 -88 18 -58 -58 91 -89 171 -161 292 -193 321 l-22 19 7 -49 c7 -45 6 -51
-19 -70 l-27 -22 35 -124 c20 -68 34 -126 32 -128 -2 -2 -13 29 -25 69 -17 54
-24 69 -31 57 -6 -10 -3 -29 7 -53 8 -20 14 -39 12 -41 -2 -1 -21 35 -41 82
l-38 85 25 30 c48 57 31 165 -40 259 -50 66 -54 48 -15 -75 41 -126 40 -135
-4 -135 -23 0 -38 -6 -42 -16 -5 -14 4 -66 21 -119 3 -11 -3 -2 -14 20 -11 22
-20 50 -20 63 0 13 -4 20 -10 17 -6 -3 -10 -1 -10 6 0 7 -2 10 -5 7 -3 -3 2
-24 10 -48 32 -92 12 -59 -29 46 -55 143 -110 231 -235 373 -56 62 -101 122
-101 131 0 20 57 80 76 80 7 0 16 -9 19 -20 4 -11 17 -28 31 -36 60 -40 78 39
21 93 -50 48 -148 93 -203 93 -34 0 -61 9 -100 31 -30 17 -54 33 -54 35 0 3
24 -8 54 -25 63 -36 76 -38 76 -11 0 57 74 27 216 -88 146 -117 171 -150 98
-122 -38 15 -48 1 -35 -46 6 -21 9 -39 7 -41 -2 -2 -27 12 -56 32 -57 38 -73
38 -64 -3 16 -68 142 -214 197 -227 17 -5 24 -12 20 -21 -20 -53 37 -168 81
-162 33 5 26 80 -14 136 -22 32 -28 48 -21 55 15 15 14 83 -4 150 -8 32 -15
71 -15 87 0 16 -5 41 -11 57 -15 40 -171 189 -259 248 -71 48 -79 50 -152 54
-81 3 -91 10 -61 43 37 41 131 11 258 -84 39 -29 160 -143 270 -254 194 -195
238 -233 249 -215 9 14 -12 71 -41 115 -24 37 -18 34 56 -33 86 -77 183 -188
290 -331 75 -100 150 -180 168 -180 8 0 13 12 13 28 0 18 -29 66 -87 147 -85
118 -133 193 -133 208 0 4 8 7 18 7 21 0 60 -40 122 -125 55 -75 159 -185 176
-185 8 0 10 9 4 33 -8 40 -23 64 -111 182 -64 86 -86 112 -142 162 -13 12 -38
48 -55 81 -39 73 -55 88 -72 67 -15 -18 -7 -67 20 -118 11 -20 20 -42 20 -48
0 -20 -64 28 -172 129 -124 118 -158 137 -219 123 -50 -11 -66 -6 -75 22 -4
12 -46 63 -93 112 -48 50 -95 101 -106 115 l-20 24 30 -19 c17 -10 62 -47 102
-81 97 -85 139 -106 197 -98 44 6 47 5 88 -38 24 -24 69 -74 102 -111 61 -71
83 -80 78 -31 -5 48 -66 125 -210 266 -224 219 -394 353 -524 412 -176 82
-515 168 -586 149 -29 -7 -26 -50 6 -71 13 -8 74 -21 142 -29 189 -21 323 -67
443 -149 27 -19 57 -34 66 -34 9 0 34 -12 56 -27 91 -61 311 -251 301 -260 -6
-7 -72 40 -206 147 -66 52 -147 106 -190 127 -41 19 -84 43 -95 54 -11 10 -40
27 -65 38 -54 24 -200 54 -232 49 l-23 -5 25 -11 c21 -9 22 -11 6 -11 -30 -1
-17 -9 121 -70 163 -73 338 -171 305 -171 -7 0 -29 11 -50 24 -68 45 -402 166
-500 182 -42 7 -57 -4 -57 -41 0 -14 -9 -21 -35 -27 -41 -8 -110 7 -110 25 0
32 -28 50 -91 58 l-64 7 67 -1 c75 -2 99 8 44 19 -21 3 -35 8 -32 11 2 2 57
-5 121 -17 126 -23 136 -21 127 26 -7 39 -37 47 -179 49 -73 1 -136 4 -139 8
-3 3 23 5 58 5 91 -2 110 6 106 45 -3 29 -6 32 -43 35 -22 2 -56 -1 -76 -7
-21 -6 -46 -8 -59 -3 -17 6 -3 11 60 21 111 18 296 19 403 2 86 -14 88 -14
115 7 56 45 64 46 158 19 49 -14 92 -23 96 -21 28 17 -13 115 -61 149 -79 54
-195 81 -260 60 -16 -5 -21 -2 -21 13 0 22 -18 32 -60 32 -68 0 -82 -40 -28
-85 l31 -26 -155 7 c-177 8 -205 4 -218 -31 -11 -28 -31 -31 -75 -10 l-30 14
28 -6 c22 -4 26 -2 21 11 -7 19 -6 19 -39 6 -16 -6 -24 -6 -20 0 12 20 94 33
220 34 160 2 191 16 181 80 -6 38 -27 40 -154 17 -67 -11 -138 -21 -158 -21
-31 0 -35 2 -24 15 7 8 24 15 38 15 29 0 62 26 62 48 0 11 7 13 27 8 16 -4
114 -20 218 -36 105 -16 242 -42 305 -59 262 -68 534 -183 719 -304 54 -36
108 -68 120 -72 36 -11 68 3 90 39 28 45 26 83 -5 129 -27 41 -137 127 -161
127 -8 0 -13 6 -10 13 2 7 21 12 43 12 33 0 39 3 42 23 2 15 -5 34 -20 49 -42
44 -248 150 -326 167 -29 7 -32 5 -29 -13 5 -31 32 -55 95 -85 79 -39 162 -89
162 -99 0 -14 -71 4 -152 39 -43 18 -97 38 -120 45 -25 6 -54 23 -68 40 -22
24 -41 32 -145 53 -66 14 -173 36 -239 50 -144 30 -313 52 -324 41 -4 -4 -1
-10 7 -13 10 -3 11 -6 1 -12 -21 -13 12 -25 191 -69 91 -23 215 -57 275 -77
357 -118 794 -328 757 -365 -16 -16 -89 17 -241 109 -81 49 -179 105 -218 125
-254 128 -1107 275 -1228 212 -25 -14 -27 -14 -16 0 7 8 20 15 29 16 12 0 11
2 -4 9 -17 6 -14 9 18 15 53 10 171 12 232 3 60 -9 75 -2 68 34 -7 35 -21 40
-138 48 l-100 7 131 1 c260 4 560 -34 828 -103 76 -19 141 -33 145 -30 15 9
-1 55 -27 75 -13 11 -38 20 -53 20 -33 0 -39 16 -9 25 28 9 70 -2 147 -37 81
-36 127 -35 131 3 4 32 -10 43 -75 57 -28 6 -98 32 -155 58 -188 85 -405 145
-583 162 l-80 8 60 13 c102 23 222 -3 493 -108 140 -53 233 -81 275 -81 20 0
25 5 25 26 0 23 -14 32 -123 84 -144 70 -247 105 -485 164 -195 49 -327 73
-338 61 -4 -4 -1 -10 6 -12 6 -3 9 -10 6 -15 -4 -6 1 -17 11 -24 17 -13 17
-14 0 -20 -14 -6 -28 4 -58 39 -26 32 -47 47 -63 47 -22 0 -24 -4 -24 -45 0
-51 -15 -64 -59 -49 -20 7 -27 17 -29 42 -4 38 -28 48 -102 39 -56 -7 -102
-28 -145 -66 -19 -17 -25 -19 -15 -6 8 11 23 28 35 38 20 18 20 18 -5 6 -14
-6 -36 -21 -50 -33 -14 -11 -6 0 17 24 32 34 41 50 37 68 -5 16 -14 22 -35 22
-15 0 -30 4 -33 8 -2 4 11 6 31 4 25 -3 34 -1 29 7 -4 7 -17 9 -29 6 -12 -3 7
9 43 27 60 31 65 35 62 63 -2 27 -41 75 -61 75 -4 0 -22 -13 -39 -30 -18 -16
-36 -30 -42 -30 -6 0 3 12 20 28 l30 27 3 155 3 155 -30 33 c-20 22 6 7 70
-41 125 -93 284 -192 423 -263 l106 -54 -80 6 c-44 3 -131 15 -193 25 -157 26
-180 25 -188 -6 -9 -35 4 -111 21 -125 10 -9 37 -9 107 0 155 18 507 28 552
15 33 -10 -7 -13 -245 -18 -313 -7 -486 -25 -431 -44 9 -4 10 -8 2 -18 -16
-20 38 -25 240 -23 136 2 185 -2 220 -14 31 -10 67 -14 113 -10 67 4 70 3 97
-26 22 -25 38 -31 86 -37 88 -10 130 -22 226 -66 59 -27 98 -39 120 -37 31 3
33 5 32 39 -1 49 -30 89 -63 89 -28 0 -164 25 -223 41 -38 10 -47 22 -28 34 6
4 9 14 8 23 -2 11 2 16 12 13 8 -2 38 -10 65 -18 58 -16 158 -36 265 -54 44
-8 159 -12 280 -12 168 0 226 4 320 22 63 12 129 21 145 20 17 -1 42 -2 57 -2
15 0 29 -6 32 -12 5 -15 92 -49 149 -59 32 -6 37 -4 37 12 0 10 -8 26 -18 35
-27 25 -108 50 -143 45 -47 -7 -28 13 34 36 32 12 55 25 51 28 -7 8 29 -3 91
-26 86 -32 175 -15 175 34 0 23 22 31 60 23 39 -7 38 -16 -5 -36 -58 -28 -42
-37 65 -37 67 0 103 -4 110 -12 5 -7 19 -25 30 -39 42 -56 110 -37 150 42 32
62 23 94 -29 104 -12 2 -26 7 -32 10 -7 5 -8 -4 -4 -27 5 -26 2 -38 -14 -52
-20 -18 -21 -18 -58 14 -62 55 -224 118 -346 136 -26 3 -46 9 -43 11 3 3 35 0
72 -6 47 -9 70 -9 77 -2 8 8 5 11 -10 11 -23 0 -73 36 -73 53 0 6 7 2 15 -10
20 -28 85 -46 139 -38 123 19 316 89 297 108 -5 5 -55 13 -111 17 -56 4 -104
11 -108 15 -4 4 9 5 29 1 36 -6 89 9 89 25 0 5 -6 14 -13 21 -8 7 -12 20 -10
29 4 12 -4 19 -26 24 -17 3 -33 11 -36 15 -3 5 11 3 32 -4 29 -10 39 -20 45
-44 9 -33 22 -41 32 -19 5 10 7 10 12 0 9 -20 24 -15 24 7 0 22 39 44 54 30
10 -10 61 7 101 33 20 14 13 3 -22 -34 -29 -30 -53 -57 -53 -61 0 -16 81 -17
115 -1 30 14 38 15 44 4 5 -8 14 -10 21 -6 7 4 16 2 21 -6 17 -28 118 68 197
187 7 10 1 -5 -14 -34 -14 -30 -43 -73 -65 -97 -21 -23 -39 -47 -39 -52 0 -14
31 -40 53 -44 14 -3 7 -14 -34 -54 -48 -46 -50 -47 -21 -10 35 44 42 71 15 61
-9 -4 -20 -1 -24 5 -5 9 -17 6 -44 -9 -20 -12 -33 -17 -30 -12 9 15 -13 40
-30 34 -7 -3 -16 -1 -19 5 -8 13 -38 0 -134 -57 -41 -25 -79 -55 -85 -69 -9
-20 -7 -28 15 -49 14 -14 49 -34 77 -43 l51 -17 -30 -40 -30 -41 38 -7 c30 -5
50 0 107 29 77 39 223 140 300 208 49 43 49 44 40 83 -8 29 -16 40 -32 42 -27
4 -29 19 -7 50 9 13 24 46 35 75 l18 52 1 -55 c0 -31 9 -73 19 -96 16 -36 23
-41 55 -42 28 -1 39 4 52 24 16 24 16 26 -14 57 -36 37 -35 45 11 147 50 112
73 285 37 285 -8 0 -19 6 -23 13 -7 11 -13 10 -29 -5 -21 -18 -21 -18 -14 12
4 16 8 30 9 30 1 0 16 10 34 22 19 14 34 19 38 13 18 -29 35 0 46 80 6 45 7
38 4 -35 -1 -49 -13 -136 -25 -193 -17 -83 -19 -106 -9 -118 7 -8 18 -13 24
-10 7 2 17 0 23 -6 8 -8 16 -7 28 3 16 13 17 12 10 -6 -5 -11 -10 -27 -13 -36
-5 -17 -49 -23 -59 -8 -8 13 -41 -8 -60 -36 -13 -21 -14 -28 -4 -41 7 -8 19
-13 26 -10 7 3 16 1 19 -4 3 -5 12 -7 20 -4 9 4 1 -25 -24 -83 -21 -48 -37
-91 -34 -95 2 -4 17 7 34 25 l30 32 -16 -32 c-20 -43 -10 -42 37 4 55 54 47
21 -16 -61 -73 -97 -82 -114 -59 -123 9 -4 32 -7 50 -7 18 -1 33 -4 33 -7 0
-4 -22 -35 -50 -70 -27 -35 -50 -68 -50 -72 0 -5 19 6 42 25 l43 33 -23 -32
c-13 -18 -20 -33 -17 -33 21 0 199 153 320 274 130 131 205 223 205 252 0 6
-17 15 -37 19 -42 8 -54 -2 -103 -85 -14 -23 -34 -47 -45 -52 -19 -11 -19 -11
-1 18 10 16 34 50 52 76 56 80 73 119 98 231 6 27 7 27 85 27 93 0 116 15 81
50 -26 26 -40 103 -40 217 l0 81 73 6 c39 3 88 8 107 9 71 7 100 7 226 -3z
m2054 -43 c51 -25 90 -88 90 -144 0 -44 -12 -42 -52 8 -69 87 -110 127 -138
139 -17 7 -30 18 -30 25 0 17 68 2 130 -28z m-2831 -21 c-2 -2 -13 8 -23 22
l-19 27 24 -22 c12 -12 21 -24 18 -27z m272 3 c-6 -18 -11 -46 -11 -63 -1 -31
-1 -31 -16 9 -29 76 -29 83 2 87 38 5 38 4 25 -33z m-348 -29 c-3 -12 -8 -19
-11 -16 -5 6 5 36 12 36 2 0 2 -9 -1 -20z m-426 -12 c-3 -8 -6 -5 -6 6 -1 11
2 17 5 13 3 -3 4 -12 1 -19z m195 -45 c2 -23 0 -39 -3 -35 -10 9 -12 29 -9 72
3 40 7 25 12 -37z m315 35 c-3 -7 -5 -2 -5 12 0 14 2 19 5 13 2 -7 2 -19 0
-25z m-846 -25 c-12 -20 -14 -14 -5 12 4 9 9 14 11 11 3 -2 0 -13 -6 -23z
m164 7 c-3 -5 -12 -7 -20 -3 -21 7 -19 13 6 13 11 0 18 -4 14 -10z m159 -71
c-4 -41 -9 -68 -12 -61 -5 16 8 145 14 139 2 -2 1 -37 -2 -78z m419 -31 c-7
-62 -19 -133 -28 -158 l-14 -45 4 40 c9 91 39 275 45 275 3 0 0 -51 -7 -112z
m1724 90 c-3 -8 -6 -5 -6 6 -1 11 2 17 5 13 3 -3 4 -12 1 -19z m123 -10 c10
-22 10 -22 -4 -4 -20 25 -43 14 -55 -26 -6 -21 -10 -26 -10 -13 -1 26 26 65
44 65 8 0 19 -10 25 -22z m-3013 6 c-3 -3 -12 -4 -19 -1 -8 3 -5 6 6 6 11 1
17 -2 13 -5z m548 -14 c-10 -11 -21 -18 -23 -15 -3 3 3 12 14 20 27 20 30 18
9 -5z m2544 -19 c-6 -18 -13 -30 -15 -28 -2 2 1 18 7 36 6 18 13 30 15 28 2
-2 -1 -18 -7 -36z m973 -10 c52 -49 62 -77 16 -47 -14 9 -27 14 -30 11 -2 -3
1 -49 8 -102 16 -132 25 -283 15 -258 -5 11 -11 49 -15 85 -7 69 -52 319 -62
345 -11 28 14 15 68 -34z m363 -52 c29 -92 31 -135 10 -166 -13 -18 -13 -26
-3 -43 7 -11 20 -20 28 -20 13 -1 13 -2 0 -9 -8 -5 -25 -12 -37 -15 -21 -7
-23 -4 -23 25 0 17 -7 89 -16 160 -23 183 -5 213 41 68z m-4025 62 c-5 -11
-15 -23 -21 -27 -6 -3 -3 5 6 20 20 30 30 35 15 7z m2507 -3 c-3 -8 -6 -5 -6
6 -1 11 2 17 5 13 3 -3 4 -12 1 -19z m363 18 c0 -2 -8 -10 -17 -17 -16 -13
-17 -12 -4 4 13 16 21 21 21 13z m-2003 -73 c-3 -10 -5 -2 -5 17 0 19 2 27 5
18 2 -10 2 -26 0 -35z m1973 33 c0 -2 -8 -10 -17 -17 -16 -13 -17 -12 -4 4 13
16 21 21 21 13z m-2870 -20 c0 -2 -8 -10 -17 -17 -16 -13 -17 -12 -4 4 13 16
21 21 21 13z m237 -18 c-3 -8 -6 -5 -6 6 -1 11 2 17 5 13 3 -3 4 -12 1 -19z
m2453 -15 c-11 -17 -11 -17 -6 0 3 10 6 24 7 30 0 9 2 9 5 0 3 -7 0 -20 -6
-30z m-2875 7 c10 -11 15 -23 12 -27 -4 -3 -7 -2 -7 4 0 6 -10 9 -22 7 -21 -4
-21 -3 -3 4 19 9 19 9 0 20 -11 6 -15 12 -9 12 6 0 19 -9 29 -20z m2852 -2
c-3 -8 -6 -5 -6 6 -1 11 2 17 5 13 3 -3 4 -12 1 -19z m-2480 6 c-3 -3 -12 -4
-19 -1 -8 3 -5 6 6 6 11 1 17 -2 13 -5z m-424 -11 c-7 -2 -19 -2 -25 0 -7 3
-2 5 12 5 14 0 19 -2 13 -5z m187 3 c0 -2 -8 -10 -17 -17 -16 -13 -17 -12 -4
4 13 16 21 21 21 13z m-353 -12 c-3 -3 -12 -4 -19 -1 -8 3 -5 6 6 6 11 1 17
-2 13 -5z m112 2 c-15 -13 -49 -25 -49 -17 0 5 8 12 18 14 24 6 36 8 31 3z
m261 1 c0 -1 -26 -27 -57 -57 l-58 -55 55 58 c50 53 60 62 60 54z m266 -74 c0
-1 -12 5 -26 14 -14 8 -17 12 -7 9 14 -4 17 1 18 27 1 31 2 30 9 -8 4 -22 7
-41 6 -42z m651 20 c-3 -10 -5 -2 -5 17 0 19 2 27 5 18 2 -10 2 -26 0 -35z
m1923 27 c-6 -11 -13 -20 -16 -20 -2 0 0 9 6 20 6 11 13 20 16 20 2 0 0 -9 -6
-20z m-2693 4 c-3 -3 -12 -4 -19 -1 -8 3 -5 6 6 6 11 1 17 -2 13 -5z m290 0
c-3 -3 -12 -4 -19 -1 -8 3 -5 6 6 6 11 1 17 -2 13 -5z m-760 -10 c-3 -3 -12
-4 -19 -1 -8 3 -5 6 6 6 11 1 17 -2 13 -5z m263 3 c0 -2 -10 -12 -22 -23 l-23
-19 19 23 c18 21 26 27 26 19z m247 -3 c-3 -3 -12 -4 -19 -1 -8 3 -5 6 6 6 11
1 17 -2 13 -5z m-569 -11 c-10 -2 -26 -2 -35 0 -10 3 -2 5 17 5 19 0 27 -2 18
-5z m732 -123 c-17 -43 -37 -83 -44 -89 -8 -7 -38 -10 -67 -9 -53 3 -54 3 -66
-32 -6 -19 -12 -27 -12 -17 -1 14 -6 17 -21 12 -11 -4 -20 -2 -20 4 0 31 -76
-12 -160 -92 l-50 -48 -10 27 c-6 15 -13 31 -16 35 -3 5 -3 9 0 9 3 0 11 -11
18 -24 l13 -24 28 24 c28 24 28 24 5 25 -21 1 -21 1 4 9 15 4 47 24 71 44 52
43 112 69 137 61 20 -6 80 19 80 34 0 9 31 8 47 -2 15 -9 35 22 53 81 7 23 17
42 22 42 5 0 6 12 3 28 -5 25 -5 26 5 4 8 -18 3 -40 -20 -102z m108 63 c-15
-95 -27 -127 -21 -54 5 51 3 63 -8 59 -7 -2 -16 -15 -20 -29 -7 -23 -7 -22 -8
6 -1 21 7 36 27 52 15 12 30 22 33 23 3 0 2 -26 -3 -57z m600 23 c13 -16 21
-56 12 -56 -5 0 -11 6 -14 13 -4 6 -4 1 -2 -13 5 -25 5 -25 -19 5 -31 38 -34
75 -5 68 10 -3 23 -10 28 -17z m-163 -78 c-21 -89 -73 -236 -86 -244 -14 -8 0
41 32 111 15 33 35 95 45 137 10 43 20 75 22 73 3 -2 -3 -37 -13 -77z m-1398
66 c-3 -3 -12 -4 -19 -1 -8 3 -5 6 6 6 11 1 17 -2 13 -5z m46 -11 c-7 -2 -19
-2 -25 0 -7 3 -2 5 12 5 14 0 19 -2 13 -5z m165 -10 c-21 -2 -55 -2 -75 0 -21
2 -4 4 37 4 41 0 58 -2 38 -4z m482 -2 c0 -5 -9 -19 -20 -32 l-20 -24 16 33
c15 32 24 40 24 23z m-149 -19 c-23 -43 -129 -122 -163 -122 -7 0 5 9 27 19
22 10 49 26 60 36 l20 17 -20 -6 c-17 -5 -16 -3 5 13 14 11 26 18 29 16 2 -3
12 7 23 20 23 29 33 33 19 7z m-504 2 c-3 -3 -12 -4 -19 -1 -8 3 -5 6 6 6 11
1 17 -2 13 -5z m303 -4 c-8 -5 -22 -9 -30 -9 -10 0 -8 3 5 9 27 12 43 12 25 0z
m1180 -45 c0 -39 -28 -98 -84 -181 -60 -87 -66 -111 -35 -135 20 -16 22 -20 9
-29 -10 -6 -16 -6 -19 3 -2 7 -21 33 -42 58 l-38 46 31 29 c25 23 30 25 24 9
-5 -11 -10 -27 -13 -35 -3 -8 17 7 45 34 62 60 90 116 99 197 6 61 23 64 23 4z
m-1407 38 c-7 -2 -21 -2 -30 0 -10 3 -4 5 12 5 17 0 24 -2 18 -5z m155 -10
c-15 -2 -42 -2 -60 0 -18 2 -6 4 27 4 33 0 48 -2 33 -4z m777 -61 c-3 -27 -18
-67 -31 -88 -14 -21 -22 -30 -18 -19 4 11 17 52 28 92 12 39 23 70 25 68 1 -2
0 -26 -4 -53z m3276 -157 c-11 -133 -29 -235 -56 -315 l-15 -45 5 50 c2 28 14
84 26 125 17 59 23 110 27 240 4 138 7 158 15 120 6 -30 6 -89 -2 -175z
m-4621 170 c13 -14 21 -25 18 -25 -2 0 -15 11 -28 25 -13 14 -21 25 -18 25 2
0 15 -11 28 -25z m720 -10 c-14 -8 -32 -14 -40 -14 -8 0 -1 6 15 14 40 18 57
18 25 0z m-423 -11 c-3 -3 -12 -4 -19 -1 -8 3 -5 6 6 6 11 1 17 -2 13 -5z m40
-10 c-3 -3 -12 -4 -19 -1 -8 3 -5 6 6 6 11 1 17 -2 13 -5z m56 -11 c-7 -2 -21
-2 -30 0 -10 3 -4 5 12 5 17 0 24 -2 18 -5z m220 0 c-7 -2 -19 -2 -25 0 -7 3
-2 5 12 5 14 0 19 -2 13 -5z m-380 -10 c-13 -2 -33 -2 -45 0 -13 2 -3 4 22 4
25 0 35 -2 23 -4z m280 0 c-13 -2 -35 -2 -50 0 -16 2 -5 4 22 4 28 0 40 -2 28
-4z m-213 -13 c18 -12 2 -12 -25 0 -13 6 -15 9 -5 9 8 0 22 -4 30 -9z m335 0
c-16 -4 -39 -8 -50 -8 -16 0 -15 2 5 8 14 4 36 8 50 8 22 0 22 -1 -5 -8z
m-1110 -20 c10 -11 16 -20 13 -20 -3 0 -13 9 -23 20 -10 11 -16 20 -13 20 3 0
13 -9 23 -20z m920 0 c3 -6 -1 -7 -9 -4 -18 7 -21 14 -7 14 6 0 13 -4 16 -10z
m102 -20 c-7 -17 -13 -26 -15 -21 -3 10 15 51 22 51 3 0 -1 -14 -7 -30z m4403
-48 c0 -81 -9 -142 -21 -142 -5 0 -9 15 -9 33 0 18 -7 60 -16 92 -15 59 -15
60 7 77 11 10 25 15 30 12 5 -3 9 -35 9 -72z m-4815 49 c-3 -6 -14 -10 -23
-10 -15 1 -15 2 1 6 9 2 17 9 17 15 0 6 3 9 6 5 3 -3 3 -10 -1 -16z m287 -54
c8 -3 9 -6 1 -6 -13 -1 -53 46 -53 63 0 6 9 -3 19 -20 11 -18 25 -34 33 -37z
m274 6 c-6 -6 -36 9 -36 18 0 5 9 4 20 -3 10 -7 18 -14 16 -15z m-157 -33 c0
-10 -3 -8 -9 5 -12 27 -12 43 0 25 5 -8 9 -22 9 -30z m-404 -10 c3 -5 -10 -1
-29 11 -20 12 -36 23 -36 25 0 7 58 -25 65 -36z m3922 18 c-3 -8 -6 -5 -6 6
-1 11 2 17 5 13 3 -3 4 -12 1 -19z m-3590 6 c-3 -3 -12 -4 -19 -1 -8 3 -5 6 6
6 11 1 17 -2 13 -5z m-124 -11 c-13 -2 -33 -2 -45 0 -13 2 -3 4 22 4 25 0 35
-2 23 -4z m3624 -25 c-3 -7 -5 -2 -5 12 0 14 2 19 5 13 2 -7 2 -19 0 -25z
m-3524 15 c-13 -2 -33 -2 -45 0 -13 2 -3 4 22 4 25 0 35 -2 23 -4z m-386 -9
c-3 -3 -12 -4 -19 -1 -8 3 -5 6 6 6 11 1 17 -2 13 -5z m440 0 c-3 -3 -12 -4
-19 -1 -8 3 -5 6 6 6 11 1 17 -2 13 -5z m3570 -41 c-3 -10 -5 -2 -5 17 0 19 2
27 5 18 2 -10 2 -26 0 -35z m-67 -83 c5 0 17 -15 25 -32 14 -29 14 -31 0 -14
-8 11 -15 23 -15 28 0 4 -7 8 -16 8 -15 0 -16 -12 -11 -112 5 -95 18 -170 53
-303 4 -15 3 -17 -4 -5 -6 8 -16 42 -23 75 -11 50 -14 56 -20 35 -5 -18 -7 -9
-8 30 -1 30 -6 84 -13 120 -6 36 -11 79 -11 95 0 17 -2 24 -4 17 -3 -6 -9 -10
-14 -6 -5 3 2 19 16 36 20 24 25 42 27 91 l2 62 3 -62 c2 -35 8 -63 13 -63z
m-3480 64 c0 -2 -19 -4 -42 -3 -31 0 -37 3 -24 8 18 7 66 3 66 -5z m-180 -16
c9 -20 9 -21 -2 -7 -7 9 -20 18 -28 22 -12 4 -12 6 2 6 10 1 22 -9 28 -21z
m4875 12 c-3 -5 -11 -10 -16 -10 -6 0 -7 5 -4 10 3 6 11 10 16 10 6 0 7 -4 4
-10z m-4630 -10 c25 -11 -1 -11 -35 0 -20 6 -21 8 -5 8 11 0 29 -3 40 -8z
m-730 -30 c10 -11 16 -20 13 -20 -3 0 -13 9 -23 20 -10 11 -16 20 -13 20 3 0
13 -9 23 -20z m5339 -122 c-40 -248 -97 -444 -145 -500 -17 -20 -16 -13 7 47
64 169 104 346 104 463 0 68 21 132 43 132 11 0 10 -25 -9 -142z m-5569 112
c10 -11 16 -20 13 -20 -3 0 -13 9 -23 20 -10 11 -16 20 -13 20 3 0 13 -9 23
-20z m785 -3 c13 -5 13 -6 -1 -6 -8 -1 -24 6 -35 15 -19 15 -19 15 1 6 11 -5
27 -12 35 -15z m-253 -3 c-3 -3 -12 -4 -19 -1 -8 3 -5 6 6 6 11 1 17 -2 13 -5z
m40 -10 c-3 -3 -12 -4 -19 -1 -8 3 -5 6 6 6 11 1 17 -2 13 -5z m312 -10 c9 -8
-45 -2 -64 6 -14 7 -8 8 20 3 22 -3 42 -7 44 -9z m-426 -1 c-7 -2 -19 -2 -25
0 -7 3 -2 5 12 5 14 0 19 -2 13 -5z m194 1 c-3 -3 -12 -4 -19 -1 -8 3 -5 6 6
6 11 1 17 -2 13 -5z m-150 -10 c-3 -3 -12 -4 -19 -1 -8 3 -5 6 6 6 11 1 17 -2
13 -5z m3950 -41 c-3 -10 -5 -2 -5 17 0 19 2 27 5 18 2 -10 2 -26 0 -35z
m-3897 27 c18 -12 2 -12 -25 0 -13 6 -15 9 -5 9 8 0 22 -4 30 -9z m343 -7
c-18 -2 -48 -2 -65 0 -18 2 -4 4 32 4 36 0 50 -2 33 -4z m1125 -38 c-13 -37
-51 -64 -63 -45 -6 9 64 94 72 87 2 -2 -2 -21 -9 -42z m-1513 -43 c-5 -6 -124
49 -134 62 -5 6 24 -5 64 -24 40 -19 71 -37 70 -38z m273 71 c-10 -2 -26 -2
-35 0 -10 3 -2 5 17 5 19 0 27 -2 18 -5z m-61 -9 c-3 -3 -12 -4 -19 -1 -8 3
-5 6 6 6 11 1 17 -2 13 -5z m-86 -21 c13 -16 12 -17 -3 -4 -10 7 -18 15 -18
17 0 8 8 3 21 -13z m3826 -45 c-3 -7 -5 -2 -5 12 0 14 2 19 5 13 2 -7 2 -19 0
-25z m-4207 -4 c0 -2 -9 0 -20 6 -11 6 -20 13 -20 16 0 2 9 0 20 -6 11 -6 20
-13 20 -16z m1035 1 c-47 -40 -125 -78 -125 -62 0 22 31 44 90 65 30 11 57 20
60 21 3 0 -8 -10 -25 -24z m-1254 -12 c13 -16 12 -17 -3 -4 -10 7 -18 15 -18
17 0 8 8 3 21 -13z m400 -1 c-7 -2 -18 1 -23 6 -8 8 -4 9 13 5 13 -4 18 -8 10
-11z m149 8 c20 -6 21 -8 5 -8 -11 0 -31 4 -45 8 -20 6 -21 8 -5 8 11 0 31 -4
45 -8z m-260 -36 c0 -2 -9 0 -20 6 -11 6 -20 13 -20 16 0 2 9 0 20 -6 11 -6
20 -13 20 -16z m173 19 c-7 -2 -21 -2 -30 0 -10 3 -4 5 12 5 17 0 24 -2 18 -5z
m75 -10 c-10 -2 -28 -2 -40 0 -13 2 -5 4 17 4 22 1 32 -1 23 -4z m-2471 -9
c-3 -3 -12 -4 -19 -1 -8 3 -5 6 6 6 11 1 17 -2 13 -5z m1994 -21 c13 -16 12
-17 -3 -4 -10 7 -18 15 -18 17 0 8 8 3 21 -13z m290 -20 c13 -16 12 -17 -3 -4
-10 7 -18 15 -18 17 0 8 8 3 21 -13z m-440 -10 c13 -16 12 -17 -3 -4 -10 7
-18 15 -18 17 0 8 8 3 21 -13z m235 -21 c-5 -4 -66 26 -66 33 0 3 16 -3 35
-12 19 -9 33 -18 31 -21z m254 -7 c13 -14 21 -25 18 -25 -2 0 -15 11 -28 25
-13 14 -21 25 -18 25 2 0 15 -11 28 -25z m163 0 c34 -23 48 -45 30 -45 -12 1
-40 24 -41 35 -1 6 -6 10 -11 10 -6 0 -16 6 -22 13 -22 21 5 13 44 -13z m4418
-83 c-11 -48 -22 -98 -24 -112 -3 -14 -5 0 -6 30 -1 51 20 157 36 183 16 26
14 -20 -6 -101z m-5006 70 c-3 -3 -11 0 -18 7 -9 10 -8 11 6 5 10 -3 15 -9 12
-12z m212 12 c-3 -3 -12 -4 -19 -1 -8 3 -5 6 6 6 11 1 17 -2 13 -5z m-2087
-14 c-8 -5 -19 -10 -25 -10 -5 0 -3 5 5 10 8 5 20 10 25 10 6 0 3 -5 -5 -10z
m2137 4 c-3 -3 -12 -4 -19 -1 -8 3 -5 6 6 6 11 1 17 -2 13 -5z m158 -14 c10
-11 16 -20 13 -20 -3 0 -13 9 -23 20 -10 11 -16 20 -13 20 3 0 13 -9 23 -20z
m-82 -49 c-2 -3 -18 10 -36 29 l-32 34 36 -30 c20 -16 34 -31 32 -33z m44 -7
c-3 -3 -12 -4 -19 -1 -8 3 -5 6 6 6 11 1 17 -2 13 -5z m-192 -34 c10 -11 16
-20 13 -20 -3 0 -13 9 -23 20 -10 11 -16 20 -13 20 3 0 13 -9 23 -20z m4178
-50 c3 -41 2 -54 -3 -35 -8 31 -13 112 -6 104 2 -2 6 -33 9 -69z m556 48 c0
-13 -4 -32 -9 -43 -7 -15 -9 -10 -9 23 -1 23 4 42 9 42 6 0 10 -10 9 -22z
m-6772 -24 c-3 -3 -12 -4 -19 -1 -8 3 -5 6 6 6 11 1 17 -2 13 -5z m6230 -116
c-3 -8 -6 -5 -6 6 -1 11 2 17 5 13 3 -3 4 -12 1 -19z m-6167 -32 c0 -3 -4 -8
-10 -11 -5 -3 -10 -1 -10 4 0 6 5 11 10 11 6 0 10 -2 10 -4z m54 -48 c-10 -16
39 -28 118 -29 72 -1 78 -2 43 -10 -22 -4 -81 -6 -131 -2 -89 5 -90 5 -107
-21 -10 -14 -21 -26 -26 -26 -5 0 3 14 17 30 15 17 32 30 39 30 7 0 13 6 13
14 0 8 6 17 13 19 6 3 -1 6 -18 7 l-30 2 30 7 c29 7 49 -4 39 -21z m7251 -178
c23 -24 25 -31 16 -49 -9 -15 -21 -21 -46 -21 -29 0 -40 -7 -74 -50 -84 -106
-170 -297 -155 -343 6 -18 4 -20 -8 -10 -8 7 -24 16 -35 20 -21 8 -18 14 53
143 77 140 86 162 57 139 -15 -12 -16 -12 -9 6 17 44 17 49 -2 28 -39 -45 -37
-38 58 192 7 16 9 12 15 -22 4 -24 11 -43 16 -43 4 0 9 -7 11 -16 2 -9 17 20
33 64 l30 82 7 -46 c4 -30 16 -56 33 -74z m-6393 17 c173 -43 209 -62 176 -95
-18 -18 -45 -15 -76 8 -61 45 -298 74 -707 87 -132 4 -233 8 -225 10 59 13
264 21 475 19 233 -2 257 -4 357 -29z m5886 -28 c-12 -22 -29 -45 -37 -52 -7
-6 1 12 19 41 37 61 51 70 18 11z m-745 -154 c30 -38 57 -77 61 -85 4 -8 -3
-2 -16 15 -32 41 -71 83 -63 68 3 -7 1 -21 -4 -32 -9 -15 -7 -20 8 -24 11 -2
25 -15 31 -28 l12 -24 -21 23 c-12 12 -28 22 -35 22 -17 0 -52 81 -60 140 l-7
45 21 -25 c11 -14 44 -56 73 -95z m-5944 81 c-2 -2 -44 -6 -94 -9 -53 -3 -73
-2 -50 3 42 8 151 13 144 6z m7183 -69 c-7 -8 -19 -47 -28 -87 -13 -55 -25
-82 -50 -110 -19 -21 -41 -54 -49 -74 -19 -45 -29 -47 -21 -3 3 17 6 58 7 90
l2 57 23 -21 c12 -11 30 -19 41 -17 15 3 18 13 18 65 0 55 3 65 29 92 28 30
51 36 28 8z m-7169 -124 c-7 -2 -19 -2 -25 0 -7 3 -2 5 12 5 14 0 19 -2 13 -5z
m6004 -25 c-3 -7 -5 -2 -5 12 0 14 2 19 5 13 2 -7 2 -19 0 -25z m-6054 15 c-7
-2 -19 -2 -25 0 -7 3 -2 5 12 5 14 0 19 -2 13 -5z m5963 -50 c23 -31 24 -34 5
-18 -22 19 -46 55 -38 55 3 0 17 -17 33 -37z m-5956 -37 c0 -2 -7 -7 -16 -10
-8 -3 -12 -2 -9 4 6 10 25 14 25 6z m41 -169 l-24 -22 19 27 c10 14 21 24 23
22 3 -3 -6 -15 -18 -27z m-491 -92 c0 -14 -66 -65 -84 -65 -6 0 8 18 29 40 42
43 55 49 55 25z m7012 -205 c-37 -34 -41 -35 -67 -16 -17 12 -15 14 26 29 67
24 78 20 41 -13z m-801 -7 c11 -15 11 -16 -1 -5 -23 20 -39 14 -57 -22 -15
-32 -15 -37 1 -63 l17 -28 -21 24 c-15 18 -19 32 -15 50 8 30 33 61 50 61 7 0
19 -8 26 -17z m-5494 -119 c-3 -3 -12 -4 -19 -1 -8 3 -5 6 6 6 11 1 17 -2 13
-5z m243 -29 c76 -23 86 -37 14 -20 -114 27 -224 15 -209 -23 5 -14 4 -15 -7
-4 -11 11 -9 17 11 33 13 10 31 20 40 21 9 0 -6 5 -34 9 -38 6 -28 7 40 4 50
-2 115 -11 145 -20z m170 0 c-13 -14 -26 -23 -28 -20 -7 7 29 45 41 45 6 0 0
-11 -13 -25z m-290 -91 c0 -2 -42 -3 -92 -2 -85 1 -88 2 -33 7 58 6 125 3 125
-5z m58 -11 c-10 -2 -26 -2 -35 0 -10 3 -2 5 17 5 19 0 27 -2 18 -5z m95 -14
c31 -7 57 -15 57 -20 0 -4 -15 -24 -34 -43 -28 -30 -40 -36 -72 -35 -28 1 -32
3 -14 6 36 7 49 21 46 51 -2 18 -12 30 -32 39 -37 15 -22 16 49 2z m-140 -96
c-13 -2 -33 -2 -45 0 -13 2 -3 4 22 4 25 0 35 -2 23 -4z m308 -59 c41 -34 45
-35 100 -29 32 4 65 3 75 -3 14 -8 11 -11 -20 -22 -21 -7 -52 -9 -69 -6 -48
10 -173 96 -139 96 5 0 29 -16 53 -36z m-49 -74 c54 -26 124 -88 213 -191 137
-157 272 -356 289 -429 3 -14 -3 -7 -13 15 -14 29 -20 34 -21 20 -1 -12 -8 -2
-17 25 -20 56 -57 111 -138 204 -70 81 -131 159 -137 177 -2 6 -22 14 -43 18
-29 5 -41 12 -43 26 -5 28 -38 61 -104 106 -91 62 -84 76 14 29z m-97 -70 c-3
-5 -12 -10 -18 -10 -7 0 -6 4 3 10 19 12 23 12 15 0z m61 -28 c-9 -8 -57 8
-51 18 3 6 16 5 30 -2 14 -6 23 -13 21 -16z m126 -125 c53 -42 138 -151 138
-175 -1 -10 -7 -2 -15 17 -15 33 -151 181 -167 181 -5 0 13 -33 40 -72 58 -87
64 -98 59 -98 -6 0 -127 185 -127 194 0 9 5 6 72 -47z m-701 -9 c8 -14 13 -82
15 -178 3 -194 22 -294 74 -413 23 -50 43 -109 44 -129 2 -33 8 -42 47 -66 70
-46 182 -172 166 -189 -9 -9 -90 53 -142 108 -157 167 -245 398 -245 644 0 50
-6 90 -14 107 -14 26 -13 29 7 43 17 12 21 23 18 55 -3 44 11 53 30 18z m122
-255 c4 -71 12 -118 25 -146 10 -23 24 -55 31 -70 9 -23 17 -28 39 -25 32 4
32 18 -3 98 -13 30 -26 82 -30 115 l-6 60 36 -43 c30 -35 37 -51 40 -92 2 -48
26 -100 45 -100 17 0 11 64 -10 100 -18 30 -13 27 30 -19 49 -51 50 -54 35
-77 -23 -35 -18 -75 14 -126 34 -54 83 -85 100 -65 17 21 -1 64 -39 89 -44 30
-52 58 -16 58 38 0 110 -74 102 -104 -3 -13 0 -31 8 -41 12 -17 14 -17 34 3
18 18 22 19 41 6 29 -20 26 -29 -11 -45 -70 -29 -144 -14 -228 47 -26 19 -43
24 -65 20 -30 -6 -30 -5 -27 32 3 28 -1 42 -16 55 -18 17 -21 17 -37 1 -32
-33 9 -140 88 -230 38 -44 94 -81 104 -70 14 13 -10 56 -46 80 -22 15 -47 36
-57 47 -33 36 -5 31 57 -10 34 -22 70 -41 80 -41 16 0 18 -7 17 -45 -4 -90 36
-85 147 15 43 39 80 69 82 67 14 -15 -67 -161 -95 -172 -9 -3 -60 -9 -113 -12
l-96 -6 -42 39 c-50 44 -154 187 -181 247 -79 179 -90 227 -90 401 l1 121 23
-28 c20 -25 24 -44 29 -134z m-223 5 c0 -13 -5 -30 -10 -38 -7 -11 -10 -5 -10
23 0 20 5 37 10 37 6 0 10 -10 10 -22z m1784 -123 c140 -173 343 -465 323
-465 -2 0 -18 23 -36 51 -17 28 -34 49 -38 46 -3 -3 2 -27 11 -53 9 -26 14
-49 12 -51 -2 -3 -14 26 -26 64 -35 106 -55 139 -97 160 -31 15 -59 50 -150
188 -151 227 -151 247 1 60z m-719 55 c3 -6 -1 -7 -9 -4 -18 7 -21 14 -7 14 6
0 13 -4 16 -10z m122 -82 c-3 -8 -6 -5 -6 6 -1 11 2 17 5 13 3 -3 4 -12 1 -19z
m438 -169 c29 -57 39 -86 30 -86 -11 0 -69 118 -92 187 -10 31 18 -14 62 -101z
m185 -184 c0 -5 -5 -3 -10 5 -5 8 -10 20 -10 25 0 6 5 3 10 -5 5 -8 10 -19 10
-25z m141 -20 c-7 -21 -10 -24 -10 -10 -1 11 -4 31 -7 45 -6 23 -5 24 9 10 13
-12 14 -22 8 -45z m-1056 -36 c6 -27 8 -28 19 -14 11 16 13 16 26 0 11 -14 12
-27 2 -74 -16 -75 -15 -91 3 -91 9 0 20 -12 25 -26 6 -14 14 -23 20 -19 13 8
30 73 30 118 0 34 2 37 19 28 11 -6 21 -26 25 -49 8 -54 28 -70 55 -43 27 27
32 26 22 0 -4 -12 -23 -27 -41 -33 -21 -7 -47 -28 -67 -56 -55 -74 -95 -121
-99 -117 -2 2 3 20 11 40 8 20 15 46 15 58 0 30 -29 86 -47 93 -20 8 -53 -21
-53 -45 0 -36 11 -49 37 -43 23 6 24 5 14 -13 -16 -30 -42 -37 -48 -13 -7 27
-21 25 -67 -10 -22 -17 -44 -30 -50 -30 -6 0 0 9 13 19 14 10 26 26 27 35 1 9
20 38 41 63 21 26 46 58 55 72 20 29 24 91 7 91 -16 0 -126 -114 -144 -150
-14 -28 -20 -30 -69 -30 -51 0 -180 33 -189 48 -3 4 24 8 59 9 70 2 177 26
210 48 11 7 40 50 63 94 44 85 64 96 76 40z m1062 -21 c-3 -8 -6 -5 -6 6 -1
11 2 17 5 13 3 -3 4 -12 1 -19z m240 -50 c-3 -8 -6 -5 -6 6 -1 11 2 17 5 13 3
-3 4 -12 1 -19z m-957 -133 c0 -16 -26 -55 -37 -55 -15 0 -16 5 -7 48 6 27 9
30 25 21 11 -5 19 -12 19 -14z m43 -108 c-16 -45 -26 -96 -27 -134 0 -35 -2
-63 -4 -63 -1 0 -25 11 -52 25 -27 14 -62 25 -77 25 -26 1 -26 2 -10 14 9 7
35 16 57 20 42 7 70 35 70 72 0 12 6 24 14 27 7 3 17 23 21 44 8 45 13 55 25
48 5 -3 -3 -38 -17 -78z m-88 -42 c-36 -30 -45 -31 -45 -7 0 26 9 32 44 32
l31 -1 -30 -24z m5812 -41 c-3 -3 -12 -4 -19 -1 -8 3 -5 6 6 6 11 1 17 -2 13
-5z m40 -10 c-3 -3 -12 -4 -19 -1 -8 3 -5 6 6 6 11 1 17 -2 13 -5z m67 -19
c20 -8 36 -17 36 -20 0 -4 -80 24 -89 32 -11 8 20 1 53 -12z m-5314 -45 c0
-28 -33 -157 -58 -227 -16 -46 -25 -83 -20 -83 5 0 6 -6 3 -12 -4 -7 13 8 38
33 49 50 61 81 78 199 6 41 13 77 15 79 2 2 12 -3 21 -11 10 -8 26 -18 36 -21
11 -4 17 -17 17 -39 l-1 -33 -22 28 c-30 36 -37 34 -27 -7 9 -42 -7 -92 -53
-160 -19 -28 -40 -61 -46 -74 -12 -23 -6 -62 12 -73 5 -4 1 -12 -11 -18 -11
-6 -26 -28 -33 -48 -14 -44 -24 -53 -61 -53 -38 0 -35 10 16 53 52 43 51 57 0
126 -33 43 -33 44 -18 80 46 107 54 134 80 258 3 15 9 20 19 17 8 -4 15 -10
15 -14z m5426 -21 c3 -6 -5 -3 -20 6 -14 10 -26 19 -26 22 0 7 39 -17 46 -28z
m-1286 -84 c47 -47 82 -85 80 -85 -3 0 -43 38 -90 85 -47 47 -82 85 -80 85 3
0 43 -38 90 -85z m-4753 39 c4 -13 -42 -64 -57 -64 -15 0 -12 11 10 48 19 32
40 38 47 16z m5048 -334 c49 -49 87 -90 85 -90 -3 0 -46 41 -95 90 -49 50 -87
90 -85 90 3 0 46 -40 95 -90z m102 -132 c-3 -7 -5 -2 -5 12 0 14 2 19 5 13 2
-7 2 -19 0 -25z m10 -70 c-3 -7 -5 -2 -5 12 0 14 2 19 5 13 2 -7 2 -19 0 -25z"/>
<path d="M7813 10215 c-36 -15 -39 -22 -19 -47 16 -22 48 -23 92 -2 32 15 45
34 24 34 -5 0 -10 7 -10 15 0 19 -43 19 -87 0z"/>
<path d="M5519 9336 c-19 -42 -4 -73 38 -81 29 -5 40 -3 50 11 7 10 13 21 13
25 0 13 -42 59 -50 54 -5 -3 -11 -1 -15 5 -10 17 -25 11 -36 -14z"/>
<path d="M5403 9006 c-51 -47 -51 -59 2 -70 23 -5 36 -2 53 14 l22 21 0 -46
c0 -45 12 -60 24 -29 9 24 7 72 -4 79 -6 4 -6 15 1 32 13 34 4 41 -22 17 -21
-19 -22 -19 -15 4 11 33 -7 27 -61 -22z"/>
<path d="M6745 9024 c-23 -23 -32 -44 -44 -105 -15 -73 -16 -172 -2 -177 6 -2
11 -10 11 -18 0 -8 5 -14 11 -14 16 0 55 97 74 182 14 66 15 82 4 108 -17 36
-34 44 -54 24z"/>
<path d="M5527 8964 c-11 -11 -8 -94 3 -94 13 0 24 65 13 84 -5 9 -12 13 -16
10z"/>
<path d="M6961 8909 c-47 -52 -61 -59 -61 -31 -1 18 -22 52 -34 52 -10 0 -56
-102 -56 -125 1 -11 11 -33 24 -48 26 -32 63 -34 77 -4 5 9 13 25 17 34 16 33
31 26 25 -12 -5 -29 -1 -41 17 -60 27 -28 55 -32 64 -9 10 27 7 224 -4 224 -5
0 -10 7 -10 15 0 24 -12 16 -59 -36z m-21 -73 c0 -3 -4 -8 -10 -11 -5 -3 -10
-1 -10 4 0 6 5 11 10 11 6 0 10 -2 10 -4z"/>
<path d="M7342 8900 c0 -14 2 -19 5 -12 2 6 2 18 0 25 -3 6 -5 1 -5 -13z"/>
<path d="M7210 8764 c-6 -14 -10 -50 -10 -81 0 -30 -7 -80 -16 -111 -20 -67
-14 -225 11 -332 17 -71 55 -144 80 -154 21 -8 30 18 17 52 -24 60 -32 158
-32 382 1 155 -3 236 -10 238 -5 2 -10 10 -10 18 0 23 -20 16 -30 -12z"/>
<path d="M5384 8732 c-55 -40 -142 -138 -146 -164 -2 -17 -14 -26 -48 -35 -46
-13 -131 -85 -117 -99 18 -18 86 -7 128 21 64 43 279 258 279 278 0 15 -4 16
-20 7 -16 -9 -20 -8 -20 5 0 22 -12 19 -56 -13z m-104 -182 c0 -5 -10 -15 -22
-21 -23 -12 -23 -12 -4 10 21 23 26 26 26 11z"/>
<path d="M6796 8694 c-15 -40 -1 -184 49 -489 26 -157 62 -265 87 -265 17 0 2
178 -27 315 -19 91 -25 150 -25 245 0 102 -4 133 -20 168 -20 44 -52 57 -64
26z"/>
<path d="M6668 8669 c-24 -13 -23 -67 1 -98 21 -27 35 -23 57 20 14 28 13 32
-6 59 -23 33 -27 34 -52 19z"/>
<path d="M4780 8619 c-67 -27 -112 -55 -138 -88 -51 -64 -261 -197 -442 -280
-59 -27 -120 -75 -109 -85 2 -2 23 -7 45 -11 37 -6 46 -3 78 25 21 19 42 30
51 26 21 -8 83 18 185 77 138 80 231 130 235 125 9 -9 -105 -90 -189 -133
-147 -77 -186 -104 -186 -130 0 -49 112 -29 184 34 18 15 18 15 8 -4 -16 -30
2 -52 49 -60 44 -8 79 12 79 45 0 20 -67 44 -96 34 -30 -9 85 64 156 100 36
18 77 36 91 39 14 4 31 18 37 32 12 27 7 74 -9 76 -20 3 -24 5 -36 12 -7 5
-17 5 -23 2 -5 -3 15 20 46 52 31 32 62 71 71 87 14 28 14 29 -6 23 -12 -3
-21 -1 -21 4 0 12 -28 11 -60 -2z"/>
<path d="M6720 8535 c-13 -15 -6 -46 18 -82 19 -30 30 -29 44 2 20 44 -34 114
-62 80z"/>
<path d="M3928 8489 c-42 -24 -1 -62 81 -75 32 -5 46 -3 61 11 28 25 11 50
-44 64 -54 13 -76 14 -98 0z"/>
<path d="M6636 8389 c-19 -28 -21 -107 -2 -131 18 -24 22 -23 35 13 15 42 13
88 -3 118 l-13 24 -17 -24z"/>
<path d="M6737 8353 c-4 -3 -7 -23 -7 -43 0 -39 41 -97 60 -85 17 10 11 68
-10 103 -20 32 -30 38 -43 25z"/>
<path d="M4967 8273 c-9 -11 -17 -29 -17 -40 0 -16 9 -22 41 -27 48 -8 89 13
89 44 0 23 -7 28 -56 36 -31 5 -43 2 -57 -13z"/>
<path d="M3901 8256 c-20 -24 -4 -54 36 -65 42 -12 73 0 73 28 0 25 -21 41
-62 47 -24 4 -38 1 -47 -10z"/>
<path d="M3587 8203 c-24 -24 32 -43 150 -50 95 -6 141 1 113 17 -44 25 -246
50 -263 33z"/>
<path d="M4790 8190 c-19 -19 -20 -24 -7 -43 18 -27 91 -44 113 -26 15 12 19
65 6 73 -5 3 -27 8 -49 12 -34 5 -45 2 -63 -16z"/>
<path d="M6642 8160 c-18 -29 -15 -51 11 -84 48 -60 90 0 52 74 -18 35 -45 39
-63 10z"/>
<path d="M3842 8136 c-29 -14 -55 -33 -59 -42 -19 -51 63 -70 131 -30 50 30
91 72 78 80 -6 3 -30 9 -54 12 -33 4 -55 -1 -96 -20z"/>
<path d="M3522 8129 c-15 -39 0 -73 39 -85 42 -14 69 -2 69 30 0 23 -30 58
-53 62 -7 1 -20 5 -29 9 -13 5 -20 1 -26 -16z"/>
<path d="M3949 8051 c-35 -28 -13 -45 59 -46 45 0 57 3 60 17 4 18 -17 32 -64
42 -23 5 -37 2 -55 -13z"/>
<path d="M2722 7743 c-6 -2 -9 -10 -5 -16 4 -7 8 -16 8 -22 0 -5 19 -11 43
-13 25 -2 42 1 42 7 0 6 -6 11 -12 11 -9 0 -8 4 2 10 13 9 13 11 0 20 -16 10
-56 12 -78 3z"/>
<path d="M7077 7733 c-14 -13 -6 -47 18 -89 30 -51 60 -71 80 -54 19 16 3 57
-41 109 -36 41 -45 47 -57 34z"/>
<path d="M1363 7723 c9 -2 25 -2 35 0 9 3 1 5 -18 5 -19 0 -27 -2 -17 -5z"/>
<path d="M2315 7419 c-15 -24 5 -57 45 -73 40 -16 82 -21 92 -11 14 14 -8 59
-36 76 -34 21 -91 25 -101 8z"/>
<path d="M2523 7319 c2 -30 66 -83 267 -222 96 -67 224 -156 284 -199 60 -43
112 -75 117 -72 14 8 11 30 -20 133 -16 53 -33 118 -38 145 -9 58 -29 75 -70
60 -44 -15 -43 -55 1 -89 37 -28 46 -45 24 -45 -23 0 -142 65 -278 152 -148
94 -233 142 -267 152 -18 6 -22 3 -20 -15z"/>
<path d="M2347 7288 c4 -7 8 -17 8 -23 0 -15 250 -181 338 -224 78 -39 78 -39
55 -55 -34 -24 -58 -21 -58 8 0 19 -14 33 -62 64 -84 52 -300 166 -365 191
l-52 20 3 -24 c3 -30 34 -55 191 -156 152 -97 325 -223 410 -300 150 -135 402
-368 418 -387 10 -11 26 -34 35 -50 17 -30 98 -122 107 -122 9 0 5 115 -5 151
-7 26 -17 39 -35 43 -13 3 -82 65 -152 137 -70 71 -147 141 -169 154 -23 13
-74 59 -113 101 -208 223 -95 157 206 -120 111 -103 205 -186 209 -186 11 0
-2 148 -15 163 -6 8 -22 12 -35 10 -17 -4 -27 1 -35 15 -27 50 -340 282 -409
303 -34 10 -38 14 -34 38 5 36 -23 60 -165 139 -165 93 -299 146 -276 110z"/>
<path d="M1610 7041 c0 -10 19 -25 25 -20 1 2 -3 10 -11 17 -8 7 -14 8 -14 3z"/>
<path d="M4326 8931 c-19 -7 -19 -8 -1 -15 12 -4 24 -1 34 9 13 13 13 15 1 14
-8 0 -24 -4 -34 -8z"/>
<path d="M2823 12189 c-61 -30 -54 -42 20 -37 71 4 135 36 101 49 -35 14 -79
9 -121 -12z"/>
<path d="M8075 11280 c3 -5 12 -10 20 -10 8 0 18 -6 22 -13 12 -20 180 -89
230 -95 47 -5 52 2 25 35 -23 28 -73 48 -174 68 -46 8 -94 18 -106 21 -15 3
-21 1 -17 -6z"/>
<path d="M7970 11221 c0 -28 -15 -34 -84 -32 -75 1 -97 -9 -71 -35 14 -14 76
-26 274 -55 141 -21 289 -41 329 -44 l72 -7 0 28 c0 16 -9 40 -19 53 -16 21
-22 23 -48 13 -68 -23 -401 45 -428 88 -10 17 -25 11 -25 -9z"/>
<path d="M7613 11202 c-17 -11 5 -36 46 -50 42 -15 98 -16 106 -2 3 6 1 10 -4
10 -6 0 -10 5 -8 11 5 24 -111 50 -140 31z"/>
<path d="M8522 11117 c-24 -29 -25 -67 -1 -93 12 -13 29 -24 37 -24 18 0 157
-59 304 -129 58 -28 116 -51 129 -51 20 0 21 3 16 50 -3 27 -12 60 -18 72
l-13 23 -6 -25 c-4 -17 -14 -26 -31 -28 -35 -4 -158 61 -278 147 -100 72 -120
81 -139 58z"/>
<path d="M8475 10980 c11 -12 82 -53 158 -91 75 -38 155 -85 176 -104 22 -20
60 -43 85 -51 30 -11 46 -22 46 -33 0 -27 28 -59 84 -95 29 -19 73 -58 97 -87
76 -91 108 -121 126 -117 23 4 28 40 11 71 -7 14 -50 52 -94 85 -45 33 -85 65
-89 72 -4 6 1 20 10 30 16 18 16 21 1 44 -19 29 -130 91 -311 174 -148 67
-247 107 -290 118 l-30 7 20 -23z"/>
<path d="M8097 10645 c-34 -42 -67 -53 -99 -31 -28 20 -126 21 -171 2 -18 -7
-40 -22 -49 -33 -17 -18 -17 -20 2 -41 26 -27 57 -28 65 -3 12 39 28 42 115
20 69 -18 90 -19 121 -10 20 6 40 18 43 26 15 40 177 3 282 -65 35 -24 68 -40
72 -36 11 12 -21 59 -57 83 -25 17 -278 123 -294 123 -1 0 -15 -16 -30 -35z"/>
<path d="M8129 10146 c27 -29 120 -71 131 -59 4 4 4 18 0 29 -9 23 -83 54
-129 54 l-24 0 22 -24z"/>
<path d="M8135 10090 c41 -46 187 -151 202 -146 31 12 -29 69 -128 120 -70 37
-89 43 -74 26z"/>
<path d="M9276 10039 c21 -23 53 -43 60 -36 10 9 -39 57 -58 57 -21 0 -21 0
-2 -21z"/>
<path d="M8840 9955 c0 -16 76 -95 91 -95 21 0 2 48 -34 88 -23 25 -57 29 -57
7z"/>
<path d="M8721 9849 c12 -24 50 -92 85 -151 97 -164 160 -295 236 -493 103
-265 119 -312 123 -356 5 -53 33 -146 46 -155 14 -8 25 9 40 58 10 33 9 42
-14 85 -14 27 -42 102 -62 167 -20 65 -45 132 -56 150 -23 40 -55 131 -74 214
-18 76 -18 72 -2 72 18 0 54 -78 138 -296 39 -104 77 -197 85 -208 11 -17 14
-15 34 24 18 36 20 46 10 71 -7 16 -18 29 -25 29 -7 0 -16 12 -20 28 -10 40
-82 197 -128 277 -57 99 -86 126 -128 119 -32 -5 -34 -4 -35 23 -1 19 -26 67
-67 129 -131 195 -241 321 -186 213z m314 -389 c3 -5 1 -10 -4 -10 -6 0 -11 5
-11 10 0 6 2 10 4 10 3 0 8 -4 11 -10z"/>
<path d="M8820 9866 c-1 -24 159 -287 203 -333 27 -29 57 -43 57 -28 0 44
-258 403 -260 361z"/>
<path d="M8975 9793 c9 -21 48 -96 87 -168 39 -71 103 -188 141 -260 69 -129
96 -170 105 -160 3 2 10 37 17 77 7 40 18 94 25 119 12 42 12 50 -3 73 -11 16
-27 26 -42 26 -28 0 -30 -9 -13 -56 6 -17 8 -40 4 -50 -7 -17 -12 -15 -43 21
-19 22 -68 96 -110 165 -88 146 -160 250 -174 250 -5 0 -2 -17 6 -37z"/>
<path d="M8693 9073 c4 -32 20 -114 36 -183 46 -196 54 -273 48 -464 -7 -206
-35 -397 -77 -526 -37 -115 -80 -281 -80 -310 0 -15 5 -20 14 -17 10 4 13 1 9
-9 -3 -7 -2 -14 1 -14 12 0 56 105 81 192 13 46 47 179 75 296 51 204 75 270
59 160 -14 -97 -10 -148 12 -184 11 -19 24 -34 27 -34 4 0 7 39 7 87 0 49 2
121 4 161 3 64 1 78 -18 103 -23 30 -39 132 -55 339 -5 70 -4 73 9 44 29 -63
105 -489 105 -586 0 -32 6 -50 20 -63 27 -24 33 -16 37 53 5 78 10 98 29 116
14 14 14 16 0 16 -10 0 -13 6 -10 15 4 9 0 15 -10 15 -16 0 -21 15 -30 93 -3
26 -13 61 -21 77 -9 17 -22 82 -30 145 -9 71 -21 124 -31 141 -12 18 -17 42
-15 75 2 36 -3 58 -19 84 -31 50 -43 35 -34 -42 10 -97 -9 -73 -52 65 -64 207
-103 274 -91 155z"/>
<path d="M8540 8951 c-26 -50 5 -143 43 -128 35 13 13 147 -23 147 -5 0 -14
-9 -20 -19z"/>
<path d="M8807 7945 c-12 -31 -7 -62 13 -80 40 -36 49 24 11 74 -16 21 -19 21
-24 6z"/>
<path d="M8223 7904 c-37 -53 -54 -66 -78 -60 -30 8 -85 -38 -127 -103 -31
-50 -36 -85 -13 -107 13 -13 18 -10 44 28 49 70 73 99 79 94 7 -8 -69 -133
-143 -231 -60 -81 -64 -90 -51 -109 25 -39 47 -25 113 69 147 212 228 368 218
416 -8 36 -19 37 -42 3z"/>
<path d="M8516 7432 c-13 -24 -12 -30 4 -50 35 -43 68 6 40 59 -15 26 -27 24
-44 -9z"/>
<path d="M8345 7253 c-33 -7 -75 -25 -75 -32 0 -3 7 -14 15 -25 17 -22 51 -17
86 15 18 16 20 19 6 15 -15 -5 -17 -2 -12 14 4 11 5 19 3 19 -2 -1 -12 -3 -23
-6z"/>
<path d="M8345 7159 c-19 -35 -13 -48 11 -28 16 13 16 12 4 -11 l-13 -25 22
19 c21 19 30 53 10 40 -8 -4 -9 0 -4 15 10 32 -12 25 -30 -10z"/>
<path d="M8160 7036 c-65 -19 -113 -41 -128 -59 -10 -12 -25 -15 -62 -10 -30
3 -61 1 -80 -7 -29 -12 -41 -30 -19 -30 5 0 8 -4 5 -9 -25 -41 186 3 340 70
42 18 46 22 29 29 -11 5 -14 9 -7 9 6 1 12 6 12 11 0 13 -34 11 -90 -4z m-110
-85 c0 -9 -24 -21 -41 -21 -16 0 -10 18 9 23 28 8 32 7 32 -2z"/>
<path d="M7698 6849 c-22 -13 -23 -23 -1 -49 21 -24 71 -27 79 -5 8 20 -22 65
-44 65 -9 0 -25 -5 -34 -11z"/>
<path d="M605 6637 c-35 -35 -46 -79 -25 -92 17 -10 80 60 80 88 0 40 -18 41
-55 4z"/>
<path d="M696 6613 c-38 -61 -41 -70 -26 -93 8 -12 14 -10 40 15 32 31 52 82
43 115 -8 31 -19 24 -57 -37z"/>
<path d="M7475 6650 c-8 -13 13 -60 27 -60 5 0 6 6 1 13 -4 6 -9 21 -10 31 -4
26 -9 30 -18 16z"/>
<path d="M927 6544 c-4 -4 -7 -23 -7 -43 0 -49 -10 -60 -60 -75 l-42 -12 29
-35 c38 -43 40 -50 53 -187 10 -111 41 -222 62 -222 6 0 7 21 2 63 -11 93 -6
165 16 215 25 55 26 87 4 78 -35 -13 -64 -18 -64 -10 0 5 12 48 26 96 14 48
24 98 22 110 -3 23 -27 35 -41 22z"/>
<path d="M842 6528 c-16 -16 -15 -39 4 -66 24 -35 35 -26 32 25 -3 48 -15 62
-36 41z"/>
<path d="M546 6499 c-19 -15 -26 -30 -26 -54 0 -48 14 -51 58 -10 68 61 39
120 -32 64z"/>
<path d="M645 6405 c-13 -30 -17 -66 -17 -153 1 -146 16 -175 30 -61 19 149
21 183 13 219 l-8 35 -18 -40z"/>
<path d="M733 6398 c-12 -19 -7 -158 6 -171 6 -6 11 -8 11 -5 0 3 4 29 10 58
10 53 4 130 -11 130 -4 0 -11 -6 -16 -12z"/>
<path d="M522 6302 c-25 -25 -27 -35 -12 -63 15 -27 39 -24 50 7 13 33 13 37
-3 59 -13 17 -15 17 -35 -3z"/>
<path d="M803 6228 c3 -35 10 -76 17 -93 l12 -30 10 25 c17 45 -7 160 -34 160
-7 0 -9 -20 -5 -62z"/>
<path d="M1014 6223 c-8 -81 12 -406 27 -435 6 -11 20 -70 30 -132 25 -141 34
-166 65 -166 30 0 31 24 5 111 -44 143 -63 263 -81 509 -10 141 -17 180 -30
180 -5 0 -12 -30 -16 -67z"/>
<path d="M1086 6208 c3 -13 14 -31 22 -41 15 -17 16 -17 24 4 13 33 0 59 -28
59 -22 0 -24 -3 -18 -22z"/>
<path d="M589 6044 c-21 -22 -21 -24 -4 -18 18 7 19 6 5 -11 -14 -17 -14 -18
8 -6 23 12 24 12 18 -16 -4 -16 -2 -43 4 -59 11 -28 12 -28 25 -10 18 23 29
97 20 125 -9 29 -46 27 -76 -5z"/>
<path d="M733 6013 c-10 -25 -9 -112 0 -148 l9 -30 13 25 c29 53 27 158 -3
168 -7 2 -15 -5 -19 -15z"/>
<path d="M888 5992 c-7 -26 3 -83 13 -76 12 7 12 81 0 88 -5 3 -11 -2 -13 -12z"/>
<path d="M1237 5933 c-10 -10 -8 -52 3 -74 6 -10 20 -19 30 -19 16 0 20 7 20
33 0 41 -34 79 -53 60z"/>
<path d="M1147 5914 c-14 -15 -8 -84 9 -91 17 -6 34 12 34 38 0 22 -33 63 -43
53z"/>
<path d="M826 5901 c-6 -10 -3 -41 21 -203 3 -21 9 -35 13 -33 14 8 21 129 11
174 -10 48 -34 80 -45 62z"/>
<path d="M956 5894 c-4 -10 -10 -62 -13 -114 -4 -73 -2 -104 10 -132 19 -45
34 -48 43 -11 7 27 -12 221 -26 257 -7 19 -7 19 -14 0z"/>
<path d="M727 5814 c-12 -21 29 -164 48 -164 3 0 5 27 5 59 0 48 -5 65 -23 87
-13 15 -26 23 -30 18z"/>
<path d="M1158 5784 c-9 -8 11 -73 35 -119 l22 -40 3 29 c6 48 -41 149 -60
130z"/>
<path d="M630 5748 c0 -47 15 -67 24 -33 8 30 0 65 -15 65 -5 0 -9 -15 -9 -32z"/>
<path d="M970 5551 c-16 -66 -32 -80 -55 -45 -25 38 -39 17 -30 -45 8 -60 32
-95 58 -86 17 7 22 22 18 62 -2 26 36 53 43 31 3 -7 9 -26 14 -43 11 -37 45
-42 50 -7 4 24 -52 155 -73 172 -10 8 -16 -1 -25 -39z"/>
<path d="M764 5555 c-16 -41 23 -193 62 -241 14 -17 15 -13 10 61 -8 125 -52
233 -72 180z"/>
<path d="M1210 5535 c0 -16 11 -52 25 -80 13 -27 25 -58 25 -67 1 -60 102
-240 171 -305 73 -69 89 -31 20 50 -47 57 -71 101 -159 287 -28 58 -57 114
-66 125 -15 19 -15 19 -16 -10z"/>
<path d="M1144 5424 c9 -66 75 -211 152 -334 105 -167 128 -220 95 -220 -25 0
-228 320 -261 413 -27 72 -51 103 -75 93 -13 -5 -15 -13 -11 -34 11 -45 91
-202 144 -283 27 -42 53 -87 57 -100 4 -13 34 -52 66 -86 33 -34 59 -65 59
-69 0 -4 -7 -15 -15 -24 -12 -13 -13 -23 -6 -43 11 -28 57 -64 68 -53 4 4 8
36 9 72 2 36 5 68 7 71 8 7 46 -16 122 -74 116 -89 268 -154 296 -126 5 5 0
25 -12 48 -12 22 -15 34 -8 28 7 -7 28 -13 45 -13 20 0 44 -10 62 -25 34 -29
148 -61 184 -52 28 7 34 43 10 56 -9 5 -44 12 -77 16 -40 5 -54 10 -41 15 27
9 29 39 3 44 -12 3 -58 7 -102 10 -76 6 -107 17 -91 33 4 5 28 7 52 6 41 -1
45 1 42 20 -4 27 -42 47 -93 47 -31 0 -44 -6 -60 -26 -26 -33 -35 -30 -140 36
-55 35 -90 50 -114 50 -45 0 -98 41 -120 94 -10 22 -41 76 -69 118 -27 43 -62
110 -78 150 -37 101 -82 188 -96 188 -7 0 -9 -15 -4 -46z m636 -710 c0 -28
-31 -27 -60 1 -16 15 -33 24 -39 21 -16 -10 -64 19 -104 63 -20 23 -37 43 -37
46 0 3 54 -22 120 -55 70 -36 120 -68 120 -76z"/>
<path d="M926 5341 c-18 -29 65 -169 242 -407 108 -147 134 -169 108 -94 -15
43 -73 132 -139 215 -27 33 -68 99 -92 146 -59 116 -102 167 -119 140z"/>
<path d="M6126 5311 c-3 -4 7 -14 22 -20 27 -13 27 -13 8 8 -22 24 -23 24 -30
12z"/>
<path d="M835 5251 c-8 -25 23 -87 37 -73 16 16 5 86 -14 90 -9 2 -19 -5 -23
-17z"/>
<path d="M926 5182 c-7 -12 26 -73 38 -69 16 5 20 46 6 63 -14 15 -36 19 -44
6z"/>
<path d="M2804 5045 c-8 -20 -19 -70 -24 -112 -6 -43 -18 -89 -30 -108 -31
-50 -22 -153 16 -194 11 -12 16 -12 28 -1 24 19 20 66 -6 84 -21 15 -21 18 -9
48 55 132 80 241 67 293 -9 35 -24 31 -42 -10z"/>
<path d="M1010 5040 c0 -30 28 -80 45 -80 22 0 19 43 -6 74 -25 31 -39 33 -39
6z"/>
<path d="M920 5018 c1 -18 9 -49 20 -68 l19 -35 1 30 c0 40 -19 105 -30 105
-6 0 -10 -15 -10 -32z"/>
<path d="M1550 4996 c0 -50 9 -66 38 -66 14 0 37 -11 51 -24 15 -13 38 -31 54
-41 27 -17 27 -17 27 8 0 16 -14 38 -42 63 -50 46 -112 94 -121 94 -4 0 -7
-15 -7 -34z"/>
<path d="M2629 4979 c-9 -20 -20 -47 -24 -60 -13 -42 -36 -60 -75 -59 -56 3
-58 2 -65 -32 -5 -23 -30 -55 -81 -103 -52 -50 -73 -77 -71 -93 2 -27 9 -27
64 0 42 21 46 21 58 5 7 -9 16 -17 20 -17 19 0 69 48 111 105 59 83 86 160 82
234 l-3 56 -16 -36z m-129 -259 c-12 -17 -24 -29 -27 -26 -3 3 5 19 17 36 12
17 24 29 27 26 3 -3 -5 -19 -17 -36z"/>
<path d="M3326 4929 c-25 -21 -35 -38 -34 -55 5 -52 75 -6 82 54 4 40 -4 40
-48 1z"/>
<path d="M1087 4934 c-10 -10 11 -62 41 -106 33 -47 99 -112 175 -172 26 -20
47 -42 47 -47 0 -15 -57 18 -149 89 -68 52 -87 62 -89 48 -6 -30 24 -62 179
-186 153 -123 197 -150 243 -150 14 0 41 -13 59 -30 40 -35 72 -39 74 -10 2
25 -36 56 -150 124 -116 68 -145 97 -66 66 110 -44 238 -130 291 -197 9 -12
35 -27 57 -34 50 -15 87 -2 101 36 9 23 14 25 60 23 27 -2 50 -4 50 -5 0 -1
-15 -10 -32 -20 -27 -14 -30 -18 -14 -21 15 -3 16 -6 5 -13 -9 -7 6 -8 43 -3
54 6 128 -8 128 -25 0 -4 9 -17 20 -29 27 -29 52 -16 80 38 26 51 25 82 -2
106 l-21 19 6 -31 c4 -23 1 -36 -12 -48 -25 -23 -33 -21 -86 23 -71 58 -155
86 -357 116 -56 9 -116 24 -133 34 -282 169 -354 222 -440 324 -47 56 -96 93
-108 81z m733 -514 c44 -22 49 -30 23 -30 -17 0 -86 49 -70 50 4 0 26 -9 47
-20z"/>
<path d="M3387 4886 c-8 -20 3 -86 14 -86 5 0 9 23 9 50 0 48 -12 66 -23 36z"/>
<path d="M1013 4874 c-3 -8 -1 -29 4 -47 12 -42 46 -45 51 -5 6 51 -39 94 -55
52z"/>
<path d="M2862 4848 c-17 -17 -16 -78 1 -78 22 0 47 34 47 63 0 29 -26 37 -48
15z"/>
<path d="M1974 4813 c12 -49 66 -73 66 -30 0 27 -28 57 -54 57 -15 0 -17 -5
-12 -27z"/>
<path d="M2364 4818 c-138 -103 -158 -183 -27 -108 60 34 83 63 83 102 0 34
-17 36 -56 6z"/>
<path d="M3292 4680 c-66 -52 -104 -103 -106 -142 -1 -18 -8 -34 -16 -36 -13
-5 -13 -3 -1 11 12 15 11 17 -4 17 -22 0 -81 -28 -96 -46 -6 -8 -13 -26 -15
-40 -2 -21 1 -24 19 -18 39 12 111 71 199 162 68 70 85 95 81 111 -3 12 -7 21
-8 21 -2 0 -26 -18 -53 -40z"/>
<path d="M1500 4691 c0 -28 47 -73 72 -69 36 5 33 45 -5 68 -41 25 -67 26 -67
1z"/>
<path d="M1647 4613 c-3 -5 -1 -18 3 -30 9 -23 97 -61 161 -70 33 -5 36 -3 35
18 -2 40 -95 89 -168 89 -15 0 -29 -3 -31 -7z"/>
<path d="M2763 4579 c-35 -16 -67 -39 -73 -49 -21 -38 -261 -197 -341 -225
-73 -26 -119 -61 -117 -90 3 -32 19 -32 56 0 17 14 42 25 56 25 31 0 77 22
193 91 45 27 101 58 125 69 59 26 178 149 178 184 0 14 -3 26 -7 26 -5 0 -36
-14 -70 -31z"/>
<path d="M2008 4590 c-37 -5 -76 -11 -87 -15 -46 -14 -10 -85 42 -85 63 0 277
63 263 78 -3 3 -1 11 5 19 9 11 -3 13 -72 12 -46 -1 -114 -5 -151 -9z"/>
<path d="M1170 4565 c0 -29 99 -123 165 -157 43 -22 66 -40 70 -56 5 -20 10
-22 39 -16 27 4 39 1 54 -14 48 -48 90 -47 78 1 -4 19 -27 36 -95 71 -49 25
-115 65 -147 90 -33 24 -83 55 -111 70 -44 22 -53 24 -53 11z"/>
<path d="M2074 4476 c-15 -38 49 -82 85 -59 21 13 26 40 11 58 -16 20 -89 20
-96 1z"/>
<path d="M2710 4407 c-34 -30 -110 -80 -170 -112 -123 -64 -142 -81 -133 -113
9 -36 15 -33 205 87 38 24 94 54 125 67 l58 23 0 47 c0 26 -5 49 -11 51 -7 2
-40 -20 -74 -50z"/>
<path d="M1615 4310 c-12 -19 24 -59 62 -69 51 -15 63 -14 63 5 0 30 -21 53
-58 64 -47 13 -59 13 -67 0z"/>
<path d="M2956 4305 c-18 -18 -19 -25 -10 -49 8 -20 48 -21 64 -2 32 40 -17
87 -54 51z"/>
<path d="M2056 4285 c-8 -21 11 -65 28 -65 22 0 39 28 32 55 -7 29 -50 36 -60
10z"/>
<path d="M2823 4248 c-25 -12 -29 -38 -13 -69 27 -49 86 4 62 56 -13 28 -17
29 -49 13z"/>
<path d="M1796 4241 c-3 -4 0 -16 7 -26 11 -13 32 -18 103 -21 49 -2 81 -1 71
2 -17 5 -18 6 -1 19 15 11 9 14 -48 24 -77 13 -125 14 -132 2z"/>
<path d="M2570 4225 c-10 -12 -10 -21 -2 -40 21 -45 77 -23 70 27 -4 28 -48
37 -68 13z"/>
<path d="M2034 4197 c-60 -23 -78 -41 -70 -70 11 -44 56 -34 122 25 14 12 20
27 17 39 -6 21 -24 23 -69 6z"/>
<path d="M1744 4185 c-9 -22 5 -83 19 -88 33 -12 50 31 27 72 -13 25 -39 34
-46 16z"/>
<path d="M2103 4123 c-7 -2 -13 -15 -13 -28 0 -18 7 -25 30 -30 35 -8 50 0 50
24 0 32 -32 49 -67 34z"/>
</g>
</svg>
