<svg width="108" height="141" viewBox="0 0 108 141" fill="none" xmlns="http://www.w3.org/2000/svg">
<path d="M15.2071 66.1135V115.837L48.4803 140.787" fill="url(#paint0_linear)"/>
<path d="M51.1579 90.8206L36.9357 107.776L51.1579 140.764" fill="url(#paint1_linear)"/>
<path d="M72.6182 66.1135L54.2696 88.1642V136.79" fill="url(#paint2_linear)"/>
<path d="M67.2302 94.043L55.6856 140.78L74.9998 115.83" fill="url(#paint3_linear)"/>
<path d="M91.4451 95.9475L59.0059 139.742L91.4451 119.58" fill="url(#paint4_linear)"/>
<path d="M101.322 75.8789L93.7716 92.7902V117.477" fill="url(#paint5_linear)"/>
<path d="M105.575 86.8655L102.854 103.513L107.989 96.7047" fill="url(#paint6_linear)"/>
<path d="M97.5465 57.2756L93.7716 88.8146L101.322 70.0143" fill="url(#paint7_linear)"/>
<path d="M86.2708 47.9495L81.2227 69.3853L88.5096 75.8866" fill="url(#paint8_linear)"/>
<path d="M78.4396 73.0471V105.418L91.3878 85.8523" fill="url(#paint9_linear)"/>
<path d="M75.0197 68.7986L68.9181 90.8932L76.0293 111.231" fill="url(#paint10_linear)"/>
<path d="M60.6861 44.0918L52.17 84.9428L72.4939 61.0911" fill="url(#paint11_linear)"/>
<path d="M7.88968 76.8552L0.998108 98.4227L7.88968 105.407" fill="url(#paint12_linear)"/>
<path d="M16.0373 62.7772L27.977 87.9028V49.5117" fill="url(#paint13_linear)"/>
<path d="M40.9225 52.49L32.7853 95.2911L45.7336 69.863" fill="url(#paint14_linear)"/>
<path d="M46.8952 79.1016L34.2013 103.559L47.5093 87.5995" fill="url(#paint15_linear)"/>
<path d="M41.7208 24.9514L54.2753 63.7819L58.9721 41.3797" fill="url(#paint16_linear)"/>
<path d="M55.7237 0L41.7208 22.5779L51.1585 31.451" fill="url(#paint17_linear)"/>
<path d="M60.9591 34.717L81.239 57.2071L85.4531 45.962" fill="url(#paint18_linear)"/>
<defs>
<linearGradient id="paint0_linear" x1="31.8437" y1="66.1135" x2="31.8437" y2="140.787" gradientUnits="userSpaceOnUse">
<stop stop-color="#2F65EF"/>
<stop offset="1" stop-color="#733AEE" stop-opacity="0.66"/>
</linearGradient>
<linearGradient id="paint1_linear" x1="44.047" y1="90.8206" x2="44.047" y2="140.764" gradientUnits="userSpaceOnUse">
<stop stop-color="#2F65EF"/>
<stop offset="1" stop-color="#733AEE" stop-opacity="0.66"/>
</linearGradient>
<linearGradient id="paint2_linear" x1="63.4437" y1="66.1135" x2="63.4437" y2="136.79" gradientUnits="userSpaceOnUse">
<stop stop-color="#2F65EF"/>
<stop offset="1" stop-color="#733AEE" stop-opacity="0.66"/>
</linearGradient>
<linearGradient id="paint3_linear" x1="65.3429" y1="94.043" x2="65.3429" y2="140.78" gradientUnits="userSpaceOnUse">
<stop stop-color="#2F65EF"/>
<stop offset="1" stop-color="#733AEE" stop-opacity="0.66"/>
</linearGradient>
<linearGradient id="paint4_linear" x1="75.2255" y1="95.9475" x2="75.2255" y2="139.742" gradientUnits="userSpaceOnUse">
<stop stop-color="#2F65EF"/>
<stop offset="1" stop-color="#733AEE" stop-opacity="0.66"/>
</linearGradient>
<linearGradient id="paint5_linear" x1="97.5465" y1="75.8789" x2="97.5465" y2="117.477" gradientUnits="userSpaceOnUse">
<stop stop-color="#2F65EF"/>
<stop offset="1" stop-color="#733AEE" stop-opacity="0.66"/>
</linearGradient>
<linearGradient id="paint6_linear" x1="105.421" y1="86.8655" x2="105.421" y2="103.513" gradientUnits="userSpaceOnUse">
<stop stop-color="#2F65EF"/>
<stop offset="1" stop-color="#733AEE" stop-opacity="0.66"/>
</linearGradient>
<linearGradient id="paint7_linear" x1="97.5465" y1="57.2756" x2="97.5465" y2="88.8146" gradientUnits="userSpaceOnUse">
<stop stop-color="#2F65EF"/>
<stop offset="1" stop-color="#733AEE" stop-opacity="0.66"/>
</linearGradient>
<linearGradient id="paint8_linear" x1="84.866" y1="47.9495" x2="84.866" y2="75.8866" gradientUnits="userSpaceOnUse">
<stop stop-color="#2F65EF"/>
<stop offset="1" stop-color="#733AEE" stop-opacity="0.66"/>
</linearGradient>
<linearGradient id="paint9_linear" x1="84.9135" y1="73.0471" x2="84.9135" y2="105.418" gradientUnits="userSpaceOnUse">
<stop stop-color="#2F65EF"/>
<stop offset="1" stop-color="#733AEE" stop-opacity="0.66"/>
</linearGradient>
<linearGradient id="paint10_linear" x1="72.4737" y1="68.7986" x2="72.4737" y2="111.231" gradientUnits="userSpaceOnUse">
<stop stop-color="#2F65EF"/>
<stop offset="1" stop-color="#733AEE" stop-opacity="0.66"/>
</linearGradient>
<linearGradient id="paint11_linear" x1="62.3319" y1="44.0918" x2="62.3319" y2="84.9428" gradientUnits="userSpaceOnUse">
<stop stop-color="#2F65EF"/>
<stop offset="1" stop-color="#733AEE" stop-opacity="0.66"/>
</linearGradient>
<linearGradient id="paint12_linear" x1="4.44384" y1="76.8552" x2="4.44384" y2="105.407" gradientUnits="userSpaceOnUse">
<stop stop-color="#2F65EF"/>
<stop offset="1" stop-color="#733AEE" stop-opacity="0.66"/>
</linearGradient>
<linearGradient id="paint13_linear" x1="22.007" y1="49.5117" x2="22.007" y2="87.9028" gradientUnits="userSpaceOnUse">
<stop stop-color="#2F65EF"/>
<stop offset="1" stop-color="#733AEE" stop-opacity="0.66"/>
</linearGradient>
<linearGradient id="paint14_linear" x1="39.2593" y1="52.49" x2="39.2593" y2="95.2911" gradientUnits="userSpaceOnUse">
<stop stop-color="#2F65EF"/>
<stop offset="1" stop-color="#733AEE" stop-opacity="0.66"/>
</linearGradient>
<linearGradient id="paint15_linear" x1="40.8553" y1="79.1016" x2="40.8553" y2="103.559" gradientUnits="userSpaceOnUse">
<stop stop-color="#2F65EF"/>
<stop offset="1" stop-color="#733AEE" stop-opacity="0.66"/>
</linearGradient>
<linearGradient id="paint16_linear" x1="50.3466" y1="24.9514" x2="50.3466" y2="63.7819" gradientUnits="userSpaceOnUse">
<stop stop-color="#2F65EF"/>
<stop offset="1" stop-color="#733AEE" stop-opacity="0.66"/>
</linearGradient>
<linearGradient id="paint17_linear" x1="48.7222" y1="0" x2="48.7222" y2="31.451" gradientUnits="userSpaceOnUse">
<stop stop-color="#2F65EF"/>
<stop offset="1" stop-color="#733AEE" stop-opacity="0.66"/>
</linearGradient>
<linearGradient id="paint18_linear" x1="73.2061" y1="34.717" x2="73.2061" y2="57.2071" gradientUnits="userSpaceOnUse">
<stop stop-color="#2F65EF"/>
<stop offset="1" stop-color="#733AEE" stop-opacity="0.66"/>
</linearGradient>
</defs>
</svg>
