<svg width="200" height="200" viewBox="0 0 200 200" fill="none" xmlns="http://www.w3.org/2000/svg">
<g clip-path="url(#clip0)">
<path d="M13.6719 190.092C14.2425 188.51 14.9449 186.929 15.3838 185.26C17.0958 179.022 18.7199 172.785 20.3441 166.503C22.0999 159.827 23.8119 153.15 25.5677 146.473C26.1384 144.321 26.709 142.168 27.3675 140.016C27.4991 139.533 27.982 139.094 28.3771 138.566C31.0108 140.982 33.5129 143.311 36.015 145.595C37.8586 147.264 36.1028 148.933 35.7516 150.426C34.4786 156.137 32.7667 161.759 31.2303 167.426C30.0012 171.95 28.6843 176.475 27.4553 181.043C26.7529 183.634 26.0945 186.226 25.5238 188.818C25.1727 190.619 24.602 191.629 22.4511 191.497C19.554 191.278 16.6129 191.409 13.6719 191.409C13.6719 190.97 13.6719 190.531 13.6719 190.092Z" fill="white"/>
<path d="M71.5185 163.549C70.6845 166.756 69.9821 169.699 69.2357 172.598C67.6993 178.396 66.1632 184.238 64.5828 190.037C64.3632 190.783 63.9244 191.618 63.3536 192.013C59.4908 194.517 55.5843 196.933 51.0627 199.788C51.7651 196.713 52.3359 194.254 52.9503 191.53C44.5662 191.53 36.4894 191.53 27.9296 191.53C28.632 188.587 29.2465 185.952 29.9489 183.316C31.7047 176.683 33.4605 170.094 35.2164 163.505C36.5771 158.41 37.894 153.271 39.3865 148.175C39.5621 147.56 40.5278 146.682 41.1423 146.682C52.5555 146.594 63.9684 146.638 75.3813 146.682C75.513 146.682 75.6446 146.77 76.0398 146.901C75.3373 149.493 74.6349 152.129 73.9325 154.764C73.8009 155.247 73.4937 155.73 73.4937 156.214C73.4937 157.971 72.3525 157.927 71.0793 157.927C64.144 157.927 57.1643 157.971 50.2288 157.883C48.1657 157.839 47.5073 158.674 47.0683 160.562C45.9709 165.13 44.6101 169.655 43.381 174.179C42.8982 176.068 42.5031 178.001 42.0202 180.241C43.1616 180.285 44.2151 180.417 45.2686 180.417C48.034 180.461 50.8435 180.285 53.6087 180.461C55.5403 180.593 56.3743 179.758 56.7255 178.001C56.9011 177.035 57.2083 176.068 57.5155 174.838C55.7159 174.838 54.0915 174.838 51.8967 174.838C53.9159 171.017 55.6719 167.634 57.5155 164.252C57.6911 163.944 58.174 163.593 58.5252 163.593C62.6512 163.549 66.9093 163.549 71.5185 163.549Z" fill="white"/>
<path d="M101.432 158.032C96.8664 158.032 92.5643 157.988 88.2627 158.076C87.8239 158.076 87.1214 158.735 86.9898 159.218C84.8386 167.213 82.7758 175.207 80.6686 183.246C80.0982 185.486 79.5714 187.726 78.825 189.923C78.6054 190.537 77.8593 191.46 77.3325 191.46C74.0841 191.592 70.7921 191.548 67.2364 191.548C71.2749 176.437 75.1817 161.678 79.1322 146.875C91.2039 146.875 103.187 146.875 115.391 146.875C114.337 151.004 113.371 154.913 112.362 158.823C110.299 166.686 108.235 174.549 106.128 182.411C105.426 185.003 104.768 187.594 103.934 190.142C103.758 190.713 102.968 191.504 102.485 191.548C99.2804 191.679 96.0763 191.592 92.5643 191.592C95.5495 180.303 98.4464 169.365 101.432 158.032Z" fill="white"/>
<path d="M149.268 191.548C153.306 176.393 157.256 161.634 161.207 146.875C169.591 146.875 177.844 146.875 186.36 146.875C185.35 150.521 184.428 153.991 183.331 157.373C183.199 157.769 182.102 157.988 181.443 157.988C178.151 158.032 174.859 158.164 171.567 157.988C169.679 157.901 168.933 158.647 168.669 160.36C168.538 161.283 168.275 162.205 167.967 163.479C172.401 163.479 176.79 163.479 181.794 163.479C180.522 166.027 179.468 168.047 178.502 170.068C176.263 174.812 176.263 174.812 171.04 174.812C169.021 174.812 166.957 174.812 164.895 174.812C164.368 176.701 163.929 178.37 163.358 180.391C168.187 180.391 172.664 180.391 177.317 180.391C176.395 183.993 175.561 187.287 174.639 190.537C174.508 190.977 173.717 191.504 173.235 191.504C165.377 191.548 157.52 191.548 149.268 191.548Z" fill="white"/>
<path d="M125.976 199.152C129.576 185.535 133.219 171.918 136.907 157.949C134.053 157.949 131.507 157.949 128.523 157.949C130.498 154.128 132.254 150.746 134.053 147.407C134.229 147.056 134.844 146.748 135.283 146.748C143.14 146.704 150.251 146.748 158.548 146.748C157.318 149.516 156.88 151.844 155.782 154.392C155.65 154.699 154.816 157.247 154.816 157.247L150.427 157.993C150.427 157.993 147.881 158.564 147.486 160.234C145.818 166.866 144.062 173.455 142.306 180.044C141.428 183.383 140.594 186.765 139.497 190.059C139.189 191.026 138.267 191.992 137.389 192.563C133.878 194.935 130.279 197.175 126.679 199.46C126.416 199.372 126.196 199.24 125.976 199.152Z" fill="white"/>
<path d="M117.903 191.412C114.391 191.412 110.879 191.412 106.885 191.412C111.582 173.798 116.235 156.315 120.976 138.525C121.634 138.965 122.029 139.184 122.38 139.492C124.399 141.38 126.287 143.401 128.438 145.07C129.843 146.168 129.843 147.354 129.491 148.76C127.735 155.261 125.848 161.762 124.092 168.263C122.336 174.764 120.712 181.309 119 187.854C118.649 188.952 118.298 190.05 117.903 191.412Z" fill="white"/>
<path d="M62.2071 66.1135V115.837L95.4803 140.787" fill="url(#paint0_linear)"/>
<path d="M98.1579 90.8206L83.9357 107.776L98.1579 140.764" fill="url(#paint1_linear)"/>
<path d="M119.618 66.1135L101.27 88.1642V136.79" fill="url(#paint2_linear)"/>
<path d="M114.23 94.043L102.686 140.78L122 115.83" fill="url(#paint3_linear)"/>
<path d="M138.445 95.9475L106.006 139.742L138.445 119.58" fill="url(#paint4_linear)"/>
<path d="M148.322 75.8789L140.772 92.7902V117.477" fill="url(#paint5_linear)"/>
<path d="M152.575 86.8655L149.854 103.513L154.989 96.7047" fill="url(#paint6_linear)"/>
<path d="M144.546 57.2756L140.772 88.8146L148.322 70.0143" fill="url(#paint7_linear)"/>
<path d="M133.271 47.9495L128.223 69.3853L135.51 75.8866" fill="url(#paint8_linear)"/>
<path d="M125.44 73.0471V105.418L138.388 85.8523" fill="url(#paint9_linear)"/>
<path d="M122.02 68.7986L115.918 90.8932L123.029 111.231" fill="url(#paint10_linear)"/>
<path d="M107.686 44.0918L99.17 84.9428L119.494 61.0911" fill="url(#paint11_linear)"/>
<path d="M54.8897 76.8552L47.9981 98.4227L54.8897 105.407" fill="url(#paint12_linear)"/>
<path d="M63.0373 62.7772L74.977 87.9028V49.5117" fill="url(#paint13_linear)"/>
<path d="M87.9225 52.49L79.7853 95.2911L92.7336 69.863" fill="url(#paint14_linear)"/>
<path d="M93.8952 79.1016L81.2013 103.559L94.5093 87.5995" fill="url(#paint15_linear)"/>
<path d="M88.7208 24.9514L101.275 63.7819L105.972 41.3797" fill="url(#paint16_linear)"/>
<path d="M102.724 0L88.7208 22.5779L98.1585 31.451" fill="url(#paint17_linear)"/>
<path d="M107.959 34.717L128.239 57.2071L132.453 45.962" fill="url(#paint18_linear)"/>
</g>
<defs>
<linearGradient id="paint0_linear" x1="78.8437" y1="66.1135" x2="78.8437" y2="140.787" gradientUnits="userSpaceOnUse">
<stop stop-color="#733AEE" stop-opacity="0.66"/>
<stop offset="0.5" stop-color="#2F65EF"/>
</linearGradient>
<linearGradient id="paint1_linear" x1="91.047" y1="90.8206" x2="91.047" y2="140.764" gradientUnits="userSpaceOnUse">
<stop stop-color="#733AEE" stop-opacity="0.66"/>
<stop offset="0.354167" stop-color="#2F65EF"/>
</linearGradient>
<linearGradient id="paint2_linear" x1="110.444" y1="66.1135" x2="110.444" y2="136.79" gradientUnits="userSpaceOnUse">
<stop stop-color="#733AEE" stop-opacity="0.66"/>
<stop offset="0.307292" stop-color="#2F65EF"/>
</linearGradient>
<linearGradient id="paint3_linear" x1="112.343" y1="94.043" x2="112.343" y2="140.78" gradientUnits="userSpaceOnUse">
<stop stop-color="#733AEE" stop-opacity="0.66"/>
<stop offset="0.28125" stop-color="#2F65EF"/>
</linearGradient>
<linearGradient id="paint4_linear" x1="122.226" y1="95.9475" x2="122.226" y2="139.742" gradientUnits="userSpaceOnUse">
<stop stop-color="#733AEE" stop-opacity="0.66"/>
<stop offset="0.463542" stop-color="#2F65EF"/>
</linearGradient>
<linearGradient id="paint5_linear" x1="144.546" y1="75.8789" x2="144.546" y2="117.477" gradientUnits="userSpaceOnUse">
<stop stop-color="#733AEE" stop-opacity="0.66"/>
<stop offset="0.369792" stop-color="#2F65EF"/>
</linearGradient>
<linearGradient id="paint6_linear" x1="152.421" y1="86.8655" x2="152.421" y2="103.513" gradientUnits="userSpaceOnUse">
<stop stop-color="#733AEE" stop-opacity="0.66"/>
<stop offset="0.302083" stop-color="#2F65EF"/>
</linearGradient>
<linearGradient id="paint7_linear" x1="144.546" y1="57.2756" x2="144.546" y2="88.8146" gradientUnits="userSpaceOnUse">
<stop stop-color="#733AEE" stop-opacity="0.66"/>
<stop offset="1" stop-color="#2F65EF"/>
</linearGradient>
<linearGradient id="paint8_linear" x1="131.866" y1="47.9495" x2="131.866" y2="75.8866" gradientUnits="userSpaceOnUse">
<stop stop-color="#733AEE" stop-opacity="0.66"/>
<stop offset="0.958333" stop-color="#2F65EF"/>
</linearGradient>
<linearGradient id="paint9_linear" x1="131.914" y1="73.0471" x2="131.914" y2="105.418" gradientUnits="userSpaceOnUse">
<stop stop-color="#733AEE" stop-opacity="0.66"/>
<stop offset="0.338542" stop-color="#2F65EF"/>
</linearGradient>
<linearGradient id="paint10_linear" x1="119.474" y1="68.7986" x2="119.474" y2="111.231" gradientUnits="userSpaceOnUse">
<stop stop-color="#733AEE" stop-opacity="0.66"/>
<stop offset="0.317708" stop-color="#2F65EF"/>
</linearGradient>
<linearGradient id="paint11_linear" x1="109.332" y1="44.0918" x2="109.332" y2="84.9428" gradientUnits="userSpaceOnUse">
<stop stop-color="#733AEE" stop-opacity="0.66"/>
<stop offset="0.822917" stop-color="#2F65EF"/>
</linearGradient>
<linearGradient id="paint12_linear" x1="51.4438" y1="76.8552" x2="51.4438" y2="105.407" gradientUnits="userSpaceOnUse">
<stop stop-color="#733AEE" stop-opacity="0.66"/>
<stop offset="0.473958" stop-color="#2F65EF"/>
</linearGradient>
<linearGradient id="paint13_linear" x1="69.007" y1="49.5117" x2="69.007" y2="87.9028" gradientUnits="userSpaceOnUse">
<stop stop-color="#733AEE" stop-opacity="0.66"/>
<stop offset="0.703125" stop-color="#2F65EF"/>
</linearGradient>
<linearGradient id="paint14_linear" x1="86.2593" y1="52.49" x2="86.2593" y2="95.2911" gradientUnits="userSpaceOnUse">
<stop stop-color="#733AEE" stop-opacity="0.66"/>
<stop offset="0.895833" stop-color="#2F65EF"/>
</linearGradient>
<linearGradient id="paint15_linear" x1="87.8553" y1="79.1016" x2="87.8553" y2="103.559" gradientUnits="userSpaceOnUse">
<stop stop-color="#733AEE" stop-opacity="0.66"/>
<stop offset="0.182292" stop-color="#2F65EF"/>
</linearGradient>
<linearGradient id="paint16_linear" x1="97.3466" y1="24.9514" x2="97.3466" y2="63.7819" gradientUnits="userSpaceOnUse">
<stop offset="0.604167" stop-color="#733AEE" stop-opacity="0.66"/>
<stop offset="1" stop-color="#2F65EF"/>
</linearGradient>
<linearGradient id="paint17_linear" x1="95.7222" y1="0" x2="95.7222" y2="31.451" gradientUnits="userSpaceOnUse">
<stop offset="0.557292" stop-color="#733AEE" stop-opacity="0.66"/>
</linearGradient>
<linearGradient id="paint18_linear" x1="120.206" y1="34.717" x2="120.206" y2="57.2071" gradientUnits="userSpaceOnUse">
<stop offset="0.505208" stop-color="#733AEE" stop-opacity="0.66"/>
<stop offset="0.869792" stop-color="#2F65EF"/>
</linearGradient>
<clipPath id="clip0">
<rect width="200" height="200" fill="white"/>
</clipPath>
</defs>
</svg>
