<svg width="420" height="444" viewBox="0 0 420 444" fill="none" xmlns="http://www.w3.org/2000/svg">
<path d="M94.7 336.6C63.3 294.6 -3.00001 277.8 3.99999 216.1C8.99999 171.3 42.4 139.4 75.7 122.9C126.3 97.9 143.4 44.3 190.4 18.4C240.6 -9.29998 311 4.70002 358.4 41.6C408.9 80.9 425.8 137.6 411.7 196C404.6 225.1 388.5 249.4 378.2 276.8C366.7 307.3 356.7 320.6 346.1 351.2C327 406.4 273.1 456.7 206.6 435.9C149.9 418.4 128.1 381.3 94.7 336.6Z" fill="url(#paint0_linear)"/>
<path d="M365.7 117.3V119.9H363C362.1 119.9 361.4 120.6 361.4 121.5V121.6C361.4 122.5 362.1 123.2 363 123.2H365.6V125.8C365.6 126.7 366.3 127.4 367.2 127.4H367.3C368.2 127.4 368.9 126.7 368.9 125.8V123.2H371.5C372.4 123.2 373.1 122.5 373.1 121.6V121.5C373.1 120.6 372.4 119.9 371.5 119.9H368.9V117.3C368.9 116.4 368.2 115.7 367.3 115.7H367.2C366.4 115.6 365.7 116.4 365.7 117.3Z" fill="white"/>
<path d="M237.9 386.9V390.8H234C232.7 390.8 231.6 391.9 231.6 393.2V393.3C231.6 394.6 232.7 395.7 234 395.7H237.9V399.6C237.9 400.9 239 402 240.3 402H240.4C241.7 402 242.8 400.9 242.8 399.6V395.7H246.7C248 395.7 249.1 394.6 249.1 393.3V393.2C249.1 391.9 248 390.8 246.7 390.8H242.8V386.9C242.8 385.6 241.7 384.5 240.4 384.5H240.3C239 384.4 237.9 385.5 237.9 386.9Z" fill="#EFDFED"/>
<path d="M250 50.3C252.596 50.3 254.7 48.1958 254.7 45.6C254.7 43.0043 252.596 40.9 250 40.9C247.404 40.9 245.3 43.0043 245.3 45.6C245.3 48.1958 247.404 50.3 250 50.3Z" fill="white"/>
<path d="M80 143.3C82.5957 143.3 84.7 141.196 84.7 138.6C84.7 136.004 82.5957 133.9 80 133.9C77.4042 133.9 75.3 136.004 75.3 138.6C75.3 141.196 77.4042 143.3 80 143.3Z" fill="#EFDFED"/>
<path d="M166 216.1L165 210.9C164.9 210.5 164.6 210.3 164.2 210.4L160 211.2C159.1 207.4 157.8 203.7 156.1 200.3L159.9 198.1C160.2 197.9 160.3 197.5 160.1 197.2L157.4 192.6C157.2 192.3 156.8 192.2 156.5 192.4L152.8 194.6C150.7 191.4 148.2 188.4 145.4 185.7L148.2 182.3C148.4 182 148.4 181.6 148.1 181.4L144 178C143.7 177.8 143.3 177.8 143.1 178.1L140.3 181.4C137.2 179.1 133.9 177.1 130.3 175.5L131.8 171.4C131.9 171.1 131.7 170.7 131.4 170.6L126.4 168.8C126.1 168.7 125.7 168.9 125.6 169.2L124.2 173.2C120.5 172.1 116.7 171.4 112.8 171.2V166.8C112.8 166.4 112.5 166.1 112.1 166.1H106.8C106.4 166.1 106.1 166.4 106.1 166.8V171.1C102.2 171.3 98.3 172 94.7 173L93.2 168.9C93.1 168.6 92.7 168.4 92.3 168.5L87.3 170.4C87 170.5 86.8 170.9 86.9 171.2L88.4 175.2C84.8 176.7 81.5 178.7 78.4 181L75.5 177.6C75.3 177.3 74.8 177.3 74.6 177.5L70.6 180.9C70.3 181.1 70.3 181.6 70.5 181.8L73.3 185.1C70.5 187.8 67.9 190.7 65.8 193.9L62 191.7C61.7 191.5 61.3 191.6 61.1 192L58.5 196.6C58.3 196.9 58.4 197.3 58.7 197.5L62.5 199.6C60.8 203 59.4 206.7 58.5 210.5L54.1 209.8C53.7 209.7 53.4 210 53.3 210.3L52.4 215.5C52.3 215.9 52.6 216.2 52.9 216.3L57.2 217C57 219.1 56.8 221.3 56.8 223.5C56.8 225.2 56.9 226.9 57.1 228.6L52.8 229.4C52.4 229.5 52.2 229.8 52.3 230.2L53.3 235.4C53.4 235.8 53.7 236 54.1 235.9L58.3 235.1C59.2 238.9 60.5 242.6 62.2 246L58.4 248.2C58.1 248.4 58 248.8 58.2 249.1L60.9 253.7C61.1 254 61.5 254.1 61.8 253.9L65.5 251.7C67.6 254.9 70.1 257.9 72.9 260.6L70.1 264C69.9 264.3 69.9 264.7 70.2 264.9L74.3 268.3C74.6 268.5 75 268.5 75.2 268.2L78 265C81.1 267.3 84.4 269.3 88 270.9L86.5 275.1C86.4 275.4 86.6 275.8 86.9 275.9L91.9 277.7C92.2 277.8 92.6 277.6 92.7 277.3L94.1 273.3C97.7 274.4 101.6 275.1 105.5 275.3V279.7C105.5 280.1 105.8 280.4 106.2 280.4H111.5C111.9 280.4 112.2 280.1 112.2 279.7V275.3C116.1 275.1 120 274.4 123.6 273.4L125.1 277.5C125.2 277.8 125.6 278 125.9 277.9L130.9 276C131.2 275.9 131.4 275.5 131.3 275.2L129.8 271.2C133.4 269.7 136.7 267.7 139.8 265.4L142.7 268.8C142.9 269.1 143.4 269.1 143.6 268.9L147.6 265.5C147.9 265.3 147.9 264.8 147.7 264.6L144.9 261.3C147.7 258.6 150.3 255.7 152.4 252.5L156.2 254.7C156.5 254.9 156.9 254.8 157.1 254.5L159.7 249.9C159.9 249.6 159.8 249.2 159.4 249L155.6 246.9C157.3 243.5 158.7 239.8 159.6 236L164 236.7C164.4 236.8 164.7 236.5 164.8 236.2L165.7 231C165.8 230.6 165.5 230.3 165.2 230.2L160.9 229.5C161.1 227.4 161.3 225.2 161.3 223C161.3 221.3 161.2 219.6 161 217.9L165.3 217.1C165.8 216.8 166 216.5 166 216.1ZM109.3 236.1C102.1 236.2 96.3 230.4 96.2 223.2C96.1 216 101.9 210.2 109.1 210.1C116.3 210.1 122.1 215.8 122.2 223C122.2 230.2 116.4 236.1 109.3 236.1Z" fill="#582768"/>
<path d="M109.1 252.3C95.5 252.3 83.9 243.1 80.7 229.9C78.9 222.3 80.1 214.5 84.2 207.8C88.3 201.2 94.7 196.5 102.3 194.7C104.5 194.2 106.8 193.9 109.1 193.9C122.7 193.9 134.3 203.1 137.5 216.3C139.3 223.9 138.1 231.7 134 238.4C129.9 245 123.5 249.7 115.9 251.5C113.7 252.1 111.4 252.3 109.1 252.3ZM109.2 195.7C107.1 195.7 104.9 196 102.8 196.5C95.7 198.2 89.6 202.6 85.8 208.8C81.9 215.1 80.8 222.4 82.5 229.6C85.5 242 96.5 250.7 109.2 250.7C111.3 250.7 113.5 250.4 115.6 249.9C122.7 248.2 128.8 243.8 132.6 237.6C136.5 231.3 137.6 224 135.9 216.8C132.9 204.3 121.9 195.7 109.2 195.7Z" fill="white"/>
<path d="M109.1 258.9C92.5 258.9 78.2 247.6 74.4 231.5C72.2 222.2 73.7 212.6 78.7 204.5C83.7 196.4 91.6 190.7 100.8 188.5C103.5 187.9 106.3 187.5 109.1 187.5C125.7 187.5 140 198.8 143.8 214.9C148.4 234.1 136.5 253.3 117.3 257.9C114.7 258.5 111.9 258.9 109.1 258.9ZM109.2 190.8C106.7 190.8 104.1 191.1 101.7 191.7C93.3 193.7 86.2 198.9 81.6 206.2C77.1 213.6 75.7 222.2 77.7 230.6C81.2 245.2 94.1 255.5 109.1 255.5C111.6 255.5 114.1 255.2 116.6 254.6C133.9 250.5 144.7 233 140.6 215.6C137.1 201 124.2 190.8 109.2 190.8Z" fill="#7D2360"/>
<path d="M111.2 231.9C106.4 233 101.5 230.1 100.4 225.3C99.3 220.5 102.2 215.6 107 214.5C111.8 213.3 116.7 216.3 117.8 221.1C119 225.9 116.1 230.7 111.2 231.9Z" fill="#5E2667"/>
<path d="M230.2 334.9C230.3 342.9 223.9 349.5 215.9 349.6L129.3 350.9C121.3 351 114.7 344.6 114.6 336.6L111.5 131.4C111.4 123.4 117.8 116.8 125.8 116.7L212.4 115.4C220.4 115.3 227 121.7 227.1 129.7L230.2 334.9Z" fill="#9E2159"/>
<path d="M131.5 348.7C123.5 348.8 116.9 342.4 116.8 334.4L113.8 133.6C113.7 125.6 120.1 119 128.1 118.9L210.3 117.7C218.3 117.6 224.9 124 225 132L228 332.8C228.1 340.8 221.7 347.4 213.7 347.5L131.5 348.7Z" fill="#9E2159"/>
<path d="M155.6 130.6C155.6 131.7 154.8 132.6 153.7 132.6C152.6 132.6 151.7 131.8 151.7 130.7C151.7 129.6 152.6 128.7 153.6 128.7C154.7 128.6 155.5 129.5 155.6 130.6Z" fill="white"/>
<path d="M170.3 123.6C170.3 124.3 169.8 124.9 169.1 124.9C168.4 124.9 167.8 124.4 167.8 123.7C167.8 123 168.3 122.4 169 122.4C169.7 122.3 170.3 122.9 170.3 123.6Z" fill="white"/>
<path d="M176.8 130.1C176.8 130.6 176.4 131 175.9 131L162.5 131.2C162 131.2 161.6 130.8 161.6 130.3C161.6 129.8 162 129.4 162.5 129.4L175.9 129.2C176.4 129.1 176.8 129.6 176.8 130.1Z" fill="white"/>
<path d="M180.4 337.7C180.4 338.6 179.7 339.4 178.7 339.4L166.4 339.6C165.5 339.6 164.7 338.9 164.7 338V334.6C164.7 333.7 165.4 332.9 166.4 332.9L178.7 332.7C179.6 332.7 180.4 333.4 180.4 334.4V337.7Z" fill="white"/>
<path d="M222.8 322L121.3 323.5L118.7 143.4L220.1 141.9L222.8 322Z" fill="url(#paint1_linear)"/>
<path opacity="0.1" d="M119.5 201.3L120.4 259.5L190.1 142.3L154.3 142.9L119.5 201.3Z" fill="#9E2159"/>
<path opacity="0.1" d="M120.9 291.7L209.9 142L196.3 142.2L120.5 269.6L120.9 291.7Z" fill="#9E2159"/>
<path d="M140.4 89.9L115.1 82.2L140.4 74.5V89.9Z" fill="#FDEFF5"/>
<path d="M356.1 76.7C355.2 75.8 354.2 75.2 353.1 74.9C353.4 75.7 353.5 76.5 353.5 77.3C353.5 79.3 352.7 81.2 351.2 82.7C349.7 84.2 347.7 85 345.8 85H341V89.8H350.6C352.6 89.8 354.5 89 356 87.5C357.5 86 358.3 84 358.3 82.1C358.4 80.2 357.6 78.2 356.1 76.7Z" fill="#97215B"/>
<path d="M332.2 74.5H140.4V89.9H332.2V74.5Z" fill="url(#paint2_linear)"/>
<path d="M115.1 82.2L140.4 89.9V85L115.1 82.2Z" fill="#FDEFF5"/>
<path d="M125 85.2L115.1 82.2L125 83.3V85.2Z" fill="#742462"/>
<path d="M341.1 85H332.2V89.8H341.1V85Z" fill="#FDEFF5"/>
<path d="M332.2 85H140.4V89.8H332.2V85Z" fill="url(#paint3_linear)"/>
<path d="M125 85.2L115.1 82.2L125 79.2V85.2Z" fill="#742462"/>
<path d="M341.1 74.5H332.2V89.9H341.1V74.5Z" fill="#FDEFF5"/>
<path d="M350.7 89.9C352.7 89.9 354.6 89.1 356.1 87.6C357.6 86.1 358.4 84.1 358.4 82.2C358.4 80.2 357.6 78.3 356.1 76.8C354.6 75.3 352.6 74.5 350.7 74.5H341.1V89.9C341.1 89.9 350.7 89.9 350.7 89.9Z" fill="#A62257"/>
<path d="M315.2 74.5H281.9V306.8H315.2V74.5Z" fill="url(#paint4_linear)"/>
<path d="M290.7 298.3H281.9V300H290.7V298.3Z" fill="white"/>
<path d="M290.7 283H281.9V284.7H290.7V283Z" fill="white"/>
<path d="M290.7 267.6H281.9V269.3H290.7V267.6Z" fill="white"/>
<path d="M290.7 252.2H281.9V253.9H290.7V252.2Z" fill="white"/>
<path d="M290.7 236.9H281.9V238.6H290.7V236.9Z" fill="white"/>
<path d="M290.7 221.5H281.9V223.2H290.7V221.5Z" fill="white"/>
<path d="M290.7 206.1H281.9V207.8H290.7V206.1Z" fill="white"/>
<path d="M290.7 190.8H281.9V192.5H290.7V190.8Z" fill="white"/>
<path d="M290.7 175.4H281.9V177.1H290.7V175.4Z" fill="white"/>
<path d="M290.7 160H281.9V161.7H290.7V160Z" fill="white"/>
<path d="M290.7 144.7H281.9V146.4H290.7V144.7Z" fill="white"/>
<path d="M286.3 121.6H281.9V123.3H286.3V121.6Z" fill="white"/>
<path d="M286.5 106.2H281.9V107.9H286.5V106.2Z" fill="white"/>
<path d="M286.5 90.9H281.9V92.6H286.5V90.9Z" fill="white"/>
<path d="M286.5 290.7H281.9V292.4H286.5V290.7Z" fill="white"/>
<path d="M286.5 275.3H281.9V277H286.5V275.3Z" fill="white"/>
<path d="M286.5 259.9H281.9V261.6H286.5V259.9Z" fill="white"/>
<path d="M286.5 244.5H281.9V246.2H286.5V244.5Z" fill="white"/>
<path d="M286.5 229.2H281.9V230.9H286.5V229.2Z" fill="white"/>
<path d="M286.5 213.8H281.9V215.5H286.5V213.8Z" fill="white"/>
<path d="M286.5 198.4H281.9V200.1H286.5V198.4Z" fill="white"/>
<path d="M286.5 183.1H281.9V184.8H286.5V183.1Z" fill="white"/>
<path d="M286.5 167.7H281.9V169.4H286.5V167.7Z" fill="white"/>
<path d="M286.5 152.3H281.9V154H286.5V152.3Z" fill="white"/>
<path d="M286.5 137H281.9V138.7H286.5V137Z" fill="white"/>
<path d="M290.7 129.3H281.9V131H290.7V129.3Z" fill="white"/>
<path d="M290.7 113.9H281.9V115.6H290.7V113.9Z" fill="white"/>
<path d="M290.7 98.5H281.9V100.2H290.7V98.5Z" fill="white"/>
<path d="M290.7 83.2H281.9V84.9H290.7V83.2Z" fill="white"/>
<path d="M361.4 174.9H240.4V331.1H361.4V174.9Z" fill="url(#paint5_linear)"/>
<path d="M361.4 160.1H240.4V174.9H361.4V160.1Z" fill="#9E2159"/>
<path d="M262 281.8H184.2V332.8H262V281.8Z" fill="url(#paint6_linear)"/>
<path d="M262 273.1H184.2V281.8H262V273.1Z" fill="#582768"/>
<path d="M229.8 319.5H216.4V321.7H229.8V319.5Z" fill="white"/>
<path d="M247.6 289.7H238.9V298.4H247.6V289.7Z" fill="#A62257"/>
<path d="M244.5 293.2C244.5 294 243.9 294.7 243.2 294.7C242.5 294.7 241.9 294 241.9 293.2C241.9 292.4 242.5 291.7 243.2 291.7C243.9 291.7 244.5 292.4 244.5 293.2Z" fill="white"/>
<path d="M243.9 295.1C243.7 295.2 243.5 295.3 243.2 295.3C243 295.3 242.7 295.2 242.5 295.1C241.6 295.3 240.9 295.8 240.8 296.3H245.6C245.5 295.7 244.8 295.2 243.9 295.1Z" fill="white"/>
<path d="M238.9 289.7H198.6V298.4H238.9V289.7Z" fill="white"/>
<path d="M231 292.9H206.5V295.1H231V292.9Z" fill="#582768"/>
<path d="M247.6 301.4H238.9V310.1H247.6V301.4Z" fill="#A62257"/>
<path d="M244.4 305.4V304.7C244.4 304 243.9 303.5 243.2 303.5C242.5 303.5 242 304 242 304.7V305.4H241.6V308.1H244.9V305.4H244.4ZM244 305.4H242.4V304.7C242.4 304.2 242.8 303.9 243.2 303.9C243.6 303.9 244 304.3 244 304.7V305.4Z" fill="white"/>
<path d="M238.9 301.4H198.6V310.1H238.9V301.4Z" fill="white"/>
<path d="M207.6 304.7C207 304.7 206.5 305.2 206.5 305.8C206.5 306.4 207 306.9 207.6 306.9C208.2 306.9 208.7 306.4 208.7 305.8C208.7 305.2 208.2 304.7 207.6 304.7Z" fill="#582768"/>
<path d="M212 304.7C211.4 304.7 210.9 305.2 210.9 305.8C210.9 306.4 211.4 306.9 212 306.9C212.6 306.9 213.1 306.4 213.1 305.8C213.1 305.2 212.7 304.7 212 304.7Z" fill="#582768"/>
<path d="M216.5 304.7C215.9 304.7 215.4 305.2 215.4 305.8C215.4 306.4 215.9 306.9 216.5 306.9C217.1 306.9 217.6 306.4 217.6 305.8C217.6 305.2 217.1 304.7 216.5 304.7Z" fill="#582768"/>
<path d="M221 304.7C220.4 304.7 219.9 305.2 219.9 305.8C219.9 306.4 220.4 306.9 221 306.9C221.6 306.9 222.1 306.4 222.1 305.8C222.1 305.2 221.6 304.7 221 304.7Z" fill="#582768"/>
<path d="M225.4 304.7C224.8 304.7 224.3 305.2 224.3 305.8C224.3 306.4 224.8 306.9 225.4 306.9C226 306.9 226.5 306.4 226.5 305.8C226.5 305.2 226 304.7 225.4 304.7Z" fill="#582768"/>
<path d="M229.9 304.7C229.3 304.7 228.8 305.2 228.8 305.8C228.8 306.4 229.3 306.9 229.9 306.9C230.5 306.9 231 306.4 231 305.8C231 305.2 230.5 304.7 229.9 304.7Z" fill="#582768"/>
<path d="M125.4 123.2C125.1 123.2 124.8 123.1 124.6 122.8C124.2 122.3 124.3 121.7 124.8 121.3L169.2 86.6C170.1 85.9 171.1 85.5 172.2 85.5C173.3 85.4 174.4 85.7 175.3 86.2L216.9 109.8C217.4 110.1 217.6 110.7 217.3 111.2C217 111.7 216.4 111.9 215.9 111.6L174.3 88C173.7 87.7 173 87.5 172.4 87.6C171.7 87.6 171.1 87.9 170.5 88.3L126 123C125.8 123.2 125.6 123.2 125.4 123.2Z" fill="#95235B"/>
<path d="M205.71 110.784L115.528 122.164L117.982 141.609L208.164 130.229L205.71 110.784Z" fill="#F1939B"/>
<path d="M203.407 114.903L118.78 125.583L120.27 137.389L204.896 126.709L203.407 114.903Z" fill="white"/>
<path d="M148.351 126.747L123.447 129.885L123.76 132.365L148.664 129.228L148.351 126.747Z" fill="#F1939B"/>
<path d="M226.183 108.183L205.746 110.76L208.198 130.205L228.635 127.628L226.183 108.183Z" fill="#F1939B"/>
<path d="M222.5 122.3L220.1 120.5C220 120.5 220 120.4 219.9 120.4C219.8 120.4 219.7 120.5 219.7 120.5L219.6 120.6L218.9 120.1C219.3 119.4 219.6 118.5 219.4 117.6C219.1 115.5 217.2 114 215.1 114.3C213 114.6 211.5 116.5 211.8 118.6C212.1 120.7 214 122.2 216.1 121.9C217 121.8 217.8 121.4 218.4 120.8L219.1 121.3L219 121.4C219 121.5 218.9 121.5 218.9 121.6C218.9 121.7 219 121.8 219 121.8L221.4 123.6C221.6 123.7 221.8 123.8 222 123.8C222.2 123.8 222.4 123.7 222.6 123.5C222.7 123.3 222.8 123.1 222.8 122.9C222.8 122.6 222.7 122.4 222.5 122.3ZM216.1 121.2C214.4 121.4 212.8 120.2 212.5 118.4C212.3 116.7 213.5 115.1 215.3 114.9C217 114.7 218.6 115.9 218.9 117.7C219.1 119.4 217.8 121 216.1 121.2Z" fill="white"/>
<path d="M172.1 91.3C164.9 91.3 159.1 85.5 159.1 78.3C159.1 77.3 159.9 76.4 161 76.4C162 76.4 162.8 77.2 162.8 78.3C162.8 83.4 167 87.6 172.1 87.6C177.2 87.6 181.4 83.4 181.4 78.3C181.4 73.2 177.2 69 172.1 69C171.1 69 170.2 68.2 170.2 67.1V62C170.2 61 171 60.1 172.1 60.1C173.1 60.1 174 60.9 174 62V65.5C180.3 66.4 185.1 71.8 185.1 78.3C185.1 85.5 179.2 91.3 172.1 91.3Z" fill="#F2949C"/>
<path d="M172.1 87.6C171.5 87.7 170.9 87.9 170.4 88.3L167.6 90.5C166.9 90.2 166.2 89.9 165.5 89.5L168.7 87C169.8 87.4 170.9 87.6 172.1 87.6Z" fill="#95235B"/>
<path d="M172.1 63.9C169.3 63.9 167.1 61.6 167.1 58.9C167.1 56.1 169.4 53.9 172.1 53.9C174.9 53.9 177.1 56.2 177.1 58.9C177.1 61.6 174.9 63.9 172.1 63.9ZM172.1 57.5C171.4 57.5 170.8 58.1 170.8 58.8C170.8 59.5 171.4 60.1 172.1 60.1C172.8 60.1 173.4 59.5 173.4 58.8C173.4 58.1 172.8 57.5 172.1 57.5Z" fill="#82245E"/>
<path d="M172.1 59.9C171.5 59.9 171.1 59.7 171.1 59.4V33.4C173.1 33.4 171.1 33.4 173.1 33.4V59.4C173.1 59.6 172.7 59.9 172.1 59.9Z" fill="#F2949C"/>
<path d="M367.3 283.7H291.5V331.1H367.3V283.7Z" fill="url(#paint7_linear)"/>
<path d="M329.5 318.5C323.4 318.5 318.5 313.5 318.5 307.5C318.5 301.4 323.5 296.5 329.5 296.5C335.6 296.5 340.5 301.5 340.5 307.5C340.5 313.5 335.5 318.5 329.5 318.5ZM329.5 297.1C323.8 297.1 319.2 301.7 319.2 307.4C319.2 313.1 323.8 317.7 329.5 317.7C335.2 317.7 339.8 313.1 339.8 307.4C339.8 301.7 335.2 297.1 329.5 297.1Z" fill="#582768"/>
<path d="M327.4 303.9L333.6 307.4L327.4 311V303.9Z" fill="#582768"/>
<path d="M367.3 331.1H291.5V345.3H367.3V331.1Z" fill="#582768"/>
<path d="M223 187.1H208.2V201.9H223H292V187.1H223Z" fill="#F1939B"/>
<path d="M285.9 193.7H229.1V195.2H285.9V193.7Z" fill="white"/>
<path d="M306.8 187.1H292V201.9H306.8V187.1Z" fill="#E0748B"/>
<path d="M213 191.5L218.1 194.5L213 197.4V191.5Z" fill="white"/>
<path d="M218.4 191.2H216.9V197.7H218.4V191.2Z" fill="white"/>
<path d="M215.2 191.2H213.7V197.7H215.2V191.2Z" fill="white"/>
<path d="M299.4 192.8H297V196.2H299.4V192.8Z" fill="white"/>
<path d="M302 198.2L299.3 196.2V192.8L302 190.8V198.2Z" fill="white"/>
<path d="M243.6 197.5C245.257 197.5 246.6 196.157 246.6 194.5C246.6 192.843 245.257 191.5 243.6 191.5C241.943 191.5 240.6 192.843 240.6 194.5C240.6 196.157 241.943 197.5 243.6 197.5Z" fill="#9E2159"/>
<path d="M300.7 242.3H261.1V245.7H300.7V242.3Z" fill="#F6A0A2"/>
<path d="M335.8 231.6H261.1V235H335.8V231.6Z" fill="#F6A0A2"/>
<path d="M335.8 220.7H261.1V224.1H335.8V220.7Z" fill="#F6A0A2"/>
<defs>
<linearGradient id="paint0_linear" x1="221.895" y1="30.4363" x2="201.895" y2="302.436" gradientUnits="userSpaceOnUse">
<stop offset="0.1902" stop-color="#EFDFED"/>
<stop offset="1" stop-color="#FDF0F6"/>
</linearGradient>
<linearGradient id="paint1_linear" x1="99.0519" y1="212.255" x2="242.441" y2="253.172" gradientUnits="userSpaceOnUse">
<stop offset="0.1902" stop-color="#EFDFED"/>
<stop offset="1" stop-color="#FDF0F6"/>
</linearGradient>
<linearGradient id="paint2_linear" x1="140.4" y1="82.2" x2="332.2" y2="82.2" gradientUnits="userSpaceOnUse">
<stop offset="0.090164" stop-color="#A62257"/>
<stop offset="0.4541" stop-color="#86245E"/>
<stop offset="1" stop-color="#582768"/>
</linearGradient>
<linearGradient id="paint3_linear" x1="133.799" y1="87.4" x2="227.743" y2="87.4" gradientUnits="userSpaceOnUse">
<stop offset="0.090164" stop-color="#A62257"/>
<stop offset="0.4541" stop-color="#86245E"/>
<stop offset="1" stop-color="#582768"/>
</linearGradient>
<linearGradient id="paint4_linear" x1="281.9" y1="190.65" x2="315.244" y2="190.65" gradientUnits="userSpaceOnUse">
<stop offset="0.060164" stop-color="#DB6B86"/>
<stop offset="0.085962" stop-color="#DC6D87"/>
<stop offset="1" stop-color="#F7A6A5"/>
</linearGradient>
<linearGradient id="paint5_linear" x1="300.9" y1="286.539" x2="300.9" y2="185.25" gradientUnits="userSpaceOnUse">
<stop offset="0.090164" stop-color="#A62257"/>
<stop offset="0.4541" stop-color="#86245E"/>
<stop offset="1" stop-color="#582768"/>
</linearGradient>
<linearGradient id="paint6_linear" x1="221.405" y1="326.798" x2="226.87" y2="263.949" gradientUnits="userSpaceOnUse">
<stop offset="0.060164" stop-color="#DB6B86"/>
<stop offset="0.085962" stop-color="#DC6D87"/>
<stop offset="1" stop-color="#F7A6A5"/>
</linearGradient>
<linearGradient id="paint7_linear" x1="291.5" y1="307.4" x2="367.3" y2="307.4" gradientUnits="userSpaceOnUse">
<stop offset="0.1902" stop-color="#EFDFED"/>
<stop offset="1" stop-color="#FDF0F6"/>
</linearGradient>
</defs>
</svg>
